<?xml version="1.0" encoding="utf-8" ?>
<svg xmlns="http://www.w3.org/2000/svg" xmlns:xlink="http://www.w3.org/1999/xlink" width="1024" height="1024">
	<path fill="#66003D" d="M0 0L1024 0L1024 587.723L1024 1022.18L1024 1024L0 1024L0 1022.33L0 582.235L0 0Z"/>
	<path fill="white" d="M697.77 327.124C696.806 325.462 695.743 323.688 696.313 321.68C696.677 320.397 697.241 319.536 698.521 319.024C700.412 318.269 702.064 318.956 703.708 319.894C703.914 320.012 704.116 320.137 704.319 320.258C705.22 321.898 706.171 323.834 705.552 325.755C705.22 326.787 704.783 327.255 704.032 327.996C702.746 328.556 701.677 328.865 700.271 328.402C699.398 328.115 698.546 327.612 697.77 327.124Z"/>
	<path fill="white" d="M683.993 330.196L685.301 328.393C686.692 326.488 688.397 323.265 691.045 323.192C693.504 323.124 695.976 325.659 697.77 327.124C697.449 328.725 697.156 330.049 696.017 331.289C695.089 332.3 694.153 332.386 692.871 332.509C691.256 331.891 690.059 330.932 689.316 329.345C689.047 328.769 688.822 328.234 688.51 327.676C687.531 328.756 687.075 329.268 686.76 330.744C687.545 332.077 688.081 332.103 689.468 332.709L689.097 333.3L687.933 333.447C686.27 332.942 685.149 331.429 683.993 330.196Z"/>
	<path fill="#A36584" d="M793.705 326.165C793.93 326.146 794.155 326.125 794.38 326.109C802.096 325.565 807.462 328.271 813.152 333.128L799.573 333.333C792.386 333.27 785.195 333.343 778.008 333.366C782.999 329.338 787.386 327.201 793.705 326.165Z"/>
	<path fill="#DA7AA3" d="M842.473 329.559C849.765 326.287 858.347 324.098 866.16 326.983C875.037 330.261 883.306 338.795 887.126 347.354C887.742 348.733 887.976 349.897 888.076 351.396C885.065 350.888 881.637 346.955 878.937 345.322C865.874 337.416 853.818 333.749 838.674 332.524L842.473 329.559Z"/>
	<path fill="#FEA6D4" d="M562.799 213.554C564.895 215.857 570.692 223.56 573.405 224.161C573.138 225.03 572.901 225.051 573.397 225.902C574.009 226.954 574.787 227.775 575.609 228.659C572.586 233.444 565.463 241.678 559.729 243.305C558.481 243.659 557.113 243.33 555.889 243.022C553.787 242.176 542.378 225.502 538.925 222.053L538.639 221.311C538.79 221.319 538.94 221.329 539.091 221.335C548.303 221.692 555.784 219.867 562.799 213.554Z"/>
	<defs>
		<linearGradient id="gradient_0" gradientUnits="userSpaceOnUse" x1="375.69019" y1="301.30078" x2="408.04691" y2="345.01074">
			<stop offset="0" stop-color="#FCE3E5"/>
			<stop offset="1" stop-color="white"/>
		</linearGradient>
	</defs>
	<path fill="url(#gradient_0)" d="M405.011 254.296L406.192 254.809C405.881 260.638 386.143 288.152 383.176 297.831C380.666 306.018 381.215 319.161 380.596 328.102L416.958 328.019C419.852 328.021 429.157 327.343 430.931 329.119C430.849 329.232 430.784 329.358 430.686 329.458C428.596 331.604 417.489 330.55 414.25 330.524C407.213 330.506 386.983 329.592 381.294 330.687L380.576 332.149C375.174 332.718 369.39 332.385 363.942 332.41L363.914 312.684Q364.916 312.554 365.908 312.357C368.863 311.788 370.994 310.736 373.1 308.564C378.186 303.321 381.307 295.945 384.783 289.603C388.364 283.071 392.192 276.672 395.837 270.175C398.718 265.04 401.428 259.614 404.712 254.733L405.011 254.296Z"/>
	<path fill="#FEA6D4" d="M604.531 319.207C626.747 319.413 649.03 319.698 671.24 319.074C672.183 324.43 674.166 329.656 675.276 335.017C651.641 335.055 628.052 334.677 604.404 334.978L604.531 319.207Z"/>
	<path fill="white" d="M637.991 186.458C639.14 188.8 640.397 191.133 641.393 193.542C638.524 193.516 635.401 193.262 632.569 193.647C632.56 202.234 632.39 210.853 632.572 219.436L632.18 220.532L632.195 220.389L630.906 222.101L630.316 221.267L630.384 221.916C628.145 217.365 630.244 200.706 629.227 194.276C628.788 203.641 629.04 213.114 629.124 222.492C620.648 232.361 614.056 242.365 612.212 255.569C601.917 245.382 591.009 235.786 580.615 225.708C578.435 224.367 576.348 224.769 573.864 224.259L573.405 224.161C570.692 223.56 564.895 215.857 562.799 213.554C569.27 207.218 573.527 201.684 577.556 193.499C578.486 191.21 579.131 188.829 579.827 186.461Q590.542 186.551 601.257 186.423C613.488 186.446 625.764 186.693 637.991 186.458Z"/>
	<path fill="#4C002D" d="M637.991 186.458C639.14 188.8 640.397 191.133 641.393 193.542C638.524 193.516 635.401 193.262 632.569 193.647C632.56 202.234 632.39 210.853 632.572 219.436L632.18 220.532L632.195 220.389L630.906 222.101L630.316 221.267L630.384 221.916C628.145 217.365 630.244 200.706 629.227 194.276C627.414 192.7 583.732 193.49 577.556 193.499C578.486 191.21 579.131 188.829 579.827 186.461Q590.542 186.551 601.257 186.423C613.488 186.446 625.764 186.693 637.991 186.458Z"/>
	<path fill="white" d="M326.221 193.05Q358.296 192.952 390.37 193.219C389.472 204.56 390.085 216.46 390.115 227.853C387.847 229.718 385.44 231.548 383.625 233.876C379.528 239.131 376.787 245.312 373.786 251.226C369.038 260.584 364.481 270.109 359.38 279.275C352.155 272.909 345.605 265.701 338.674 259.011C333.5 254.051 329.203 250.66 326.699 243.639C325.132 227.883 326.871 209.266 326.221 193.05Z"/>
	<path fill="#FEA6D4" d="M637.991 186.458C637.311 178.66 636.055 171.43 641.389 164.803C646.238 158.779 654.154 155.456 661.733 154.774C671.315 153.911 681.354 157.328 688.627 163.57C695.852 169.771 700.073 177.973 703.937 186.505C705.137 188.719 706.257 192.056 707.77 193.955C712.483 202.11 716.56 212.437 714.01 221.905C712.973 225.754 710.969 229.496 707.309 231.394C703.54 233.348 700.639 232.72 696.642 231.904C695.088 228.705 693.099 225.573 690.617 223.008C682.016 214.115 669.227 211.458 657.335 211.424C650.048 211.919 644.618 213.395 638.013 216.579C636.365 217.374 634.279 218.998 632.572 219.436C632.39 210.853 632.56 202.234 632.569 193.647C635.401 193.262 638.524 193.516 641.393 193.542C640.397 191.133 639.14 188.8 637.991 186.458Z"/>
	<path fill="#F78387" d="M641.524 175.872C642.174 175.985 643.052 176.078 643.679 176.332C644.94 176.842 645.42 177.421 646.017 178.6C646.05 179.349 646.074 180.005 645.768 180.712C644.709 183.156 642.683 183.877 640.371 184.791L639.245 184.575L638.968 184.1L641.007 183.959C640.944 181.994 639.705 180.75 639.368 178.851C639.903 177.378 640.389 176.874 641.524 175.872Z"/>
	<path fill="white" d="M642.808 194.172C648.783 201.642 654.579 206.724 663.251 210.851C661.287 211.011 659.275 211.082 657.335 211.424C650.048 211.919 644.618 213.395 638.013 216.579C636.365 217.374 634.279 218.998 632.572 219.436C632.39 210.853 632.56 202.234 632.569 193.647L642.808 194.172Z"/>
	<path fill="white" d="M538.925 222.053C542.378 225.502 553.787 242.176 555.889 243.022C556.835 246.769 555.208 247.665 554.279 251.045C569.862 268.418 585.459 277.286 604.174 290.288Q601.937 310.886 601.653 331.604L558.745 331.477C552.612 331.456 544.724 330.526 538.833 331.83C538.032 319.93 538.771 307.519 538.784 295.555L538.925 222.053Z"/>
	<path fill="white" d="M707.77 193.955Q728.742 193.562 749.718 193.642L749.84 333.565C740.634 332.968 731.068 333.506 721.822 333.508C715.916 299.795 707.927 264.259 696.642 231.904C700.639 232.72 703.54 233.348 707.309 231.394C710.969 229.496 712.973 225.754 714.01 221.905C716.56 212.437 712.483 202.11 707.77 193.955Z"/>
	<path fill="white" d="M473.735 193.394C485.742 194.041 497.964 193.542 509.998 193.587C514.565 203.614 522.583 215.398 533.382 219.376Q534.411 219.75 535.458 220.066L535.38 294.567C535.349 306.83 536.011 319.562 535.114 331.766C529.599 330.513 522.317 331.322 516.586 331.338L481.493 331.463Q481.509 318.785 480.63 306.137Q479.751 293.489 477.982 280.934C476.041 266.371 473.525 255.761 473.536 240.71C473.384 224.945 473.64 209.16 473.735 193.394Z"/>
	<path fill="white" d="M752.991 193.588L818.274 193.541L818.137 288.609C818.061 303.613 818.299 318.693 817.844 333.686C816.106 333.051 814.6 331.714 813.033 330.724C807.656 327.329 802.082 324.829 795.585 324.8C787.87 324.764 781.495 328.176 776.123 333.457C768.433 333.455 760.656 333.169 752.982 333.608L752.991 193.588Z"/>
	<path fill="white" d="M821.483 193.656L887.649 193.587L887.847 345.719C882.417 337.121 876.027 329.232 866.025 325.896C857.719 323.125 849.163 325.016 841.603 328.907C839.626 330.181 837.905 331.421 836.184 333.031Q828.863 333.102 821.547 333.403L821.483 193.656Z"/>
	<path fill="#4C002D" d="M143.18 186.53C144.882 181.802 147.139 174.186 152.175 171.987C154.752 170.862 157.621 170.704 160.005 169.157C161.268 166.124 159.215 164.465 162.836 162.691C164.039 162.71 164.862 162.963 165.985 163.385L166.85 163.171C167.781 161.573 167.987 160.673 169.698 159.89C171.678 160.184 172.396 160.939 173.918 162.199C174.814 162.116 174.364 162.297 175.075 161.493C176.422 159.971 176.546 159.972 178.566 159.858C179.665 160.361 180.423 160.88 181.334 161.674C183.744 161.576 184.319 158.701 187.05 160.777C187.78 161.332 188.458 162.364 189.033 163.09C189.799 163.304 190.249 163.333 191.054 163.34C193.502 163.361 196.606 165.911 198.197 167.626C200.192 169.777 201.475 172.642 201.205 175.615C200.723 180.935 195.97 182.85 195.059 186.317C196.48 186.835 198.183 186.612 199.678 186.588C216.61 186.047 233.715 186.563 250.667 186.527C250.993 181.83 249.935 176.105 251.113 171.632C256.067 169.679 271.465 169.944 276.693 171.062C278.783 173.425 277.647 182.709 277.511 186.084C280.853 187.492 293.299 186.613 297.662 186.613L367.772 186.571L388.773 186.543C391.999 186.537 395.614 186.218 398.799 186.632L399.524 186.607C400.857 186.554 402.176 186.714 403.267 185.842C407.204 177.926 409.856 172.668 418.67 169.542C426.21 166.867 434.873 167.966 441.966 171.466C448.767 174.822 453.554 180.185 457.523 186.53L507.561 186.57C508.269 188.758 508.818 191.021 509.574 193.188C500.997 193.131 481.201 192.037 473.735 193.394C473.64 209.16 473.384 224.945 473.536 240.71C473.378 240.682 473.221 240.645 473.062 240.627C470.452 240.34 466.518 245.775 464.391 247.484C458.082 252.551 445.706 253.338 438.01 252.415C430.804 251.551 424.359 248.965 419.735 243.163C418.467 236.943 418.165 227.147 419.475 220.863C416.796 221.884 412.644 221.617 409.709 221.928C403.966 222.536 399.156 223.942 393.833 226.158Q393.844 221.072 393.588 215.992C393.066 219.52 393.982 223.182 392.446 226.517L391.689 226.727C389.196 223.637 391.092 199.362 390.428 193.667C390.41 193.518 390.389 193.369 390.37 193.219Q358.296 192.952 326.221 193.05C326.871 209.266 325.132 227.883 326.699 243.639C329.203 250.66 333.5 254.051 338.674 259.011C332.017 265.745 324.732 271.768 317.932 278.336C324.495 286.729 337.981 303.57 346.049 308.817C348.938 310.696 351.96 311.858 355.372 312.284Q357.186 312.507 359.008 312.639C359.137 314.751 359.174 316.914 359.435 319.011Q359.367 325.704 359.435 332.396L350.6 332.382C350.298 326.009 350.332 320.322 345.321 315.584C342.851 313.249 339.555 311.329 336.241 310.513C329.373 308.822 320.225 310.029 313.049 310.068C302.129 310.126 291.205 309.986 280.286 310.109C274.234 310.177 268.211 310.266 263.789 315.016C259.586 319.533 258.024 325.889 258.267 331.918C255.653 332.761 221.579 332.07 215.47 332.239Q215.51 322.99 215.405 313.741C214.73 319.874 215 326.301 215.119 332.467C187.374 333.149 160.103 329.906 139.086 352.299C136.249 355.321 131.539 363.051 128.491 364.829L127.833 364.613C129.184 338.093 131.275 311.621 132.493 285.083L133.924 252.667C134.196 246.586 133.785 239.042 135.433 233.194C137.179 226.998 143.829 223.368 144.972 220.516C145.037 220.354 145.057 220.177 145.099 220.008L144.962 219.598C144.037 216.418 144.647 212.452 144.221 209.095C143.615 204.326 141.918 199.712 141.832 194.899L141.49 193.314C138.68 191.377 130.506 192.451 127.028 192.504C126.995 190.485 126.764 188.942 127.939 187.242C131.937 185.148 138.659 186.534 143.18 186.53Z"/>
	<path fill="#19000F" d="M182.766 189.659C184.318 189.731 185.363 189.645 186.6 190.656C186.442 191.982 186.014 192.395 185.25 193.466C183.827 193.293 182.473 193.318 181.378 192.286C181.412 190.872 181.896 190.687 182.766 189.659Z"/>
	<path fill="#66003D" d="M251.127 192.146C251.044 194.706 250.915 197.066 251.49 199.586C252.378 197.697 252.037 194.735 252.044 192.636L252.637 192.526L252.639 208.72L250.553 209.768C250.608 207.38 249.706 205.791 249.504 203.619C249.22 200.575 252.104 196.846 250.079 193.904C249.192 192.615 247.628 192.816 246.229 192.654C247.838 192.357 249.496 192.281 251.127 192.146Z"/>
	<path fill="white" d="M411.438 192.522C413.918 192.554 416.255 192.503 418.277 194.141C419.386 195.04 420.177 196.352 420.169 197.808C420.161 199.182 419.447 200.429 418.523 201.4C416.385 203.648 413.332 203.67 410.448 203.791C410.373 202.337 410.134 200.383 410.678 198.996C411.85 196.004 414.422 199.432 416.459 198.646C416.801 197.789 416.783 197.654 416.669 196.782C415.699 196.427 416.042 196.429 415.118 196.502C414.123 196.58 413.139 196.772 412.136 196.699C411.098 196.624 411.131 196.686 410.416 195.857C410.383 194.542 410.877 193.666 411.438 192.522Z"/>
	<path fill="#19000F" d="M144.962 219.598C145.482 216.509 145.12 212.876 145.31 209.694C159.564 221.089 171.839 213.143 179.401 217.714L178.963 219.547C175.546 220.151 171.625 219.802 168.133 219.821C160.464 219.863 152.764 219.759 145.099 220.008L144.962 219.598Z"/>
	<path fill="#FED1E8" d="M460.887 193.326C464.11 193.224 467.337 193.325 470.561 193.381Q470.719 208.978 470.437 224.574C467.558 219.696 462.607 199.845 460.887 193.326Z"/>
	<path fill="white" d="M262.192 217.691C264.151 216.212 272.51 216.604 275.39 216.322L275.504 217C272.339 219.069 268.937 221.042 266.002 223.424C260.788 227.654 251.299 239.034 249.616 245.533C249.332 246.628 249.261 247.778 249.166 248.902C247.049 247.728 246.034 246.169 244.746 244.204L244.234 243.414C240.67 244.34 233.559 261.607 231.245 265.485C228.672 269.796 225.409 274.011 220.332 275.304C217.064 274.846 214.28 272.889 211.839 270.757C207.445 266.919 188.695 246.594 188.405 241.785C189.177 242.248 189.089 242.05 189.459 242.641C193.675 249.387 209.75 269.146 215.737 272.601C217.389 273.554 219.398 273.979 221.253 273.401C224.031 272.535 226.172 270.158 227.857 267.901C232.728 261.376 234.749 253.088 239.538 246.692C245.973 238.096 257.616 227.524 261.993 218.138C262.062 217.99 262.125 217.84 262.192 217.691Z"/>
	<path fill="white" d="M194.722 193.139C196.98 193.224 199.242 193.34 201.501 193.376C201.408 208.348 201.245 223.217 202.183 238.169C201.021 234.442 199.92 231.052 197.59 227.842C194.829 224.035 190.213 220.709 185.477 220.017C183.572 219.739 181.626 220.092 179.722 219.711C179.468 219.66 179.216 219.602 178.963 219.547L179.401 217.714C182.32 216.713 185.152 217.134 188.116 215.47C198.01 209.917 190.726 197.745 194.722 193.139Z"/>
	<path fill="#A36584" d="M246.229 192.654C247.628 192.816 249.192 192.615 250.079 193.904C252.104 196.846 249.22 200.575 249.504 203.619C249.706 205.791 250.608 207.38 250.553 209.768C250.434 211.959 250.323 214.132 250.356 216.327C253.876 216.754 257.754 216.639 261.178 217.353C260.803 217.668 260.844 217.644 260.364 217.981C250.73 224.731 238.346 215.814 228.512 213.951L227.796 213.819C234.294 207.617 238.395 199.975 244.301 193.312C231.282 193.659 217.397 194.26 204.442 193.261C212.387 191.937 228.304 193.107 237.088 193.1C239.984 193.097 243.446 193.421 246.229 192.654Z"/>
	<path fill="white" d="M403.04 193.11C404.553 201.332 405.736 210.021 413.149 215.141C415.092 216.482 418.546 218.628 419.475 220.863C416.796 221.884 412.644 221.617 409.709 221.928C403.966 222.536 399.156 223.942 393.833 226.158Q393.844 221.072 393.588 215.992C394.118 208.585 393.727 200.878 393.731 193.446C396.857 193.453 399.928 193.456 403.04 193.11Z"/>
	<path fill="white" d="M252.637 192.526C252.616 189.305 251.94 184.494 254.458 181.977C256.787 179.649 260.31 180.033 263.326 180.209C266.974 180.421 270.657 180.473 274.295 180.732C274.696 189.914 274.488 199.15 274.468 208.34C267.589 208.322 259.369 207.505 252.639 208.72L252.637 192.526Z"/>
	<path fill="white" d="M204.442 193.261C217.397 194.26 231.282 193.659 244.301 193.312C238.395 199.975 234.294 207.617 227.796 213.819C223.533 217.139 207.083 234.213 205.057 234.951L204.612 234.719C203.975 229.862 204.334 224.605 204.347 219.697L204.442 193.261Z"/>
	<path fill="#FEA6D4" d="M277.529 215.677C279.422 215.989 284.432 214.334 286.575 213.94C286.208 216.938 286.007 220.288 286.589 223.267L285.981 224.046C285.957 229.897 284.739 236.559 285.908 242.273L285.671 242.687L284.421 242.401C284.336 243.397 284.431 243.246 284.981 243.997C285.846 244.966 286.482 245.618 286.905 246.873L286.46 247.909L284.579 248.586C283.468 250.203 282.15 251.692 281.068 253.309C278.498 256.202 278.132 260.022 274.995 262.615C272.182 260.589 268.257 259.273 265.111 257.665C259.702 254.903 254.431 251.925 249.166 248.902C249.261 247.778 249.332 246.628 249.616 245.533C251.299 239.034 260.788 227.654 266.002 223.424C268.937 221.042 272.339 219.069 275.504 217L275.39 216.322C276.031 216.004 276.836 215.866 277.529 215.677Z"/>
	<path fill="#DA7AA3" d="M269.398 242.667C272.586 235.232 278.003 227.379 282.55 220.651L283.256 220.673C284.432 221.761 285.249 222.614 285.981 224.046C285.957 229.897 284.739 236.559 285.908 242.273L285.671 242.687L284.421 242.401C284.336 243.397 284.431 243.246 284.981 243.997C283.955 245.604 282.802 247.023 281.578 248.482L280.07 247.859C279.223 246.709 278.705 246.241 278.528 244.803C279.726 242.844 282.291 242.825 283.842 241.116L283.711 239.984C282.386 238.294 280.147 236.403 278.021 235.96C276.578 236.361 276.154 236.761 275.183 237.825C274.571 239.257 274.882 240.13 275.258 241.562C275.483 242.418 275.516 241.937 274.983 242.892C273.255 243.266 271.87 243.045 270.129 242.782L269.398 242.667Z"/>
	<path fill="white" d="M277.939 193.407Q300.297 192.889 322.661 193.025C324.078 206.007 322.569 219.76 323.062 232.878Q324.548 235.161 325.985 237.475Q326.059 223.062 325.97 208.649C325.953 203.573 325.554 198.069 326.221 193.05C326.871 209.266 325.132 227.883 326.699 243.639C329.203 250.66 333.5 254.051 338.674 259.011C332.017 265.745 324.732 271.768 317.932 278.336C324.495 286.729 337.981 303.57 346.049 308.817C348.938 310.696 351.96 311.858 355.372 312.284Q357.186 312.507 359.008 312.639C359.137 314.751 359.174 316.914 359.435 319.011Q359.367 325.704 359.435 332.396L350.6 332.382C350.298 326.009 350.332 320.322 345.321 315.584C342.851 313.249 339.555 311.329 336.241 310.513C329.373 308.822 320.225 310.029 313.049 310.068C302.129 310.126 291.205 309.986 280.286 310.109C274.234 310.177 268.211 310.266 263.789 315.016C259.586 319.533 258.024 325.889 258.267 331.918C255.653 332.761 221.579 332.07 215.47 332.239Q215.51 322.99 215.405 313.741L215.522 303.702C212.076 302.707 208.911 301.284 205.854 299.421C190.346 289.974 166.75 263.633 162.405 245.61L163.251 245.879L162.699 245.277C165.623 249.036 167.066 254.565 169.397 258.796C173.329 265.933 178.87 272.588 184.259 278.694C193.43 289.084 205.448 301.721 220.158 302.515C224.729 302.762 229.611 302.242 233.763 300.219C240.822 296.78 267.107 269.691 274.995 262.615C278.132 260.022 278.498 256.202 281.068 253.309C282.15 251.692 283.468 250.203 284.579 248.586L286.46 247.909L286.905 246.873C286.482 245.618 285.846 244.966 284.981 243.997C284.431 243.246 284.336 243.397 284.421 242.401L285.671 242.687L285.908 242.273C284.739 236.559 285.957 229.897 285.981 224.046L286.589 223.267C286.007 220.288 286.208 216.938 286.575 213.94C284.432 214.334 279.422 215.989 277.529 215.677C277.657 213.524 277.591 211.323 277.616 209.164C278.163 203.97 277.935 198.627 277.939 193.407Z"/>
	<path fill="#19000F" d="M286.575 213.94C287.801 213.982 289.032 213.884 290.173 214.357C290.108 218.063 290.299 221.997 289.802 225.66L286.589 223.267C286.007 220.288 286.208 216.938 286.575 213.94Z"/>
	<path fill="#4C002D" d="M288.361 249.564C290.22 251.423 294.239 251.281 296.765 251.276Q300.405 251.25 304.036 251.004C304.453 252.764 304.341 254.455 304.286 256.251L298.751 257.425C295.181 257.613 291.587 257.899 288.015 257.972L287.506 256.563C287.866 254.207 287.823 251.907 288.361 249.564Z"/>
	<path fill="#FEA6D4" d="M325.985 237.475Q326.059 223.062 325.97 208.649C325.953 203.573 325.554 198.069 326.221 193.05C326.871 209.266 325.132 227.883 326.699 243.639C329.203 250.66 333.5 254.051 338.674 259.011C332.017 265.745 324.732 271.768 317.932 278.336C315.496 275.228 313.017 267.533 309.63 265.833C304.767 266.387 299.42 264.985 294.443 265.032C295.378 266.744 296.882 268.617 296.773 270.616C295.02 274.426 291.468 278.171 287.947 280.4C286.175 281.522 283.581 282.827 281.448 282.156C279.437 281.524 280.847 278.95 280.642 277.511C280.553 276.886 279.709 275.547 279.407 274.933C278.398 272.881 278.848 271.046 279.104 268.843C281.975 267.025 284.879 265.93 288.074 264.856L288.015 257.972C291.587 257.899 295.181 257.613 298.751 257.425L304.286 256.251C304.341 254.455 304.453 252.764 304.036 251.004C303.26 249.167 302.59 247.737 303.339 245.792L305.606 245.232C305.862 244.846 305.94 244.781 306.08 244.267C306.669 242.105 306.441 235.254 305.25 233.603C304.632 233.201 304.042 232.783 303.517 232.262C302.053 230.809 302.274 228.848 302.308 226.949C302.544 225.474 302.678 223.537 303.637 222.339C304.596 221.14 306.02 221.082 307.425 220.912C311.277 222.213 315.265 222.982 319.133 224.337C320.394 226.203 321.44 228.158 322.51 230.135C322.419 217.872 321.866 205.255 322.661 193.025C324.078 206.007 322.569 219.76 323.062 232.878Q324.548 235.161 325.985 237.475Z"/>
	<path fill="#19000F" d="M302.308 226.949C303.75 227.907 305.203 228.673 306.056 230.237C306.15 231.845 305.979 232.145 305.25 233.603C304.632 233.201 304.042 232.783 303.517 232.262C302.053 230.809 302.274 228.848 302.308 226.949Z"/>
	<path fill="#4C002D" d="M910.928 388.323C917.797 402.796 916.498 416.109 916.7 431.66C934.489 427.839 949.312 425.768 965.437 436.311C976.567 443.588 984.135 455.543 986.782 468.503C989.625 482.432 986.163 497.083 978.602 508.958C999.131 528.316 1012.38 544.325 1020.47 572.037C1021.99 577.221 1022.64 582.536 1024 587.723L1024 1022.18L861.699 1022.04C859.445 1004.09 845.277 989.137 834.55 975.404C833.031 972.073 829.35 968.794 827.047 965.892C824.361 962.505 821.877 958.932 819.389 955.398C811.451 944.123 804.699 932.24 798.383 919.995C792.82 909.209 788.022 898.407 783.794 887.024C781.007 879.522 775.405 859.053 771.716 853.971C764.869 844.541 751.632 834.982 740.434 831.599C735.704 830.17 730.831 829.772 725.971 829.025C721.277 828.303 716.811 826.282 714.011 822.31C709.637 816.106 709.066 803.069 710.366 795.691C711.792 794.795 713.073 794.976 714.737 794.884C721.293 794.803 766.028 795.808 768.259 794.784C768.631 794.613 768.871 794.24 769.177 793.969C769.039 791.157 769.124 788.296 769.115 785.479C769.046 782.978 769.118 780.641 769.365 778.151C770.15 775.547 769.953 771.436 770.253 768.641Q771.461 757.069 773.211 745.566C768.36 735.047 761.809 724.922 755.792 715.021L727.512 669.253C722.989 662.023 718.169 651.667 712.849 645.426L706.469 645.46C706.673 642.596 706.737 639.722 706.834 636.852C704.894 633.607 702.353 630.556 700.112 627.503Q697.228 623.397 694.889 618.957Q692.551 614.518 690.795 609.817C686.62 598.333 686.199 587.66 691.376 576.491C694.761 572.034 696.848 568.058 701.229 564.337L706.119 560.559C716.385 554.384 725.799 553.174 737.562 553.437C738.495 550.22 739.602 547.035 740.63 543.846C750.882 544.192 761.271 544.174 771.527 543.953C771.334 551.373 770.018 557.683 767.109 564.525C773.919 568.056 780.279 571.734 786.487 576.276C790.557 579.254 794.558 582.954 798.869 585.513C807.314 594 816.103 602.077 823.948 611.148C846.848 637.63 867.976 670.065 898.844 687.972C905.676 694.565 922.987 701.713 932.627 703.911C934.597 704.36 937.092 704.854 938.784 703.515C939.74 702.76 939.841 701.845 939.791 700.741C936.335 698.221 926.986 697.17 922.467 695.697C917.75 694.161 913.429 692.178 909.077 689.809C914.879 676.876 922.743 664.74 930.229 652.729Q942.714 632.941 954.695 612.845C957.506 608.122 963.739 599.525 965.064 594.665C965.411 593.391 965.295 592.837 964.705 591.694L963.524 591.32C961.422 591.99 960.243 593.458 958.965 595.178C954.146 601.661 950.405 609.599 946.188 616.532C933.796 636.904 921.931 657.833 908.952 677.819C910.059 670.391 909.525 662.31 909.542 654.793L909.616 615.016L910.083 478.937C909.81 459.045 910.311 439.14 910.347 419.248Q910.374 409.917 910.254 400.587C910.181 396.828 909.805 392.953 910.166 389.214L910.928 388.323Z"/>
	<path fill="#FEA6D4" d="M706.834 636.852C709 639.604 710.913 642.51 712.849 645.426L706.469 645.46C706.673 642.596 706.737 639.722 706.834 636.852Z"/>
	<path fill="#DA7AA3" d="M910.166 389.214C917.756 400.884 914.639 419.442 915.721 432.707C935.623 429.983 949.587 425.862 967.296 439.456C977.29 447.128 984.384 459.242 985.997 471.741C987.645 484.511 984.248 497.29 977.625 508.205C957.66 492.587 934.609 484.203 910.083 478.937C909.81 459.045 910.311 439.14 910.347 419.248Q910.374 409.917 910.254 400.587C910.181 396.828 909.805 392.953 910.166 389.214Z"/>
	<path fill="#4C002D" d="M116.796 375.481C119.484 373.95 122.162 372.47 124.945 371.118C121.811 377.807 119.176 384.382 117.855 391.694C115.699 403.629 116.465 416.41 116.454 428.504L116.463 478.791Q115.709 579.098 116.551 679.401C111.359 670.28 65.0153 593.827 61.9204 591.359C60.74 591.35 60.0196 591.335 59.1095 592.274C58.387 593.02 58.1889 593.94 58.5122 594.905C59.9912 599.315 69.4477 613.18 72.4137 617.996C87.4682 642.438 103.254 666.495 117.931 691.16C111.131 694.921 104.175 698.073 96.632 700.041C94.1045 700.7 85.6542 701.224 84.113 702.335C83.9524 702.451 83.3758 703.362 83.3309 703.469C82.8683 704.573 83.1302 705.06 83.5529 706.068C85.9614 707.651 89.8141 706.717 92.4937 706.172C104.583 703.717 119.181 696.946 128.094 688.356C149.177 670.831 167.098 650.315 185.126 629.755C196.909 616.318 208.873 602.987 220.412 589.343C234.691 572.472 253.068 559.336 274.929 554.723C276.072 551.199 276.967 547.561 277.963 543.991L280.945 544.183C280.136 547.507 279.412 550.881 278.485 554.172C290.659 553.356 302.929 552.299 313.9 558.765L320.969 563.367C330.43 572.727 334.994 585.1 335.066 598.313C335.14 612.074 330.684 626.615 321.39 636.976C319.081 639.151 316.263 641.356 314.279 643.802C298.575 659.038 283.036 691.376 272.467 710.857C265.491 723.716 257.823 736.789 251.758 750.078C252.743 758.377 253.728 766.646 253.902 775.01C253.987 778.349 253.972 781.712 254.446 785.024C254.521 788.385 254.446 791.844 254.881 795.177Q276.067 795.399 297.253 795.194C305.708 795.154 314.308 795.426 322.744 794.927C319.907 806.383 316.138 822.08 305.231 828.503C298.112 832.695 291.049 830.669 283.647 832.612C275.515 834.746 255.327 848.505 250.612 855.527C249.6 857.033 249.073 858.795 248.581 860.522C246.76 866.91 245.226 873.324 243.103 879.624C234.914 903.927 222.559 926.58 207.915 947.556Q203.251 954.324 198.251 960.849C195.283 964.686 189.466 970.614 187.6 974.795C177.086 990.172 167.073 1004.82 159.647 1021.99L57.5197 1022.08C38.3846 1022.09 19.1147 1021.68 0 1022.33L0 582.235C1.51666 577.025 2.63317 571.758 4.37708 566.602C12.3282 543.094 26.2441 525.57 44.4885 509.362C41.8149 506.659 39.3508 504.005 37.3219 500.774C30.3721 489.706 28.2581 474.805 31.2574 462.146Q31.5524 460.942 31.9067 459.755Q32.261 458.567 32.6737 457.398Q33.0865 456.23 33.5567 455.083Q34.0269 453.936 34.5534 452.814Q35.0798 451.692 35.6613 450.597Q36.2428 449.503 36.8778 448.439Q37.5128 447.374 38.1998 446.343Q38.8868 445.311 39.6242 444.315Q40.3615 443.319 41.1473 442.36Q41.9331 441.402 42.7655 440.483Q43.5978 439.565 44.4747 438.689Q45.3516 437.813 46.2708 436.982Q47.19 436.151 48.1494 435.366Q49.1087 434.581 50.1057 433.845Q51.1028 433.109 52.1351 432.423Q53.1674 431.737 54.2325 431.103C66.177 423.869 79.0863 422.988 92.439 426.211C92.3762 419.704 92.1741 413.145 93.4954 406.736C96.3668 392.807 104.786 381.945 116.475 374.166L116.796 375.481Z"/>
	<path fill="#DA7AA3" d="M116.796 375.481C119.484 373.95 122.162 372.47 124.945 371.118C121.811 377.807 119.176 384.382 117.855 391.694C115.699 403.629 116.465 416.41 116.454 428.504L116.463 478.791C89.918 483.403 66.7971 492.494 45.1963 508.838C42.7021 505.704 40.0823 502.554 37.9458 499.161C31.4366 488.824 29.8468 474.176 32.6544 462.414C35.6232 449.978 43.9845 438.967 54.8405 432.297C67.0105 424.82 79.8975 424.322 93.5077 427.607C93.4901 421.634 93.3401 415.548 94.3204 409.636C96.7612 394.916 104.778 383.984 116.796 375.481Z"/>
	<path fill="#66003D" d="M254.446 785.024Q321.496 785.776 388.548 785.486L769.115 785.479C769.124 788.296 769.039 791.157 769.177 793.969C768.871 794.24 768.631 794.613 768.259 794.784C766.028 795.808 721.293 794.803 714.737 794.884C713.073 794.976 711.792 794.795 710.366 795.691C709.066 803.069 709.637 816.106 714.011 822.31C716.811 826.282 721.277 828.303 725.971 829.025C730.831 829.772 735.704 830.17 740.434 831.599C751.632 834.982 764.869 844.541 771.716 853.971C775.405 859.053 781.007 879.522 783.794 887.024C788.022 898.407 792.82 909.209 798.383 919.995C804.699 932.24 811.451 944.123 819.389 955.398C821.877 958.932 824.361 962.505 827.047 965.892C829.35 968.794 833.031 972.073 834.55 975.404C845.277 989.137 859.445 1004.09 861.699 1022.04L1024 1022.18L1024 1024L0 1024L0 1022.33C19.1147 1021.68 38.3846 1022.09 57.5197 1022.08L159.647 1021.99C167.073 1004.82 177.086 990.172 187.6 974.795C189.466 970.614 195.283 964.686 198.251 960.849Q203.251 954.324 207.915 947.556C222.559 926.58 234.914 903.927 243.103 879.624C245.226 873.324 246.76 866.91 248.581 860.522C249.073 858.795 249.6 857.033 250.612 855.527C255.327 848.505 275.515 834.746 283.647 832.612C291.049 830.669 298.112 832.695 305.231 828.503C316.138 822.08 319.907 806.383 322.744 794.927C314.308 795.426 305.708 795.154 297.253 795.194Q276.067 795.4 254.881 795.177C254.446 791.844 254.521 788.385 254.446 785.024Z"/>
	<path fill="#8E4568" d="M701.159 793.146Q726.83 792.889 752.499 793.341C757.619 793.428 764.257 792.627 769.177 793.969C768.871 794.24 768.631 794.613 768.259 794.784C766.028 795.808 721.293 794.803 714.737 794.884C706.965 794.076 698.905 794.437 691.096 794.397C682.428 794.352 673.811 794.009 665.152 793.687Q683.161 793.779 701.159 793.146Z"/>
	<path fill="white" d="M187.6 974.795L624 974.774C694.136 974.96 764.437 973.335 834.55 975.404C845.277 989.137 859.445 1004.09 861.699 1022.04L1024 1022.18L1024 1024L0 1024L0 1022.33C19.1147 1021.68 38.3846 1022.09 57.5197 1022.08L159.647 1021.99C167.073 1004.82 177.086 990.172 187.6 974.795Z"/>
	<path fill="white" d="M128.094 688.356C126.715 684.594 127.362 631.902 127.352 623.64L127.512 410.241C127.577 390.74 131.804 373.686 146.144 359.602C154.145 351.743 165.959 345.232 177.181 343.82C185.112 342.822 193.653 343.414 201.651 343.431L243.449 343.457L387.809 343.572L833.399 343.445C854.242 343.609 871.82 350.831 886.448 365.902C893.378 373.041 896.922 383.803 898.241 393.506C899.89 405.64 899.245 418.715 899.291 430.956L899.128 500.29C898.905 562.835 899.833 625.437 898.844 687.972C867.976 670.065 846.848 637.63 823.948 611.148C816.103 602.077 807.314 594 798.869 585.513C794.558 582.954 790.557 579.254 786.487 576.276C780.279 571.734 773.919 568.056 767.109 564.525C770.018 557.683 771.334 551.373 771.527 543.953C761.271 544.174 750.882 544.192 740.63 543.846C739.602 547.035 738.495 550.22 737.562 553.437C725.799 553.174 716.385 554.384 706.119 560.559L701.229 564.337C700.26 562.731 699.597 561.074 698.904 559.334C699.407 554.205 699.071 548.64 699.108 543.465Q667.065 542.988 635.018 543.078C623.903 543.092 611.919 544.025 600.933 542.862L600.769 542.354C602.059 539.885 603.445 537.472 604.82 535.051C609.292 526.853 612.891 518.568 615.532 509.606L616.009 509.649C629.724 510.787 640.014 506.9 650.395 498.12C655.093 493.331 658.592 488.414 661.275 482.269C662.346 479.694 663.092 476.855 663.618 474.12C665.734 463.122 662.807 451.695 656.494 442.535C649.741 432.736 639.092 426.448 627.423 424.393C614.521 422.122 603.332 425.773 592.812 433.093Q591.432 431.621 589.999 430.201Q588.565 428.781 587.081 427.415Q585.596 426.048 584.062 424.738Q582.528 423.427 580.946 422.174Q579.365 420.921 577.738 419.727Q576.111 418.534 574.442 417.401Q572.772 416.268 571.062 415.197Q569.352 414.126 567.603 413.12Q565.855 412.113 564.07 411.171Q562.286 410.23 560.468 409.355Q558.65 408.479 556.801 407.672Q554.952 406.865 553.074 406.126Q551.196 405.387 549.293 404.718Q547.389 404.049 545.462 403.451Q543.535 402.853 541.588 402.326Q539.64 401.799 537.674 401.345C509.407 394.718 476.229 398.592 451.354 414.12C447.873 411.856 444.12 409.878 440.367 408.109C424.127 400.453 404.406 396.395 386.551 399.788C381.325 400.781 376.407 402.6 371.421 404.404C372.105 406.363 372.951 408.174 373.862 410.037C366.537 409.851 359.422 409.63 352.14 410.737L356.5 406.85C357.291 404.791 359.79 403.328 361.205 401.544L361.1 401.036C358.954 401.658 357.821 403.555 355.754 404.189C355.494 404.268 355.23 404.333 354.968 404.405C354.835 404.499 354.701 404.592 354.569 404.688C351.882 406.638 349.551 409.631 346.749 411.257C343.133 413.355 337.918 414.126 333.939 415.431C329.79 416.791 325.891 418.704 321.993 420.651L321.998 424.756C321.991 429.707 321.614 434.966 322.209 439.873L321.75 441.688C320.681 447.968 321.357 455.267 321.322 461.714C321.263 472.752 320.489 484.377 321.58 495.335C341.438 486.529 343.918 491.71 363.196 492.899C363.413 492.912 363.629 492.921 363.845 492.932C366.418 495.345 368.609 498.152 371.216 500.524C375.667 504.574 382.153 507.014 387.602 509.416C393.206 510.729 398.449 511.504 404.212 511.516C406.71 520.008 409.796 528.282 413.833 536.175C415.446 538.796 417.044 541.396 418.867 543.878C407.275 544.717 395.308 544.217 383.676 544.248L321.399 544.347C321.422 550.278 322.243 557.597 320.969 563.367L313.9 558.765C302.929 552.299 290.659 553.356 278.485 554.172C279.412 550.881 280.136 547.507 280.945 544.183L277.963 543.991C276.967 547.561 276.072 551.199 274.929 554.723C253.068 559.336 234.691 572.472 220.412 589.343C208.873 602.987 196.909 616.318 185.126 629.755C167.098 650.315 149.177 670.831 128.094 688.356Z"/>
	<path fill="#FEA6D4" d="M779.963 535.612C787.527 531.835 792.4 527.726 796.908 520.537C797.146 525.643 797.124 530.729 797.088 535.839C791.433 535.871 785.586 536.214 779.963 535.612Z"/>
	<path fill="#FEA6D4" d="M280.945 544.183C291.941 544.529 303.007 544.442 314.008 544.335L313.9 558.765C302.929 552.299 290.659 553.356 278.485 554.172C279.412 550.881 280.136 547.507 280.945 544.183Z"/>
	<path fill="#FEA6D4" d="M705.956 543.487C717.486 543.553 729.115 543.338 740.63 543.846C739.602 547.035 738.495 550.22 737.562 553.437C725.799 553.174 716.385 554.384 706.119 560.559C705.847 554.898 705.984 549.158 705.956 543.487Z"/>
	<path fill="#FEA6D4" d="M771.527 543.953C779.955 543.227 788.562 543.544 797.022 543.55C796.956 555.683 795.382 574.397 798.869 585.513C794.558 582.954 790.557 579.254 786.487 576.276C780.279 571.734 773.919 568.056 767.109 564.525C770.018 557.683 771.334 551.373 771.527 543.953Z"/>
	<path fill="#FEA6D4" d="M220.02 543.98C239.326 543.843 258.664 544.372 277.963 543.991C276.967 547.561 276.072 551.199 274.929 554.723C253.068 559.336 234.691 572.472 220.412 589.343C219.699 574.289 220.082 559.057 220.02 543.98Z"/>
	<path fill="#FEA6D4" d="M313.387 457.095C314.818 464.067 313.911 473.411 313.935 480.67L314.022 536.208Q298.582 536.011 283.141 536.067C289.846 509.009 299.518 481.354 313.387 457.095Z"/>
	<path fill="#66003D" d="M172.436 499.056C173.694 499.02 174.999 498.972 176.251 499.122C178.213 499.358 180.062 500.387 181.18 502.027C182.377 503.784 182.365 505.868 182.483 507.919C182.893 515.07 182.628 522.36 182.627 529.524L182.595 568.682C182.586 575.238 183.488 594.931 182.199 600.014C181.44 603.005 179.304 604.455 176.828 606.033C175.734 606.125 174.568 606.104 173.494 605.846C170.414 605.103 168.669 602.847 166.973 600.357C166.359 592.106 166.405 507.605 167.427 504.095C168.168 501.554 170.278 500.295 172.436 499.056Z"/>
	<path fill="#FEA6D4" d="M219.951 462.699C228.491 462.125 237.181 456.972 245.02 453.678C248.401 468.626 252.631 483.461 255.667 498.466C258.186 510.912 259.508 523.579 261.976 536.047L220.024 536.068L219.951 462.699Z"/>
	<path fill="#FEA6D4" d="M321.639 351.916L377.535 352.044C375.018 360.28 372.925 368.741 371.139 377.165C370.303 381.106 369.853 385.278 368.779 389.146C368.426 390.415 367.934 391.501 367.158 392.571C363.786 397.222 358.575 400.077 354.968 404.405C354.835 404.499 354.701 404.592 354.569 404.688C351.882 406.638 349.551 409.631 346.749 411.257C343.133 413.355 337.918 414.126 333.939 415.431C329.79 416.791 325.891 418.704 321.993 420.651L321.639 351.916Z"/>
	<path fill="#66003D" d="M345.162 352.337Q356.083 352.428 367.004 352.37C364.783 356.8 362.416 361.043 359.75 365.221C357.873 367.692 355.902 370.041 353.867 372.383C349.053 367.232 346.344 359.164 345.162 352.337Z"/>
	<path fill="#FEA6D4" d="M313.534 428.01C313.693 432.948 315.051 452.106 313.648 455.729L313.387 457.095C299.518 481.354 289.846 509.009 283.141 536.067L280.192 536.187Q272.424 536.075 264.657 536.26C263.192 522.914 257.943 505.27 260.778 492.351C267.115 463.471 289.586 443.212 313.534 428.01Z"/>
	<path fill="#4C002D" d="M280.192 536.187C284.058 516.325 300.829 467.645 313.017 451.79C313.817 452.61 313.581 454.568 313.648 455.729L313.387 457.095C299.518 481.354 289.846 509.009 283.141 536.067L280.192 536.187Z"/>
	<path fill="#FEA6D4" d="M321.58 495.335C341.438 486.529 343.918 491.71 363.196 492.899C363.413 492.912 363.629 492.921 363.845 492.932C366.418 495.345 368.609 498.152 371.216 500.524C375.667 504.574 382.153 507.014 387.602 509.416C393.206 510.729 398.449 511.504 404.212 511.516C406.71 520.008 409.796 528.282 413.833 536.175Q367.62 536.389 321.408 536.033C321.566 522.731 320.995 509.338 321.586 496.058L321.58 495.335Z"/>
	<path fill="#66003D" d="M321.58 495.335C341.438 486.529 343.918 491.71 363.196 492.899C363.413 492.912 363.629 492.921 363.845 492.932C366.418 495.345 368.609 498.152 371.216 500.524C375.667 504.574 382.153 507.014 387.602 509.416C381.471 511.439 374.956 512.314 368.882 514.563C358.697 518.333 350.89 527.34 339.162 525.965C331.353 525.05 326.48 520.234 321.899 514.361C321.834 508.277 322.145 502.119 321.586 496.058L321.58 495.335Z"/>
	<path fill="#4C002D" d="M846.358 513.187C856.033 512.448 864.444 514.755 872.426 520.402C880.823 526.342 886.209 534.804 887.892 544.966C889.594 555.249 887.379 565.647 881.208 574.102C874.79 582.897 865.741 587.753 855.126 589.476C845.101 590.563 835.718 588.855 827.506 582.743C819.142 576.518 813.172 566.283 811.796 555.956C810.456 545.905 813.59 535.221 819.848 527.284C826.516 518.826 835.84 514.452 846.358 513.187Z"/>
	<path fill="white" d="M844.241 516.596C852.254 515.854 859.674 516.544 866.816 520.437C875.002 524.897 881.424 532.638 883.924 541.648Q884.172 542.522 884.376 543.407Q884.579 544.292 884.739 545.186Q884.898 546.08 885.013 546.98Q885.128 547.881 885.197 548.787Q885.267 549.692 885.292 550.6Q885.316 551.508 885.295 552.416Q885.274 553.323 885.208 554.229Q885.142 555.135 885.031 556.036Q884.92 556.937 884.764 557.832Q884.609 558.727 884.408 559.612Q884.208 560.498 883.964 561.373Q883.72 562.248 883.432 563.109Q883.145 563.97 882.815 564.816Q882.485 565.662 882.113 566.491Q881.742 567.32 881.329 568.129Q880.916 568.938 880.464 569.725C875.157 578.79 866.604 583.554 856.701 586.145C847.234 587.251 838.854 586.449 830.656 581.207Q829.921 580.731 829.209 580.22Q828.498 579.708 827.813 579.162Q827.128 578.616 826.471 578.037Q825.814 577.458 825.186 576.847Q824.559 576.236 823.962 575.595Q823.365 574.953 822.801 574.283Q822.236 573.614 821.705 572.917Q821.175 572.22 820.679 571.497Q820.184 570.775 819.724 570.029Q819.265 569.283 818.843 568.516Q818.421 567.748 818.038 566.96Q817.654 566.173 817.31 565.367Q816.966 564.562 816.662 563.74Q816.358 562.919 816.095 562.083Q815.832 561.248 815.611 560.4Q815.389 559.552 815.21 558.695Q815.029 557.846 814.89 556.988Q814.751 556.131 814.654 555.268Q814.557 554.405 814.503 553.538Q814.449 552.672 814.438 551.803Q814.426 550.935 814.458 550.067Q814.489 549.199 814.563 548.334Q814.637 547.469 814.754 546.608Q814.871 545.747 815.03 544.894Q815.188 544.04 815.389 543.195Q815.59 542.35 815.832 541.516Q816.074 540.682 816.357 539.861Q816.64 539.04 816.963 538.234Q817.286 537.427 817.648 536.638Q818.011 535.849 818.411 535.078Q818.812 534.308 819.25 533.558Q819.688 532.808 820.163 532.081C825.976 523.118 833.99 518.767 844.241 516.596Z"/>
	<path fill="#4C002D" d="M758.84 474.878C757.875 468.125 755.171 459.289 756.364 452.623C757.257 451.951 757.675 451.844 758.788 451.808C762.308 455.209 762.636 473.123 764.244 478.895C765.299 487.243 765.861 495.424 765.872 503.841C773.863 499.488 782.703 495.583 792.002 498.138C793.636 498.587 795.312 499.202 796.799 500.017Q797.055 510.276 796.908 520.537C792.4 527.726 787.527 531.835 779.963 535.612C772.086 537.152 754.186 536.006 745.42 535.924L705.989 536.062L705.978 497.317C705.979 489.767 705.67 482.058 706.28 474.535C705.321 470.467 705.409 467.51 706.256 463.497C710.759 458.538 716.259 455.889 723.013 455.577C734.012 455.069 744.074 460.031 751.94 467.428C754.396 469.738 756.619 472.343 758.84 474.878Z"/>
	<path fill="#FEA6D4" d="M706.28 474.535C711.303 481.701 718.042 486.352 726.715 487.904C735.616 489.496 745.516 487.66 752.921 482.351C755.124 480.772 757.09 478.846 759.051 476.979C761.023 487.03 761.519 496.911 761.49 507.118C753.864 515.045 747.484 524.945 745.42 535.924L705.989 536.062L705.978 497.317C705.979 489.767 705.67 482.058 706.28 474.535Z"/>
	<path fill="#FEA6D4" d="M246.761 351.883C254.931 352.451 263.34 352.035 271.54 351.996L313.161 351.941L313.027 399.937C313.006 408 312.119 417.229 313.526 425.117L313.534 428.01C289.586 443.212 267.115 463.471 260.778 492.351C257.943 505.27 263.192 522.914 264.657 536.26L261.976 536.047C259.508 523.579 258.186 510.912 255.667 498.466C252.631 483.461 248.401 468.626 245.02 453.678C237.181 456.972 228.491 462.125 219.951 462.699L219.946 424.945C219.586 416.731 220.171 408.283 220.41 400.058L220.415 396.282C220.553 388.091 220.02 379.608 220.799 371.466C220.224 367.369 219.402 362.597 220.7 358.596C221.433 356.336 222.918 354.479 225.11 353.498C230.25 351.198 238.01 353.508 243.066 355.333C243.249 354.391 243.343 353.348 243.967 352.583C244.429 352.016 246.033 352 246.761 351.883Z"/>
	<path fill="#4C002D" d="M246.761 351.883C248.188 352.398 248.575 352.37 249.447 353.663L249.592 357.156L243.066 355.333C243.249 354.391 243.343 353.348 243.967 352.583C244.429 352.016 246.033 352 246.761 351.883Z"/>
	<path fill="#4C002D" d="M220.799 371.466C225.878 379.965 231.473 384.319 241.088 386.704Q241.642 386.841 242.2 386.961C243.09 390.602 244.099 393.541 246.389 396.59L249.551 397.564C249.306 412.024 245.664 426.558 246.053 440.937C246.439 455.243 254.195 477.206 257.458 491.886C267.357 458.879 284.413 442.148 313.526 425.117L313.534 428.01C289.586 443.212 267.115 463.471 260.778 492.351C257.943 505.27 263.192 522.914 264.657 536.26L261.976 536.047C259.508 523.579 258.186 510.912 255.667 498.466C252.631 483.461 248.401 468.626 245.02 453.678C237.181 456.972 228.491 462.125 219.951 462.699L219.946 424.945C219.586 416.731 220.171 408.283 220.41 400.058L220.415 396.282C220.553 388.091 220.02 379.608 220.799 371.466Z"/>
	<path fill="#FEA6D4" d="M220.41 400.058C224.402 403.337 228.485 406.588 232.194 410.187C236.282 414.153 240.029 418.482 244.14 422.414C243.238 429.76 242.214 437.531 243.142 444.909C234.979 436.49 231.362 429.605 219.946 424.945C219.586 416.731 220.171 408.283 220.41 400.058Z"/>
	<path fill="#FEA6D4" d="M220.799 371.466C225.878 379.965 231.473 384.319 241.088 386.704Q241.642 386.841 242.2 386.961C243.09 390.602 244.099 393.541 246.389 396.59C246.156 404.063 245.366 411.567 244.776 419.022C236.884 411.025 229.047 403.476 220.415 396.282C220.553 388.091 220.02 379.608 220.799 371.466Z"/>
	<path fill="#66003D" d="M219.946 424.945C231.362 429.605 234.979 436.49 243.142 444.909C244.284 447.679 244.586 450.727 245.02 453.678C237.181 456.972 228.491 462.125 219.951 462.699L219.946 424.945Z"/>
	<path fill="#66003D" d="M220.799 371.466C220.224 367.369 219.402 362.597 220.7 358.596C221.433 356.336 222.918 354.479 225.11 353.498C230.25 351.198 238.01 353.508 243.066 355.333L249.592 357.156C249.728 357.268 249.856 357.391 249.999 357.493C254.276 360.535 260.332 361.414 264.792 364.607C271.238 369.222 272.992 375.663 277.79 381.369C280.035 384.04 283.073 385.889 285.908 387.859C294.265 393.666 298.651 400.779 300.754 410.683C301.755 415.396 302.448 420.397 302.682 425.205C289.489 421.884 279.229 421.485 269.648 410.597C266.559 407.087 264.001 402.968 260.601 399.751L249.551 397.564L246.389 396.59C244.099 393.541 243.09 390.602 242.2 386.961Q241.642 386.841 241.088 386.704C231.473 384.319 225.878 379.965 220.799 371.466Z"/>
	<path fill="#FEA6D4" d="M739.654 352.422C746.731 351.74 754.008 352.019 761.115 352.007L797.494 351.958C797.332 360.044 797.062 368.143 797.077 376.23C797.082 379.265 798.17 392.264 797.176 393.886C796.91 406.059 796.737 418.409 797.451 430.564C796.458 437.766 797.606 445.268 797.443 452.525C797.462 462.924 798.473 475.626 796.993 485.782L796.799 500.017C795.312 499.202 793.636 498.587 792.002 498.138C782.703 495.583 773.863 499.488 765.872 503.841C765.861 495.424 765.299 487.243 764.244 478.895C762.636 473.123 762.308 455.209 758.788 451.808C757.675 451.844 757.257 451.951 756.364 452.623C755.171 459.289 757.875 468.125 758.84 474.878C756.619 472.343 754.396 469.738 751.94 467.428C744.074 460.031 734.012 455.069 723.013 455.577C716.259 455.889 710.759 458.538 706.256 463.497C705.084 452.748 705.898 437.441 705.907 426.232L705.982 352.406C713.613 352.417 721.274 352.291 728.899 352.588C732.587 351.813 735.931 351.913 739.654 352.422Z"/>
	<path fill="#4C002D" d="M768.321 476.834C769.342 474.621 770.438 472.392 771.73 470.322C777.523 461.036 786.807 454.844 797.443 452.525C797.462 462.924 798.473 475.626 796.993 485.782C796.704 485.9 796.417 486.025 796.125 486.137C786.707 489.765 775.093 486.256 766.488 482.192L768.321 476.834Z"/>
	<path fill="#4C002D" d="M739.654 352.422C746.731 351.74 754.008 352.019 761.115 352.007L797.494 351.958C797.332 360.044 797.062 368.143 797.077 376.23C797.082 379.265 798.17 392.264 797.176 393.886C796.91 406.059 796.737 418.409 797.451 430.564L797.151 430.733C795.08 430.648 791.23 427.499 789.219 426.363C788.618 427.475 788.012 428.631 787.294 429.674C782.582 436.52 774.2 441.712 766.068 443.25C759.495 444.494 750.018 444.552 744.414 440.505C742.242 438.937 740.84 436.678 740.476 434.016C739.991 430.478 741.301 427.007 743.396 424.199C747.787 418.315 755.158 414.858 762.295 413.808C773.505 412.158 780.362 416.257 788.913 422.661C785.271 418.602 782.056 414.115 778.743 409.786C775.495 408.902 772.432 407.846 769.409 406.35C761.559 402.463 756.485 397.195 753.695 388.759C744.994 381.606 733.317 380.632 725.981 371.504C723.838 368.838 721.984 365.482 722.442 361.948C722.949 358.036 725.945 354.903 728.899 352.588C732.587 351.813 735.931 351.913 739.654 352.422Z"/>
	<path fill="#FEA6D4" d="M739.654 352.422C746.731 351.74 754.008 352.019 761.115 352.007L797.494 351.958C797.332 360.044 797.062 368.143 797.077 376.23C797.082 379.265 798.17 392.264 797.176 393.886L797.272 387.59C794.35 389.205 791.891 390.995 789.834 393.663C785.4 399.412 785.16 406.484 785.999 413.369Q782.619 408.635 779.288 403.866C780.9 397.084 782.431 389.733 780.924 382.784C779.887 378 777.428 373.627 773.187 371.007C770.719 369.483 767.714 368.361 764.815 369.219C759.413 370.819 757.674 375.491 755.268 379.948C754.653 381.09 754.432 381.866 753.146 382.289C752.663 381.851 752.136 381.573 751.973 380.91C751.075 377.261 753.186 372.391 751.505 366.558C749.627 360.04 745.459 355.64 739.654 352.422Z"/>
	<path fill="#FEA6D4" d="M468.718 351.958L630.566 352.118C653.376 352.048 676.268 352.469 699.068 351.997L699.738 536.064L635.342 535.77C626.532 535.724 612.88 536.673 604.82 535.051C609.292 526.853 612.891 518.568 615.532 509.606L616.009 509.649C629.724 510.787 640.014 506.9 650.395 498.12C655.093 493.331 658.592 488.414 661.275 482.269C662.346 479.694 663.092 476.855 663.618 474.12C665.734 463.122 662.807 451.695 656.494 442.535C649.741 432.736 639.092 426.448 627.423 424.393C614.521 422.122 603.332 425.773 592.812 433.093Q591.432 431.621 589.999 430.201Q588.565 428.781 587.081 427.415Q585.596 426.048 584.062 424.738Q582.528 423.427 580.946 422.174Q579.365 420.921 577.738 419.727Q576.111 418.534 574.442 417.401Q572.772 416.268 571.062 415.197Q569.352 414.126 567.603 413.12Q565.855 412.113 564.07 411.171Q562.286 410.23 560.468 409.355Q558.65 408.479 556.801 407.672Q554.952 406.865 553.074 406.126Q551.196 405.387 549.293 404.718Q547.389 404.049 545.462 403.451Q543.535 402.853 541.588 402.326Q539.64 401.799 537.674 401.345C509.407 394.718 476.229 398.592 451.354 414.12C447.873 411.856 444.12 409.878 440.367 408.109C424.127 400.453 404.406 396.395 386.551 399.788C381.325 400.781 376.407 402.6 371.421 404.404C372.105 406.363 372.951 408.174 373.862 410.037C366.537 409.851 359.422 409.63 352.14 410.737L356.5 406.85C357.291 404.791 359.79 403.328 361.205 401.544L361.1 401.036C358.954 401.658 357.821 403.555 355.754 404.189C355.494 404.268 355.23 404.333 354.968 404.405C358.575 400.077 363.786 397.222 367.158 392.571C367.934 391.501 368.426 390.415 368.779 389.146C369.853 385.278 370.303 381.106 371.139 377.165C372.925 368.741 375.018 360.28 377.535 352.044L394.341 352.097C400.441 352.07 407.441 351.364 413.435 352.408C419.865 351.463 426.917 351.959 433.429 351.955L468.718 351.958Z"/>
	<path fill="#8E4568" d="M680.584 420.564Q681.487 420.504 682.391 420.454C685.467 420.284 690.329 419.674 692.734 421.823C693.137 423.051 693.231 423.693 692.767 424.938C690.688 430.524 684.636 435.943 679.32 438.151C676.549 438.607 673.978 438.574 671.184 438.482C669.335 437.346 667.58 436.339 666.863 434.152C666.232 432.23 666.775 430.134 667.783 428.46C670.62 423.749 675.509 421.781 680.584 420.564Z"/>
	<path fill="white" d="M638.358 389.678C649.104 387.919 663.93 390.292 673.316 395.921C676.165 397.629 678.886 399.632 679.738 402.973C679.511 404.151 679.472 404.705 678.63 405.619C674.008 410.635 659.714 409.935 653.225 409.963C642.361 410.008 622.57 411.606 612.945 407.113C611.151 406.275 610.307 405.471 609.651 403.603C609.797 402.713 609.957 402.117 610.448 401.338C615.303 393.627 630.247 390.863 638.358 389.678Z"/>
	<path fill="#DA7AA3" d="M661.275 482.269C667.616 481.306 673.413 480.955 678.962 484.84C684.127 488.457 686.52 494.44 687.446 500.474C688.632 508.2 687.915 516.956 683.261 523.471C680.462 527.39 676.455 530.089 671.66 530.822C667.02 531.531 662.469 530.406 658.785 527.478C654.244 523.869 651.068 518.753 650.594 512.925C650.242 508.603 651.968 501.969 650.395 498.12C655.093 493.331 658.592 488.414 661.275 482.269Z"/>
	<path fill="#66003D" d="M394.341 352.097C400.441 352.07 407.441 351.364 413.435 352.408C419.865 351.463 426.917 351.959 433.429 351.955L468.718 351.958C455.409 360.383 440.814 366.964 426.52 373.533L389.142 390.667C378.095 395.669 366.355 399.721 356.5 406.85C357.291 404.791 359.79 403.328 361.205 401.544L361.1 401.036C358.954 401.658 357.821 403.555 355.754 404.189C355.494 404.268 355.23 404.333 354.968 404.405C358.575 400.077 363.786 397.222 367.158 392.571C367.934 391.501 368.426 390.415 368.779 389.146C369.853 385.278 370.303 381.106 371.139 377.165C372.925 368.741 375.018 360.28 377.535 352.044L394.341 352.097Z"/>
	<path fill="#FEA6D4" d="M394.341 352.097C400.441 352.07 407.441 351.364 413.435 352.408Q409.275 354.762 405.277 357.382Q401.279 360.003 397.46 362.878Q393.642 365.754 390.019 368.873Q386.396 371.992 382.985 375.34C379.765 378.527 376.952 382.084 373.694 385.229L373.281 385.622C377.626 377.797 392.57 359.049 394.341 352.097Z"/>
	<path fill="#4C002D" d="M451.354 414.12C476.229 398.592 509.407 394.718 537.674 401.345Q539.64 401.799 541.587 402.326Q543.535 402.853 545.462 403.451Q547.389 404.049 549.293 404.718Q551.196 405.387 553.074 406.126Q554.952 406.865 556.801 407.672Q558.65 408.479 560.468 409.355Q562.286 410.23 564.07 411.171Q565.855 412.113 567.603 413.12Q569.352 414.126 571.062 415.197Q572.772 416.268 574.442 417.401Q576.111 418.534 577.738 419.727Q579.365 420.921 580.946 422.174Q582.528 423.427 584.062 424.738Q585.596 426.048 587.081 427.415Q588.565 428.781 589.999 430.201Q591.432 431.621 592.812 433.093C603.332 425.773 614.521 422.122 627.423 424.393C639.092 426.448 649.741 432.736 656.494 442.535C662.807 451.695 665.734 463.122 663.618 474.12C663.092 476.855 662.346 479.694 661.275 482.269C658.592 488.414 655.093 493.331 650.395 498.12C640.014 506.9 629.724 510.787 616.009 509.649L615.532 509.606C612.891 518.568 609.292 526.853 604.82 535.051C603.445 537.472 602.059 539.885 600.769 542.354L600.933 542.862C611.919 544.025 623.903 543.092 635.018 543.078Q667.065 542.988 699.108 543.465C699.071 548.64 699.407 554.205 698.904 559.334C699.597 561.074 700.26 562.731 701.229 564.337C696.848 568.058 694.761 572.034 691.376 576.491C686.199 587.66 686.62 598.333 690.795 609.817Q692.551 614.518 694.889 618.957Q697.228 623.397 700.112 627.503C702.353 630.556 704.894 633.607 706.834 636.852C706.737 639.722 706.673 642.596 706.469 645.46L712.849 645.426C718.169 651.667 722.989 662.023 727.512 669.253L755.792 715.021C761.809 724.922 768.36 735.047 773.211 745.566Q771.461 757.069 770.253 768.641C769.953 771.436 770.15 775.547 769.365 778.151C769.118 780.641 769.046 782.978 769.115 785.479L388.548 785.486Q321.496 785.776 254.446 785.024C253.972 781.712 253.987 778.349 253.902 775.01C253.728 766.646 252.743 758.377 251.758 750.078C257.823 736.789 265.491 723.716 272.467 710.857C283.036 691.376 298.575 659.038 314.279 643.802C316.263 641.356 319.081 639.151 321.39 636.976C330.684 626.615 335.14 612.074 335.066 598.313C334.994 585.1 330.43 572.727 320.969 563.367C322.243 557.597 321.422 550.278 321.399 544.347L383.676 544.248C395.308 544.217 407.275 544.717 418.867 543.878C417.044 541.396 415.446 538.796 413.833 536.175C409.796 528.282 406.71 520.008 404.212 511.516C398.449 511.504 393.206 510.729 387.602 509.416C382.153 507.014 375.667 504.574 371.216 500.524C368.609 498.152 366.418 495.345 363.845 492.932C363.629 492.921 363.413 492.912 363.196 492.899C343.918 491.71 341.438 486.529 321.58 495.335C320.489 484.377 321.263 472.752 321.322 461.714C321.357 455.267 320.681 447.968 321.75 441.688L322.209 439.873C321.614 434.966 321.991 429.707 321.998 424.756L321.993 420.651C325.891 418.704 329.79 416.791 333.939 415.431C337.918 414.126 343.133 413.355 346.749 411.257C349.551 409.631 351.882 406.638 354.569 404.688C354.701 404.592 354.835 404.499 354.968 404.405C355.23 404.333 355.494 404.268 355.754 404.189C357.821 403.555 358.954 401.658 361.1 401.036L361.205 401.544C359.79 403.328 357.291 404.791 356.5 406.85L352.14 410.737C359.422 409.63 366.537 409.851 373.862 410.037C372.951 408.174 372.105 406.363 371.421 404.404C376.407 402.6 381.325 400.781 386.551 399.788C404.406 396.395 424.127 400.453 440.367 408.109C444.12 409.878 447.873 411.856 451.354 414.12Z"/>
	<path fill="#A36584" d="M600.769 542.354L600.933 542.862L602.579 543.771C603.521 547.338 601.573 552.797 600.121 556.078C598.126 554.647 595.764 553.549 593.611 552.362C596.191 549.195 598.451 545.719 600.769 542.354Z"/>
	<path fill="#FEA6D4" d="M321.998 424.756C327.963 420.887 334.057 418.287 340.868 416.283C333.974 423.344 326.662 430.969 322.209 439.873C321.614 434.966 321.991 429.707 321.998 424.756Z"/>
	<path fill="#8E4568" d="M391.494 693.144C391.199 692.874 391.01 692.357 390.823 692.001L391.368 690.677C409.559 698.661 429.269 701.908 449.1 701.134C456.378 700.85 463.952 699.782 471.202 700.001L470.925 701.598C443.637 704.47 417.132 703.981 391.494 693.144Z"/>
	<path fill="#8E4568" d="M597.779 589.985C594.467 586.702 591.134 583.88 587.214 581.339C584.781 579.763 579.344 577.536 577.949 575.276C578.484 574.956 578.847 574.592 579.502 574.618C584.245 574.805 595.097 584.228 598.656 587.625C610.35 598.486 622.371 620.942 622.979 637.004Q623.031 638.509 623.001 640.014C620.543 635.265 619.34 629.812 617.788 624.712C613.721 611.345 607.637 599.973 597.779 589.985Z"/>
	<path fill="#8E4568" d="M472.78 650.571C472.489 650.632 472.2 650.706 471.907 650.756C458.829 652.981 435.747 652.745 424.564 644.866C419.196 641.084 415.626 635.811 414.607 629.275C411.876 611.759 423.367 590.577 433.508 576.94C434.809 575.192 436.525 572.525 438.751 572.199C438.925 573.018 438.959 572.63 438.556 573.519C437.312 576.261 434.64 579.008 433.004 581.668C425.026 594.635 417.35 607.487 416.15 623.06C415.682 629.132 417.079 634.968 421.229 639.565C433.342 652.982 454.576 648.855 470.558 649.378L472.78 650.571Z"/>
	<path fill="#FEA6D4" d="M347.089 414.85C356.672 413.129 365.803 412.879 375.493 413.062C378.531 417.97 381.697 422.631 385.323 427.134C379.277 429.259 374.06 432.975 369.06 436.894C357.082 431.056 343.234 431.964 330.386 433.228C335.579 426.873 340.913 420.275 347.089 414.85Z"/>
	<path fill="#66003D" d="M371.421 404.404C376.407 402.6 381.325 400.781 386.551 399.788C404.406 396.395 424.127 400.453 440.367 408.109C444.12 409.878 447.873 411.856 451.354 414.12C445.604 417.459 440.783 421.467 435.882 425.917C432.167 428.899 428.752 432.297 425.277 435.553C418.276 429.716 411.084 426.91 402.306 424.705C396.415 424.908 391.049 425.773 385.323 427.134C381.697 422.631 378.531 417.97 375.493 413.062L373.862 410.037C372.951 408.174 372.105 406.363 371.421 404.404Z"/>
	<path fill="#FEA6D4" d="M395.839 415.908C408.623 420.079 422.477 424.377 435.882 425.917C432.167 428.899 428.752 432.297 425.277 435.553C418.276 429.716 411.084 426.91 402.306 424.705C399.901 421.91 397.866 418.985 395.839 415.908Z"/>
	<path fill="#FED1E8" d="M395.042 437.62C404.317 436.621 410.889 440.004 418.475 444.785C406.756 462.061 402.128 476.966 402.057 497.757C398.49 497.635 395.039 497.428 391.512 496.868C388.363 496.334 385.552 495.148 382.833 493.496Q382.17 493.088 381.529 492.648Q380.887 492.207 380.269 491.734Q379.65 491.261 379.057 490.758Q378.463 490.255 377.896 489.722Q377.328 489.189 376.789 488.628Q376.249 488.068 375.739 487.48Q375.228 486.893 374.748 486.28Q374.268 485.668 373.819 485.032Q373.37 484.396 372.955 483.738Q372.539 483.08 372.157 482.402Q371.775 481.724 371.428 481.027Q371.081 480.331 370.769 479.617Q370.458 478.904 370.183 478.176Q369.908 477.448 369.67 476.707Q369.432 475.966 369.232 475.214Q369.033 474.461 368.871 473.7Q368.713 472.987 368.591 472.267Q368.469 471.547 368.383 470.821Q368.297 470.096 368.247 469.367Q368.197 468.639 368.183 467.908Q368.169 467.178 368.192 466.448Q368.214 465.718 368.273 464.99Q368.331 464.262 368.426 463.538Q368.521 462.813 368.651 462.095Q368.781 461.376 368.947 460.665Q369.113 459.953 369.314 459.251Q369.515 458.549 369.751 457.858Q369.987 457.166 370.256 456.487Q370.526 455.809 370.829 455.144Q371.132 454.479 371.468 453.831Q371.803 453.182 372.17 452.551Q372.538 451.919 372.936 451.307C378.188 443.268 385.897 439.524 395.042 437.62Z"/>
	<path fill="#FED1E8" d="M617.223 435.653C621.152 435.319 625.256 435.88 629.016 437.051Q629.767 437.281 630.506 437.548Q631.245 437.816 631.97 438.12Q632.694 438.425 633.402 438.765Q634.11 439.106 634.801 439.482Q635.491 439.858 636.161 440.268Q636.831 440.678 637.48 441.122Q638.128 441.565 638.754 442.041Q639.379 442.517 639.98 443.023Q640.581 443.53 641.155 444.066Q641.73 444.602 642.276 445.167Q642.823 445.731 643.34 446.323Q643.858 446.914 644.345 447.531Q644.832 448.148 645.287 448.788Q645.742 449.429 646.164 450.091Q646.587 450.754 646.975 451.437Q647.364 452.12 647.717 452.822Q648.065 453.491 648.379 454.177Q648.694 454.863 648.973 455.564Q649.253 456.265 649.497 456.979Q649.741 457.693 649.949 458.418Q650.157 459.143 650.328 459.878Q650.5 460.612 650.635 461.355Q650.769 462.097 650.866 462.845Q650.963 463.594 651.023 464.346Q651.082 465.098 651.104 465.852Q651.126 466.606 651.11 467.36Q651.094 468.115 651.04 468.867Q650.987 469.62 650.895 470.369Q650.804 471.118 650.675 471.861Q650.547 472.605 650.381 473.341Q650.215 474.077 650.013 474.803Q649.811 475.53 649.572 476.246C646.598 485.108 640.591 490.547 632.459 494.647C627.452 496.482 622.793 496.998 617.487 497.435C617.567 474.367 611.552 461.878 600.756 442.206C606.02 438.652 610.923 436.551 617.223 435.653Z"/>
	<path fill="#FEA6D4" d="M328.468 436.656C342.032 435.573 353.963 434.641 367.105 439.04C359.49 449.345 354.48 460.472 356.494 473.523C357.561 480.444 360.323 486.922 363.845 492.932C363.629 492.921 363.413 492.912 363.196 492.899C343.918 491.71 341.438 486.529 321.58 495.335C320.489 484.377 321.263 472.752 321.322 461.714C321.357 455.267 320.681 447.968 321.75 441.688L322.092 444.108C323.035 444.018 323.481 443.465 324.053 442.745C325.631 440.763 326.746 438.579 328.468 436.656Z"/>
	<path fill="#FCB995" d="M539.63 535.574C544.656 540.735 549.33 546.052 553.162 552.169C565.532 571.36 565.802 598.545 561.125 620.132C558.951 630.161 555.067 639.428 550.686 648.655C551.844 658.269 555.041 666.031 561.704 673.102L560.537 675.773C548.063 693.475 527.704 709.099 505.946 712.781C495.95 714.473 484.618 712.602 476.278 706.598C474.263 705.148 472.546 703.472 470.925 701.598L471.202 700.001C477.728 699.109 484.298 698.296 490.787 697.16C498.995 695.723 520.34 692.219 524.904 685.224C525.767 683.901 526.091 682.403 525.714 680.861C524.849 677.318 521.56 675.624 518.747 673.751Q520.163 672.863 521.442 671.787Q522.721 670.711 523.838 669.468C525.586 667.503 527.742 664.975 527.265 662.129C526.16 655.531 518.268 656.378 514.803 653.31C512.996 651.71 513.067 648.642 510.868 646.938C506.282 643.384 498.777 646.403 493.589 647.017Q483.28 649.356 472.78 650.571L470.558 649.378C464.041 645.58 457.42 641.912 451.512 637.193C448.947 635.548 446.6 633.439 444.483 631.261C443.674 630.505 442.731 629.599 442.157 628.647C441.481 627.526 441.645 626.7 441.898 625.494C442.705 624.589 443.417 624.028 444.62 623.725C447.807 622.924 451.543 622.887 454.823 622.543C465.189 621.456 477.706 620.537 487.279 616.349C500.583 610.53 507.92 592.348 513.008 579.587C518.268 569.756 517.903 557.835 518.616 547.099C522.215 544.486 525.948 542.303 529.934 540.337L531.806 539.353C534.473 538.214 537.042 536.881 539.63 535.574Z"/>
	<path fill="#FCB995" d="M529.934 540.337L531.806 539.353C541.702 554.555 546.339 574.611 542.628 592.534Q542.484 593.222 542.321 593.906C539.306 610.818 530.553 626.584 516.328 636.591Q514.058 638.175 511.605 639.458Q509.152 640.741 506.556 641.702C501.015 643.837 495.477 644.463 489.737 645.766C486.362 644.808 481.573 645.03 477.987 644.637C473.507 643.708 453.884 636.769 452.872 636.807C452.401 636.825 451.965 637.064 451.512 637.193C448.947 635.548 446.6 633.439 444.483 631.261C443.674 630.505 442.731 629.599 442.157 628.647C441.481 627.526 441.645 626.7 441.898 625.494C442.705 624.589 443.417 624.028 444.62 623.725C447.807 622.924 451.543 622.887 454.823 622.543C465.189 621.456 477.706 620.537 487.279 616.349C500.583 610.53 507.92 592.348 513.008 579.587C518.268 569.756 517.903 557.835 518.616 547.099C522.215 544.486 525.948 542.303 529.934 540.337Z"/>
	<path fill="#EA7C51" d="M529.934 540.337L531.806 539.353C541.702 554.555 546.339 574.611 542.628 592.534Q542.484 593.222 542.321 593.906C539.306 610.818 530.553 626.584 516.328 636.591Q514.058 638.175 511.605 639.458Q509.152 640.741 506.556 641.702C501.015 643.837 495.477 644.463 489.737 645.766C486.362 644.808 481.573 645.03 477.987 644.637C473.507 643.708 453.884 636.769 452.872 636.807C452.401 636.825 451.965 637.064 451.512 637.193C448.947 635.548 446.6 633.439 444.483 631.261C445.871 631.573 446.814 631.963 448.058 632.654C455.79 636.945 470.327 640.93 479.121 642.75C487.923 644.324 496.673 642.833 505.123 640.146C508.52 638.62 511.8 637.038 514.904 634.966C528.695 625.763 537.144 609.928 540.324 593.932Q540.781 591.984 541.101 590.009C543.608 573.711 539.788 553.749 529.934 540.337Z"/>
	<path fill="#FED1E8" d="M508.988 462.856C512.508 458.834 515.756 455.044 520.317 452.139C529.432 446.333 540.31 444.75 550.791 447.177C562.331 449.848 572.001 457.065 578.208 467.099C585.355 478.655 584.66 486.96 583.664 499.888C583.253 505.224 582.978 510.59 581.718 515.811C577.872 531.749 566.792 543.765 553.162 552.169C549.33 546.052 544.656 540.735 539.63 535.574C537.042 536.881 534.473 538.214 531.806 539.353L529.934 540.337C525.948 542.303 522.215 544.486 518.616 547.099C517.903 557.835 518.268 569.756 513.008 579.587Q510.719 579.507 508.439 579.29C492.319 577.914 477.882 570.799 467.434 558.308C459.998 549.419 455.74 539.731 456.714 528.023C452.424 524.839 448.39 521.6 444.962 517.47Q444.277 516.656 443.633 515.81Q442.989 514.963 442.388 514.086Q441.787 513.209 441.23 512.303Q440.673 511.397 440.161 510.464Q439.65 509.532 439.185 508.575Q438.72 507.619 438.303 506.64Q437.886 505.662 437.518 504.664Q437.15 503.666 436.832 502.651Q436.514 501.637 436.246 500.607Q435.978 499.578 435.762 498.537Q435.545 497.495 435.381 496.445Q435.216 495.394 435.104 494.336Q434.991 493.279 434.931 492.217Q434.871 491.155 434.864 490.092Q434.856 489.028 434.901 487.966Q434.946 486.903 435.044 485.844C436.166 474.272 442.172 462.75 451.209 455.392Q452.004 454.752 452.83 454.151Q453.655 453.55 454.51 452.991Q455.364 452.432 456.244 451.915Q457.125 451.399 458.03 450.926Q458.935 450.453 459.862 450.026Q460.789 449.598 461.736 449.217Q462.683 448.835 463.648 448.501Q464.612 448.167 465.592 447.88Q466.572 447.593 467.565 447.355Q468.558 447.117 469.561 446.928Q470.565 446.74 471.576 446.6Q472.587 446.461 473.605 446.372Q474.622 446.282 475.642 446.243Q476.662 446.204 477.683 446.215Q478.704 446.226 479.723 446.287Q480.742 446.348 481.757 446.459C493.327 447.827 501.953 453.887 508.988 462.856Z"/>
	<path fill="#FEA6D4" d="M534.076 529.693C541.053 529.236 545.886 528.042 552.123 524.938C553.726 524.14 555.115 523.119 556.911 523.429L557.151 524.172C554.926 528.263 549.73 530.975 545.443 532.214C543.031 532.911 540.533 533.188 538.134 533.841L534.076 529.693Z"/>
	<path fill="#FEA6D4" d="M468.762 527.85C473.153 529.721 476.322 532.47 481.186 533.739C487.033 535.266 495.715 535.287 501.345 532.94C502.864 532.306 504.158 531.279 505.597 530.51C506.764 529.887 507.737 529.184 509.028 529.54L509.127 530.936C509.002 531.054 508.881 531.177 508.75 531.289C502.679 536.525 493.252 537.595 485.537 536.951C480.767 536.553 472.449 535.184 469.428 531.169C468.449 529.867 468.487 529.422 468.762 527.85Z"/>
	<path fill="#4C002D" d="M475.502 486.579C476.42 486.494 477.344 486.409 478.267 486.398C480.422 486.372 482.503 487.167 483.988 488.758C485.118 489.968 485.663 491.502 485.541 493.154C485.32 496.17 483.399 497.987 481.221 499.826C480.053 499.998 478.787 500.232 477.608 500.082C475.765 499.846 473.764 498.72 472.64 497.238C471.488 495.72 471.066 493.813 471.403 491.945C471.877 489.316 473.419 488.055 475.502 486.579Z"/>
	<path fill="#4C002D" d="M539.427 485.952C540.28 485.963 541.157 485.967 542.001 486.101C543.876 486.396 545.7 487.581 546.776 489.135C547.911 490.775 548.197 492.735 547.771 494.667C547.134 497.559 545.411 498.94 543.055 500.513C542.052 500.592 540.998 500.697 539.993 500.61C538.217 500.454 536.295 499.174 535.352 497.683C534.414 496.201 534.23 494.368 534.517 492.67C535.044 489.559 536.925 487.676 539.427 485.952Z"/>
	<path fill="#19000F" d="M517.64 501.858C519.875 502.273 522.027 502.942 524.205 503.585C521.195 511.68 516.053 518.272 510.812 525.025C508.248 522.315 505.988 519.179 503.655 516.26C500.708 512.399 498.08 508.546 496.125 504.082C497.544 503.561 499.077 502.879 500.55 502.553C504.501 501.68 505.601 507.352 508.659 509.084C509.642 509.641 510.665 509.926 511.764 509.495C514.277 508.51 516.638 504.183 517.64 501.858Z"/>
	<path fill="#19000F" d="M523.856 519.965C527.773 522.631 530.898 526.221 534.076 529.693L538.134 533.841L539.63 535.574C537.042 536.881 534.473 538.214 531.806 539.353L529.934 540.337C525.948 542.303 522.215 544.486 518.616 547.099L518.495 542.466C518.317 534.299 517.837 526.249 523.856 519.965Z"/>
	<path fill="white" d="M600.933 542.862C611.919 544.025 623.903 543.092 635.018 543.078Q667.065 542.988 699.108 543.465C699.071 548.64 699.407 554.205 698.904 559.334C699.597 561.074 700.26 562.731 701.229 564.337C696.848 568.058 694.761 572.034 691.376 576.491C686.199 587.66 686.62 598.333 690.795 609.817Q692.551 614.518 694.889 618.957Q697.228 623.397 700.112 627.503C702.353 630.556 704.894 633.607 706.834 636.852C706.737 639.722 706.673 642.596 706.469 645.46L712.849 645.426C718.169 651.667 722.989 662.023 727.512 669.253L755.792 715.021C761.809 724.922 768.36 735.047 773.211 745.566Q771.461 757.069 770.253 768.641C769.953 771.436 770.15 775.547 769.365 778.151C769.118 780.641 769.046 782.978 769.115 785.479L388.548 785.486Q321.496 785.776 254.446 785.024C253.972 781.712 253.987 778.349 253.902 775.01C253.728 766.646 252.743 758.377 251.758 750.078C257.823 736.789 265.491 723.716 272.467 710.857C283.036 691.376 298.575 659.038 314.279 643.802C316.263 641.356 319.081 639.151 321.39 636.976C330.684 626.615 335.14 612.074 335.066 598.313C334.994 585.1 330.43 572.727 320.969 563.367C322.243 557.597 321.422 550.278 321.399 544.347L383.676 544.248C395.308 544.217 407.275 544.717 418.867 543.878L422.216 547.548C415.233 553.957 407.481 559.471 400.997 566.419C385.634 582.882 367.841 615.898 366.999 638.664C366.991 638.899 366.988 639.133 366.982 639.367Q367.071 643.481 367.024 647.595C367.601 661.554 372.428 675.013 382.947 684.591C385.601 687.008 388.438 688.667 391.368 690.677L390.823 692.001C391.01 692.357 391.199 692.874 391.494 693.144C417.132 703.981 443.637 704.47 470.925 701.598C472.546 703.472 474.263 705.148 476.278 706.598C484.618 712.602 495.95 714.473 505.946 712.781C527.704 709.099 548.063 693.475 560.537 675.773L561.704 673.102C563.297 674.648 565.306 676.235 566.614 678.008C568.912 680.024 571.425 682.004 573.505 684.235L574.187 684.657C577.567 686.767 580.554 689.503 583.959 691.595C595.288 698.552 609.068 702.744 622.285 699.781C627.613 698.586 632.306 696.422 636.993 693.673C644.826 687.458 651.149 680.292 655.041 670.982C662.628 652.83 659.173 634.9 651.999 617.392C637.977 589.662 625.683 574.412 600.121 556.078C601.573 552.797 603.521 547.338 602.579 543.771L600.933 542.862Z"/>
	<path fill="#66003D" d="M251.758 750.078C257.823 736.789 265.491 723.716 272.467 710.857C283.036 691.376 298.575 659.038 314.279 643.802C314.853 659.835 314.505 675.981 314.513 692.027L314.517 775.173L253.902 775.01C253.728 766.646 252.743 758.377 251.758 750.078Z"/>
	<path fill="#66003D" d="M712.849 645.426C718.169 651.667 722.989 662.023 727.512 669.253L755.792 715.021C761.809 724.922 768.36 735.047 773.211 745.566Q771.461 757.069 770.253 768.641C769.953 771.436 770.15 775.547 769.365 778.151C769.254 777.264 769.069 776.482 768.806 775.629C764.47 774.426 755.888 775.277 751.124 775.261L706.268 775.219L706.469 645.46L712.849 645.426Z"/>
	<path fill="#66003D" d="M418.867 543.878L422.216 547.548C415.233 553.957 407.481 559.471 400.997 566.419C385.634 582.882 367.841 615.898 366.999 638.664C366.991 638.899 366.988 639.133 366.982 639.367Q367.071 643.481 367.024 647.595C367.601 661.554 372.428 675.013 382.947 684.591C385.601 687.008 388.438 688.667 391.368 690.677L390.823 692.001C391.01 692.357 391.199 692.874 391.494 693.144C390.265 697.021 387.638 719.937 388.154 723.616L389.18 724.601C377.334 732.599 367.342 745.042 364.597 759.335C363.587 764.591 363.806 769.782 364.072 775.098L322.408 775.228L322.39 760.756C320.796 745.899 323.679 641.605 321.39 636.976C330.684 626.615 335.14 612.074 335.066 598.313C334.994 585.1 330.43 572.727 320.969 563.367C322.243 557.597 321.422 550.278 321.399 544.347L383.676 544.248C395.308 544.217 407.275 544.717 418.867 543.878Z"/>
	<path fill="#FEA6D4" d="M418.867 543.878L422.216 547.548C415.233 553.957 407.481 559.471 400.997 566.419C385.634 582.882 367.841 615.898 366.999 638.664C366.991 638.899 366.988 639.133 366.982 639.367L364.527 640.912C364.474 639.977 364.668 639.374 364.931 638.495C366.693 632.608 367.429 624.081 364.518 618.492C363.274 616.102 361.345 614.055 358.713 613.253C355.707 612.337 352.544 613.224 349.918 614.775C345.476 617.4 341.794 622.171 340.525 627.183C339.11 632.773 340.139 639.534 334.536 642.997C332.991 643.952 331.376 644.813 329.775 645.67C327.252 646.63 324.991 647.085 322.334 647.444L322.515 720.828C322.514 734.051 323.093 747.564 322.39 760.756C320.796 745.899 323.679 641.605 321.39 636.976C330.684 626.615 335.14 612.074 335.066 598.313C334.994 585.1 330.43 572.727 320.969 563.367C322.243 557.597 321.422 550.278 321.399 544.347L383.676 544.248C395.308 544.217 407.275 544.717 418.867 543.878Z"/>
	<path fill="#4C002D" d="M561.704 673.102C563.297 674.648 565.306 676.235 566.614 678.008C568.912 680.024 571.425 682.004 573.505 684.235L574.187 684.657C577.567 686.767 580.554 689.503 583.959 691.595C595.288 698.552 609.068 702.744 622.285 699.781C627.613 698.586 632.306 696.422 636.993 693.673C638.471 700.561 632.958 718.561 631.144 725.549C625.261 722.729 619.802 720.516 613.384 719.276C599.472 718.537 587.456 722.234 577.023 731.721C564.008 743.556 559.929 758.336 557.314 775.137L555.401 775.218C524.679 774.759 493.867 775.315 463.134 775.23L461.756 775.181Q412.915 774.843 364.072 775.098C363.806 769.782 363.587 764.591 364.597 759.335C367.342 745.042 377.334 732.599 389.18 724.601L388.154 723.616C387.638 719.937 390.265 697.021 391.494 693.144C417.132 703.981 443.637 704.47 470.925 701.598C472.546 703.472 474.263 705.148 476.278 706.598C484.618 712.602 495.95 714.473 505.946 712.781C527.704 709.099 548.063 693.475 560.537 675.773L561.704 673.102Z"/>
	<path fill="#8E4568" d="M388.154 723.616C401.491 716.001 415.754 715.85 430.379 719.889C433.788 720.83 440.679 722.983 443.07 725.653C452.098 730.671 458.629 740.121 461.474 749.929Q462.563 753.648 462.875 757.51C463.404 763.379 463.781 769.352 463.134 775.23L461.756 775.181C461.694 770.436 461.601 765.719 461.282 760.982Q461.037 758.999 460.746 757.022C458.803 744.029 452.965 734.997 442.501 727.238C439.149 725.505 435.806 723.942 432.241 722.686C417.578 717.517 403.149 717.878 389.18 724.601L388.154 723.616Z"/>
	<path fill="#8E4568" d="M561.704 673.102C563.297 674.648 565.306 676.235 566.614 678.008C568.912 680.024 571.425 682.004 573.505 684.235L574.187 684.657C577.567 686.767 580.554 689.503 583.959 691.595C595.288 698.552 609.068 702.744 622.285 699.781C627.613 698.586 632.306 696.422 636.993 693.673C638.471 700.561 632.958 718.561 631.144 725.549C625.261 722.729 619.802 720.516 613.384 719.276C599.472 718.537 587.456 722.234 577.023 731.721C564.008 743.556 559.929 758.336 557.314 775.137L555.401 775.218C555.667 769.019 556.888 762.517 558.741 756.598C563.284 742.093 573.488 729.145 587.074 722.166C593.476 718.878 605.249 715.111 612.358 717.386C618.327 717.38 623.637 719.701 629.054 721.945C631.898 713.928 633.432 706.344 634.133 697.869Q632.203 698.853 630.192 699.657Q628.18 700.46 626.103 701.075Q624.026 701.69 621.902 702.112Q619.777 702.535 617.623 702.76C600.839 704.507 585.105 696.203 572.449 685.88C569.91 683.919 567.492 681.779 565.046 679.702L560.537 675.773L561.704 673.102Z"/>
	<path fill="#4C002D" d="M389.18 724.601C403.149 717.878 417.578 717.517 432.241 722.686C435.806 723.942 439.149 725.505 442.501 727.238C452.965 734.997 458.803 744.029 460.746 757.022Q461.037 758.999 461.282 760.982C461.601 765.719 461.694 770.436 461.756 775.181Q412.915 774.843 364.072 775.098C363.806 769.782 363.587 764.591 364.597 759.335C367.342 745.042 377.334 732.599 389.18 724.601Z"/>
	<path fill="#66003D" d="M600.933 542.862C611.919 544.025 623.903 543.092 635.018 543.078Q667.065 542.988 699.108 543.465C699.071 548.64 699.407 554.205 698.904 559.334C699.597 561.074 700.26 562.731 701.229 564.337C696.848 568.058 694.761 572.034 691.376 576.491C686.199 587.66 686.62 598.333 690.795 609.817Q692.551 614.518 694.889 618.957Q697.228 623.397 700.112 627.503C698.017 631.631 700.169 674.614 699.399 684.214L699.302 775.225L641.209 775.337C632.007 775.334 622.406 775.892 613.247 775.089C606.904 775.517 600.301 775.148 593.931 775.129Q575.623 775.022 557.314 775.137C559.929 758.336 564.008 743.556 577.023 731.721C587.456 722.234 599.472 718.537 613.384 719.276C619.802 720.516 625.261 722.729 631.144 725.549C632.958 718.561 638.471 700.561 636.993 693.673C644.826 687.458 651.149 680.292 655.041 670.982C662.628 652.83 659.173 634.9 651.999 617.392C637.977 589.662 625.683 574.412 600.121 556.078C601.573 552.797 603.521 547.338 602.579 543.771L600.933 542.862Z"/>
	<path fill="#4C002D" d="M557.314 775.137C559.929 758.336 564.008 743.556 577.023 731.721C587.456 722.234 599.472 718.537 613.384 719.276C619.802 720.516 625.261 722.729 631.144 725.549C649.639 738.551 657.085 753.206 661.859 774.864L629.968 774.832C624.51 774.829 618.645 774.409 613.247 775.089C606.904 775.517 600.301 775.148 593.931 775.129Q575.623 775.022 557.314 775.137Z"/>
	<path fill="#FEA6D4" d="M600.933 542.862C611.919 544.025 623.903 543.092 635.018 543.078Q667.065 542.988 699.108 543.465C699.071 548.64 699.407 554.205 698.904 559.334C699.597 561.074 700.26 562.731 701.229 564.337C696.848 568.058 694.761 572.034 691.376 576.491C686.199 587.66 686.62 598.333 690.795 609.817Q692.551 614.518 694.889 618.957Q697.228 623.397 700.112 627.503C698.017 631.631 700.169 674.614 699.399 684.214C698.38 671.759 699.109 658.597 699.078 646.063C689.539 646.052 679.994 645.832 670.455 645.691C668.216 631.26 671.966 616.737 678.767 604.03C669.088 607.795 660.623 611.502 651.999 617.392C637.977 589.662 625.683 574.412 600.121 556.078C601.573 552.797 603.521 547.338 602.579 543.771L600.933 542.862Z"/>
	<path fill="#66003D" d="M691.376 576.491C682.799 574.369 674.913 572.653 668.413 566.14C665.927 563.65 663.911 560.42 664.016 556.787C664.093 554.134 665.315 551.675 667.28 549.903C669.894 547.545 673.431 546.592 676.897 546.804C685.646 547.338 693.389 552.92 698.904 559.334C699.597 561.074 700.26 562.731 701.229 564.337C696.848 568.058 694.761 572.034 691.376 576.491Z"/>
	<path fill="white" d="M0 0L1024 0L1024 587.723C1022.64 582.536 1021.99 577.221 1020.47 572.037C1012.38 544.325 999.131 528.316 978.602 508.958C986.163 497.083 989.625 482.432 986.782 468.503C984.135 455.543 976.567 443.588 965.437 436.311C949.312 425.768 934.489 427.839 916.7 431.66C916.498 416.109 917.797 402.796 910.928 388.323C904.747 376.949 900.781 364.789 891.692 355.155C890.899 336.251 891.484 317.1 891.485 298.165L891.521 193.588L905.404 193.577L905.425 186.235C881.588 185.294 857.374 186.221 833.5 186.264L703.937 186.505C700.073 177.973 695.852 169.771 688.627 163.57C681.354 157.328 671.315 153.911 661.733 154.774C654.154 155.456 646.238 158.779 641.389 164.803C636.055 171.43 637.311 178.66 637.991 186.458C625.764 186.693 613.488 186.446 601.257 186.423Q590.542 186.551 579.827 186.461C579.131 188.829 578.486 191.21 577.556 193.499C573.527 201.684 569.27 207.218 562.799 213.554C555.784 219.867 548.303 221.692 539.091 221.335C538.94 221.329 538.79 221.319 538.639 221.311C537.653 220.41 536.729 220.38 535.458 220.066Q534.411 219.75 533.382 219.376C522.583 215.398 514.565 203.614 509.998 193.587C497.964 193.542 485.742 194.041 473.735 193.394C481.201 192.037 500.997 193.131 509.574 193.188C508.818 191.021 508.269 188.758 507.561 186.57L457.523 186.53C453.554 180.185 448.767 174.822 441.966 171.466C434.873 167.966 426.21 166.867 418.67 169.542C409.856 172.668 407.204 177.926 403.267 185.842C402.176 186.714 400.857 186.554 399.524 186.607L398.799 186.632C395.614 186.218 391.999 186.537 388.773 186.543L367.772 186.571L297.662 186.613C293.299 186.613 280.853 187.492 277.511 186.084C277.647 182.709 278.783 173.425 276.693 171.062C271.465 169.944 256.067 169.679 251.113 171.632C249.935 176.105 250.993 181.83 250.667 186.527C233.715 186.563 216.61 186.047 199.678 186.588C198.183 186.612 196.48 186.835 195.059 186.317C195.97 182.85 200.723 180.935 201.205 175.615C201.475 172.642 200.192 169.777 198.197 167.626C196.606 165.911 193.502 163.361 191.054 163.34C190.249 163.333 189.799 163.304 189.033 163.09C188.458 162.364 187.78 161.332 187.05 160.777C184.319 158.701 183.744 161.576 181.334 161.674C180.423 160.88 179.665 160.361 178.566 159.858C176.546 159.972 176.422 159.971 175.075 161.493C174.364 162.297 174.814 162.116 173.918 162.199C172.396 160.939 171.678 160.184 169.698 159.89C167.987 160.673 167.781 161.573 166.85 163.171L165.985 163.385C164.862 162.963 164.039 162.71 162.836 162.691C159.215 164.465 161.268 166.124 160.005 169.157C157.621 170.704 154.752 170.862 152.175 171.987C147.139 174.186 144.882 181.802 143.18 186.53C138.659 186.534 131.937 185.148 127.939 187.242C126.764 188.942 126.995 190.485 127.028 192.504C130.506 192.451 138.68 191.377 141.49 193.314L141.832 194.899C141.918 199.712 143.615 204.326 144.221 209.095C144.647 212.452 144.037 216.418 144.962 219.598L145.099 220.008C145.057 220.177 145.037 220.354 144.972 220.516C143.829 223.368 137.179 226.998 135.433 233.194C133.785 239.042 134.196 246.586 133.924 252.667L132.493 285.083C131.275 311.621 129.184 338.093 127.833 364.613C127.331 367.137 127.184 368.187 124.958 369.709C122.314 371.517 118.956 371.847 116.475 374.166C104.786 381.945 96.3668 392.807 93.4954 406.736C92.1741 413.145 92.3762 419.704 92.439 426.211C79.0863 422.988 66.177 423.869 54.2325 431.103Q53.1674 431.737 52.1351 432.423Q51.1028 433.109 50.1057 433.845Q49.1087 434.581 48.1494 435.366Q47.19 436.15 46.2708 436.982Q45.3516 437.813 44.4747 438.689Q43.5978 439.565 42.7655 440.483Q41.9331 441.402 41.1473 442.36Q40.3615 443.319 39.6242 444.315Q38.8868 445.311 38.1998 446.343Q37.5128 447.374 36.8778 448.438Q36.2428 449.503 35.6613 450.597Q35.0798 451.692 34.5534 452.814Q34.0269 453.936 33.5567 455.083Q33.0865 456.229 32.6737 457.398Q32.261 458.567 31.9067 459.755Q31.5524 460.942 31.2574 462.146C28.2581 474.805 30.3721 489.706 37.3219 500.774C39.3508 504.005 41.8149 506.659 44.4885 509.362C26.2441 525.57 12.3282 543.094 4.37708 566.602C2.63317 571.758 1.51666 577.025 0 582.235L0 0Z"/>
	<path fill="#A36584" d="M507.414 154.992C507.465 153.261 507.553 151.627 508.145 149.981C508.681 148.492 509.276 147.975 510.693 147.34C512.229 147.442 512.937 147.948 514.135 148.811C514.446 152.099 514.492 155.046 513.544 158.258C512.321 159.58 511.742 160.008 510.017 160.524C508.041 158.826 507.759 157.469 507.414 154.992Z"/>
	<path fill="#8E4568" d="M507.414 154.992C509.018 154.527 510.593 154.164 512.234 153.857L512.266 154.495L512.32 155.318C512.334 155.564 512.323 155.811 512.354 156.055C512.476 157.02 512.964 157.525 513.544 158.258C512.321 159.58 511.742 160.008 510.017 160.524C508.041 158.826 507.759 157.469 507.414 154.992Z"/>
	<path fill="#8E4568" d="M572.876 151.866C572.911 149.142 573.124 146.166 575.011 144.009C576.412 142.408 577.951 142.056 579.989 142.018C581.382 142.673 583.103 143.295 583.784 144.793C584.233 145.78 584.214 147.016 584.247 148.078C585.58 148.636 587.304 149.999 587.757 151.432C588.252 152.998 587.633 154.67 586.73 155.94C585.615 157.509 584.182 158.635 582.235 158.884C581.108 159.028 579.973 158.962 578.844 158.872C578.113 158.589 578.057 158.583 577.274 158.198C574.702 156.936 573.978 155.289 573.179 152.68L572.876 151.866Z"/>
	<path fill="#DA7AA3" d="M533.739 133.82C534.821 131.303 536.424 129.118 539.038 128.039C541.159 127.164 543.522 127.365 545.589 128.296C548.244 129.493 550.789 132.131 551.687 134.932C551.977 135.836 552.129 136.8 552.282 137.736C552.323 139.259 552.155 140.885 552.985 142.218C557.683 144.228 562.508 146.129 567.072 148.425C568.73 149.259 571.247 151.58 572.876 151.866L573.179 152.68C573.978 155.289 574.702 156.936 577.274 158.198C578.057 158.583 578.113 158.589 578.844 158.872C577.513 161.753 580.265 173.836 580.44 177.831C580.561 180.591 580.311 183.292 579.805 186.006C586.8 185.96 594.327 185.41 601.257 186.423Q590.542 186.551 579.827 186.461C579.131 188.829 578.486 191.21 577.556 193.499C573.527 201.684 569.27 207.218 562.799 213.554C555.784 219.867 548.303 221.692 539.091 221.335C538.94 221.329 538.79 221.319 538.639 221.311C537.653 220.41 536.729 220.38 535.458 220.066Q534.411 219.75 533.382 219.376C522.583 215.398 514.565 203.614 509.998 193.587C497.964 193.542 485.742 194.041 473.735 193.394C481.201 192.037 500.997 193.131 509.574 193.188C508.818 191.021 508.269 188.758 507.561 186.57C506.764 178.201 506.288 169.646 509.904 161.779C510.258 161.009 510.196 161.468 510.017 160.524C511.742 160.008 512.321 159.58 513.544 158.258C514.492 155.046 514.446 152.099 514.135 148.811C514.953 148.654 514.603 148.693 515.454 148.647L518.037 148.5C523.355 148.219 527.976 145.175 532.501 142.624C532.3 139.308 532.226 136.881 533.739 133.82Z"/>
	<path fill="#A36584" d="M533.739 133.82C534.821 131.303 536.424 129.118 539.038 128.039C541.159 127.164 543.522 127.365 545.589 128.296C548.244 129.493 550.789 132.131 551.687 134.932C551.977 135.836 552.129 136.8 552.282 137.736C551.761 140.605 549.969 142.92 547.591 144.596C546.039 145.689 544.089 146.404 542.181 146.066C540.944 145.847 539.958 145.147 539.018 144.344C537.748 143.614 536.92 142.501 536.397 141.138C535.644 139.176 535.573 136.663 536.356 134.714L536.472 133.81C536.298 132.633 536.204 133.174 536.683 132.176C539.195 130.961 542.095 129.77 544.926 129.719C546.147 129.697 545.567 129.853 546.519 129.432C536.618 126.564 539.831 131.164 534.165 133.685C534.029 133.745 533.881 133.775 533.739 133.82Z"/>
	<path fill="#FED1E8" d="M540.407 152.595C544.865 152.2 549.024 152.556 553.235 154.156C560.368 156.866 565.82 162.323 568.894 169.254C571.717 175.619 571.948 182.446 569.281 188.911C565.502 198.068 556.151 208.103 547.012 212.016C542.576 213.071 539.04 212.309 535.145 209.944C527.416 205.251 518.952 194.5 516.798 185.637C515.19 179.019 516.664 171.606 520.263 165.857C524.878 158.485 532.171 154.546 540.407 152.595Z"/>
</svg>
