<?xml version="1.0" encoding="utf-8" ?>
<svg xmlns="http://www.w3.org/2000/svg" xmlns:xlink="http://www.w3.org/1999/xlink" width="1024" height="1024">
	<path fill="#F05D5E" d="M0 0L1024 0L1024 58.5301L1024 631.84L1024 1024L0 1024L0 606.905L0 176.025L0 0Z"/>
	<path fill="#272932" d="M745.082 441.148L745.803 442.013C744.793 445.584 743.202 448.96 742.191 452.557C738.044 462.641 733.115 472.736 726.625 481.539C725.955 481.41 725.738 481.386 725.137 481.216C717.602 479.082 695.639 458.78 691.475 451.618L691.707 451.127C692.81 451.056 693.883 450.985 694.972 450.779C695.201 450.736 695.429 450.682 695.658 450.634C703.614 449.729 711.322 448.232 719.198 446.846C728.022 445.293 736.585 444.208 745.082 441.148Z"/>
	<path fill="#E7ECEF" d="M242.726 507.781C266.981 512.161 290.678 521.448 309.849 537.15C314.378 540.86 318.727 544.61 322.199 549.355L322.572 549.872C322.79 549.953 323.012 550.024 323.225 550.115C324.874 550.824 325.13 551.929 325.716 553.49C314.294 552.671 303.082 552.897 291.686 552.459C286.266 552.251 280.876 551.415 275.455 551.155C267.047 550.753 258.527 550.989 250.107 550.981C249.58 536.427 245.843 521.966 242.726 507.781Z"/>
	<path fill="#E7ECEF" d="M165.237 505.244L165.824 505.294Q159.627 527.562 152.714 549.618C139.789 548.799 127.023 547.99 114.048 547.719C103.932 547.508 93.6936 548.048 83.6367 546.786C81.491 546.511 79.864 546.372 78.1988 544.821C78.1551 544.094 77.9463 543.826 78.4832 543.247C80.4232 541.156 84.2545 539.386 86.6103 537.52Q88.7162 535.843 90.8802 534.241Q93.0441 532.64 95.2633 531.116Q97.4825 529.592 99.7542 528.147Q102.026 526.703 104.347 525.339Q106.669 523.976 109.037 522.696Q111.405 521.416 113.817 520.22Q116.229 519.024 118.682 517.914Q121.134 516.804 123.625 515.782Q126.115 514.76 128.64 513.826Q131.165 512.893 133.722 512.049Q136.278 511.205 138.863 510.452Q141.448 509.7 144.058 509.039Q146.667 508.378 149.299 507.81Q151.93 507.241 154.58 506.767Q157.23 506.292 159.895 505.911Q162.56 505.53 165.237 505.244Z"/>
	<path fill="#272932" d="M661.092 546.183C661.706 546.834 662.115 547.061 662.322 547.946C663.509 553.027 674.832 586.981 676.954 590.564C677.47 591.435 677.618 591.604 677.509 592.576C676.78 593.988 676.404 594.153 674.997 594.913C665.918 599.818 653.408 598.898 643.566 597.551C640.106 597.078 636.132 596.131 632.669 596.848C624.835 598.471 621.352 607.689 614.933 609.194C613.056 609.634 610.832 609.022 609.193 608.048C605.684 605.962 603.989 601.669 603.18 597.86C601.28 588.916 605.012 579.172 609.96 571.833C618.484 559.191 630.794 551.911 645.519 548.738C650.646 547.634 655.929 547.163 661.092 546.183Z"/>
	<path fill="#E7ECEF" d="M189.572 503.757C190.374 503.829 190.085 503.836 190.78 503.792C206.012 502.823 221.885 504.524 236.925 506.825C236.484 516.628 239.562 526.798 241.036 536.418C241.75 541.08 241.885 545.839 242.547 550.527C233.043 550.663 223.578 549.901 214.079 549.878L213.739 549.596C205.482 550.782 195.892 549.998 187.54 549.83C178.693 549.652 169.885 549.771 161.039 549.926C161.818 545.109 172.427 507.791 174.333 504.784C179.139 503.763 184.64 504.106 189.572 503.757Z"/>
	<path fill="#272932" d="M486.157 561.86C483.134 562.991 479.574 563.521 476.392 562.774C473.822 562.171 471.699 560.592 470.328 558.346C467.145 553.13 467.358 545.101 469.033 539.349C472.222 528.4 482.104 516.494 492.181 511.184C500.675 506.708 518.722 503.744 527.838 506.594C532.662 514.867 546.933 546.477 547.77 555.006C543.432 557.628 538.418 560.148 534.532 563.386C527.952 568.869 520.631 581.133 510.483 578.432C508.459 577.894 507.407 577.064 506.401 575.239C505.568 573.726 504.836 572.143 504.061 570.599L503.377 570.756C501.725 569.379 500.608 567.417 499.402 565.653C494.979 563.993 490.881 562.428 486.157 561.86Z"/>
	<path fill="#E7ECEF" d="M486.157 561.86C486.192 561.573 486.23 561.286 486.262 560.999C486.366 560.045 486.309 559.185 486.243 558.233C485.878 552.91 487.506 545.786 491.097 541.756Q491.389 541.422 491.714 541.12Q492.038 540.818 492.392 540.55Q492.746 540.282 493.125 540.052Q493.504 539.822 493.904 539.631Q494.305 539.44 494.723 539.291Q495.141 539.142 495.571 539.037Q496.002 538.931 496.441 538.87Q496.881 538.808 497.324 538.792C501.889 538.591 507.22 540.421 510.504 543.632C511.997 545.093 513.046 546.939 513.017 549.074C512.912 556.807 503.363 562.086 504.061 570.599L503.377 570.756C501.725 569.379 500.608 567.417 499.402 565.653C494.979 563.993 490.881 562.428 486.157 561.86Z"/>
	<path fill="#E7ECEF" d="M42.8379 604.979C43.7341 603.996 44.5772 603.176 45.6114 602.339C49.4176 599.26 49.6493 590.845 51.3338 586.191C53.5824 579.978 64.7738 555.725 70.2856 552.59C71.5507 551.871 72.8124 551.826 74.2303 551.963C78.0975 552.335 81.763 554.14 85.6088 554.47C98.4903 555.574 111.928 554.397 124.907 554.793C133.728 555.063 142.819 556.89 151.566 556.525C149.521 562.65 148.724 568.883 147.19 575.117C144.512 586.003 140.112 596.318 140.542 607.712C136.878 608.487 132.137 607.814 128.395 607.617C121.009 607.229 113.583 606.904 106.213 606.263C100.546 605.77 94.9822 604.917 89.2789 604.774C81.9247 604.59 74.6288 605.24 67.2861 605.42C59.1536 605.619 50.9645 605.321 42.8379 604.979Z"/>
	<path fill="#272932" d="M89.5357 572.006C90.2534 572.106 90.9218 572.26 91.6143 572.475C94.2304 573.289 96.4177 574.301 97.6503 576.896C98.5258 578.739 98.4831 580.732 97.7415 582.611C96.4177 585.966 94.1099 587.309 90.9013 588.586C90.5907 588.544 90.2772 588.518 89.9696 588.458C87.2744 587.928 84.6493 586.909 83.3251 584.353C82.2816 582.338 82.2591 580.058 83.0398 577.955C84.2278 574.754 86.5524 573.338 89.5357 572.006Z"/>
	<path fill="#E7ECEF" d="M251.511 557.626C260.775 558.776 328.68 559.429 330.955 560.673C337.335 564.16 354.666 603.45 355.966 611.306C348.449 613.041 335.622 611.064 327.537 610.906C319.176 610.743 310.848 611.258 302.499 611.229C295.347 611.204 288.172 610.697 281.023 610.813C276.34 610.888 271.667 611.395 266.991 611.634C263.253 611.825 259.493 611.735 255.776 612.207C256.461 610.93 257.008 609.723 257.12 608.255C257.693 600.731 255.807 592.429 254.906 584.934C253.811 575.843 253.102 566.646 251.511 557.626Z"/>
	<path fill="#272932" d="M304.854 577.595C305.034 577.615 305.221 577.604 305.396 577.654C308.198 578.441 309.564 581.648 310.892 583.966C310.676 585.704 310.488 587.663 309.547 589.186C308.202 591.362 305.977 591.9 303.639 592.453C302.791 592.46 302.064 592.48 301.266 592.151C299.694 591.503 298.475 590.411 297.91 588.775C297.13 586.515 297.725 583.997 298.774 581.92C300.225 579.043 301.911 578.509 304.854 577.595Z"/>
	<path fill="#E7ECEF" d="M147.596 608.39C147.599 607.02 147.734 606.043 148.04 604.702C148.653 602.015 148.784 599.193 149.378 596.47C150.98 589.131 153.276 581.948 155.028 574.644C156.117 570.106 156.63 565.385 157.894 560.9C158.285 559.511 158.511 558.275 159.605 557.287C160.777 557.151 161.522 557.224 162.677 557.435C167.442 558.307 174.428 557.315 179.521 557.276C192.127 557.177 204.73 557.542 217.341 557.488C224.579 557.457 231.866 556.881 239.088 557.052C240.524 557.086 241.684 557.098 243.009 557.72C245.51 561.304 250.021 603.203 250.903 611.244C250.353 612.133 250.673 611.903 250.188 612.186C241.604 611.407 233.159 611.497 224.588 611.081C218.368 610.78 212.109 609.745 205.886 609.759C201.423 609.768 196.947 610.25 192.488 610.437C177.322 611.076 162.56 611.223 147.596 608.39Z"/>
	<path fill="#E7ECEF" d="M742.191 452.557C744.213 451.692 744.716 450.726 745.878 448.921C751.757 439.792 756.053 429.687 761.198 420.13C764.013 414.904 767.633 410 771.004 405.116C782.364 388.659 790.802 378.531 809.882 370.466C814.618 368.463 819.641 365.907 824.706 364.935C827.04 364.488 829.414 364.464 831.782 364.464C840.352 369.01 845.681 374.304 848.55 383.71C852.526 396.745 852.221 415.589 848.891 428.793C847.651 433.708 845.558 438.374 844.076 443.218C840.445 455.088 836.773 465.471 830.897 476.484C827.165 483.481 822.07 489.925 817.335 496.266C807.987 508.783 797.38 521.793 786.042 532.545C782.571 535.837 778.745 538.735 775.151 541.887C772.477 544.232 769.943 546.764 767.134 548.949C761.69 553.183 755.732 556.939 750.029 560.832C744.704 564.467 739.416 568.421 733.821 571.609C728.362 574.719 722.472 577.257 716.782 579.93C709.76 583.23 702.597 586.901 695.135 589.07C689.43 590.728 683.351 591.498 677.509 592.576C677.618 591.604 677.47 591.435 676.954 590.564C674.832 586.981 663.509 553.027 662.322 547.946C662.115 547.061 661.706 546.834 661.092 546.183C661.813 545.261 662.189 544.651 662.48 543.504C662.651 542.828 662.756 542.104 663.198 541.529C663.861 540.669 667.181 539.598 668.302 538.822C672.285 536.063 675.936 532.456 679.912 529.554C687.548 523.981 696.049 519.131 703.028 512.763C712.669 503.966 720.416 492.933 726.625 481.539C733.115 472.736 738.044 462.641 742.191 452.557Z"/>
	<path fill="#E7ECEF" d="M906.989 387.196C909.844 396.01 915.939 412.954 915.989 421.536C919.325 432.36 920.417 446.883 921.067 458.226C922.721 476.302 918.247 508.243 914.179 526.366C912.926 531.949 910.76 537.299 909.351 542.845C907.558 549.906 906.141 557.056 904.021 564.032C902.032 570.574 899.01 576.776 897.133 583.342C893.689 595.387 889.996 607.227 886.269 619.187C884.534 624.757 883.348 630.562 881.049 635.931C873.091 639.029 861.687 636.304 853.216 636.59C848.598 636.746 844.195 638.1 839.656 638.453C835.004 638.814 830.264 638.151 825.607 638.535C820.654 638.944 815.74 640.253 810.765 640.364C803.3 640.53 795.915 639.895 788.526 638.892C782.58 638.762 775.894 637.096 769.986 636.099C767.827 635.363 764.822 636.311 762.45 636.218C758.597 636.066 754.694 635.57 750.84 635.847Q730.388 637.516 710.031 640.093C704.218 640.812 698.438 642.263 692.58 642.523C689.141 642.676 686.144 642.504 682.818 641.5C685.317 634.226 686.847 626.72 688.746 619.288C690.697 611.651 693.596 603.812 694.06 595.898C699.877 594.88 705.233 593.616 710.82 591.676C719.669 588.602 728.539 585.108 736.769 580.592C740.523 578.533 744.006 575.952 747.601 573.627C762.074 564.266 776.407 554.053 789.158 542.409C804.126 528.74 825.864 503.103 835.865 485.88C840.547 477.817 845.244 468.332 848.294 459.509C849.358 456.432 849.321 453.055 850.794 450.148C850.858 450.021 850.929 449.898 850.997 449.773C850.884 446.457 852.33 442.515 853.076 439.276C854.08 434.919 857.154 419.514 857.052 415.785C856.99 413.543 856.819 411.137 857.535 408.994L858.679 408.671C865.081 408.244 900.9 391.171 906.989 387.196Z"/>
	<path fill="#F05D5E" d="M769.986 636.099C770.526 635.529 770.819 635.382 771.003 634.604C773.019 626.075 786.996 587.281 792.892 583.325C793.925 582.632 794.631 582.618 795.816 582.766C797.154 584.217 797.057 586.389 796.982 588.253C796.777 593.417 795.266 598.745 794.175 603.781C792.065 613.524 788.478 629.296 788.526 638.892C782.58 638.762 775.894 637.096 769.986 636.099Z"/>
	<path fill="#272932" d="M906.989 387.196C909.844 396.01 915.939 412.954 915.989 421.536C895.526 433.505 873.838 443.269 850.997 449.773C850.884 446.457 852.33 442.515 853.076 439.276C854.08 434.919 857.154 419.514 857.052 415.785C856.99 413.543 856.819 411.137 857.535 408.994L858.679 408.671C865.081 408.244 900.9 391.171 906.989 387.196Z"/>
	<path fill="#272932" d="M0 0L1024 0L1024 58.5301C1016.48 61.3754 1009.36 64.9031 1002 68.1167C997.467 70.0957 992.796 71.7146 988.282 73.7447C983.09 76.0805 978.082 78.6925 972.757 80.7441C964.373 83.9748 955.374 85.1835 946.879 88.1764C938.588 91.0977 930.713 95.151 922.444 98.0815C912.243 101.697 901.653 104.122 891.331 107.301L859.495 116.898C852.778 118.965 846.046 121.404 839.24 123.126C839.898 126.662 839.76 129.655 839.244 133.206C834.981 131.117 828.653 131.45 823.921 131.19C821.45 131.476 819.003 131.101 816.523 131.228C811.326 131.492 806.333 132.456 801.254 133.512C794.397 122.343 785.375 113.435 774.892 105.634C766.951 99.7255 756.76 93.9502 747.359 90.7599C743.28 89.3758 739.005 88.4933 734.854 87.3395C712.72 81.1864 695.505 79.1637 672.598 82.4329C668.533 82.9381 661.807 83.0956 658.101 84.6803L658.855 85.7745L658.673 86.4674L658.283 88.0472C655.971 97.5261 655.812 137.465 658.059 146.883C658.095 147.034 658.127 147.185 658.161 147.336C619.754 152.732 578.287 175.775 554.717 206.795Q552.105 210.206 550.28 214.096C547.589 206.152 555.538 174.839 559.196 166.306C538.269 170.068 516.989 171.202 495.852 173.191C488.522 173.881 481.101 175.863 473.809 176.216C469.355 176.432 464.821 175.354 460.371 175.567L419.042 177.508C411.482 177.861 404.023 179.794 396.544 180.19C390.727 180.499 384.751 177.858 378.733 178.021C361.406 178.491 344.035 181.006 326.755 181.228C319.16 181.326 311.498 179.327 303.866 179.383C292.915 179.463 281.865 180.76 270.925 181.304C264.561 181.62 258.175 181.167 251.829 181.511C247.001 181.773 242.268 183.064 237.412 183.009C229.761 182.923 221.876 182.593 214.24 182.017C210.619 181.744 206.987 181.165 203.358 181.069C197.548 180.915 191.693 182.186 185.921 182.042C180.693 181.912 175.436 180.638 170.242 180.639C166.891 180.64 163.619 181.937 160.229 181.84C148.405 181.502 136.725 181.094 124.882 181.088C119.208 181.084 112.896 180.621 107.373 181.989C104.487 180.545 103.172 180.226 99.8863 180.783C91.2208 182.252 82.8506 179.901 74.1762 179.389C61.3722 178.632 48.5574 179.172 35.8082 178.482C23.9117 177.838 11.9304 175.576 0 176.025L0 0Z"/>
	<path fill="#E7ECEF" d="M823.921 131.19C822.345 117.944 818.264 103.843 813.34 91.4804C811.944 87.9763 803.003 71.0432 802.838 69.1097C802.708 67.5852 803.531 65.6195 804.478 64.457C805.93 62.6753 808.23 61.5637 810.507 61.3929C812.973 61.208 815.104 62.0507 816.94 63.6663C828.013 73.4112 838.102 108.241 839.24 123.126C839.898 126.662 839.76 129.655 839.244 133.206C834.981 131.117 828.653 131.45 823.921 131.19Z"/>
	<path fill="#E7ECEF" d="M559.196 166.306C560.576 158.607 567.658 147.737 571.856 140.973C592.208 108.176 621.516 93.2675 658.101 84.6803L658.855 85.7745L658.673 86.4674L658.283 88.0472C655.971 97.5261 655.812 137.465 658.059 146.883C658.095 147.034 658.127 147.185 658.161 147.336C619.754 152.732 578.287 175.775 554.717 206.795Q552.105 210.206 550.28 214.096C547.589 206.152 555.538 174.839 559.196 166.306Z"/>
	<path fill="#E7ECEF" d="M1024 58.5301L1024 631.84C1014.77 633.109 1005.37 633.504 996.101 634.725C989.017 635.659 981.725 638.083 974.572 637.918C966.92 637.74 959.134 634.642 951.646 633.174C938.501 630.598 915.56 631.553 902.228 633.746L902.225 634.823L900.487 634.036C900.351 634.164 900.218 634.296 900.078 634.42C899.67 634.784 899.329 635.108 898.76 635.238C896.358 635.784 892.288 634.835 889.698 634.82C886.874 634.804 883.985 635.832 881.049 635.931C883.348 630.562 884.534 624.757 886.269 619.187C889.996 607.227 893.689 595.387 897.133 583.342C899.01 576.776 902.032 570.574 904.021 564.032C906.141 557.056 907.558 549.906 909.351 542.845C910.76 537.299 912.926 531.949 914.179 526.366C918.247 508.243 922.721 476.302 921.067 458.226C920.417 446.883 919.325 432.36 915.989 421.536C915.939 412.954 909.844 396.01 906.989 387.196C900.9 391.171 865.081 408.244 858.679 408.671C860.312 394.122 857.885 378.345 848.568 366.614C844.347 361.298 839.135 357.441 832.214 356.657C817.627 355.004 796.977 365.295 786.055 374.263C779.732 379.454 773.351 386.027 768.361 392.516C759.109 404.547 747.126 425.755 745.062 440.764C745.045 440.891 745.075 441.02 745.082 441.148C736.585 444.208 728.022 445.293 719.198 446.846C711.322 448.232 703.614 449.729 695.658 450.634C695.69 447.128 694.079 445.257 691.694 442.833C680.837 431.801 670.653 420.548 662.349 407.402C659.545 402.964 657.302 395.381 651.979 393.578C650.884 393.709 650.322 393.732 649.596 394.711C648.553 396.12 648.364 399.027 648.912 400.659C652.458 411.21 677.144 443.967 686.543 449.341L686.78 449.865L686.657 450.18C685.843 450.132 685.124 450.013 684.332 449.823C676.656 459.444 670.58 470.266 662.693 479.841C654.804 489.418 645.879 499.333 636.806 507.811C628.983 515.119 620.647 521.211 611.956 527.393C608.218 530.052 604.741 533.096 600.92 535.635C587.496 544.557 570.398 553.26 554.206 555.092C552.48 555.288 549.378 555.966 547.839 555.062C547.814 555.048 547.793 555.025 547.77 555.006C546.933 546.477 532.662 514.867 527.838 506.594C530.117 504.778 532.672 503.647 535.122 502.113C543.471 496.888 552.345 491.798 560.278 486.016C570.006 478.926 579.306 470.216 586.642 460.673C601.266 441.651 612.846 414.183 621.732 391.744C624.718 384.204 627.724 376.579 630.156 368.84C631.586 364.288 633.263 354.851 635.292 351.148C635.449 350.863 635.622 350.586 635.786 350.305C633.987 349.859 632.291 349.223 630.569 348.544C599.527 336.301 572.652 308.12 559.455 277.573C552.152 260.67 549.083 241.729 549.448 223.362C549.511 220.224 549.098 217.076 550.28 214.096Q552.105 210.206 554.717 206.795C578.287 175.775 619.754 152.732 658.161 147.336C658.127 147.185 658.095 147.034 658.059 146.883C655.812 137.465 655.971 97.5261 658.283 88.0472L658.673 86.4674L658.855 85.7745L658.101 84.6803C661.807 83.0956 668.533 82.9381 672.598 82.4329C695.505 79.1637 712.72 81.1864 734.854 87.3395C739.005 88.4933 743.28 89.3758 747.359 90.7599C756.76 93.9502 766.951 99.7255 774.892 105.634C785.375 113.435 794.397 122.343 801.254 133.512C806.333 132.456 811.326 131.492 816.523 131.228C819.003 131.101 821.45 131.476 823.921 131.19C828.653 131.45 834.981 131.117 839.244 133.206C839.76 129.655 839.898 126.662 839.24 123.126C846.046 121.404 852.778 118.965 859.495 116.898L891.331 107.301C901.653 104.122 912.243 101.697 922.444 98.0815C930.713 95.151 938.588 91.0977 946.879 88.1764C955.374 85.1835 964.373 83.9748 972.757 80.7441C978.082 78.6925 983.09 76.0805 988.282 73.7447C992.796 71.7146 997.467 70.0957 1002 68.1167C1009.36 64.9031 1016.48 61.3754 1024 58.5301Z"/>
	<path fill="#F05D5E" d="M658.101 84.6803C661.807 83.0956 668.533 82.9381 672.598 82.4329C672.339 82.8445 671.965 83.2029 671.823 83.6677C671.132 85.9261 671.772 93.057 671.724 95.8149C671.632 100.99 671.06 106.14 670.992 111.312C670.842 122.721 671.465 134.24 670.295 145.626C667.259 145.498 660.81 145.925 658.161 147.336C658.127 147.185 658.095 147.034 658.059 146.883C655.812 137.465 655.971 97.5261 658.283 88.0472L658.673 86.4674L658.855 85.7745L658.101 84.6803Z"/>
	<path fill="#272932" d="M670.295 145.626C680.727 145.917 691.4 145.911 701.701 147.799C720.326 151.211 743.005 164.33 756.048 178.063C774.77 197.775 786.337 226.735 785.545 253.977C784.853 277.787 772.962 302.681 755.602 318.95C748.482 325.623 740.311 330.147 731.894 334.865C727.126 337.538 722.827 340.956 717.932 343.437C703.707 350.646 680.589 355.539 664.584 354.944C655.093 354.591 644.892 353.171 635.786 350.305C633.987 349.859 632.291 349.223 630.569 348.544C599.527 336.301 572.652 308.12 559.455 277.573C552.152 260.67 549.083 241.729 549.448 223.362C549.511 220.224 549.098 217.076 550.28 214.096Q552.105 210.206 554.717 206.795C578.287 175.775 619.754 152.732 658.161 147.336C660.81 145.925 667.259 145.498 670.295 145.626Z"/>
	<path fill="#E7ECEF" d="M673.748 193.659C676.379 193.945 679.162 193.489 681.828 193.539C695.317 193.792 709.034 199.285 718.545 208.902C722.018 212.415 724.752 216.511 728.196 220.036L728.658 220.501C730.635 219.668 732.667 218.741 734.74 218.181C740.505 216.626 748.092 216.851 753.305 219.836C758.802 222.983 762.356 228.911 763.769 234.981C764.676 238.874 763.932 241.744 763.828 245.514C763.782 247.194 764.414 249.224 764.037 250.836C762.355 258.02 754.592 263.773 753.626 268.563C753.058 271.378 754.435 275.248 754.886 278.147C756.523 288.655 755.102 301.267 749.346 310.422C741.945 322.193 725.578 326.911 712.89 329.984C693.919 335.133 673.626 335.046 655.77 325.923C639.759 317.743 627.447 301.429 622.129 284.415C616.017 264.857 617.456 246.024 626.956 227.838C633.839 214.663 645.72 202.636 659.879 197.472C664.362 195.837 669.186 195.088 673.748 193.659Z"/>
	<path fill="#272932" d="M653.047 262.919C654.131 262.925 655.164 262.888 656.192 263.301C658.232 264.12 659.751 266 660.604 267.968C661.578 270.212 662.843 277.166 661.73 279.298C661.655 279.441 661.54 279.559 661.445 279.69L662.203 280.815C661.538 280.984 660.884 281.124 660.199 281.179C657.205 281.42 655.782 280.189 653.565 278.319C652.723 275.591 651.807 272.626 651.466 269.787C651.134 267.033 651.322 265.12 653.047 262.919Z"/>
	<path fill="#272932" d="M682.979 251.342C684.345 251.42 685.597 251.597 686.815 252.252C691.718 254.891 692.669 262.806 693.907 267.737L690.336 270.194C689.64 270.401 688.855 270.674 688.131 270.73C686.584 270.851 685.226 269.491 684.078 268.597C682.454 264.694 679.693 259.572 680.115 255.314C680.3 253.451 681.664 252.478 682.979 251.342Z"/>
	<path fill="#272932" d="M694.025 285.681C694.692 285.731 695.362 285.768 696.017 285.914C698.966 286.571 700.339 288.764 701.883 291.151C701.409 294.207 701.024 297.296 699.626 300.097C697.578 304.201 694.195 307.26 689.811 308.68C684.334 310.453 676.901 309.394 671.797 306.795C670.999 306.05 670.192 305.299 669.464 304.486C667.903 302.742 666.518 300.804 666.796 298.352C667.042 296.182 668.762 295.153 670.341 293.893C674.792 297.48 678.43 299.258 684.026 300.347Q684.742 300.107 685.451 299.847C692.495 297.236 691.161 291.781 693.797 286.15C693.871 285.993 693.949 285.837 694.025 285.681Z"/>
	<path fill="#F05D5E" d="M1024 58.5301L1024 631.84C1014.77 633.109 1005.37 633.504 996.101 634.725C989.017 635.659 981.725 638.083 974.572 637.918C966.92 637.74 959.134 634.642 951.646 633.174C938.501 630.598 915.56 631.553 902.228 633.746L902.225 634.823L900.487 634.036C900.351 634.164 900.218 634.296 900.078 634.42C899.67 634.784 899.329 635.108 898.76 635.238C896.358 635.784 892.288 634.835 889.698 634.82C886.874 634.804 883.985 635.832 881.049 635.931C883.348 630.562 884.534 624.757 886.269 619.187C889.996 607.227 893.689 595.387 897.133 583.342C899.01 576.776 902.032 570.574 904.021 564.032C906.141 557.056 907.558 549.906 909.351 542.845C910.76 537.299 912.926 531.949 914.179 526.366C918.247 508.243 922.721 476.302 921.067 458.226C920.417 446.883 919.325 432.36 915.989 421.536C915.939 412.954 909.844 396.01 906.989 387.196C906.779 384.081 905.23 379.947 904.367 376.879C900.989 364.869 895.414 353.137 890.33 341.748C886.749 333.726 883.342 325.459 879.198 317.719C864.763 290.759 845.485 272.992 819.007 258.1C826.001 227.353 828.453 206.063 819.844 174.734C818.036 168.152 816.426 161.274 813.559 155.064C810.094 147.559 805.139 140.8 801.254 133.512C806.333 132.456 811.326 131.492 816.523 131.228C819.003 131.101 821.45 131.476 823.921 131.19C828.653 131.45 834.981 131.117 839.244 133.206C839.76 129.655 839.898 126.662 839.24 123.126C846.046 121.404 852.778 118.965 859.495 116.898L891.331 107.301C901.653 104.122 912.243 101.697 922.444 98.0815C930.713 95.151 938.588 91.0977 946.879 88.1764C955.374 85.1835 964.373 83.9748 972.757 80.7441C978.082 78.6925 983.09 76.0805 988.282 73.7447C992.796 71.7146 997.467 70.0957 1002 68.1167C1009.36 64.9031 1016.48 61.3754 1024 58.5301Z"/>
	<path fill="#0F7173" d="M823.921 131.19C828.653 131.45 834.981 131.117 839.244 133.206C857.44 136.141 886.409 142.556 897.797 158.447C907.461 171.933 912.356 189.815 917.748 205.38C923.591 222.248 929.215 239.064 934.608 256.08C935.482 258.835 937.235 261.247 938.114 264.008C942.891 279.017 945.588 294.853 949.578 310.08C950.879 315.047 952.677 319.868 953.98 324.827C960.496 349.622 966.728 374.313 971.929 399.431C974.022 409.539 977.861 420.306 975.966 430.747C975.279 434.53 972.07 437.155 968.971 439.13C961.297 444.02 928.215 458.944 921.067 458.226C920.417 446.883 919.325 432.36 915.989 421.536C915.939 412.954 909.844 396.01 906.989 387.196C906.779 384.081 905.23 379.947 904.367 376.879C900.989 364.869 895.414 353.137 890.33 341.748C886.749 333.726 883.342 325.459 879.198 317.719C864.763 290.759 845.485 272.992 819.007 258.1C826.001 227.353 828.453 206.063 819.844 174.734C818.036 168.152 816.426 161.274 813.559 155.064C810.094 147.559 805.139 140.8 801.254 133.512C806.333 132.456 811.326 131.492 816.523 131.228C819.003 131.101 821.45 131.476 823.921 131.19Z"/>
	<path fill="#272932" d="M477.512 614.055C477.611 609.56 479.904 604.242 483.179 601.172C485.772 598.743 489.124 597.456 492.682 597.659C498.345 597.982 503.241 601.825 506.769 606.015C511.318 611.417 513.982 618.589 514.608 625.6C514.73 626.958 514.51 630.114 514.997 631.246C515.149 631.598 515.505 631.819 515.759 632.105C518.037 629.952 519.685 627.263 521.729 624.894C527.172 618.585 536.143 610.14 545.047 610.232C547.577 610.258 550.439 610.894 552.16 612.892C554.761 615.911 555.241 621.786 554.834 625.562C554.594 627.785 553.933 629.951 553.319 632.094Q559.006 633.034 564.743 633.589Q570.481 634.144 576.242 634.312Q582.004 634.48 587.764 634.26Q593.524 634.04 599.256 633.433C606.27 632.666 613.299 631.101 620.352 630.848C631.41 630.451 642.015 632.057 652.85 633.969C655.604 634.455 658.761 634.695 661.416 635.52C662.905 635.982 664.307 636.656 665.811 637.087C671.322 638.667 677.552 639.218 682.818 641.5C686.144 642.504 689.141 642.676 692.58 642.523C698.438 642.263 704.218 640.812 710.031 640.093Q730.388 637.516 750.84 635.847C754.694 635.57 758.597 636.066 762.45 636.218C764.822 636.311 767.827 635.363 769.986 636.099C775.894 637.096 782.58 638.762 788.526 638.892C795.915 639.895 803.3 640.53 810.765 640.364C815.74 640.253 820.654 638.944 825.607 638.535C830.264 638.151 835.004 638.814 839.656 638.453C844.195 638.1 848.598 636.746 853.216 636.59C861.687 636.304 873.091 639.029 881.049 635.931C883.985 635.832 886.874 634.804 889.698 634.82C892.288 634.835 896.358 635.784 898.76 635.238C899.329 635.108 899.67 634.784 900.078 634.42C900.218 634.296 900.351 634.164 900.487 634.036L902.225 634.823L902.228 633.746C915.56 631.553 938.501 630.598 951.646 633.174C959.134 634.642 966.92 637.74 974.572 637.918C981.725 638.083 989.017 635.659 996.101 634.725C1005.37 633.504 1014.77 633.109 1024 631.84L1024 1024L0 1024L0 606.905C5.56486 605.222 12.4706 607.339 18.2599 607.315C26.2792 607.283 34.7577 605.564 42.8379 604.979C50.9645 605.321 59.1536 605.619 67.2861 605.42C74.6288 605.24 81.9247 604.59 89.2789 604.774C94.9822 604.917 100.546 605.77 106.213 606.263C113.583 606.904 121.009 607.229 128.395 607.617C132.137 607.814 136.878 608.487 140.542 607.712C142.733 608.31 145.321 608.501 147.596 608.39C162.56 611.223 177.322 611.076 192.488 610.437C196.947 610.25 201.423 609.768 205.886 609.759C212.109 609.745 218.368 610.78 224.588 611.081C233.159 611.497 241.604 611.407 250.188 612.186C252.003 612.673 253.927 612.008 255.776 612.207C259.493 611.735 263.253 611.825 266.991 611.634C271.667 611.395 276.34 610.888 281.023 610.813C288.172 610.697 295.347 611.204 302.499 611.229C310.848 611.258 319.176 610.743 327.537 610.906C335.622 611.064 348.449 613.041 355.966 611.306C370.638 607.478 387.528 613.271 402.596 612.646C417.509 612.028 431.175 604.984 446.381 605.495C456.383 605.83 467.318 608.602 476.538 612.441C476.952 612.999 477.259 613.402 477.512 614.055Z"/>
	<path fill="#E7ECEF" d="M627.881 907.95C628.938 908.153 628.554 908.129 629.39 908.154C630.333 908.183 631.237 908.219 632.16 908.437C636.753 909.524 642.172 913.081 644.423 917.324C645.198 918.783 645.136 919.664 644.639 921.195C641.909 923.755 637.695 922.523 634.274 922.671L633.389 922.714C627.55 923.534 621.369 923.17 615.502 922.753L615.437 922.264L616.521 921.75C616.429 921.515 616.325 921.284 616.246 921.044C615.75 919.533 615.991 918.303 616.717 916.935C619.065 912.518 623.195 909.429 627.881 907.95Z"/>
	<path fill="#F05D5E" d="M249.526 727.502L254.796 727.481C255.414 727.473 256.049 727.421 256.662 727.535C260.979 728.337 268.153 733.354 270.553 736.922C271.195 737.878 271.273 738.329 271.016 739.468C270.607 739.756 270.254 740.148 269.789 740.333C269.787 740.334 256.004 740.481 254.371 740.613C249.252 739.805 244.134 741.288 239.026 741.109C237.241 741.047 236.458 740.648 235.228 739.389C235.152 738.453 235.011 738.17 235.432 737.284C237.688 732.537 244.834 729.089 249.526 727.502Z"/>
	<path fill="#CE337F" d="M559.322 745.752C574.773 744.323 589.2 747.822 601.476 757.495C603.757 759.292 607.459 762.59 607.362 765.793C607.321 767.143 606.826 767.6 605.965 768.493C604.879 768.899 604.028 769.188 602.875 768.819C597.524 767.107 592.059 760.541 586.683 757.658C584.813 756.656 582.865 756.291 580.879 755.628C578.623 754.875 575.645 753.81 573.223 753.864C573.069 753.867 572.916 753.893 572.763 753.908C571.399 753.738 570.031 753.599 568.655 753.624C553.524 753.894 540.271 759.248 529.684 770.127C527.968 768.892 525.894 767.664 525.535 765.382C525.259 763.63 526.363 761.98 527.519 760.776C533.348 754.702 549.822 746.383 558.132 746.261C559.057 746.247 558.529 746.483 559.322 745.752Z"/>
	<path fill="#E7ECEF" d="M749.824 717.756C749.953 717.718 750.077 717.657 750.211 717.64C753.853 717.194 758.378 718.693 761.49 720.474C765.536 722.791 770.829 727.973 771.721 732.821C771.953 734.084 771.881 735.216 771.072 736.275C768.14 740.114 749.772 738.145 744.378 738.873C744.215 738.895 744.054 738.929 743.891 738.957Q734.484 739.142 725.089 739.656C724.176 738.933 723.866 738.653 723.888 737.352C723.946 733.927 728.328 727.95 730.703 725.503C735.827 720.228 742.646 717.957 749.824 717.756Z"/>
	<path fill="#CE337F" d="M921.254 698.817C922.219 698.978 923.003 698.926 923.785 699.563C928.263 703.213 927.772 717.217 928.469 722.996L928.86 723.214C934.276 721.463 938.412 715.249 944.083 713.245C945.667 712.685 946.523 712.9 948.029 713.546C949.078 714.767 949.939 716.559 949.773 718.226C949.361 722.364 933.943 730.604 930.095 733.06C928.507 737.871 928.999 749.77 926.728 752.499C926.209 753.122 925.771 753.589 924.95 753.695C923.161 753.925 921.875 752.869 920.589 751.806C919.365 734.204 916.952 735.511 904.164 725.361C902.228 723.824 899.692 721.823 898.385 719.72C897.728 718.663 897.492 717.386 897.85 716.176C898.202 714.988 899.106 714.038 900.218 713.513C907.807 709.936 915.718 724.632 919.83 725.889C920.498 723.483 919.309 719.667 919.161 717.078C919.058 715.283 919.549 713.424 919.384 711.668C919.185 709.553 917.708 707.759 917.66 705.437C917.609 702.996 919.591 700.427 921.254 698.817Z"/>
	<path fill="#F05D5E" d="M216.363 931.669C222.023 931.283 228.288 932.673 233.257 935.424C239.441 938.846 244.66 944.31 246.555 951.206C246.886 952.413 247.659 952.069 248.034 953.322C247.705 953.678 247.476 953.949 247.085 954.258C244.472 956.324 227.835 956.105 223.977 955.664L223.775 956.087C217.255 954.85 197.096 956.751 192.892 953.778C192.201 953.289 191.928 952.968 191.817 952.139C191.582 950.379 192.464 949.032 193.435 947.649C198.81 939.991 206.979 933.157 216.363 931.669Z"/>
	<path fill="#CE337F" d="M85.0793 831.856C85.2769 831.864 85.4752 831.86 85.672 831.879C87.1554 832.018 89.0015 832.561 89.8576 833.873C93.0823 838.813 91.108 851.164 90.3465 856.759C95.7849 854.115 96.7519 849.75 99.7101 845.001C101.018 842.901 102.55 840.973 105.045 840.382C106.429 840.726 107.099 841.089 107.837 842.428C109.011 844.556 109.005 846.726 108.246 848.999C105.376 857.591 97.6237 863.37 89.9912 867.442C89.9332 871.311 90.7845 881.318 89.3488 884.522C88.621 886.146 87.9562 886.801 86.2851 887.359C84.5517 887.133 83.2391 887.032 81.9231 885.741C78.2181 882.106 80.3595 871.437 80.5572 866.679C74.2328 861.035 62.5414 852.482 61.3297 843.299C61.0756 841.372 61.5725 839.657 62.8671 838.189C63.4777 837.497 64.403 836.873 65.3549 836.939C69.4073 837.223 76.4287 850.437 80.0764 854.041C80.1927 853.953 80.329 853.886 80.4252 853.776C82.865 850.989 81.0584 842.044 81.6209 838.085C82.0396 835.138 82.6982 833.662 85.0793 831.856Z"/>
	<path fill="#CE337F" d="M395.421 834.848C396.589 834.924 398.133 835.064 398.954 835.979C403.275 840.794 401.63 857.03 401.017 863.339C406.149 857.771 410.07 852.004 414.568 846.001C416.002 844.088 417.1 842.542 419.614 842.189C420.741 842.438 421.47 842.72 422.129 843.738C422.87 844.881 423.147 846.375 422.86 847.705C420.441 858.932 408.887 867.594 399.859 873.45C401.939 879.409 401.317 891.216 399.943 897.496C399.218 898.152 398.625 898.626 397.729 899.047C396.237 899.748 394.778 899.907 393.26 899.378C389.084 893.345 393.964 878.694 391.005 875.508C389.602 873.998 386.672 872.798 384.929 871.465C377.173 865.535 373.605 857.973 371.512 848.665C372.941 847.372 374.579 846.306 376.145 845.184C376.3 845.291 376.452 845.403 376.61 845.506C383.225 849.819 386.799 860.233 391.778 866.523C392.131 858.61 391.912 850.675 392.349 842.769C392.545 839.231 392.682 837.313 395.421 834.848Z"/>
	<path fill="#CE337F" d="M801.92 837.569C802.694 837.519 803.48 837.454 804.255 837.47C805.818 837.502 806.476 837.563 807.531 838.829C811.043 843.043 809.297 864.901 808.525 870.947L808.987 870.683L809.752 870.236C821.573 863.475 820.911 853.095 824.936 841.694C826.307 841.493 828.327 840.974 829.675 841.299C830.572 841.515 831.235 842.155 831.636 842.975C832.826 845.402 831.689 849.77 831.126 852.328C829.409 860.133 825.002 870.57 817.986 874.999C814.973 876.902 812.337 878.658 808.917 879.771C809.282 887.282 810.507 896.352 809.08 903.747L809.438 904.398C809.034 905.574 808.799 906.23 807.562 906.818C806.453 907.345 805.742 906.967 804.709 906.576C803.893 906.896 803.397 906.972 802.522 906.921C798.589 902.802 802.121 883.442 800.664 881.28C799.477 879.52 795.642 877.979 793.812 876.843C787.12 872.69 782.068 864.06 780.032 856.585C779.441 854.415 778.281 850.342 779.6 848.383C780.252 847.413 781.283 846.578 782.494 846.465C784.751 846.256 786.212 847.845 787.671 849.281C790.069 857.826 792.783 865.8 800.489 870.984C800.163 861.709 799.686 852.319 800.279 843.053C800.425 840.758 800.573 839.485 801.92 837.569Z"/>
	<path fill="#E7ECEF" d="M111.492 636.475C113.359 636.662 115.219 637.187 117.046 637.607C122.84 643.564 122.127 651.578 122.49 659.278C125.243 657.569 128.014 655.718 130.883 654.216C136.34 651.359 140.669 651.446 146.428 653.24C147.977 654.684 149.187 656.37 150.464 658.051C150.641 661.888 150.514 664.883 148.774 668.435C143.753 678.687 129.901 686.33 119.656 690.058C118.834 686.648 119.301 683.166 119.332 679.694C119.358 676.755 119.056 674.595 116.963 672.439C115.425 671.57 113.777 672.081 112.116 672.328C112.064 675.926 112.744 687.102 110.942 689.706L110.47 689.061C108.134 683.528 109.193 677.13 106.711 671.758C105.564 671.22 105.363 671.432 104.156 671.616C103.137 672.289 102.481 672.837 101.982 673.991C101.498 675.109 101.534 676.025 102.033 677.123C102.138 677.354 102.274 677.569 102.395 677.792C102.191 678.216 101.983 678.639 101.753 679.05L101.501 679.494C101.87 680.81 102.353 682.09 102.206 683.464C102.004 685.359 102.812 687.58 103.048 689.522C102.895 689.571 102.75 689.659 102.59 689.669C98.5718 689.94 84.5668 677.571 81.7454 674.276C77.9068 669.794 71.8871 660.923 73.0342 654.675C73.6564 651.285 77.0534 649.604 79.7173 647.936C88.6206 649.152 89.4275 650.505 95.4939 656.78C96.7966 653.916 97.8163 650.933 99.168 648.087C101.979 642.167 105.294 638.66 111.492 636.475Z"/>
	<path fill="#E7ECEF" d="M477.512 614.055C477.611 609.56 479.904 604.242 483.179 601.172C485.772 598.743 489.124 597.456 492.682 597.659C498.345 597.982 503.241 601.825 506.769 606.015C511.318 611.417 513.982 618.589 514.608 625.6C514.73 626.958 514.51 630.114 514.997 631.246C515.149 631.598 515.505 631.819 515.759 632.105C518.037 629.952 519.685 627.263 521.729 624.894C527.172 618.585 536.143 610.14 545.047 610.232C547.577 610.258 550.439 610.894 552.16 612.892C554.761 615.911 555.241 621.786 554.834 625.562C554.594 627.785 553.933 629.951 553.319 632.094C552.366 634.382 550.978 636.453 549.622 638.52C540.37 652.627 531.781 659.949 515.14 663.362C516.404 660.478 519.727 655.465 519.034 652.372C518.678 650.785 518.035 649.381 516.657 648.466C510.506 649.082 510.085 661.279 505.113 663.898C502.413 661.001 505.098 649.461 504.131 645.006C503.792 643.447 503.23 642.784 501.922 641.934C500.633 641.979 499.923 641.92 498.894 642.852C495.099 646.292 496.16 660.157 496.558 665.028L491.887 662.972C491.911 657.613 492.933 642.806 490.729 638.805C489.983 638.403 489.807 638.11 488.921 638.28C486.551 638.734 485.646 640.804 484.457 642.675C484.395 646.174 484.048 649.665 484.065 653.167C484.081 656.576 484.757 660.088 484.311 663.469L483.531 663.818C480.708 663.475 478.428 662.164 475.714 661.557C473.695 661.106 471.528 661.585 469.67 660.538C464.128 657.413 458.208 654.492 453.031 650.786C444.775 644.875 440.654 639.135 438.974 629.031C439.83 626.857 440.665 624.683 442.153 622.851C444.11 620.443 446.857 618.892 449.962 618.623C458.603 617.874 469.008 625.188 475.39 630.296C475.827 625.409 475.069 618.274 477.512 614.055Z"/>
</svg>
