<?xml version="1.0" encoding="utf-8" ?>
<svg xmlns="http://www.w3.org/2000/svg" xmlns:xlink="http://www.w3.org/1999/xlink" width="1024" height="1024">
	<path fill="#FEFEFE" d="M0 0L1024 0L1024 1024L0 1024L0 0Z"/>
	<path fill="#5B2448" d="M453.936 440.061C460.372 438.418 466.966 436.556 473.613 436.1C470.294 440.451 466.779 444.645 462.774 448.386C467.564 451.271 472.482 454.167 476.833 457.693C470.405 458.813 463.925 459.525 457.447 460.291C457.368 460.24 457.28 460.201 457.209 460.14C456.165 459.233 454.575 443.116 453.936 440.061Z"/>
	<path fill="#5B2448" d="M586.891 408.717C593.598 410.48 599.962 412.592 606.341 415.316C603.703 422.333 601.668 429.491 599.83 436.754C592.912 434.881 586.267 432.387 579.566 429.869L595.856 422.51C592.934 417.864 589.73 413.426 586.891 408.717Z"/>
	<path fill="#FEF1E0" d="M978.313 374.618C982.724 374.384 986.652 374.836 990.539 377.104Q990.952 377.348 991.352 377.612Q991.752 377.875 992.139 378.159Q992.526 378.442 992.898 378.745Q993.27 379.047 993.626 379.368Q993.982 379.688 994.322 380.026Q994.662 380.364 994.985 380.719Q995.308 381.073 995.613 381.443Q995.917 381.814 996.203 382.198Q996.489 382.583 996.755 382.982Q997.021 383.381 997.268 383.792Q997.514 384.203 997.739 384.627Q997.964 385.05 998.168 385.484Q998.372 385.917 998.554 386.361Q998.736 386.804 998.896 387.256Q999.055 387.708 999.192 388.168Q999.329 388.627 999.443 389.093C1000.54 393.742 999.601 398.613 997.086 402.652C993.995 407.618 989.688 409.916 984.21 411.291C979.441 411.589 975.088 411.236 970.862 408.752Q970.476 408.526 970.102 408.28Q969.727 408.035 969.366 407.771Q969.005 407.506 968.658 407.224Q968.311 406.941 967.978 406.641Q967.646 406.342 967.329 406.025Q967.013 405.709 966.713 405.376Q966.413 405.044 966.13 404.697Q965.848 404.35 965.583 403.989Q965.319 403.628 965.073 403.253Q964.828 402.879 964.601 402.493Q964.375 402.107 964.169 401.709Q963.963 401.312 963.777 400.905Q963.592 400.497 963.427 400.081Q963.263 399.665 963.12 399.241Q962.977 398.816 962.856 398.385Q962.735 397.955 962.636 397.518C961.433 392.196 962.472 385.922 965.574 381.4C968.818 376.67 973.051 375.678 978.313 374.618Z"/>
	<path fill="#5B2448" d="M223.494 937.534Q216.354 904.392 207.339 871.709Q203.266 857.002 198.483 842.51C196.557 836.791 193.979 830.932 192.48 825.115C192.075 823.542 191.886 822.33 192.142 820.724L192.924 819.947C197.958 823.052 215.086 886.393 217.383 896.06C220.639 909.773 223.146 923.815 226.828 937.404C235.584 937.818 244.466 937.507 253.235 937.408C259.624 937.77 266.197 937.502 272.604 937.49L309.793 937.399L342.514 937.405C348.262 937.401 354.184 937.687 359.91 937.211C392.595 936.909 425.288 937.569 457.98 937.098L586.088 937.345L653.863 937.388C665.47 937.411 677.192 937.817 688.78 937.418C695.631 937.046 702.65 937.338 709.519 937.328L749.606 937.161Q771.905 937.058 794.203 937.225C797.916 923.871 824.346 825.385 828.141 822.359C829.07 822.739 829.074 822.494 829.363 823.321C830.075 825.355 829.283 827.907 828.758 829.929C824.072 847.947 817.562 865.626 812.425 883.535C807.328 901.308 803.539 919.677 797.312 937.088C817.592 938.088 838.192 936.789 858.527 937.097C881.169 937.189 903.883 936.735 926.512 937.362L982.066 937.399C991.009 937.399 1000.46 936.688 1009.34 937.57C1010.98 937.734 1012.09 937.827 1013.38 938.891C1013.2 939.129 1013.04 939.398 1012.82 939.605C1011.35 940.986 1007.7 941.35 1005.8 941.428C993.788 941.922 981.427 941.29 969.378 941.28L898.871 941.435L682.468 941.394L44.055 941.455C40.1302 941.465 29.0479 942.654 26.2441 940.159C26.1327 938.868 26.0342 938.908 26.8434 937.915C30.4473 936.591 90.3379 937.633 100.903 937.335C107.353 936.551 114.406 937.095 120.932 937.112L160.256 937.236Q191.874 937.561 223.494 937.534Z"/>
	<path fill="#5B2448" d="M619.271 397.827C638.099 376.506 679.566 342.981 708.367 341.388C713.884 341.083 720.482 342.128 724.661 345.97C727.503 348.582 728.899 352.427 728.923 356.243C728.974 364.359 723.173 371.36 717.65 376.692L715.866 378.396C722.773 378.519 731.47 379.003 736.597 384.285C738.973 386.733 740.463 390.316 740.422 393.74C740.367 398.321 737.657 402.072 734.421 405.071C724.594 414.178 711.333 417.229 699.783 423.208C690.072 413.965 680.361 404.378 668.541 397.838C658.236 392.136 643.548 389.437 632.078 392.864C627.92 394.107 623.87 396.723 619.834 397.725C619.649 397.771 619.459 397.793 619.271 397.827Z"/>
	<path fill="#66B931" d="M70.5994 839.254C99.9146 846.1 127.328 860.144 146.384 883.974C149.092 888.779 149.237 897.508 150.119 902.987C151.589 912.119 155.372 929.401 160.256 937.236L120.932 937.112C114.406 937.095 107.353 936.551 100.903 937.335C75.894 909.259 70.3467 875.532 70.5994 839.254Z"/>
	<path fill="#66B931" d="M938.901 843.857Q945.385 842.021 951.837 840.078C952.359 872.793 949.332 911.797 926.512 937.362C903.883 936.735 881.169 937.189 858.527 937.097C864.552 926.41 868.833 913.807 872.2 902.035C873.676 896.871 874.095 890.838 876.62 886.091C890.496 865.105 915.678 851.675 938.901 843.857Z"/>
	<path fill="#66B931" d="M822.78 242.506L822.829 243.099C823.632 253.647 822.709 264.234 823.681 274.828C827.459 315.981 843.906 354.855 874.809 382.951C869.489 398.828 863.538 414.598 858.742 430.632C854.307 430.138 850.202 429.349 845.994 427.833C828.597 421.565 816.73 407.676 809.109 391.255C788.296 346.409 806.674 286.219 822.78 242.506Z"/>
	<path fill="#FEF1E0" d="M38.6804 584.122C45.6981 602.707 55.5133 620.866 68.7195 635.837C70.5978 637.966 73.3569 641.349 75.8671 642.658C77.4647 644.232 79.0237 646.028 80.9712 647.162C103.976 669.718 143.088 683.405 174.471 688.49C185.723 690.313 197.058 690.954 208.409 691.836C209.389 693.603 210.305 695.659 211.673 697.149C216.408 702.437 221.448 702.441 227.673 704.341C227.462 710 227.031 715.751 227.075 721.408C220.79 732.769 213.233 743.747 208.769 756.01C202.116 746.922 191.067 738.459 181.97 731.88C178.335 729.251 174.252 726.839 170.9 723.877C160.255 741.661 153.642 760.308 148.853 780.408C148.718 780.237 148.54 780.103 148.372 779.963L147.722 779.427C143.531 775.912 138.658 773.35 134.473 769.867C118.613 756.667 104.88 741.929 92.4824 725.468C66.6651 691.189 50.1108 654.943 41.6727 612.848C39.8054 603.533 37.3471 593.633 38.6804 584.122Z"/>
	<path fill="#FECE2D" d="M454.634 610.644C458.238 600.375 461.503 589.864 465.826 579.875C475.084 558.483 490.946 534.414 512.404 523.984C523.727 518.481 536.776 518.131 548.594 522.294C569.909 529.802 585.518 552.421 594.726 572.037C600.632 584.618 605.587 599.207 608.308 612.851C608.586 614.744 608.667 616.961 609.676 618.617L610.977 619.131L612.735 619.283C613.367 620.243 613.391 620.224 613.26 621.361C611.541 622.646 592.774 626.717 588.118 628.244C565.079 635.798 542.37 649.992 524.57 666.396C524.163 666.576 523.919 666.705 523.458 666.797C521.996 667.089 521.282 666.651 520.095 665.939C528.317 658.378 537.422 651.865 546.23 645.022C530.36 636.204 514.264 629.454 496.472 625.564C490.034 624.156 483.286 622.844 476.717 622.337C472.14 621.984 456.433 622.653 453.581 621.015C452.86 620.601 452.882 619.475 452.703 618.718C452.455 615.536 453.338 613.464 454.634 610.644Z"/>
	<path fill="#5B2448" d="M452.703 618.718C458.7 617.99 465.254 618.573 471.279 618.972C500.357 620.901 523.648 628.803 548.994 643.267C570.508 631.105 586.948 624.756 610.977 619.131L612.735 619.283C613.367 620.243 613.391 620.224 613.26 621.361C611.541 622.646 592.774 626.717 588.118 628.244C565.079 635.798 542.37 649.992 524.57 666.396C524.163 666.576 523.919 666.705 523.458 666.797C521.996 667.089 521.282 666.651 520.095 665.939C528.317 658.378 537.422 651.865 546.23 645.022C530.36 636.204 514.264 629.454 496.472 625.564C490.034 624.156 483.286 622.844 476.717 622.337C472.14 621.984 456.433 622.653 453.581 621.015C452.86 620.601 452.882 619.475 452.703 618.718Z"/>
	<path fill="#FECE2D" d="M532.279 142.675C532.313 142.668 532.347 142.659 532.382 142.655C549.137 140.771 568.237 146.617 581.417 157.025C594.902 167.673 604.371 185.31 606.204 202.358Q606.396 204.058 606.503 205.765Q606.61 207.473 606.633 209.184Q606.655 210.894 606.591 212.604Q606.528 214.313 606.38 216.018Q606.232 217.722 605.999 219.417Q605.766 221.112 605.449 222.793Q605.131 224.474 604.731 226.138Q604.331 227.801 603.848 229.442Q603.365 231.083 602.801 232.699Q602.237 234.314 601.593 235.899Q600.949 237.484 600.228 239.035Q599.506 240.586 598.708 242.099Q597.909 243.612 597.037 245.084Q596.164 246.555 595.219 247.982Q594.274 249.408 593.26 250.785Q592.245 252.163 591.163 253.488Q590.12 254.783 589.013 256.025Q587.907 257.267 586.74 258.452Q585.572 259.637 584.348 260.763Q583.123 261.888 581.844 262.951Q580.564 264.014 579.234 265.012Q577.903 266.01 576.524 266.94Q575.145 267.87 573.722 268.73Q572.298 269.591 570.834 270.379Q569.369 271.168 567.867 271.882Q566.365 272.596 564.829 273.235Q563.293 273.873 561.728 274.434Q560.162 274.996 558.57 275.478Q556.978 275.96 555.364 276.363Q553.75 276.765 552.119 277.087Q550.487 277.408 548.841 277.648Q547.195 277.888 545.539 278.045C528.311 279.584 511.717 276.124 497.79 265.469C483.611 254.62 473.112 237.852 470.808 220.046Q470.587 218.347 470.45 216.64Q470.312 214.932 470.259 213.22Q470.205 211.508 470.236 209.795Q470.266 208.082 470.38 206.373Q470.495 204.664 470.693 202.962Q470.89 201.261 471.171 199.571Q471.452 197.881 471.816 196.207Q472.179 194.533 472.624 192.879Q473.069 191.224 473.595 189.594Q474.12 187.964 474.725 186.361Q475.33 184.758 476.013 183.187Q476.695 181.616 477.454 180.08Q478.213 178.544 479.046 177.047Q479.879 175.55 480.784 174.096Q481.69 172.642 482.665 171.234Q483.641 169.826 484.684 168.467C496.502 153.314 513.417 145.054 532.279 142.675Z"/>
	<path fill="#7DBF3D" d="M170.9 723.877C174.252 726.839 178.335 729.251 181.97 731.88C191.067 738.459 202.116 746.922 208.769 756.01C213.083 761.937 218.273 767.243 222.692 773.125C226.464 778.145 233.188 789.264 236.995 792.999C237.857 795.623 238.977 797.775 240.748 799.906C264.547 843.253 276.857 887.478 276.073 936.925C268.814 936.958 260.352 936.177 253.235 937.408C244.466 937.507 235.584 937.818 226.828 937.404C223.146 923.815 220.639 909.773 217.383 896.06C215.086 886.393 197.958 823.052 192.924 819.947L192.142 820.724C191.886 822.33 192.075 823.542 192.48 825.115C193.979 830.932 196.557 836.791 198.483 842.51Q203.266 857.002 207.339 871.709Q216.354 904.392 223.494 937.534Q191.874 937.561 160.256 937.236C155.372 929.401 151.589 912.119 150.119 902.987C149.237 897.508 149.092 888.779 146.384 883.974C146.937 875.804 144.474 865.786 144.066 857.336C142.806 831.219 143.536 806.055 148.853 780.408C153.642 760.308 160.255 741.661 170.9 723.877Z"/>
	<path fill="#6A74EF" d="M293.392 490.169C313.993 476.449 334.565 461.288 353.377 445.19C361.43 438.299 367.66 429.879 376.302 423.57Q378.399 422.03 380.613 420.664Q382.828 419.297 385.145 418.114Q387.462 416.93 389.866 415.936Q392.271 414.943 394.748 414.146C408.468 409.744 421.735 410.946 434.471 417.637C443.169 422.206 451.027 430.54 453.936 440.061C454.575 443.116 456.165 459.233 457.209 460.14C457.28 460.201 457.368 460.24 457.447 460.291C457.232 460.621 456.915 460.904 456.801 461.281C455.943 464.132 456.686 469.48 456.517 472.604C456.303 476.588 455.593 480.701 454.899 484.629Q454.539 486.599 454.109 488.555Q453.679 490.51 453.18 492.449Q452.68 494.389 452.112 496.309Q451.544 498.229 450.909 500.128Q450.273 502.027 449.569 503.901Q448.866 505.776 448.097 507.625Q447.327 509.474 446.492 511.294Q445.658 513.114 444.759 514.903Q443.86 516.693 442.897 518.449Q441.935 520.205 440.911 521.925Q439.887 523.646 438.803 525.329Q437.718 527.013 436.574 528.656Q435.43 530.3 434.228 531.902Q433.027 533.503 431.769 535.061Q430.511 536.619 429.198 538.132Q427.886 539.644 426.52 541.108Q425.154 542.573 423.738 543.988Q422.321 545.403 420.854 546.767Q419.388 548.13 417.874 549.441Q416.36 550.752 414.801 552.007Q413.241 553.263 411.638 554.463Q410.034 555.662 408.389 556.804Q406.744 557.946 405.06 559.028Q403.375 560.111 401.653 561.133Q399.931 562.155 398.174 563.114Q396.416 564.074 394.626 564.971Q392.835 565.868 391.014 566.7Q389.193 567.533 387.343 568.3Q385.494 569.067 383.618 569.767Q381.742 570.468 379.842 571.102Q377.943 571.735 376.022 572.301Q374.101 572.866 372.161 573.363L370.091 573.443C355.913 574.423 347.532 575.531 333.03 572.945C332.241 572.538 331.19 572.36 330.33 572.115C316.683 571.572 295.839 561.643 285.136 553.384C281.183 550.333 277.071 545.416 272.411 543.732C272.235 543.001 272.373 543.162 271.967 542.681C271.694 542.359 271.399 542.056 271.124 541.735C266.406 536.24 261.011 529.706 261.774 521.979C262.091 518.774 263.609 515.888 265.624 513.427C271.415 506.352 285.76 496.635 293.392 490.169Z"/>
	<path fill="#463096" d="M358.381 513.495C363.49 509.322 368.6 505.654 373.297 500.963C374.829 499.434 377.615 495.853 379.553 495.386L380.184 496.201C379.628 500.04 367.331 509.768 363.628 512.516Q361.827 513.848 359.992 515.132C352.393 520.342 344.655 525.136 336.191 528.845C324.645 534.476 311.813 538.91 299.109 540.763C294.939 541.37 282.317 542.972 278.947 540.447L279.017 539.843C283.654 538.884 288.947 539.593 293.738 539.047C307.99 537.421 320.88 533.264 333.973 527.571C342.416 523.218 350.416 518.686 358.381 513.495Z"/>
	<path fill="#FEFEFE" d="M427.312 430.139C429.196 430.255 431.157 430.576 432.697 431.741C434.841 433.364 436.028 435.916 436.211 438.565C436.418 441.545 435.424 444.698 433.409 446.925C431.318 449.235 429.263 449.971 426.219 450.172C424.661 449.766 423.016 449.399 421.632 448.547C419.395 447.169 417.712 444.844 417.194 442.258Q417.101 441.777 417.056 441.289Q417.012 440.801 417.017 440.311Q417.022 439.821 417.077 439.334Q417.131 438.847 417.235 438.368Q417.338 437.889 417.489 437.422Q417.641 436.956 417.838 436.508Q418.036 436.059 418.278 435.633Q418.519 435.207 418.803 434.807C420.961 431.703 423.715 430.722 427.312 430.139Z"/>
	<path fill="#FEF1E0" d="M938.492 597.371C941.024 604.081 940.263 617.228 940.732 624.696Q942.977 665.557 943.063 706.481Q943.148 747.404 941.074 788.274C940.742 793.809 938.473 843.032 938.901 843.857C915.678 851.675 890.496 865.105 876.62 886.091C876.038 881.286 877.951 874.882 878.627 870.022Q879.862 861.299 880.289 852.499C882.356 805.454 874.844 763.531 850.384 722.85C839.01 730.726 828.997 739.089 819.248 748.926C820.448 742.092 822.779 735.245 824.573 728.542C826.593 721 828.166 713.376 829.648 705.713L830.221 700.931C830.412 700.955 830.602 700.988 830.794 701.002C835.367 701.338 840.164 699.873 843.558 696.755Q843.883 696.455 844.192 696.139Q844.501 695.824 844.794 695.492Q845.086 695.161 845.362 694.816Q845.637 694.47 845.895 694.111Q846.152 693.751 846.391 693.38Q846.63 693.008 846.849 692.624Q847.069 692.24 847.269 691.846Q847.469 691.452 847.648 691.048Q847.827 690.644 847.986 690.231Q848.145 689.819 848.282 689.399Q848.419 688.979 848.535 688.552Q848.651 688.126 848.745 687.694Q848.839 687.262 848.911 686.826Q848.982 686.39 849.032 685.951Q849.081 685.511 849.108 685.07Q849.135 684.629 849.14 684.187C849.16 679.438 847.119 674.72 843.782 671.365Q842.962 670.536 842.04 669.825Q841.117 669.113 840.107 668.531Q839.097 667.949 838.019 667.507Q836.941 667.065 835.813 666.771C828.325 664.79 805.864 666.013 797.059 665.951C799.637 654.921 804.094 643.147 807.397 632.167Q813.623 634.095 820.047 635.2Q826.47 636.306 832.983 636.57C870.576 638.217 910.812 622.851 938.492 597.371Z"/>
	<path fill="#FEFEFE" d="M902.304 683.576C905.276 683.387 907.22 683.477 909.892 684.823Q910.255 685.005 910.608 685.205Q910.961 685.406 911.303 685.625Q911.645 685.844 911.975 686.08Q912.305 686.316 912.622 686.569Q912.939 686.823 913.243 687.092Q913.547 687.362 913.836 687.647Q914.125 687.932 914.399 688.231Q914.672 688.531 914.93 688.845Q915.188 689.158 915.429 689.485Q915.67 689.812 915.894 690.15Q916.117 690.489 916.323 690.839Q916.529 691.189 916.716 691.549Q916.903 691.91 917.071 692.279Q917.239 692.649 917.387 693.027Q917.536 693.405 917.664 693.79Q917.793 694.175 917.901 694.566C918.922 698.236 918.549 702.281 916.597 705.583C914.456 709.207 911.11 711.086 907.16 712.186C904.436 712.165 901.551 712.324 898.977 711.309C895.357 709.881 892.502 707.16 891.012 703.551C889.553 700.018 889.534 695.91 891.127 692.417C893.39 687.457 897.485 685.388 902.304 683.576Z"/>
	<path fill="#7DBF3D" d="M850.384 722.85C874.844 763.531 882.356 805.454 880.289 852.499Q879.862 861.299 878.627 870.022C877.951 874.882 876.038 881.286 876.62 886.091C874.095 890.838 873.676 896.871 872.2 902.035C868.833 913.807 864.552 926.41 858.527 937.097C838.192 936.789 817.592 938.088 797.312 937.088C803.539 919.677 807.328 901.308 812.425 883.535C817.562 865.626 824.072 847.947 828.758 829.929C829.283 827.907 830.075 825.355 829.363 823.321C829.074 822.494 829.07 822.739 828.141 822.359C824.346 825.385 797.916 923.871 794.203 937.225Q771.905 937.058 749.606 937.161C749.306 929.309 748.063 921.538 747.942 913.645C747.859 908.163 748.841 902.741 748.939 897.272L748.944 896.841C744.28 891.888 740.418 886.127 735.847 881.055C727.888 872.222 718.33 864.9 708.745 857.93C716.435 852.781 725.006 848.826 732.793 843.699C749.024 833.013 762.995 820.419 777.396 807.46C781.221 800.809 784.822 794.035 788.998 787.593C797.992 773.721 808.409 761.357 819.248 748.926C828.997 739.089 839.01 730.726 850.384 722.85Z"/>
	<path fill="#FEF1E0" d="M708.745 857.93C716.435 852.781 725.006 848.826 732.793 843.699C749.024 833.013 762.995 820.419 777.396 807.46C764.188 837.039 753.482 863.202 749.237 895.719C749.15 896.384 749.196 896.127 748.944 896.841C744.28 891.888 740.418 886.127 735.847 881.055C727.888 872.222 718.33 864.9 708.745 857.93Z"/>
	<path fill="#FEF1E0" d="M207.078 534.043Q228.006 537.052 248.877 540.433C256.604 541.64 264.623 543.279 272.411 543.732C277.071 545.416 281.183 550.333 285.136 553.384C295.839 561.643 316.683 571.572 330.33 572.115C331.19 572.36 332.241 572.538 333.03 572.945C347.532 575.531 355.913 574.423 370.091 573.443L372.161 573.363C373.353 578.99 374.792 584.651 375.787 590.31C392.151 590.385 439.89 603.153 454.634 610.644C453.338 613.464 452.455 615.536 452.703 618.718C452.882 619.475 452.86 620.601 453.581 621.015C456.433 622.653 472.14 621.984 476.717 622.337C483.286 622.844 490.034 624.156 496.472 625.564C514.264 629.454 530.36 636.204 546.23 645.022C537.422 651.865 528.317 658.378 520.095 665.939C518.833 666.982 500.982 667.156 498.337 666.776C497.753 666.692 497.608 666.603 497.128 666.4C496.784 666.556 496.529 666.69 496.141 666.77C494.695 667.066 494.316 667.027 493.077 666.373C490.504 667.554 447.484 667.338 444.605 666.368C443.378 666.531 442.246 666.724 441.004 666.641C432.889 666.724 392.836 667.817 388.133 666.353C386.921 666.499 385.711 666.415 384.495 666.37C380.317 666.809 331.484 667.192 330.73 666.896C330.436 666.78 330.225 666.516 329.972 666.327C329.678 666.487 329.406 666.694 329.091 666.808C327.78 667.286 327.095 666.867 325.917 666.358C318.919 667.081 311.406 666.563 304.353 666.552Q283.624 666.469 262.896 666.635C258.773 658.108 255.252 649.253 251.561 640.531C247.071 631.407 243.682 621.596 239.591 612.265Q222.281 573.592 207.078 534.043Z"/>
	<path fill="#5B2448" d="M325.917 666.358Q319.599 661.263 312.729 656.942Q305.858 652.622 298.529 649.135C295.751 647.787 276.511 640.633 275.528 639.501L275.452 638.421C276.506 637.618 277.038 637.671 278.303 637.891C291.361 640.162 321.158 656.177 329.972 666.327C329.678 666.487 329.406 666.694 329.091 666.808C327.78 667.286 327.095 666.867 325.917 666.358Z"/>
	<path fill="#5B2448" d="M441.004 666.641C432.589 658.139 423.698 650.334 413.516 643.979C409.688 641.589 405.57 639.184 401.374 637.511C398.201 636.245 394.601 635.344 391.616 633.711C390.755 633.24 390.255 632.829 389.759 631.954L390.114 631.046C390.717 630.87 391.231 630.798 391.859 630.89C407.019 633.114 434.825 654.078 444.605 666.368C443.378 666.531 442.246 666.724 441.004 666.641Z"/>
	<path fill="#5B2448" d="M384.495 666.37C371.755 652.361 359.032 638.761 342.214 629.51Q335.599 625.931 328.534 623.354C323.54 621.522 306.919 617.926 304.143 615.088L304.597 614.253C311.223 612.624 340.074 624.363 345.918 627.933C361.895 637.693 376.751 651.458 388.133 666.353C386.921 666.499 385.711 666.415 384.495 666.37Z"/>
	<path fill="#5B2448" d="M330.33 572.115C331.19 572.36 332.241 572.538 333.03 572.945C334.129 579.058 335.619 585.214 337.292 591.196C337.573 592.64 338.225 594.148 338.705 595.548C348.434 598.175 358.338 599.29 368.065 601.705L375.498 597.276L373.851 589.607L370.091 573.443L372.161 573.363C373.353 578.99 374.792 584.651 375.787 590.31C376.239 592.474 376.631 594.67 377.154 596.818C381.683 599.653 386.214 603.022 391.105 605.194C399.156 608.77 410.598 610.83 419.68 614.282C448.644 625.288 475.764 644.085 497.128 666.4C496.784 666.556 496.529 666.69 496.141 666.77C494.695 667.066 494.316 667.027 493.077 666.373C461.553 635.852 426.187 616.537 383.451 606.434C368.804 602.972 353.834 601.128 339.203 597.528C341.81 604.265 344.964 611.19 345.865 618.402C342.062 611.603 340.149 603.929 336.991 596.819C334.053 597.91 328.393 602.429 325.473 601.914C328.662 598.681 332.447 596.953 336.488 595.016L335.344 591.625Q332.997 581.829 330.33 572.115Z"/>
	<path fill="#FEC7AD" d="M374.928 599.454C377.473 599.672 379.891 600.686 382.077 601.983C383.105 602.593 384.537 603.21 384.832 604.4L383.231 604.323C380.322 603.895 373.802 603.816 371.803 601.757C372.401 600.434 373.673 600.125 374.928 599.454Z"/>
	<path fill="#FEF1E0" d="M333.03 572.945C347.532 575.531 355.913 574.423 370.091 573.443L373.851 589.607L375.498 597.276L368.065 601.705C358.338 599.29 348.434 598.175 338.705 595.548C338.225 594.148 337.573 592.64 337.292 591.196C335.619 585.214 334.129 579.058 333.03 572.945Z"/>
	<path fill="#FEF1E0" d="M375.787 590.31C392.151 590.385 439.89 603.153 454.634 610.644C453.338 613.464 452.455 615.536 452.703 618.718C452.882 619.475 452.86 620.601 453.581 621.015C456.433 622.653 472.14 621.984 476.717 622.337C483.286 622.844 490.034 624.156 496.472 625.564C514.264 629.454 530.36 636.204 546.23 645.022C537.422 651.865 528.317 658.378 520.095 665.939C518.833 666.982 500.982 667.156 498.337 666.776C497.753 666.692 497.608 666.603 497.128 666.4C475.764 644.085 448.644 625.288 419.68 614.282C410.598 610.83 399.156 608.77 391.105 605.194C386.214 603.022 381.683 599.653 377.154 596.818C376.631 594.67 376.239 592.474 375.787 590.31Z"/>
	<path fill="#F84F46" d="M619.271 397.827C619.459 397.793 619.649 397.771 619.834 397.725C623.87 396.723 627.92 394.107 632.078 392.864C643.548 389.437 658.236 392.136 668.541 397.838C680.361 404.378 690.072 413.965 699.783 423.208C713.056 436.449 726.941 449.077 740.181 462.357C745.253 467.445 754.331 478.795 759.463 482.231C761.229 485.896 765.802 489.703 768.567 492.776C776.895 502.032 802.52 529.216 798.358 541.961C797.763 543.785 796.593 545.722 794.993 546.818C793.895 547.625 792.795 548.568 791.594 549.206C785.698 552.989 779.574 556.338 773.445 559.723C757.175 567.732 738.061 575.266 719.602 574.554L717.059 574.602C705.11 574.473 690.949 573.646 679.994 568.628C679.215 568.236 678.332 568.122 677.483 567.937C656.785 563.082 631.854 540.676 620.111 523.383C602.895 498.031 593.938 467.189 599.83 436.754C601.668 429.491 603.703 422.333 606.341 415.316C609.444 408.69 614.058 402.911 619.271 397.827Z"/>
	<path fill="#FEFEFE" d="M633.75 410.518C635.628 410.449 637.263 410.59 638.985 411.384C641.592 412.586 643.66 414.67 644.511 417.45C645.32 420.09 644.998 422.793 643.686 425.206C641.978 428.348 639.364 429.577 636.101 430.64C634.666 430.645 633.075 430.566 631.728 430.028C628.987 428.931 626.602 426.669 625.53 423.909C624.574 421.449 624.642 418.798 625.81 416.426C627.452 413.09 630.4 411.689 633.75 410.518Z"/>
	<path fill="#5B2448" d="M60.6015 272.094C60.1361 263.21 61.5702 251.337 62.4817 242.289C65.0639 216.656 71.956 176.857 92.8502 160.069Q93.457 159.578 94.0875 159.117Q94.718 158.657 95.3706 158.228Q96.0232 157.799 96.6964 157.404Q97.3696 157.008 98.0616 156.647Q98.7536 156.285 99.4628 155.959Q100.172 155.632 100.897 155.341Q101.621 155.05 102.359 154.796Q103.097 154.541 103.847 154.324Q104.597 154.107 105.357 153.927Q106.117 153.747 106.885 153.605Q107.652 153.464 108.426 153.36Q109.2 153.257 109.978 153.193Q110.756 153.128 111.537 153.102Q112.317 153.076 113.098 153.089Q113.878 153.102 114.657 153.154Q115.437 153.206 116.212 153.297C137.074 155.746 154.343 175.14 166.457 190.655L166.928 191.288C187.726 217.477 206.964 255.774 217.757 287.388C218.611 289.36 219.472 291.259 219.98 293.356C223.2 300.782 225.3 309.032 227.427 316.835C235.793 347.528 239.841 379.096 233.567 410.636C231.48 421.126 227.014 430.562 224.142 440.722C249.842 453.906 271.302 471.845 293.392 490.169C285.76 496.635 271.415 506.352 265.624 513.427C263.609 515.888 262.091 518.774 261.774 521.979C261.011 529.706 266.406 536.24 271.124 541.735C271.399 542.056 271.694 542.359 271.967 542.681C272.373 543.162 272.235 543.001 272.411 543.732C264.623 543.279 256.604 541.64 248.877 540.433Q228.006 537.052 207.078 534.043Q222.281 573.592 239.591 612.265C243.682 621.596 247.071 631.407 251.561 640.531C255.252 649.253 258.773 658.108 262.896 666.635C253.881 666.922 243.674 667.893 234.76 666.704C229.258 666.643 223.4 666.308 218.147 668.213C216.867 669.049 215.597 669.919 214.297 670.722C210.447 674.204 206.935 677.595 206.652 683.132C206.507 685.985 207.538 689.156 208.409 691.836C197.058 690.954 185.723 690.313 174.471 688.49C143.088 683.405 103.976 669.718 80.9712 647.162C79.0237 646.028 77.4647 644.232 75.8671 642.658C73.3569 641.349 70.5978 637.966 68.7195 635.837C55.5133 620.866 45.6981 602.707 38.6804 584.122L37.7356 581.341L37.0196 578.951C37.1043 576.01 35.1952 571.299 34.5434 568.302C31.5705 554.632 31.683 542.152 38.3634 529.713C37.9743 528.905 37.5182 528.035 37.4216 527.133C36.8359 521.663 38.641 514.636 39.5945 509.195C45.839 473.56 61.5949 431.665 80.7288 400.969C83.2479 396.928 85.6672 392.693 88.6063 388.95C74.7164 361.614 65.2715 336.698 62.167 305.977C61.2728 297.13 61.026 288.193 60.4905 279.314L60.6015 272.094Z"/>
	<path fill="#FEFEFE" d="M184.282 465.382C187.66 471.706 190.932 477.807 196.313 482.658C194.175 482.55 184.041 482.701 182.73 481.318C182.173 480.731 182.103 480.274 181.928 479.513C180.866 475.966 179.481 472.527 178.151 469.074C180.224 468.029 182.251 466.543 184.282 465.382Z"/>
	<path fill="#66B931" d="M219.98 293.356C223.2 300.782 225.3 309.032 227.427 316.835C235.793 347.528 239.841 379.096 233.567 410.636C231.48 421.126 227.014 430.562 224.142 440.722C215.466 436.451 205.19 432.194 195.467 435.573C190.704 437.229 186.837 440.591 184.669 445.159C181.559 451.711 182.56 458.646 184.282 465.382C182.251 466.543 180.224 468.029 178.151 469.074C174.927 463.067 173.527 454.447 171.669 447.805Q167.711 433.909 163.521 420.082C198.749 388.202 215.943 339.826 219.98 293.356Z"/>
	<path fill="#66B931" d="M60.4905 279.314C66.7773 289.138 72.1246 299.513 78.5982 309.26C94.0915 332.588 119.996 361.721 146.169 373.043L164.41 435.266L170.506 455.769C171.901 460.523 173.056 465.483 174.913 470.08C173.036 470.495 171.624 470.517 169.757 470.014C165.384 468.835 161.324 466.316 157.41 464.107C128.464 447.777 104.894 417.451 88.6063 388.95C74.7164 361.614 65.2715 336.698 62.167 305.977C61.2728 297.13 61.026 288.193 60.4905 279.314Z"/>
	<path fill="#66B931" d="M166.928 191.288C187.726 217.477 206.964 255.774 217.757 287.388C215.002 290.751 215.08 305.777 214.325 311.286C209.732 344.807 189.669 395.576 162.323 416.238C158.748 406.648 156.216 396.344 153.412 386.487Q142.903 348.572 134.256 310.189C131.554 297.858 129.617 285.332 126.703 273.06C149.045 252.119 162.965 221.298 166.928 191.288Z"/>
	<path fill="#FEF1E0" d="M88.6063 388.95C104.894 417.451 128.464 447.777 157.41 464.107C161.324 466.316 165.384 468.835 169.757 470.014C171.624 470.517 173.036 470.495 174.913 470.08C176.208 473.297 177.171 477.538 178.984 480.402C178.452 481.575 178.456 481.578 177.2 482.033C168.994 485.004 162.3 486.369 157.999 495.168C155.86 499.544 155.679 504.093 157.394 508.644C160.524 516.951 167.928 522.404 175.84 525.748C179.949 527.485 189.388 529.265 192.355 531.502C198.775 552.329 206.505 572.995 211.975 594.073C207.109 590.072 202.701 584.818 198.133 580.423C188.219 570.884 177.753 561.6 166.653 553.456C141.324 534.871 93.0068 510.621 61.0432 515.826C51.8451 517.324 43.8247 522.186 38.3634 529.713C37.9743 528.905 37.5182 528.035 37.4216 527.133C36.8359 521.663 38.641 514.636 39.5945 509.195C45.839 473.56 61.5949 431.665 80.7288 400.969C83.2479 396.928 85.6672 392.693 88.6063 388.95Z"/>
	<path fill="#FEFEFE" d="M89.8537 456.03C91.0991 455.897 92.7596 455.647 93.9805 455.995C97.2585 456.929 101.42 460.897 103.251 463.616C104.829 465.959 105.664 468.461 105.065 471.287C103.834 477.094 98.7955 480.65 94.1006 483.584C93.2262 483.864 92.7614 483.984 91.8286 483.765C87.9541 482.856 83.3803 478.526 81.3629 475.29C79.9505 473.024 79.262 470.385 79.9373 467.747C81.1167 463.14 85.8036 458.355 89.8537 456.03Z"/>
	<path fill="#66B931" d="M60.6015 272.094C60.1361 263.21 61.5702 251.337 62.4817 242.289C65.0639 216.656 71.956 176.857 92.8502 160.069Q93.457 159.578 94.0875 159.117Q94.718 158.657 95.3706 158.228Q96.0232 157.799 96.6964 157.404Q97.3696 157.008 98.0616 156.647Q98.7536 156.285 99.4628 155.959Q100.172 155.632 100.897 155.341Q101.621 155.05 102.359 154.796Q103.097 154.541 103.847 154.324Q104.597 154.107 105.357 153.927Q106.117 153.747 106.885 153.605Q107.652 153.464 108.426 153.36Q109.2 153.257 109.978 153.193Q110.756 153.128 111.537 153.102Q112.317 153.076 113.098 153.089Q113.878 153.102 114.657 153.154Q115.437 153.206 116.212 153.297C137.074 155.746 154.343 175.14 166.457 190.655C165.071 191 164.073 190.951 163.352 192.383C162.088 194.893 162.326 199.301 161.832 202.117Q160.841 207.526 159.28 212.799C153.068 233.619 140.353 252.958 126.158 269.194Q121.705 247.126 119.433 224.728C118.624 216.965 118.468 208.9 117.245 201.211C116.974 199.513 116.27 198.333 115.21 197.02L114.417 196.761C111.623 200.634 118.575 245.976 119.644 252.592Q129.64 311.385 145.021 369.004C108.802 349.279 80.6403 311.637 62.9867 275.121C62.4143 273.937 61.8992 272.51 60.6015 272.094Z"/>
	<path fill="#7DBF3D" d="M38.3634 529.713C43.8247 522.186 51.8451 517.324 61.0432 515.826C93.0068 510.621 141.324 534.871 166.653 553.456C177.753 561.6 188.219 570.884 198.133 580.423C202.701 584.818 207.109 590.072 211.975 594.073L234.76 666.704C229.258 666.643 223.4 666.308 218.147 668.213C216.867 669.049 215.597 669.919 214.297 670.722C210.447 674.204 206.935 677.595 206.652 683.132C206.507 685.985 207.538 689.156 208.409 691.836C197.058 690.954 185.723 690.313 174.471 688.49C143.088 683.405 103.976 669.718 80.9712 647.162C79.0237 646.028 77.4647 644.232 75.8671 642.658C73.3569 641.349 70.5978 637.966 68.7195 635.837C55.5133 620.866 45.6981 602.707 38.6804 584.122L37.7356 581.341L37.0196 578.951C37.1043 576.01 35.1952 571.299 34.5434 568.302C31.5705 554.632 31.683 542.152 38.3634 529.713Z"/>
	<path fill="#5B2448" d="M93.7358 578.54C87.9971 572.714 66.803 555.284 65.0982 548.458L65.4891 547.458C66.5829 547.211 66.5544 547.172 67.44 547.772C71.5421 550.553 75.6728 555.904 79.2246 559.484Q87.6506 568.051 96.631 576.034C127.324 603.796 159.38 630.511 193.937 653.349C201.754 658.516 209.653 664.237 218.147 668.213C216.867 669.049 215.597 669.919 214.297 670.722C210.219 667.527 205.34 664.86 200.964 662.051C190.467 655.313 179.662 648.597 169.88 640.839C149.114 650.919 122.721 653.036 99.9874 650.438C94.0974 649.765 87.7154 647.171 81.8577 647.151C81.5622 647.15 81.2667 647.158 80.9712 647.162C79.0237 646.028 77.4647 644.232 75.8671 642.658C83.9086 642.747 91.6299 645.709 99.535 646.878C121.298 650.095 146.356 647.206 166.59 638.618C158.594 631.75 149.569 625.792 141.333 619.143C126.243 606.961 111.69 594.077 97.1045 581.299C80.1285 588.747 54.8868 587.369 37.7356 581.341L37.0196 578.951C39.1245 578.153 57.8031 582.034 61.6111 582.334C72.3287 583.176 83.6461 582.495 93.7358 578.54Z"/>
	<path fill="#7DBF3D" d="M169.88 640.839C179.662 648.597 190.467 655.313 200.964 662.051C205.34 664.86 210.219 667.527 214.297 670.722C210.447 674.204 206.935 677.595 206.652 683.132C206.507 685.985 207.538 689.156 208.409 691.836C197.058 690.954 185.723 690.313 174.471 688.49C143.088 683.405 103.976 669.718 80.9712 647.162C81.2667 647.158 81.5622 647.15 81.8577 647.151C87.7154 647.171 94.0974 649.765 99.9874 650.438C122.721 653.036 149.114 650.919 169.88 640.839Z"/>
	<path fill="#7DBF3D" d="M37.7356 581.341C54.8868 587.369 80.1285 588.747 97.1045 581.299C111.69 594.077 126.243 606.961 141.333 619.143C149.569 625.792 158.594 631.75 166.59 638.618C146.356 647.206 121.298 650.095 99.535 646.878C91.6299 645.709 83.9086 642.747 75.8671 642.658C73.3569 641.349 70.5978 637.966 68.7195 635.837C55.5133 620.866 45.6981 602.707 38.6804 584.122L37.7356 581.341Z"/>
	<path fill="#5B2448" d="M881.063 137.144C893.777 122.489 909.541 102.998 930.375 101.396C939.186 100.719 947.049 103.876 953.65 109.597C977.585 130.342 984.895 174.541 986.835 204.769C987.176 210.082 987.679 215.553 987.431 220.878C987.46 223.788 987.672 226.792 987.15 229.662C985.942 250.839 983.593 271.782 977.614 292.233C968.103 324.77 947.705 356.17 926.898 382.577C931.223 386.959 960.424 438.912 961.376 445.23C961.468 445.837 961.185 446.723 961.132 447.298C961.08 447.849 961.119 448.436 961.265 448.969C972.013 451.398 980.484 454.314 986.643 464.103C995.29 477.844 993.937 498.119 990.414 513.239C986.258 531.079 978.528 547.526 968.418 562.736C967.371 564.322 966.446 565.925 964.923 567.103C960.997 572.203 957.395 577.646 953.264 582.57C948.773 587.923 943.6 592.623 938.492 597.371C910.812 622.851 870.576 638.217 832.983 636.57Q826.47 636.306 820.047 635.2Q813.623 634.095 807.397 632.167C804.094 643.147 799.637 654.921 797.059 665.951C789.606 666.366 781.913 665.985 774.436 665.989C769.158 665.992 762.965 666.668 757.833 665.779C756.617 665.568 756.831 665.431 756.182 664.482C749.671 662.334 706.061 667.202 694.458 666.088C692.025 667.815 667.547 667.3 663.54 666.718C661.944 667.075 660.758 666.947 659.15 666.702C654.002 667.763 631.698 666.756 624.99 666.762L598.034 666.929C593.089 666.96 587.666 667.436 582.802 666.646C580.839 667.304 579.037 667.073 577.038 666.737C565.706 666.661 554.365 666.812 543.032 666.857C537.127 666.88 530.362 667.508 524.57 666.396C542.37 649.992 565.079 635.798 588.118 628.244C592.774 626.717 611.541 622.646 613.26 621.361C613.391 620.224 613.367 620.243 612.735 619.283L610.977 619.131L609.676 618.617C608.667 616.961 608.586 614.744 608.308 612.851C620.716 606.04 638.457 599.81 652.412 597.53C655.912 596.955 659.47 596.675 662.999 596.322C666.478 593.435 671.663 593.099 676.011 592.677C676.675 584.471 677.345 576.167 677.483 567.937C678.332 568.122 679.215 568.236 679.994 568.628C690.949 573.646 705.11 574.473 717.059 574.602L719.602 574.554C738.061 575.266 757.175 567.732 773.445 559.723C779.574 556.338 785.698 552.989 791.594 549.206C792.795 548.568 793.895 547.625 794.993 546.818C796.593 545.722 797.763 543.785 798.358 541.961C802.52 529.216 776.895 502.032 768.567 492.776C765.802 489.703 761.229 485.896 759.463 482.231C768.687 478.986 778.223 476.49 787.62 473.799Q808.965 467.629 830.419 461.852C836.1 460.344 842.6 457.437 848.031 460.588L848.365 460.531C849.204 456.373 851.385 451.909 852.873 447.906Q856.033 439.346 858.742 430.632C863.538 414.598 869.489 398.828 874.809 382.951C843.906 354.855 827.459 315.981 823.681 274.828C822.709 264.234 823.632 253.647 822.829 243.099L822.78 242.506C823.803 239.723 824.934 237.03 826.162 234.331C827.071 229.492 830.813 223.28 832.939 218.791C844.115 195.204 861.828 159.839 878.68 140.224L881.063 137.144Z"/>
	<path fill="#FEF1E0" d="M663.54 666.718Q666.962 663.494 670.579 660.491Q674.196 657.488 677.995 654.718Q681.794 651.948 685.759 649.422Q689.725 646.897 693.841 644.625C719.012 630.891 743.367 625.398 771.198 633.597C768.279 643.044 762.241 651.827 758.397 660.981C749.985 661.022 699.854 662.738 694.458 666.088C692.025 667.815 667.547 667.3 663.54 666.718Z"/>
	<path fill="#7DBF3D" d="M882.342 569.435C903.847 577.026 943.496 574.302 964.923 567.103C960.997 572.203 957.395 577.646 953.264 582.57C948.773 587.923 943.6 592.623 938.492 597.371C910.812 622.851 870.576 638.217 832.983 636.57Q826.47 636.306 820.047 635.2Q813.623 634.095 807.397 632.167C807.866 630.54 808.502 629.082 809.216 627.548C821.76 620.574 833.786 609.567 845.008 600.568C857.49 590.558 870.959 580.65 882.342 569.435Z"/>
	<path fill="#66B931" d="M987.15 229.662C985.942 250.839 983.593 271.782 977.614 292.233C968.103 324.77 947.705 356.17 926.898 382.577C909.196 403.242 890.465 424.955 862.274 429.771C869.554 412.938 875.766 391.615 881.244 373.917C886.691 356.317 892.464 338.845 897.354 321.076C939.18 298.193 963.479 270.092 987.15 229.662Z"/>
	<path fill="#66B931" d="M878.68 140.224C877.444 167.299 889.756 198.511 907.949 218.362C910.694 221.358 913.549 224.163 916.681 226.753Q910.26 258.891 902.154 290.646Q894.049 322.401 884.281 353.685C881.487 362.399 879.031 371.387 875.789 379.938C840.351 344.548 826.395 303.636 826.614 254.296C826.638 248.983 828.483 239.021 826.162 234.331C827.071 229.492 830.813 223.28 832.939 218.791C844.115 195.204 861.828 159.839 878.68 140.224Z"/>
	<path fill="#66B931" d="M881.063 137.144C893.777 122.489 909.541 102.998 930.375 101.396C939.186 100.719 947.049 103.876 953.65 109.597C977.585 130.342 984.895 174.541 986.835 204.769C987.176 210.082 987.679 215.553 987.431 220.878C985.293 223.927 983.664 227.573 981.874 230.846Q976.985 239.871 971.518 248.558C953.873 276.049 927.567 300.919 898.723 316.309C912.245 268.869 923.618 219.789 929.801 170.814C930.58 164.64 932.452 156.798 931.882 150.668C931.758 149.324 931.592 148.815 930.534 148.001L929.613 148.441C928.022 152.052 925.101 180.113 924.12 186.592Q921.178 205.146 917.428 223.554C912.513 218.29 907.541 213.046 903.262 207.238C892.464 192.58 884.972 173.361 882.967 155.259C882.399 150.131 883.85 141.38 881.063 137.144Z"/>
	<path fill="#FEF1E0" d="M773.445 559.723C782.393 563.393 791.374 566.401 800.603 569.272C798.046 573.331 796.342 578.122 794.405 582.518L783.902 606.267C780.742 613.411 775.62 622.9 773.49 630.008L772.487 630.921C745.74 622.468 720.256 627.275 695.73 640.063C682.905 646.749 669.082 656.145 659.15 666.702C654.002 667.763 631.698 666.756 624.99 666.762L598.034 666.929C593.089 666.96 587.666 667.436 582.802 666.646C580.839 667.304 579.037 667.073 577.038 666.737C565.706 666.661 554.365 666.812 543.032 666.857C537.127 666.88 530.362 667.508 524.57 666.396C542.37 649.992 565.079 635.798 588.118 628.244C592.774 626.717 611.541 622.646 613.26 621.361C613.391 620.224 613.367 620.243 612.735 619.283L610.977 619.131L609.676 618.617C608.667 616.961 608.586 614.744 608.308 612.851C620.716 606.04 638.457 599.81 652.412 597.53C655.912 596.955 659.47 596.675 662.999 596.322C666.478 593.435 671.663 593.099 676.011 592.677C676.675 584.471 677.345 576.167 677.483 567.937C678.332 568.122 679.215 568.236 679.994 568.628C690.949 573.646 705.11 574.473 717.059 574.602L719.602 574.554C738.061 575.266 757.175 567.732 773.445 559.723Z"/>
	<path fill="#5B2448" d="M577.038 666.737C585.559 660.962 616.455 641.287 625.399 643.331C625.604 643.378 625.797 643.466 625.996 643.533L626.153 644.344C624.396 646.061 607.689 652.243 603.558 654.291C596.479 657.801 589.223 662.034 582.802 666.646C580.839 667.304 579.037 667.073 577.038 666.737Z"/>
	<path fill="#5B2448" d="M677.483 567.937C678.332 568.122 679.215 568.236 679.994 568.628C679.443 577.692 679.267 587.012 678 595.998C690.834 595.192 702.621 595.363 715.409 596.692Q716.157 585.641 717.059 574.602L719.602 574.554C719.03 583.014 717.964 591.48 717.85 599.959C721.556 598.767 724.197 598.854 727.873 600.064C725.487 600.655 722.925 600.318 720.494 600.802C714.654 601.966 715.962 610.727 713.461 614.49L712.861 614.509C712.279 611.472 713.784 606.852 714.402 603.817C710.251 606.044 705.155 608.563 702.191 612.266C701.262 613.427 700.246 615.034 698.768 615.469C701.393 607.135 709.685 606.639 714.866 601.228C715.318 599.856 715.332 599.762 714.913 598.383C710.532 595.683 684.676 597.297 678.659 597.62C677.179 601.26 676.276 604.907 674.514 608.46L673.66 608.418L674.39 608.617C673.579 606.93 674.967 602.281 675.372 600.316C668.253 604.936 663.602 610.414 657.853 616.468C661.226 607.748 668.589 602.053 676.527 597.575C672.338 597.557 656.297 599.784 653.88 598.685C653.313 598.427 652.901 597.915 652.412 597.53C655.912 596.955 659.47 596.675 662.999 596.322C666.478 593.435 671.663 593.099 676.011 592.677C676.675 584.471 677.345 576.167 677.483 567.937Z"/>
	<path fill="#FEC7AD" d="M662.999 596.322C666.478 593.435 671.663 593.099 676.011 592.677C675.923 594.375 676.195 594.754 674.899 595.938C671.029 596.997 666.973 596.178 662.999 596.322Z"/>
	<path fill="#FEF1E0" d="M679.994 568.628C690.949 573.646 705.11 574.473 717.059 574.602Q716.157 585.641 715.409 596.692C702.621 595.363 690.834 595.192 678 595.998C679.267 587.012 679.443 577.692 679.994 568.628Z"/>
	<path fill="#7DBF3D" d="M926.898 382.577C931.223 386.959 960.424 438.912 961.376 445.23C961.468 445.837 961.185 446.723 961.132 447.298C961.08 447.849 961.119 448.436 961.265 448.969C972.013 451.398 980.484 454.314 986.643 464.103C995.29 477.844 993.937 498.119 990.414 513.239C986.258 531.079 978.528 547.526 968.418 562.736C960.734 564.595 953.188 566.88 945.385 568.225C927.25 571.352 903.301 571.143 885.374 566.801C908.426 545.903 931.195 524.953 953.509 503.261C964.088 492.976 975.22 482.842 984.845 471.646C984.784 470.399 984.799 470.496 983.876 469.649C982.728 469.701 982.502 469.737 981.578 470.495C977.862 473.544 974.483 477.577 971.09 481.006Q962.241 489.98 953.081 498.638C952.987 493.026 952.918 487.43 953.247 481.822C953.482 477.823 956.484 460.669 955.277 458.265L954.749 458.021C953.585 458.556 952.844 459.229 952.377 460.437C949.373 468.21 949.278 492.978 950.079 501.686C935.505 516.346 920.192 530.321 904.909 544.236C899.98 528.484 900.572 510.733 903.462 494.648C904.238 490.33 908.605 476.54 907.045 473.566C905.94 473.761 905.862 473.886 905.201 474.76C900.54 480.928 897.796 509.614 897.739 517.608Q897.723 527.185 899.313 536.63Q900.271 541.911 901.682 547.089C882.676 565.498 862.173 582.349 841.484 598.82C831.272 606.949 820.155 614.605 810.576 623.45C810.788 618.756 815.737 607.199 817.41 602.016Q829.202 564.852 841.904 527.99C845.966 516.125 849.422 503.005 855.282 491.91C857.16 486.711 859.237 481.338 858.81 475.703C858.374 469.947 855.436 465.762 851.258 462.042C855.42 451.458 858.174 440.361 862.274 429.771C890.465 424.955 909.196 403.242 926.898 382.577Z"/>
	<path fill="#FEF1E0" d="M926.898 382.577C931.223 386.959 960.424 438.912 961.376 445.23C961.468 445.837 961.185 446.723 961.132 447.298C961.08 447.849 961.119 448.436 961.265 448.969C928.219 445.19 896.86 456.729 871.229 477.17C868.097 479.668 857.255 491.177 855.282 491.91C857.16 486.711 859.237 481.338 858.81 475.703C858.374 469.947 855.436 465.762 851.258 462.042C855.42 451.458 858.174 440.361 862.274 429.771C890.465 424.955 909.196 403.242 926.898 382.577Z"/>
	<path fill="#F84F46" d="M694.458 666.088C706.061 667.202 749.671 662.334 756.182 664.482C756.831 665.431 756.617 665.568 757.833 665.779C762.965 666.668 769.158 665.992 774.436 665.989C781.913 665.985 789.606 666.366 797.059 665.951C805.864 666.013 828.325 664.79 835.813 666.771Q836.941 667.065 838.019 667.507Q839.097 667.949 840.107 668.531Q841.117 669.113 842.04 669.825Q842.962 670.536 843.782 671.365C847.119 674.72 849.16 679.438 849.14 684.187Q849.135 684.629 849.108 685.07Q849.081 685.511 849.032 685.95Q848.982 686.39 848.911 686.826Q848.839 687.262 848.745 687.694Q848.651 688.126 848.535 688.552Q848.419 688.979 848.282 689.399Q848.145 689.819 847.986 690.231Q847.827 690.644 847.648 691.048Q847.469 691.452 847.269 691.846Q847.069 692.24 846.849 692.624Q846.63 693.008 846.391 693.38Q846.152 693.751 845.895 694.111Q845.637 694.47 845.362 694.816Q845.086 695.161 844.794 695.492Q844.501 695.824 844.192 696.14Q843.883 696.455 843.558 696.755C840.164 699.873 835.367 701.338 830.794 701.002C830.602 700.988 830.412 700.955 830.221 700.931L829.648 705.713C828.166 713.376 826.593 721 824.573 728.542C822.779 735.245 820.448 742.092 819.248 748.926C808.409 761.357 797.992 773.721 788.998 787.593C784.822 794.035 781.221 800.809 777.396 807.46C762.995 820.419 749.024 833.013 732.793 843.699C725.006 848.826 716.435 852.781 708.745 857.93C718.33 864.9 727.888 872.222 735.847 881.055C740.418 886.127 744.28 891.888 748.944 896.841L748.939 897.272C748.841 902.741 747.859 908.163 747.942 913.645C748.063 921.538 749.306 929.309 749.606 937.161L709.519 937.328C702.65 937.338 695.631 937.046 688.78 937.418C677.192 937.817 665.47 937.411 653.863 937.388L586.088 937.345L457.98 937.098C425.288 937.569 392.595 936.909 359.91 937.211C354.184 937.687 348.262 937.401 342.514 937.405L309.793 937.399L272.604 937.49C266.197 937.502 259.624 937.77 253.235 937.408C260.352 936.177 268.814 936.958 276.073 936.925C276.857 887.478 264.547 843.253 240.748 799.906C238.977 797.775 237.857 795.623 236.995 792.999C233.188 789.264 226.464 778.145 222.692 773.125C218.273 767.243 213.083 761.937 208.769 756.01C213.233 743.747 220.79 732.769 227.075 721.408C227.031 715.751 227.462 710 227.673 704.341C221.448 702.441 216.408 702.437 211.673 697.149C210.305 695.659 209.389 693.603 208.409 691.836C207.538 689.156 206.507 685.985 206.652 683.132C206.935 677.595 210.447 674.204 214.297 670.722C215.597 669.919 216.867 669.049 218.147 668.213C223.4 666.308 229.258 666.643 234.76 666.704C243.674 667.893 253.881 666.922 262.896 666.635Q283.624 666.469 304.353 666.552C311.406 666.563 318.919 667.081 325.917 666.358C327.095 666.867 327.78 667.286 329.091 666.808C329.406 666.694 329.678 666.487 329.972 666.327C330.225 666.516 330.436 666.78 330.73 666.896C331.484 667.192 380.317 666.809 384.495 666.37C385.711 666.415 386.921 666.499 388.133 666.353C392.836 667.817 432.889 666.724 441.004 666.641C442.246 666.724 443.378 666.531 444.605 666.368C447.484 667.338 490.504 667.554 493.077 666.373C494.316 667.027 494.695 667.066 496.141 666.77C496.529 666.69 496.784 666.556 497.128 666.4C497.608 666.603 497.753 666.692 498.337 666.776C500.982 667.156 518.833 666.982 520.095 665.939C521.282 666.651 521.996 667.089 523.458 666.797C523.919 666.705 524.163 666.576 524.57 666.396C530.362 667.508 537.127 666.88 543.032 666.857C554.365 666.812 565.706 666.661 577.038 666.737C579.037 667.073 580.839 667.304 582.802 666.646C587.666 667.436 593.089 666.96 598.034 666.929L624.99 666.762C631.698 666.756 654.002 667.763 659.15 666.702C660.758 666.947 661.944 667.075 663.54 666.718C667.547 667.3 692.025 667.815 694.458 666.088Z"/>
	<path fill="#FB858D" d="M430.294 731.698C436.266 731.637 442.258 732.3 447.343 735.731C450.579 737.914 452.718 741.006 453.394 744.872C454.303 750.069 452.372 754.926 449.385 759.101C442.093 769.29 429.888 774.515 417.876 776.486C411.242 776.919 404.734 776.478 399.169 772.342C395.925 769.931 394.014 766.603 393.564 762.584C392.946 757.059 395.249 751.869 398.712 747.678C406.264 738.536 418.624 732.731 430.294 731.698Z"/>
	<path fill="#FB858D" d="M588.291 791.191C593.835 790.446 601.222 791.421 605.737 794.823C609.263 797.48 611.084 801.612 611.585 805.914C612.33 812.306 610.016 818.32 606.117 823.315C598.659 832.87 585.942 838.549 574.124 839.971C567.598 840.737 559.895 839.919 554.478 835.9C551.641 833.796 549.834 830.85 549.325 827.348C548.372 820.8 551.663 813.971 555.646 808.939C563.782 798.659 575.393 792.679 588.291 791.191Z"/>
	<path fill="#FB858D" d="M722.617 724.194C728.706 723.461 737.246 724.148 742.173 728.012C745.01 730.237 746.403 733.457 746.715 736.999C747.242 742.981 744.811 748.443 741.096 752.996C731.689 764.525 718.632 769.949 704.125 771.487C696.825 771.98 688.729 771.994 682.735 767.134C679.894 764.83 678.208 761.712 677.938 758.053C677.501 752.145 680.478 746.798 684.158 742.411C693.466 731.314 708.495 725.442 722.617 724.194Z"/>
	<path fill="#FEF1E0" d="M380.109 879.115C406.633 888.926 434.97 896.957 463.281 899.126C461.2 911.609 460.22 925.046 457.98 937.098C425.288 937.569 392.595 936.909 359.91 937.211L359.481 936.933C359.598 935.159 365.034 927.92 366.239 925.723C374.195 911.209 378.672 895.561 380.109 879.115Z"/>
	<path fill="#FEF1E0" d="M669.514 878.248C671.36 899.475 675.695 920.028 688.78 937.418C677.192 937.817 665.47 937.411 653.863 937.388L586.088 937.345C584.735 924.727 582.47 912.158 580.48 899.627Q591.869 898.236 603.16 896.198Q614.451 894.16 625.608 891.481Q636.764 888.802 647.75 885.491Q658.735 882.18 669.514 878.248Z"/>
	<path fill="#66B931" d="M672.208 839.505C685.347 843.65 696.835 851.207 708.745 857.93C718.33 864.9 727.888 872.222 735.847 881.055C740.418 886.127 744.28 891.888 748.944 896.841L748.939 897.272C748.841 902.741 747.859 908.163 747.942 913.645C748.063 921.538 749.306 929.309 749.606 937.161L709.519 937.328C702.65 937.338 695.631 937.046 688.78 937.418C675.695 920.028 671.36 899.475 669.514 878.248C669.43 870.942 669.477 863.607 670.164 856.327C670.695 850.7 671.73 845.142 672.208 839.505Z"/>
	<path fill="#66B931" d="M237.112 709.145C275.326 735.954 298.008 785.85 305.896 830.746C306.314 833.128 306.485 836.092 307.27 838.35C318.24 844.976 329.173 851.898 340.633 857.65C346.459 854.886 352.146 851.793 358.049 849.199C364.686 846.282 371.642 843.943 378.478 841.534Q379.393 846.167 379.955 850.856Q380.517 855.544 380.722 860.262Q380.927 864.98 380.773 869.7Q380.62 874.42 380.109 879.115C378.672 895.561 374.195 911.209 366.239 925.723C365.034 927.92 359.598 935.159 359.481 936.933L359.91 937.211C354.184 937.687 348.262 937.401 342.514 937.405L309.793 937.399L272.604 937.49C266.197 937.502 259.624 937.77 253.235 937.408C260.352 936.177 268.814 936.958 276.073 936.925C276.857 887.478 264.547 843.253 240.748 799.906C238.977 797.775 237.857 795.623 236.995 792.999C233.188 789.264 226.464 778.145 222.692 773.125C218.273 767.243 213.083 761.937 208.769 756.01C213.233 743.747 220.79 732.769 227.075 721.408C230.471 717.362 233.754 713.223 237.112 709.145Z"/>
	<path fill="#5B2448" d="M236.995 792.999C236.883 789.292 235.316 778.653 237.651 776.092L238.365 776.247C240.13 779.711 241.291 795.719 240.748 799.906C238.977 797.775 237.857 795.623 236.995 792.999Z"/>
	<path fill="#FEF1E0" d="M307.27 838.35C318.24 844.976 329.173 851.898 340.633 857.65C329.641 863.682 319.323 871.492 310.127 879.975C310.11 865.768 309.515 852.432 307.27 838.35Z"/>
</svg>
