<?xml version="1.0" encoding="utf-8" ?>
<svg xmlns="http://www.w3.org/2000/svg" xmlns:xlink="http://www.w3.org/1999/xlink" width="1024" height="1024">
	<path fill="#FFA8A8" d="M0 0L1024 0L1024 1024L0 1024L0 0Z"/>
	<path fill="#6A4C85" d="M975.9 901.688C981.604 901.724 1005.53 900.284 1008.7 903.15C1008.95 904.584 1008.82 904.671 1008.15 905.987L984.359 906.063C981.912 906.059 976.921 906.57 975.12 904.767C974.963 903.3 975.222 903.027 975.9 901.688Z"/>
	<path fill="#6A4C85" d="M932.588 901.475C937.845 901.461 943.122 901.33 948.376 901.4C950.484 901.429 951.866 901.344 953.377 902.886C953.716 904.156 953.863 904.372 953.438 905.592C949.144 907.408 747.023 905.85 726.733 905.826L187.416 905.83L60.1997 905.964C54.5543 905.969 20.5992 906.805 17.6624 905.692C16.6454 905.307 16.5581 904.915 16.0962 904.006L16.5627 902.893C17.1752 902.486 17.7358 902.128 18.4812 902.017C24.779 901.075 32.2463 901.839 38.6853 901.831C56.5885 901.808 74.6769 902.337 92.5564 901.552C103.312 902.91 115.003 901.872 125.892 901.98L132.524 901.977C136.473 901.988 140.466 902.114 144.4 901.74Q158.184 901.554 171.968 901.713C174.985 901.798 178.077 902.032 181.088 901.929Q199.848 901.654 218.61 901.636L420.557 901.674L544.895 901.846L583.322 901.879C589.891 901.883 596.899 902.353 603.426 901.72C627.868 901.261 652.359 901.569 676.806 901.544Q739.478 901.303 802.147 901.869L843.903 902.101L848.156 902.141L879.569 902.2L887.687 902.126L891.918 902.135Q912.257 902.027 932.588 901.475Z"/>
	<path fill="#F84F46" d="M216.552 718.977C220.978 717.547 244.281 718.503 250.49 718.5L338.703 718.447C353.787 718.437 369.881 717.54 384.865 718.418C389.273 718.676 393.371 719.876 397.286 721.901C401.226 723.939 405.066 727.651 409.027 729.265C414.14 734.685 418.341 740.617 419.865 748.047C421.221 754.654 420.58 762.055 420.556 768.791L420.431 800.383L420.557 901.674L218.61 901.636C218.702 901.424 218.797 901.213 218.885 900.999C236.272 858.245 240.646 807.061 230.683 761.991C227.396 747.119 222.311 733.043 216.552 718.977Z"/>
	<path fill="#7DC03C" d="M92.5564 901.552C83.8996 895.693 75.6684 889.608 68.4189 882.029C49.4751 862.223 38.1482 834.773 32.9918 808.098C30.3545 794.454 30.7249 780.761 30.6405 766.938L30.5298 720.944C30.5159 681.237 29.6553 641.334 30.687 601.649C31.0449 587.881 34.7293 572.551 45.2654 562.849C49.3225 559.112 53.9623 557.078 59.5099 557.44C80.1434 558.789 104.22 583.146 117.298 598.272C124.052 606.084 130.131 614.499 136.962 622.226C138.354 624.329 139.734 626.389 141.328 628.349C145.362 634.902 149.477 641.364 153.3 648.046C155.842 652.491 158.374 658.611 161.633 662.474C162.823 664.998 163.898 667.706 165.465 670.019C166.3 672.578 167.167 674.758 168.545 677.091C169.154 678.32 169.855 679.555 170.34 680.836L171.499 684.156C171.775 684.114 172.051 684.076 172.326 684.029C174.238 683.702 176.083 682.747 177.899 682.083C182.987 680.221 188.044 681.738 192.444 684.606C204.107 692.207 210.402 706.982 216.552 718.977C222.311 733.043 227.396 747.119 230.683 761.991C240.646 807.061 236.272 858.245 218.885 900.999C218.797 901.213 218.702 901.424 218.61 901.636Q199.848 901.654 181.088 901.929C178.077 902.032 174.985 901.798 171.968 901.713Q158.184 901.554 144.4 901.74C140.466 902.114 136.473 901.988 132.524 901.977L125.892 901.98C115.003 901.872 103.312 902.91 92.5564 901.552Z"/>
	<path fill="#70A735" d="M178.495 857.726C178.598 837.039 179.655 816.42 179.897 795.75Q180.167 763.518 181.266 731.303C181.459 724.28 181.117 717.094 181.522 710.107C181.617 708.47 181.828 707.109 182.575 705.646L183.488 705.087C184.109 705.309 184.659 705.313 184.99 705.94C185.534 706.968 185.535 708.201 185.549 709.34C185.711 722.374 184.829 735.63 184.576 748.684C184.197 768.223 184.28 787.843 183.482 807.363C188.25 797.362 192.228 786.957 196.156 776.604C197.58 772.852 198.758 768.86 200.349 765.192C200.688 764.412 201.289 763.87 201.886 763.288L203.15 762.98L203.823 763.454C204.464 772.718 186.565 806.457 183.559 819.703C181.226 829.985 182.224 851.355 181.935 862.747C181.653 873.821 179.96 891.456 181.088 901.929C178.077 902.032 174.985 901.798 171.968 901.713C173.727 901.709 175.588 901.898 177.181 901.054C178.086 894.673 178.864 869.938 177.428 864.456C176.101 859.388 172.601 853.783 170.332 849.017C163.791 835.283 156.932 821.636 150.632 807.797C149.635 805.608 146.07 797.171 147.809 795.337C149.032 796.153 149.711 797.396 150.404 798.663C156.652 810.088 161.715 822.393 167.161 834.221C170.795 842.115 174.988 849.782 178.495 857.726Z"/>
	<path fill="#70A735" d="M93.6942 749.767Q85.7244 711.241 76.204 673.068L68.6921 641.586C66.9915 634.583 64.8544 627.423 63.7083 620.313C63.3049 617.81 62.8767 614.957 63.9567 612.579L64.8422 612.845C66.4981 614.934 67.4194 617.18 68.142 619.723C70.6405 628.515 72.2195 637.729 74.2272 646.654L83.976 689C90.3757 717.701 97.5168 746.236 103.803 774.966C107.464 791.698 110.064 809.154 115.031 825.515C121.141 815.736 124.518 804.627 131.539 795.272C131.535 798.407 131.92 802.088 130.88 805.078C125.724 813.739 121.426 822.955 117.05 832.023C120.8 849.537 124.504 867.089 128.525 884.541C129.778 889.975 130.65 896.869 132.524 901.977L125.892 901.98L127.135 901.295C127.322 900.472 127.392 899.86 127.248 899.016C124.833 884.855 121.129 870.53 117.826 856.542L106.475 807.115C104.259 797.501 98.1989 765.362 94.5494 758.306C88.6452 746.892 50.9862 697.042 51.8589 690.396L52.7869 690.383C62.4078 695.644 84.4342 737.73 93.241 749.183L93.6942 749.767Z"/>
	<path fill="#7DC03C" d="M886.517 622.424C900.605 602.371 932.421 563.804 956.941 559.713C963.914 558.549 971.488 559.787 977.302 563.96C985.693 569.982 991.035 581.924 992.402 591.921C993.794 602.093 993.138 613.013 993.189 623.276Q993.425 651.868 993.348 680.46L993.492 753.123C993.48 771.883 994.5 790.871 990.827 809.356C986.168 832.797 975.933 856.035 961.263 874.975C952.924 885.741 943.496 893.564 932.588 901.475Q912.257 902.027 891.918 902.135L887.687 902.126L879.569 902.2L848.156 902.141L843.903 902.101L802.147 901.869Q801.589 900.757 801.103 899.612C781.575 852.352 781.902 794.22 795.897 745.583C798.71 735.806 802.413 726.45 806.38 717.093Q808.039 713.219 809.915 709.446C815.145 698.743 824.419 681.841 836.67 677.936C841.187 676.496 845.646 677.634 849.665 679.951C850.414 680.382 851.652 681.38 852.441 681.583C852.77 681.667 853.12 681.604 853.46 681.614L853.487 681.172C854.497 679.908 855.207 678.226 855.963 676.784C856.852 675.013 857.551 673.402 858.006 671.468C859.683 668.645 861.603 665.555 862.35 662.334C866.203 657.198 868.899 650.652 872.209 645.083C875.405 639.705 879.323 634.755 882.244 629.221C883.752 626.998 885.143 624.731 886.517 622.424Z"/>
	<path fill="#70A735" d="M839.147 803.507C839.202 788.377 833.572 701.63 835.942 694.854L836.724 694.442C837.977 694.85 838.338 694.857 838.874 696.19C840.067 699.16 840.015 720.824 840.229 726.031C842.012 769.265 842.891 812.656 845.516 855.839C845.606 855.709 845.697 855.58 845.784 855.447C851.995 846.026 865.084 803.076 869.557 799.116C870.839 799.247 870.638 799.301 871.497 800.123C871.589 800.595 871.8 801.059 871.771 801.539C871.63 803.934 869.206 807.993 868.305 810.321Q862.298 826.13 855.977 841.817C853.054 849.106 848.979 857.047 847.548 864.794C845.807 874.222 847.059 892.563 848.156 902.141L843.903 902.101C842.472 881.626 842.504 861.032 841.327 840.53C840.756 830.589 841.123 819.903 837.694 810.434C834.898 802.714 818.403 769.265 820.356 763.466L821.25 762.889C822.508 763.578 823.038 764.35 823.657 765.654C829.466 777.894 833.355 791.202 839.147 803.507Z"/>
	<path fill="#70A735" d="M906.3 823.64C908.996 813.724 911.967 803.907 914.487 793.938C919.458 774.273 923.782 754.453 928.627 734.758L948.972 654.085C951.923 642.354 953.858 630.34 957.039 618.671C957.597 616.623 957.938 614.192 959.76 612.896C961.155 612.808 961.075 612.832 962.166 613.722C962.426 614.401 962.626 614.98 962.501 615.721C961.279 622.95 958.28 631.399 956.551 638.769Q949.476 669.533 941.892 700.176C937.639 716.845 932.626 733.311 929.604 750.269C934.403 743.033 966.963 692.061 970.913 689.809C972.076 690.114 972.013 690.181 972.69 691.195C972.722 691.939 972.755 691.943 972.616 692.778C972.423 693.943 942.533 738.295 938.865 743.621C935.341 748.737 930.34 754.184 927.696 759.736C923.7 768.13 921.974 779.115 919.925 788.166C917.315 799.695 914.689 811.183 911.793 822.645C906.542 843.429 899.727 863.815 895.164 884.77C893.936 890.41 892.406 896.39 891.918 902.135L887.687 902.126C888.621 893.203 891.319 884.23 893.499 875.542Q899.048 853.173 905.282 830.986C901.573 824.283 896.455 811.955 892.436 806.759L891.818 797.893L892.357 797.202C894.488 798.737 904.181 819.566 906.3 823.64Z"/>
	<path fill="#FEF1E0" d="M606.724 728.407L608.058 728.481L608.609 728.206C610.819 727.098 611.793 719.888 612.673 717.461Q613.447 715.385 614.327 713.353Q615.207 711.32 616.192 709.336Q617.177 707.352 618.263 705.422Q619.349 703.491 620.534 701.62Q621.719 699.748 623 697.941Q624.28 696.134 625.653 694.395Q627.026 692.657 628.487 690.992Q629.948 689.327 631.493 687.74C644.689 674.415 662.528 665.081 681.216 662.792C690.491 661.655 699.995 661.898 709.327 661.85L748.091 661.639L785.623 661.599C812 661.6 833.474 661.299 853.487 681.172L853.46 681.614C853.12 681.604 852.77 681.667 852.441 681.583C851.652 681.38 850.414 680.382 849.665 679.951C845.646 677.634 841.187 676.496 836.67 677.936C824.419 681.841 815.145 698.743 809.915 709.446Q808.039 713.219 806.38 717.093C802.413 726.45 798.71 735.806 795.897 745.583C781.902 794.22 781.575 852.352 801.103 899.612Q801.589 900.757 802.147 901.869Q739.478 901.303 676.806 901.544C652.359 901.569 627.868 901.261 603.426 901.72C596.899 902.353 589.891 901.883 583.322 901.879L544.895 901.846L420.557 901.674L420.431 800.383L420.556 768.791C420.58 762.055 421.221 754.654 419.865 748.047C418.341 740.617 414.14 734.685 409.027 729.265L410.692 728.232L414.994 728.119L558.943 728.026C567.331 728.021 601.59 726.915 606.724 728.407Z"/>
	<path fill="#FFA8A8" d="M549.552 825.58C552.706 825.36 563.026 824.803 565.271 826.106L564.644 827.099C562.812 827.971 560.912 828.556 558.882 828.711C555.171 828.994 552.338 827.987 549.552 825.58Z"/>
	<path fill="#FFA8A8" d="M528.562 825.062C532.819 825.214 541.761 824.481 545.18 825.904L544.842 826.882C541.825 828.034 538.224 828.918 534.971 828.587C532.003 828.285 530.44 827.313 528.562 825.062Z"/>
	<path fill="#F84F46" d="M603.426 901.72L603.185 793.53L603.076 768.627C603.045 762.099 602.588 755.206 603.896 748.782C605.373 741.526 609.67 734.262 614.873 729.053C619.529 724.391 626.583 719.554 633.115 718.161C640.935 716.495 649.481 717.018 657.441 717.005L688.672 716.999L806.38 717.093C802.413 726.45 798.71 735.806 795.897 745.583C781.902 794.22 781.575 852.352 801.103 899.612Q801.589 900.757 802.147 901.869Q739.478 901.303 676.806 901.544C652.359 901.569 627.868 901.261 603.426 901.72Z"/>
	<path fill="#5B2448" d="M242.231 530.003Q244.621 527.109 247.283 524.465C257.495 514.286 268.19 511.418 282.292 511.393L283.668 512.078C284.616 514.97 283.904 518.556 284.102 521.603C284.574 518.398 284.476 515.154 284.477 511.923C298.7 514.603 306.584 519.638 316.208 530.422C349.221 529.652 382.317 530.058 415.34 529.995L585.168 529.524C625.283 529.51 665.479 530.003 705.586 529.328L707.792 526.98C720.499 513.608 730.78 512.443 748.513 512.047C764.018 511.7 775.282 518.588 786.131 528.987L832.341 529.081C840.808 529.1 849.394 529.418 857.848 528.991L857.977 627.488C857.975 642.053 857.205 656.948 858.006 671.468C857.551 673.402 856.852 675.013 855.963 676.784C855.207 678.226 854.497 679.908 853.487 681.172C833.474 661.299 812 661.6 785.623 661.599L748.091 661.639L709.327 661.85C699.995 661.898 690.491 661.655 681.216 662.792C662.528 665.081 644.689 674.415 631.493 687.74Q629.948 689.327 628.487 690.992Q627.026 692.657 625.653 694.395Q624.28 696.134 623 697.941Q621.719 699.748 620.534 701.62Q619.349 703.491 618.263 705.422Q617.177 707.352 616.192 709.336Q615.207 711.32 614.327 713.353Q613.447 715.385 612.673 717.461C611.793 719.888 610.819 727.098 608.609 728.206L608.058 728.481L606.724 728.407C601.59 726.915 567.331 728.021 558.943 728.026L414.994 728.119L410.692 728.232L409.027 729.265C405.066 727.651 401.226 723.939 397.286 721.901C393.371 719.876 389.273 718.676 384.865 718.418C369.881 717.54 353.787 718.437 338.703 718.447L250.49 718.5C244.281 718.503 220.978 717.547 216.552 718.977C210.402 706.982 204.107 692.207 192.444 684.606C188.044 681.738 182.987 680.221 177.899 682.083C176.083 682.747 174.238 683.702 172.326 684.029C172.051 684.076 171.775 684.114 171.499 684.156L170.34 680.836C169.855 679.555 169.154 678.32 168.545 677.091C167.167 674.758 166.3 672.578 165.465 670.019C165.762 658.907 165.489 647.711 165.492 636.593L165.475 574.483C165.37 572.916 165.47 571.341 165.522 569.773L165.505 529.956L242.231 530.003Z"/>
	<path fill="#FFA8A8" d="M282.292 511.393L283.668 512.078C284.616 514.97 283.904 518.556 284.102 521.603C282.941 521.429 283.101 521.446 282.291 520.79C281.508 517.632 281.987 514.587 282.292 511.393Z"/>
	<path fill="#FFA8A8" d="M232.891 580.264C234.748 581.615 235.275 587.414 236.106 589.715C237.537 593.681 240.513 597.586 241.073 601.803C241.22 602.907 241.22 602.954 240.537 603.883L238.179 604.092C236.875 603.356 235.542 602.618 234.384 601.66C231.135 598.973 228.891 595.028 228.668 590.777C228.443 586.5 230.076 583.337 232.891 580.264Z"/>
	<path fill="#FFA8A8" d="M323.825 578.606C326.644 581.328 328.834 584.153 328.902 588.247C328.971 592.436 327.207 594.958 326.384 598.695C322.286 602.391 319.424 603.876 313.841 604.462C318.51 595.881 320.931 587.837 323.825 578.606Z"/>
	<path fill="#FFA8A8" d="M294 622.582C294.655 623.361 295.573 632.345 295.982 634.128C297.759 641.871 301.192 649.47 303.58 657.079C287.164 657.451 270.675 657.141 254.25 657.149L247.718 657.138C251.324 645.752 255.46 634.543 258.917 623.109C260.348 623.846 261.788 624.575 263.286 625.167C274.045 629.414 283.789 627.043 294 622.582Z"/>
	<path fill="#F84F46" d="M406.284 704.582L614.124 704.657C610.703 711.066 608.237 717.067 606.473 724.125L606.724 728.407C601.59 726.915 567.331 728.021 558.943 728.026L414.994 728.119L414.122 723.982C411.92 717.293 409.339 710.935 406.284 704.582Z"/>
	<path fill="#6A4C85" d="M414.122 723.982L538.909 724.017C561.415 724.034 583.971 723.763 606.473 724.125L606.724 728.407C601.59 726.915 567.331 728.021 558.943 728.026L414.994 728.119L414.122 723.982Z"/>
	<path fill="#6A74EE" d="M786.131 528.987L832.341 529.081C840.808 529.1 849.394 529.418 857.848 528.991L857.977 627.488C857.975 642.053 857.205 656.948 858.006 671.468C857.551 673.402 856.852 675.013 855.963 676.784C851.242 674.383 847.63 670.521 843.11 667.846C827.462 658.584 815.123 658.59 797.731 657.736C804.093 655.897 810.41 653.509 815.798 649.572Q816.384 649.143 816.947 648.684Q817.511 648.226 818.051 647.74Q818.59 647.254 819.105 646.741Q819.62 646.229 820.108 645.691Q820.596 645.153 821.057 644.592Q821.518 644.03 821.95 643.446Q822.382 642.862 822.784 642.258Q823.187 641.653 823.558 641.029Q823.929 640.404 824.269 639.762Q824.608 639.12 824.915 638.462Q825.222 637.803 825.496 637.13Q825.769 636.458 826.009 635.772Q826.248 635.086 826.453 634.389Q826.657 633.692 826.827 632.986Q826.996 632.28 827.13 631.566Q827.264 630.852 827.362 630.132C829.995 611.064 810.367 607.033 802.459 594.012C797.151 585.273 800.459 575.572 800.46 566.106Q800.468 563.57 800.234 561.045Q800.001 558.519 799.53 556.027Q799.058 553.536 798.352 551.1Q797.646 548.664 796.712 546.306C794.146 539.9 790.228 534.472 786.131 528.987Z"/>
	<path fill="#9BB4FB" d="M834.484 566.721C841.539 566.267 850.104 565.935 857.02 567.32L857.62 568.356C857.58 569.851 857.606 570.029 856.749 571.237C853.852 572.3 839.96 570.488 836.122 570.197C828.254 569.61 820.451 569.203 812.561 569.147L812.751 568.86C819.602 567.084 827.415 567.133 834.484 566.721Z"/>
	<path fill="#6A74EE" d="M165.505 529.956L242.231 530.003C233.029 545.18 229.783 557.813 232.425 575.474C228.368 578.123 225.805 581.702 224.902 586.524C223.947 591.627 225.287 597.296 228.406 601.445Q228.891 602.101 229.442 602.703Q229.992 603.306 230.602 603.848Q231.212 604.39 231.875 604.866Q232.537 605.343 233.246 605.748Q233.954 606.153 234.7 606.483Q235.447 606.812 236.223 607.063Q237 607.314 237.798 607.483Q238.596 607.652 239.408 607.738C241.087 607.908 242.799 607.742 244.472 607.568C247.958 612.366 251.568 617.03 255.842 621.162C255.431 622.516 254.8 624.063 254.626 625.453C250.388 635.887 247.032 646.798 243.465 657.481C208.445 657.591 197.471 653.77 168.545 677.091C167.167 674.758 166.3 672.578 165.465 670.019C165.762 658.907 165.489 647.711 165.492 636.593L165.475 574.483C165.37 572.916 165.47 571.341 165.522 569.773L165.505 529.956Z"/>
	<path fill="#9BB4FB" d="M165.522 569.773C172.778 564.731 180.572 563.242 189.26 564.83C196.591 566.171 202.724 570.285 208.815 574.346Q187.144 574.129 165.475 574.483C165.37 572.916 165.47 571.341 165.522 569.773Z"/>
	<path fill="#FECE2D" d="M214.684 660.841C242.055 661.828 269.706 660.919 297.113 660.931C314.767 660.939 333.586 659.402 350.74 664.105Q353.485 664.878 356.171 665.837Q358.857 666.796 361.47 667.938Q364.083 669.079 366.612 670.398Q369.141 671.716 371.573 673.205Q374.005 674.694 376.33 676.346Q378.654 677.999 380.859 679.807Q383.064 681.616 385.14 683.571Q387.216 685.527 389.152 687.62C397.096 696.18 410.435 715.808 410.718 727.733C410.722 727.9 410.701 728.066 410.692 728.232L409.027 729.265C405.066 727.651 401.226 723.939 397.286 721.901C393.371 719.876 389.273 718.676 384.865 718.418C369.881 717.54 353.787 718.437 338.703 718.447L250.49 718.5C244.281 718.503 220.978 717.547 216.552 718.977C210.402 706.982 204.107 692.207 192.444 684.606C188.044 681.738 182.987 680.221 177.899 682.083C176.083 682.747 174.238 683.702 172.326 684.029C172.051 684.076 171.775 684.114 171.499 684.156L170.34 680.836C183.576 668.666 196.773 662.697 214.684 660.841Z"/>
	<path fill="#6A74EE" d="M316.208 530.422C349.221 529.652 382.317 530.058 415.34 529.995L585.168 529.524C625.283 529.51 665.479 530.003 705.586 529.328C698.887 540.372 694.466 550.88 693.047 563.812C692.089 572.55 692.819 582.821 688.755 590.831C680.701 606.705 653.47 607.98 659.522 632.326C661.63 640.804 668.061 645.944 675.271 650.165C680.949 653.489 686.966 655.882 693.238 657.827C668.458 657.845 646.784 666.86 629.257 684.448C624.311 689.412 620.12 695.097 615.862 700.646L403.901 700.482C389.471 679.191 371.096 663.536 345.254 658.514C332.994 656.131 320.014 656.907 307.565 656.993C303.773 644.765 298.241 633.396 298.477 620.327C303.167 616.332 307.463 611.908 311.61 607.356C314.06 608.014 316.785 608.062 319.262 607.539C323.959 606.546 327.996 603.344 330.426 599.255C333.432 594.199 333.412 588.947 332 583.42C330.753 579.451 327.975 577.179 324.706 574.913C324.817 574.628 324.988 574.217 325.075 573.905C329.151 559.206 323.681 542.939 316.208 530.422Z"/>
	<path fill="#9BB4FB" d="M497.99 667.21C510.419 666.242 523.175 670.556 534.792 674.488C525.288 674.719 515.64 674.226 506.125 674.086C492.991 673.89 479.844 674.055 466.706 673.925C477.366 671.649 486.947 668.182 497.99 667.21Z"/>
	<path fill="#9BB4FB" d="M612.347 624.191C626.338 622.565 641.475 625.876 654.503 630.902C645.273 630.171 635.648 630.748 626.375 630.773C612.285 630.483 598.135 630.811 584.039 630.851C584.297 630.753 584.557 630.658 584.814 630.558C593.278 627.238 603.335 625.351 612.347 624.191Z"/>
	<path fill="#9BB4FB" d="M495.216 566.707C507.332 565.062 522.216 569.232 533.23 573.98L504.597 573.918Q485.12 574.085 465.642 573.952C475.599 570.679 484.673 567.561 495.216 566.707Z"/>
	<path fill="#9BB4FB" d="M376.327 621.212C391.484 619.936 405.446 624.157 419.405 629.509C408.619 628.351 397.214 628.493 386.372 628.508C371.65 628.446 356.372 628.461 341.699 629.604C353.015 625.77 364.362 622.213 376.327 621.212Z"/>
	<path fill="#FEF1E0" d="M136.817 603.081Q135.083 601.813 133.421 600.45C123.148 591.965 115.277 581.208 107.498 570.522C75.4892 526.556 59.8074 481.625 55.0441 427.628C50.6799 378.154 60.7577 326.676 81.1192 281.548C83.3928 276.509 85.5494 271.241 88.1743 266.381C92.8791 257.669 98.5839 249.005 104.21 240.859C108.135 235.176 111.989 229.222 116.454 223.96C124.992 213.901 133.631 203.189 143.081 194.009Q145.219 191.941 147.402 189.92Q149.585 187.899 151.81 185.925Q154.036 183.952 156.304 182.027Q158.572 180.102 160.882 178.227Q163.191 176.352 165.54 174.527Q167.889 172.702 170.278 170.929Q172.666 169.155 175.092 167.434Q177.518 165.713 179.981 164.044Q182.444 162.376 184.942 160.761Q187.441 159.147 189.973 157.587Q192.506 156.026 195.072 154.522Q197.638 153.017 200.236 151.568Q202.834 150.119 205.463 148.726Q208.092 147.334 210.75 145.999Q213.408 144.664 216.095 143.386Q218.781 142.109 221.495 140.89Q224.208 139.672 226.948 138.512Q229.687 137.352 232.451 136.252Q235.215 135.152 238.002 134.112Q240.789 133.072 243.598 132.093Q246.407 131.113 249.236 130.195Q252.065 129.277 254.914 128.42Q257.763 127.563 260.629 126.768Q263.496 125.973 266.379 125.241Q269.262 124.508 272.16 123.838Q275.059 123.168 277.971 122.561Q280.883 121.954 283.807 121.41Q286.732 120.866 289.668 120.386Q292.603 119.905 295.549 119.489Q298.494 119.072 301.448 118.719Q304.401 118.366 307.362 118.077Q310.323 117.789 313.289 117.564Q316.783 117.274 320.283 117.07Q323.782 116.866 327.286 116.747Q330.79 116.629 334.295 116.597Q337.801 116.564 341.306 116.618Q344.812 116.671 348.315 116.811Q351.818 116.95 355.316 117.175Q358.815 117.401 362.307 117.711Q365.798 118.022 369.282 118.419Q372.765 118.815 376.237 119.297Q379.71 119.778 383.17 120.345Q386.629 120.912 390.074 121.563Q393.519 122.214 396.947 122.95Q400.374 123.685 403.783 124.504Q407.192 125.323 410.579 126.226Q413.967 127.129 417.331 128.114Q420.696 129.099 424.035 130.167Q427.374 131.234 430.686 132.383Q433.998 133.532 437.281 134.762Q440.564 135.992 443.816 137.302Q447.068 138.611 450.287 140.001Q453.505 141.39 456.689 142.857Q459.873 144.325 463.02 145.87Q466.167 147.416 469.275 149.038Q472.383 150.66 475.45 152.357Q478.517 154.055 481.542 155.827Q484.567 157.599 487.547 159.445Q490.528 161.291 493.462 163.209Q496.396 165.128 499.283 167.118Q502.169 169.107 505.006 171.167Q507.843 173.227 510.628 175.356Q513.413 177.484 516.146 179.681Q518.878 181.877 521.556 184.14C527.55 180.036 532.931 174.666 538.739 170.247C552.858 159.507 569.22 149.587 585.419 142.316C635.773 119.713 688.861 112.394 743.299 122.338C752.015 123.93 760.786 125.571 769.302 128.046C777.371 130.391 785.379 133.573 793.234 136.57C832.67 151.62 870.957 179.626 898.354 211.712C906.423 221.163 913.467 231.247 920.431 241.52C928.577 253.536 936.696 266.666 942.624 279.936C974.826 352.013 979.558 430.112 951.077 504.269C944.487 521.427 936.851 535.396 927.56 551.171C923.518 558.035 919.599 565.078 914.882 571.506C910.461 577.531 905.435 583.234 900.482 588.825C896.58 593.229 891.933 599.203 886.48 601.623C886.465 608.55 886.344 615.5 886.517 622.424C885.143 624.731 883.752 626.998 882.244 629.221C879.323 634.755 875.405 639.705 872.209 645.083C868.899 650.652 866.203 657.198 862.35 662.334C861.603 665.555 859.683 668.645 858.006 671.468C857.205 656.948 857.975 642.053 857.977 627.488L857.848 528.991L857.939 352.155L857.957 305.551C857.981 296.907 858.739 287.454 857.538 278.9C856.711 273.012 853.925 267.886 849.689 263.754Q848.891 262.964 848.028 262.245Q847.164 261.527 846.242 260.886Q845.32 260.245 844.345 259.686Q843.371 259.128 842.352 258.656Q841.332 258.184 840.276 257.802Q839.22 257.42 838.135 257.131Q837.049 256.841 835.943 256.647Q834.837 256.453 833.718 256.356C824.875 255.58 815.567 256.12 806.68 256.111L754.872 256.11L594.295 256.228L322.822 256.127L244.828 256.275C229.048 256.268 213.156 255.878 197.386 256.405C188.051 256.717 180.017 259.194 173.525 266.174C169.787 270.193 166.917 275.61 166.134 281.05C164.863 289.882 165.537 299.469 165.542 308.391L165.557 355.542L165.505 529.956L165.522 569.773C165.47 571.341 165.37 572.916 165.475 574.483L165.492 636.593C165.489 647.711 165.762 658.907 165.465 670.019C163.898 667.706 162.823 664.998 161.633 662.474C158.374 658.611 155.842 652.491 153.3 648.046C149.477 641.364 145.362 634.902 141.328 628.349C139.734 626.389 138.354 624.329 136.962 622.226L137.064 621.413C136.161 615.707 136.808 608.918 136.817 603.081Z"/>
	<path fill="#FFA8A8" d="M779.386 168.024C780.354 168.359 780.806 168.647 781.613 169.24C781.829 170.613 781.655 170.752 781.02 172.014C779.858 171.5 779.07 171.043 778.131 170.185C778.201 168.753 778.403 168.953 779.386 168.024Z"/>
	<path fill="#FFA8A8" d="M787.447 168.569C788.117 168.51 788.817 168.423 789.492 168.438C790.86 168.468 791.362 168.564 792.346 169.512L792.211 170.869C790.554 171.049 789.122 171.207 787.475 170.899L786.921 170.022L787.447 168.569Z"/>
	<path fill="#5B2448" d="M141.494 301.425C140.245 301.182 139.151 300.837 137.959 300.409C136.614 297.866 137.371 271.322 137.564 266.713C137.981 256.767 142.505 247.702 149.881 241.033C156.065 235.443 163.711 231.591 172.007 230.51C177.841 229.749 183.883 230.02 189.758 230.017L216.445 229.997L308.454 229.869L449.375 229.887L493.942 229.924C503.003 229.916 512.178 229.592 521.224 230.108C522.249 231.023 522.34 232.998 522.627 234.363C515.826 233.639 508.751 234.002 501.91 234.006L466.462 234.037L352.75 234.02L231.783 233.988L193.687 233.988C186.9 233.992 179.786 233.592 173.036 234.252C166.255 234.914 160.411 237.674 155.188 241.948C147.893 247.918 142.672 256.117 141.722 265.617C140.553 277.312 141.792 289.634 141.494 301.425Z"/>
	<path fill="#5B2448" d="M549.318 232.04L549.774 230.44C554.214 228.955 628.272 229.884 639.353 229.878L786.072 229.881C808.364 229.914 830.918 229.211 853.188 229.93Q855.203 230 857.2 230.285Q859.196 230.571 861.151 231.068Q863.105 231.566 864.995 232.27Q866.885 232.974 868.688 233.877C876.803 237.939 882.183 244.823 884.948 253.399Q885.75 255.908 886.214 258.5Q886.677 261.093 886.793 263.724C887.215 272.578 886.838 281.615 886.809 290.49L886.625 341.866L886.588 378.03C886.59 384.665 886.961 391.553 886.376 398.15C885.324 399.242 883.957 399.135 882.481 399.336C881.473 387.405 882.247 374.868 882.258 362.859L882.434 293.587C882.498 283.314 883.856 266.356 881.719 256.773Q881.619 256.318 881.505 255.866Q881.39 255.415 881.261 254.967Q881.131 254.52 880.988 254.076Q880.844 253.633 880.686 253.195Q880.528 252.757 880.356 252.324Q880.184 251.891 879.998 251.463Q879.812 251.036 879.612 250.615Q879.412 250.195 879.198 249.78Q878.985 249.366 878.758 248.959Q878.531 248.552 878.292 248.153Q878.052 247.753 877.799 247.362Q877.547 246.97 877.281 246.587Q877.016 246.204 876.739 245.83Q876.461 245.456 876.171 245.091Q875.882 244.726 875.581 244.37Q875.28 244.015 874.967 243.669Q874.654 243.324 874.331 242.989Q874.007 242.654 873.673 242.329Q873.338 242.005 872.994 241.691Q872.649 241.378 872.294 241.076Q871.94 240.774 871.575 240.483Q871.211 240.193 870.837 239.914Q870.464 239.636 870.082 239.369Q869.699 239.103 869.308 238.85Q868.918 238.596 868.519 238.355Q868.12 238.114 867.713 237.886Q867.307 237.659 866.893 237.444Q866.48 237.23 866.059 237.029Q865.639 236.828 865.212 236.641Q864.786 236.454 864.353 236.28Q863.921 236.107 863.483 235.948Q863.045 235.789 862.602 235.644C853.21 232.546 839.187 233.986 829.247 233.995L792.895 233.999L624.569 233.959C600.425 233.944 576.126 234.539 552.003 234.103C550.995 234.085 550.388 234.039 549.513 233.483L549.318 232.04Z"/>
	<path fill="#F84F46" d="M549.318 232.04L549.513 233.483C550.388 234.039 550.995 234.085 552.003 234.103C576.126 234.539 600.425 233.944 624.569 233.959L792.895 233.999L829.247 233.995C839.187 233.986 853.21 232.546 862.602 235.644Q863.045 235.789 863.483 235.948Q863.921 236.107 864.353 236.28Q864.786 236.454 865.212 236.641Q865.639 236.828 866.059 237.029Q866.48 237.23 866.893 237.444Q867.307 237.659 867.713 237.886Q868.12 238.114 868.519 238.355Q868.918 238.596 869.308 238.85Q869.699 239.103 870.082 239.369Q870.464 239.636 870.837 239.914Q871.211 240.193 871.575 240.483Q871.94 240.773 872.294 241.076Q872.649 241.378 872.994 241.691Q873.338 242.005 873.673 242.329Q874.007 242.654 874.331 242.989Q874.654 243.324 874.967 243.669Q875.28 244.015 875.581 244.37Q875.882 244.726 876.171 245.091Q876.461 245.456 876.739 245.83Q877.016 246.204 877.281 246.587Q877.547 246.97 877.799 247.362Q878.052 247.753 878.292 248.153Q878.531 248.552 878.758 248.959Q878.985 249.366 879.198 249.78Q879.412 250.195 879.612 250.616Q879.812 251.036 879.998 251.463Q880.184 251.891 880.356 252.324Q880.528 252.757 880.686 253.195Q880.844 253.633 880.988 254.076Q881.131 254.52 881.261 254.967Q881.39 255.415 881.505 255.866Q881.619 256.318 881.719 256.773C883.856 266.356 882.498 283.314 882.434 293.587L882.258 362.859C882.247 374.868 881.473 387.405 882.481 399.336Q882.623 410.699 882.496 422.062C883.897 422.32 885.472 422.191 886.196 423.625C886.644 424.512 886.747 425.642 886.757 426.618C886.788 429.634 886.417 432.64 886.434 435.667L886.52 520.433C886.507 547.475 887.088 574.59 886.48 601.623C886.465 608.55 886.344 615.5 886.517 622.424C885.143 624.731 883.752 626.998 882.244 629.221C879.323 634.755 875.405 639.705 872.209 645.083C868.899 650.652 866.203 657.198 862.35 662.334C861.603 665.555 859.683 668.645 858.006 671.468C857.205 656.948 857.975 642.053 857.977 627.488L857.848 528.991L857.939 352.155L857.957 305.551C857.981 296.907 858.739 287.454 857.538 278.9C856.711 273.012 853.925 267.886 849.689 263.754Q848.891 262.964 848.028 262.245Q847.164 261.527 846.242 260.886Q845.32 260.245 844.345 259.686Q843.371 259.128 842.352 258.656Q841.332 258.184 840.276 257.802Q839.22 257.42 838.135 257.131Q837.049 256.841 835.943 256.647Q834.837 256.453 833.718 256.356C824.875 255.58 815.567 256.12 806.68 256.111L754.872 256.11L594.295 256.228L322.822 256.127L244.828 256.275C229.048 256.268 213.156 255.878 197.386 256.405C188.051 256.717 180.017 259.194 173.525 266.174C169.787 270.193 166.917 275.61 166.134 281.05C164.863 289.882 165.537 299.469 165.542 308.391L165.557 355.542L165.505 529.956L165.522 569.773C165.47 571.341 165.37 572.916 165.475 574.483L165.492 636.593C165.489 647.711 165.762 658.907 165.465 670.019C163.898 667.706 162.823 664.998 161.633 662.474C158.374 658.611 155.842 652.491 153.3 648.046C149.477 641.364 145.362 634.902 141.328 628.349C139.734 626.389 138.354 624.329 136.962 622.226L137.064 621.413C138.308 615.394 137.488 607.685 137.484 601.487L137.439 558.046L137.421 397.351L137.488 347.618C137.492 339.235 136.845 330.363 137.742 322.043C138.769 320.827 139.39 321.003 140.926 320.759L141.287 320.4C142.056 314.34 141.496 307.563 141.494 301.425C141.792 289.634 140.553 277.312 141.722 265.617C142.672 256.117 147.893 247.918 155.188 241.948C160.411 237.674 166.255 234.914 173.036 234.252C179.786 233.592 186.9 233.992 193.687 233.988L231.783 233.988L352.75 234.02L466.462 234.037L501.91 234.006C508.751 234.002 515.826 233.639 522.627 234.363C526.416 234.947 546.253 235.402 548.953 234.029L549.318 232.04Z"/>
	<path fill="#5B2448" d="M882.496 422.062C883.897 422.32 885.472 422.191 886.196 423.625C886.644 424.512 886.747 425.642 886.757 426.618C886.788 429.634 886.417 432.64 886.434 435.667L886.52 520.433C886.507 547.475 887.088 574.59 886.48 601.623C886.465 608.55 886.344 615.5 886.517 622.424C885.143 624.731 883.752 626.998 882.244 629.221L882.171 481.42L882.267 442.682C882.254 435.95 881.596 428.701 882.496 422.062Z"/>
	<path fill="#5B2448" d="M137.064 621.413C138.308 615.394 137.488 607.685 137.484 601.487L137.439 558.046L137.421 397.351L137.488 347.618C137.492 339.235 136.845 330.363 137.742 322.043C138.769 320.827 139.39 321.003 140.926 320.759C142.577 324.314 141.099 600.631 141.328 628.349C139.734 626.389 138.354 624.329 136.962 622.226L137.064 621.413Z"/>
	<path fill="#5B2448" d="M161.633 662.474C160.946 634.709 161.49 606.833 161.486 579.058L161.628 414.731L161.648 322.196C161.701 309.429 160.65 293.859 162.034 281.39C162.721 275.207 165.376 269.631 169.354 264.89C175.168 257.961 182.748 253.073 191.913 252.268C202.106 251.372 212.779 252.025 223.037 252.064L281.596 252.275L468.774 252.11L711.781 252.07L794.645 252.071C807.703 252.08 821.176 251.229 834.174 252.135C840.564 252.581 846.119 255.072 850.975 259.171C856.305 263.67 860.176 269.735 861.377 276.673C862.995 286.023 861.995 296.686 861.994 306.206L861.988 362.086L861.883 578.432L861.992 633.002C861.995 642.454 861.369 652.383 862.288 661.766L862.35 662.334C861.603 665.555 859.683 668.645 858.006 671.468C857.205 656.948 857.975 642.053 857.977 627.488L857.848 528.991L857.939 352.155L857.957 305.551C857.981 296.907 858.739 287.454 857.538 278.9C856.711 273.012 853.925 267.886 849.689 263.754Q848.891 262.964 848.028 262.245Q847.164 261.527 846.242 260.886Q845.32 260.245 844.345 259.686Q843.371 259.128 842.352 258.656Q841.332 258.184 840.276 257.802Q839.22 257.42 838.135 257.131Q837.049 256.841 835.943 256.647Q834.837 256.453 833.718 256.356C824.875 255.58 815.567 256.12 806.68 256.111L754.872 256.11L594.295 256.228L322.822 256.127L244.828 256.275C229.048 256.268 213.156 255.878 197.386 256.405C188.051 256.717 180.017 259.194 173.525 266.174C169.787 270.193 166.917 275.61 166.134 281.05C164.863 289.882 165.537 299.469 165.542 308.391L165.557 355.542L165.505 529.956L165.522 569.773C165.47 571.341 165.37 572.916 165.475 574.483L165.492 636.593C165.489 647.711 165.762 658.907 165.465 670.019C163.898 667.706 162.823 664.998 161.633 662.474Z"/>
	<path fill="#FEF1E0" d="M165.505 529.956L165.557 355.542L165.542 308.391C165.537 299.469 164.863 289.882 166.134 281.05C166.917 275.61 169.787 270.193 173.525 266.174C180.017 259.194 188.051 256.717 197.386 256.405C213.156 255.878 229.048 256.268 244.828 256.275L322.822 256.127L594.295 256.228L754.872 256.11L806.68 256.111C815.567 256.12 824.875 255.58 833.718 256.356Q834.837 256.453 835.943 256.647Q837.049 256.841 838.135 257.131Q839.22 257.42 840.276 257.802Q841.332 258.184 842.352 258.656Q843.371 259.128 844.345 259.686Q845.32 260.245 846.242 260.886Q847.164 261.527 848.028 262.245Q848.891 262.964 849.689 263.754C853.925 267.886 856.711 273.012 857.538 278.9C858.739 287.454 857.981 296.907 857.957 305.551L857.939 352.155L857.848 528.991C849.394 529.418 840.808 529.1 832.341 529.081L786.131 528.987C775.282 518.588 764.018 511.7 748.513 512.047C730.78 512.443 720.499 513.608 707.792 526.98L705.586 529.328C665.479 530.003 625.283 529.51 585.168 529.524L415.34 529.995C382.317 530.058 349.221 529.652 316.208 530.422C306.584 519.638 298.7 514.603 284.477 511.923C284.476 515.154 284.574 518.398 284.102 521.603C283.904 518.556 284.616 514.97 283.668 512.078L282.292 511.393C268.19 511.418 257.495 514.286 247.283 524.465Q244.621 527.109 242.231 530.003L165.505 529.956Z"/>
	<path fill="#FFA8A8" d="M773.725 300.214C775.825 300.099 778.181 300.254 780.26 300.6C788.38 301.951 794.693 307.497 799.416 313.902C803.956 312.747 808.427 311.734 813.12 312.75C819.472 314.126 823.171 318.689 826.503 323.853C817.216 323.218 807.691 323.591 798.375 323.544Q771.44 323.431 744.506 323.651C745.617 318.889 747.666 314.564 750.865 310.857C756.843 303.93 764.764 300.861 773.725 300.214Z"/>
	<path fill="#FFA8A8" d="M227.274 379.417C231.53 371.888 236.451 365.28 243.105 359.686C257.606 347.498 276.488 342.581 295.107 344.25C295.277 344.298 295.446 344.35 295.617 344.394C299.229 345.314 302.949 345.633 306.549 346.721C321.166 351.138 335.775 361.196 343.772 374.374C344.972 376.352 346.06 378.435 347.05 380.526C358.099 378.569 368.138 379.525 377.557 386.045C384.13 390.595 388.565 396.507 391.332 403.959C361.42 402.907 331.376 403.468 301.445 403.483L169.393 403.576C173.081 395.988 177.919 391.277 184.722 386.366C186.419 385.14 188.535 384.074 190.101 382.731C203.234 376.787 213.286 376.646 227.274 379.417Z"/>
	<path fill="#FECE2D" d="M190.101 382.731C184.513 375.432 180.046 367.103 177.961 358.105Q177.631 356.642 177.374 355.164Q177.116 353.686 176.931 352.197Q176.746 350.709 176.635 349.213Q176.523 347.717 176.485 346.217Q176.447 344.718 176.483 343.218Q176.518 341.719 176.627 340.222Q176.736 338.726 176.919 337.237Q177.101 335.748 177.356 334.27Q177.611 332.792 177.939 331.328Q178.266 329.864 178.665 328.418Q179.063 326.972 179.533 325.547Q180.002 324.122 180.54 322.722Q181.079 321.322 181.685 319.95Q182.292 318.578 182.965 317.238Q183.638 315.897 184.376 314.591Q185.114 313.285 185.915 312.017Q186.729 310.74 187.604 309.505Q188.479 308.269 189.413 307.077Q190.348 305.885 191.338 304.74Q192.329 303.595 193.375 302.5Q194.42 301.404 195.517 300.361Q196.614 299.317 197.761 298.328Q198.908 297.339 200.101 296.407Q201.294 295.475 202.531 294.602Q203.768 293.729 205.046 292.917Q206.325 292.105 207.641 291.356Q208.957 290.607 210.307 289.923Q211.658 289.238 213.041 288.621Q214.423 288.003 215.834 287.453Q217.245 286.903 218.68 286.422Q220.116 285.941 221.574 285.531Q223.031 285.12 224.507 284.781C239.166 281.491 256.195 284.199 268.856 292.374C282.052 300.895 292.543 314.932 295.848 330.39C296.529 333.575 298.27 341.195 296.454 344.022L295.107 344.25C276.488 342.581 257.606 347.498 243.105 359.686C236.451 365.28 231.53 371.888 227.274 379.417C213.286 376.646 203.234 376.787 190.101 382.731Z"/>
	<path fill="#FFA8A8" d="M701.218 377.71C707.839 376.693 715.948 377.641 722.503 378.98C746.924 383.966 764.223 399.983 777.623 420.149C789.169 417.321 801.883 417.112 813.185 421.11C828.585 426.557 838.385 437.042 845.361 451.436Q777.243 450.732 709.125 451.413L605.966 451.287Q593.731 451.233 581.501 450.904C575.989 450.754 570.37 450.248 564.877 450.843C565.115 450.099 565.339 449.35 565.583 448.607C569.378 437.042 579.017 427.768 589.739 422.42C603.176 415.718 617.465 415.099 631.559 419.819C633.769 415.183 637.032 410.827 640.392 406.964C655.909 389.124 677.822 379.422 701.218 377.71Z"/>
</svg>
