<?xml version="1.0" encoding="utf-8" ?>
<svg xmlns="http://www.w3.org/2000/svg" xmlns:xlink="http://www.w3.org/1999/xlink" width="1024" height="1024">
	<path fill="#FEFEFE" d="M0 0L1024 0L1024 1024L0 1024L0 0Z"/>
	<path fill="#D8DFE1" d="M173.135 202.687C176.079 202.376 179.348 202.25 182.295 202.567C187.031 203.075 191.351 204.887 194.337 208.709C198.647 214.223 199.332 221.85 198.577 228.592C195.799 253.427 173.224 285.21 154.221 300.244C139.106 312.202 120.547 318.583 101.329 316.274C95.1463 314.764 89.5207 312.527 84.461 308.582C78.5924 304.007 74.5645 297.703 73.7611 290.205C72.2728 276.314 80.3907 262.587 88.9032 252.309C107.272 230.131 144.277 205.51 173.135 202.687Z"/>
	<path fill="#441E2D" d="M790.273 451.014C805.82 437.951 823.372 431.046 843.889 432.798Q845.612 432.938 847.325 433.164Q849.038 433.39 850.738 433.702Q852.438 434.013 854.12 434.409Q855.802 434.804 857.463 435.284Q859.123 435.763 860.758 436.325Q862.392 436.886 863.996 437.529Q865.601 438.171 867.171 438.893Q868.741 439.615 870.274 440.414Q871.806 441.213 873.296 442.088Q874.787 442.963 876.232 443.911Q877.677 444.859 879.072 445.878Q880.468 446.897 881.811 447.984Q883.154 449.072 884.442 450.225Q885.729 451.378 886.957 452.594Q888.185 453.81 889.351 455.086Q890.516 456.362 891.617 457.694C902.168 470.241 907.033 487.56 905.45 503.794C904.533 513.196 902.674 522.615 901.2 531.947C900.479 536.511 899.277 541.516 899.636 546.143C899.824 548.565 900.578 550.918 902.063 552.863C903.995 555.393 907.193 557.007 910.349 557.252C916.164 557.702 922.505 553.879 928.056 552.434C945.518 547.888 966.419 554.11 978.602 567.403C988.685 578.406 993.163 593.173 992.477 607.932C991.959 619.059 988.14 629.587 981.935 638.785C973.106 651.38 960.632 662.178 949.771 673.043L891.146 731.557L858.232 731.509L854.995 731.522L838.033 731.506L834.77 731.544L812.987 731.457L808.758 731.454Q786.006 731.243 763.252 731.268C756.016 731.285 747.554 732.186 740.452 730.933C732.142 724.08 723.181 717.376 715.764 709.551C704.808 697.991 697.432 682.478 697.956 666.362Q697.988 665.135 698.082 663.912Q698.175 662.689 698.328 661.471Q698.482 660.254 698.696 659.046Q698.91 657.838 699.184 656.642Q699.457 655.446 699.79 654.265Q700.123 653.084 700.513 651.921Q700.904 650.757 701.352 649.615Q701.8 648.473 702.305 647.354Q702.809 646.236 703.368 645.144Q703.927 644.051 704.539 642.988Q705.152 641.925 705.816 640.894Q706.481 639.862 707.196 638.865Q707.911 637.868 708.674 636.907Q709.437 635.947 710.248 635.025Q711.058 634.104 711.913 633.224Q712.768 632.344 713.665 631.507C723.475 622.397 737.804 617.996 751.038 620.442C755.607 621.286 760.353 623.419 765.005 623.423C767.638 623.426 769.771 622.102 771.588 620.282C773.509 618.359 774.786 616.145 775.026 613.411C775.69 605.851 773.911 597.31 773.311 589.682Q771.368 563.759 769.114 537.862C768.112 526.779 766.365 515.367 766.414 504.245C766.506 483.305 775.768 465.519 790.273 451.014Z"/>
	<path fill="#F06364" d="M891.146 731.557L949.771 673.043C960.632 662.178 973.106 651.38 981.935 638.785C985.631 642.576 987.266 651.308 988.873 656.439C1001.46 696.631 1004.93 734.813 1004.46 776.681C1003.85 831.298 988.868 888.206 967.389 938.13Q949.554 938.327 931.719 938.051L759.449 938.061Q759.168 900.009 759.299 861.957C759.34 845.873 759.814 829.584 759.113 813.523C750.39 812.928 741.427 813.326 732.68 813.353L689.823 813.581C685.95 800.107 682.347 786.252 679.697 772.488L679.216 769.222C671.75 769.568 664.27 769.514 656.797 769.529L647.679 731.392L705.145 731.172C716.899 731.132 728.709 731.337 740.452 730.933C747.554 732.186 756.016 731.285 763.252 731.268Q786.006 731.243 808.758 731.454L812.987 731.457L834.77 731.544L838.033 731.506L854.995 731.522L858.232 731.509L891.146 731.557Z"/>
	<path fill="#FEFEFE" d="M876.619 775.911C878.138 775.905 879.299 775.815 880.661 776.609C881.181 777.923 880.992 778.504 880.815 779.884C879.382 779.994 878.627 780.051 877.267 779.465C876.429 778.276 876.571 777.29 876.619 775.911Z"/>
	<path fill="#FEFEFE" d="M877.005 768.596C877.063 766.771 876.99 766.167 877.94 764.558C879.062 764.025 878.969 764.03 880.142 764.437C881.294 765.934 881.221 766.541 881.43 768.377L877.005 768.596Z"/>
	<path fill="#441E2D" d="M877.005 768.596L881.43 768.377L882.519 768.833C887.096 768.809 893.055 768.18 897.253 770.185L897.121 771.39C894.374 772.318 884.017 773.471 881.238 772.289C880.391 771.929 879.478 771.149 878.728 770.603C878.552 770.728 878.371 770.846 878.2 770.978C877.551 771.477 877.241 771.9 876.809 772.576L679.697 772.488L679.216 769.222C686.163 767.798 694.106 768.485 701.21 768.492L736.79 768.553L877.005 768.596Z"/>
	<path fill="#D8DFE1" d="M891.146 731.557L949.771 673.043C960.632 662.178 973.106 651.38 981.935 638.785C985.631 642.576 987.266 651.308 988.873 656.439C1001.46 696.631 1004.93 734.813 1004.46 776.681C1003.85 831.298 988.868 888.206 967.389 938.13Q949.554 938.327 931.719 938.051C934.108 928.781 935.356 919.192 936.858 909.748L943.147 870.639L951.242 821.119C954.219 803.754 957.417 786.563 959.69 769.08L981.976 769.883L991.845 732.079L927.578 731.912C915.464 731.882 903.24 732.165 891.146 731.557Z"/>
	<path fill="#D8DFE1" d="M576.594 300.769C585.163 278.035 596.322 255.995 611.377 236.821C632.464 209.964 660.57 184.921 695.819 180.657C695.902 180.798 695.982 180.94 696.068 181.079C700.135 187.656 709.959 196.248 715.486 202.405C723.565 211.405 731.263 221.825 738.102 231.808C772.24 281.64 783.875 339.052 788.271 398.305C789.559 415.674 790.751 433.589 790.273 451.014C775.768 465.519 766.506 483.305 766.414 504.245C766.365 515.367 768.112 526.779 769.114 537.862Q771.368 563.759 773.311 589.682C773.911 597.31 775.69 605.851 775.026 613.411C774.786 616.145 773.509 618.359 771.588 620.282C769.771 622.102 767.638 623.426 765.005 623.423C760.353 623.419 755.607 621.286 751.038 620.442C737.804 617.996 723.475 622.397 713.665 631.507Q712.768 632.344 711.913 633.224Q711.058 634.104 710.248 635.025Q709.437 635.947 708.674 636.907Q707.911 637.868 707.196 638.865Q706.481 639.862 705.816 640.894Q705.152 641.925 704.539 642.988Q703.927 644.051 703.368 645.144Q702.809 646.236 702.304 647.354Q701.8 648.473 701.352 649.615Q700.904 650.757 700.513 651.921Q700.123 653.084 699.79 654.265Q699.457 655.446 699.184 656.642Q698.91 657.838 698.696 659.046Q698.482 660.254 698.328 661.471Q698.175 662.689 698.081 663.912Q697.988 665.135 697.956 666.362C697.432 682.478 704.808 697.991 715.764 709.551C723.181 717.376 732.142 724.08 740.452 730.933C728.709 731.337 716.899 731.132 705.145 731.172L647.679 731.392L656.797 769.529C664.27 769.514 671.75 769.568 679.216 769.222L679.697 772.488C682.347 786.252 685.95 800.107 689.823 813.581C681.787 813.978 673.58 813.599 665.525 813.611Q642.581 813.641 619.639 813.985C619.159 804.801 616.971 799.004 611.277 791.789C615.983 768.093 620.098 743.925 621.544 719.788C622.634 701.594 620.939 681.833 624.547 664.086C630.618 634.223 642.926 606.075 653.193 577.533C672.812 522.998 684.824 460.903 665.97 404.429C651.39 360.757 617.758 321.349 576.594 300.769Z"/>
	<path fill="#441E2D" d="M96.3328 803.524Q95.3054 802.497 94.3337 801.417C86.1435 792.347 79.5272 780.389 73.546 769.724Q72.1572 767.241 70.8125 764.734Q69.4678 762.228 68.1677 759.697Q66.8677 757.167 65.6126 754.614Q64.3575 752.062 63.1478 749.487Q61.9382 746.912 60.7743 744.316Q59.6104 741.721 58.4926 739.105Q57.3748 736.489 56.3035 733.854Q55.2323 731.219 54.2078 728.565Q53.1834 725.911 52.2061 723.239Q51.2288 720.568 50.2989 717.879Q49.3691 715.191 48.487 712.486Q47.6049 709.782 46.7708 707.062Q45.9367 704.343 45.1509 701.609Q44.3651 698.875 43.6278 696.127Q42.8905 693.38 42.202 690.619Q41.5135 687.859 40.874 685.087Q40.2344 682.316 39.6441 679.533Q39.0537 676.75 38.5127 673.957Q37.9717 671.164 37.4803 668.363Q36.9888 665.561 36.547 662.75Q36.1052 659.94 35.7133 657.123Q35.3213 654.305 34.9793 651.481Q34.6373 648.657 34.3453 645.827Q34.0534 642.998 33.8115 640.163Q33.5697 637.329 33.3781 634.491Q33.1865 631.652 33.0452 628.811Q32.9039 625.97 32.8129 623.127Q32.722 620.284 32.6813 617.439Q32.6407 614.595 32.6504 611.75Q32.6602 608.905 32.7203 606.061Q32.7804 603.217 32.8908 600.375Q33.0012 597.532 33.162 594.692C34.2272 572.844 36.5013 550.931 41.3207 529.566Q42.0222 526.467 42.7842 523.383Q43.5463 520.298 44.3686 517.229Q45.1909 514.16 46.0732 511.108Q46.9555 508.056 47.8974 505.021Q48.8394 501.987 49.8405 498.972Q50.8417 495.956 51.9018 492.961Q52.9619 489.966 54.0804 486.992Q55.1989 484.018 56.3755 481.067Q57.5521 478.116 58.7863 475.188Q60.0205 472.26 61.3118 469.357Q62.6031 466.454 63.951 463.577Q65.2989 460.7 66.7029 457.85Q68.1069 455 69.5665 452.178Q71.0261 449.356 72.5407 446.563Q74.0553 443.77 75.6244 441.007Q77.1934 438.244 78.8162 435.513Q80.4391 432.781 82.1151 430.082Q83.7912 427.383 85.5198 424.717Q87.2484 422.051 89.0289 419.42Q90.8094 416.788 92.6411 414.192Q94.4728 411.596 96.355 409.037Q98.2372 406.477 100.169 403.955Q102.101 401.432 104.082 398.948Q106.063 396.464 108.093 394.02Q110.122 391.575 112.199 389.171Q114.276 386.766 116.399 384.403Q118.523 382.039 120.692 379.718Q122.862 377.397 125.076 375.119Q127.291 372.84 129.549 370.606Q131.808 368.371 134.11 366.181Q136.412 363.992 138.756 361.847Q141.101 359.703 143.487 357.605C161 342.382 180.165 329.503 198.244 315.011C210.157 305.462 221.373 294.596 232.1 283.737C258.533 256.979 280.224 226.625 304.615 198.134C313.701 187.52 322.718 176.761 333.119 167.383Q335.504 165.269 337.94 163.215Q340.377 161.161 342.863 159.167Q345.349 157.173 347.883 155.241Q350.418 153.309 352.999 151.44Q355.58 149.571 358.206 147.766Q360.833 145.962 363.503 144.222Q366.173 142.482 368.885 140.809Q371.597 139.135 374.349 137.529Q377.102 135.923 379.893 134.385Q382.684 132.847 385.512 131.378Q388.34 129.909 391.204 128.51Q394.067 127.111 396.964 125.784Q399.861 124.456 402.79 123.199Q405.718 121.943 408.677 120.759Q411.636 119.576 414.623 118.465Q417.61 117.354 420.623 116.318Q423.637 115.281 426.675 114.319Q429.713 113.357 432.774 112.469Q435.835 111.582 438.916 110.771Q441.998 109.959 445.099 109.223Q448.2 108.488 451.318 107.829Q454.435 107.17 457.569 106.588Q460.702 106.006 463.848 105.501Q466.995 104.996 470.153 104.569Q473.311 104.142 476.479 103.793Q479.646 103.443 482.821 103.172Q485.997 102.901 489.178 102.708Q492.359 102.515 495.543 102.4Q498.728 102.285 501.915 102.249Q505.101 102.213 508.288 102.255Q511.474 102.297 514.659 102.418Q517.843 102.538 521.024 102.737Q525.102 102.944 529.173 103.275Q533.243 103.607 537.301 104.062Q541.36 104.517 545.402 105.095Q549.445 105.674 553.468 106.375Q557.491 107.076 561.491 107.899Q565.49 108.723 569.463 109.667Q573.436 110.612 577.379 111.678Q581.321 112.743 585.229 113.928Q589.137 115.113 593.007 116.416Q596.877 117.719 600.706 119.14Q604.535 120.56 608.319 122.097Q612.102 123.633 615.837 125.284Q619.573 126.935 623.256 128.699Q626.939 130.463 630.567 132.338Q634.194 134.213 637.763 136.198Q641.332 138.182 644.839 140.275C650.702 143.699 659.436 147.647 663.988 152.714C696.739 141.329 733.614 141.973 765.096 157.249C790.366 169.511 807.621 186.39 823.652 209.106C831.221 219.832 838.665 230.569 848.417 239.49C853.108 243.781 858.304 247.778 863.628 251.253C870.603 255.805 882.276 259.697 886.568 267.09Q886.866 267.603 887.063 268.163C888.729 272.832 888.541 278.42 886.308 282.856Q885.951 283.577 885.523 284.258Q885.094 284.939 884.599 285.572Q884.103 286.206 883.546 286.786Q882.989 287.367 882.375 287.887Q881.762 288.408 881.099 288.863Q880.436 289.318 879.73 289.704Q879.024 290.089 878.282 290.401Q877.54 290.713 876.771 290.948C867.562 293.724 857.019 287.446 849.261 282.997C831.153 272.612 813.741 254.904 801.17 238.207C795.029 230.052 789.547 221.192 782.71 213.604C760.601 189.066 728.913 175.314 695.819 180.657C660.57 184.921 632.464 209.964 611.377 236.821C596.322 255.995 585.163 278.035 576.594 300.769C617.758 321.349 651.39 360.757 665.97 404.429C684.824 460.903 672.812 522.998 653.193 577.533C642.926 606.075 630.618 634.223 624.547 664.086C620.939 681.833 622.634 701.594 621.544 719.788C620.098 743.925 615.983 768.093 611.277 791.789C616.971 799.004 619.159 804.801 619.639 813.985Q642.581 813.642 665.525 813.611C673.58 813.599 681.787 813.978 689.823 813.581L732.68 813.353C741.427 813.326 750.39 812.928 759.113 813.523C759.814 829.584 759.34 845.873 759.299 861.957Q759.168 900.011 759.449 938.061L931.719 938.051Q949.554 938.327 967.389 938.13C973.805 938.209 1015.92 937.323 1017.61 938.266C1018.03 938.501 1018.32 938.917 1018.68 939.242L1018.67 940.26C1017.97 941.167 1017.18 941.785 1016.01 941.922C1009.64 942.667 1002.36 942.02 995.917 942.041L950.746 942.164L796.675 942.209L316.5 942.065L105.465 942.02L40.7203 941.981C30.7782 941.985 20.4796 942.605 10.5801 942.079C9.22058 942.007 8.32209 942.005 7.25343 941.057C6.99841 939.895 6.83133 940.161 7.5188 939.035C9.13709 938.384 10.5651 938.157 12.3051 938.04C20.1022 937.513 28.2454 938.076 36.0821 938.09Q66.4729 938.371 96.8632 938.074L97.0199 847.017L97.0047 842.886Q97.046 824.883 96.8269 806.882C96.2546 805.979 96.3927 804.588 96.3328 803.524Z"/>
	<path fill="#FEFEFE" d="M303.936 740.864C306.971 742.195 309.884 745.215 312.412 747.381L306.009 747.412C305.161 745.244 304.524 743.111 303.936 740.864Z"/>
	<path fill="#8B793A" d="M249.778 641.445C256.436 639.173 263.55 637.072 269.838 633.917Q269.542 637.908 269.163 641.893C262.952 641.933 255.889 642.576 249.778 641.445Z"/>
	<path fill="#D8DFE1" d="M314.332 750.739C317.823 750.266 328.202 758.41 331.581 760.64C328.671 761.46 325.579 761.92 322.608 762.493C319.174 762.937 315.674 763.837 312.267 764.504L307.325 751.066C309.66 751.001 311.998 750.851 314.332 750.739Z"/>
	<path fill="#7E4055" d="M395.779 730.67C402.917 730.382 409.464 730.565 416.326 732.711C414.148 737.513 410.736 741.734 407.448 745.809C405.985 747.442 404.279 749.781 402.041 750.165C398.617 748.476 395.879 744.922 393.818 741.755C392.513 739.75 390.566 736.271 391.431 733.773C392.083 731.892 394.107 731.299 395.779 730.67Z"/>
	<path fill="#D8DFE1" d="M402.597 763.941C405.351 765.041 408.186 767.195 410.802 768.673C417.949 772.708 424.598 774.852 432.652 776.324C422.151 781.606 412.892 784.025 401.128 784.317C390.708 783.759 379.071 781.379 369.818 776.456C382.164 774.275 391.593 769.731 402.597 763.941Z"/>
	<path fill="#D8DFE1" d="M440.462 777.438L440.845 777.751C442.138 781.368 440.521 808.294 440.358 813.98Q423.57 813.837 406.782 813.895C406.023 805.422 405.991 796.784 405.49 788.276C418.362 787.63 429.069 783.016 440.462 777.438Z"/>
	<path fill="#D8DFE1" d="M546.975 677.286C558.472 690.509 544.285 770.742 546.444 790.905C540.441 798.507 539.039 804.309 538.895 813.913L527.75 813.882L522.191 813.786Q532.491 765.703 540.528 717.191C542.744 704.358 543.011 689.575 546.975 677.286Z"/>
	<path fill="#D8DFE1" d="M576.362 780.7C576.945 780.667 577.528 780.629 578.112 780.625C589.252 780.565 599.235 785.685 606.895 793.578C612.725 799.586 615.062 805.534 614.944 813.901L597.253 813.999Q597.286 810.63 597.235 807.261C597.183 804.544 597.01 800.461 594.963 798.498C594.736 798.706 594.466 798.876 594.282 799.122C592.096 802.045 592.961 810.426 593.015 814.09L582.25 814.024L562.647 813.962C562.651 809.15 563.387 802.794 561.044 798.464L560.246 798.32C557.607 801.745 558.422 809.772 558.476 813.986C553.126 813.88 547.775 813.815 542.432 813.493C542.514 806.57 544.074 800.295 548.517 794.785C555.379 786.274 565.721 781.888 576.362 780.7Z"/>
	<path fill="#D8DFE1" d="M469.909 903.2C481.157 903.045 491.946 905.688 500.652 913.104C508.504 919.793 511.904 927.884 512.642 938.03L495.472 938.088C495.285 933.49 495.75 927.389 493.517 923.299C492.252 922.45 492.317 922.469 490.807 922.686C489.289 925.124 490.89 934.541 490.851 938.041L476.375 938.012L454.523 938.046C454.224 934.087 455.667 926.338 453.914 923.105C452.689 922.589 452.54 922.614 451.224 922.853C449.132 925.214 450.012 934.801 449.996 938.078L432.938 938.007C433.068 929.523 434.756 922.021 440.561 915.543C448.371 906.83 458.588 903.877 469.909 903.2Z"/>
	<path fill="#D8DFE1" d="M334.715 937.908C335.349 929.323 337.455 921.457 343.233 914.864C350.234 906.877 360.657 903.345 371.009 902.652C382.58 901.878 394.636 904.644 403.45 912.512C411.217 919.445 413.687 927.915 414.333 938.023L397.006 938.003C397.002 935.244 396.908 932.612 396.56 929.869C396.542 927.3 396.75 924.288 394.626 922.4C394.466 922.257 394.262 922.172 394.079 922.058C392.953 922.381 393.234 922.06 392.753 922.95C391.66 924.971 392.031 927.337 392.402 929.484L393.202 934.353C393.325 935.607 393.505 936.478 392.996 937.668C386.98 939.032 363.576 937.93 355.978 937.879C355.941 932.615 356.899 927.483 355.051 922.407L353.92 922.258C351.65 927.157 351.88 932.665 351.711 937.95L334.715 937.908Z"/>
	<path fill="#F06364" d="M407.052 817.632Q423.686 817.519 440.32 817.607C439.78 826.94 439.904 836.39 439.72 845.742L438.496 911.698C433.993 917.265 431.22 921.265 429.611 928.379C429.127 931.621 428.826 934.906 428.46 938.164C425.151 938.539 421.859 938.42 418.536 938.352C418.383 928.362 416.292 922.213 411.051 913.783Q408.729 865.721 407.052 817.632Z"/>
	<path fill="#D8DFE1" d="M388.216 520.209C417.62 518.302 453.273 522.945 478.191 539.219C470.654 546.366 463.76 553.803 457.383 562C452.147 560.779 447.033 559.106 441.771 557.951C431.985 555.803 422.165 554.788 412.185 554.106C387.254 553.167 369.492 555.795 345.628 563.489C339.885 554.075 330.883 545.571 322.809 538.102C342.898 525.711 364.984 521.504 388.216 520.209Z"/>
	<path fill="#F06364" d="M65.0509 646.559L268.608 646C267.676 657.862 268.341 669.061 270.425 680.785C244.078 681.401 217.634 680.939 191.276 680.928L65.284 680.855C65.9319 669.528 65.3441 657.904 65.0509 646.559Z"/>
	<path fill="#D8DFE1" d="M336.531 764.269C340.534 765.15 345.466 769.167 349.18 771.156C366.057 780.198 382.422 786.738 401.673 788.306Q403.484 849.222 407.014 910.063C401.698 905.527 396.434 902.729 389.882 900.335C376.992 896.785 364.333 898.147 352.112 903.252C351.162 895.609 350.234 887.945 348.536 880.424C345.297 866.079 340.162 851.96 335.76 837.928Q324.719 803.169 313.211 768.563C320.786 766.585 328.762 765.23 336.531 764.269Z"/>
	<path fill="#FACB57" d="M241.728 555.52C251.418 555.771 261.195 555.667 270.885 555.453Q270.494 576.676 270.608 597.902C270.675 608.448 271.956 623.735 269.838 633.917C263.55 637.072 256.436 639.173 249.778 641.445Q248.545 641.738 247.288 641.897C239.009 642.972 229.97 642.262 221.578 642.254C195.026 642.228 179.022 643.553 156.812 626.188L156.314 625.794L155.756 626.324C155.228 624.007 150.658 620.932 148.843 619.141C129.995 600.547 126.69 580.382 126.517 555.072Q152.847 555.124 179.175 555.458C187.796 555.522 196.611 555.874 205.22 555.483C217.353 555.595 229.602 555.917 241.728 555.52Z"/>
	<path fill="#D8DFE1" d="M704.796 149.23C746.753 147.552 784.81 166.477 810.917 199.019C821.414 212.102 829.657 226.338 841.583 238.354C849.09 245.918 857.547 252.875 866.771 258.26C871.007 260.732 876.048 262.366 879.729 265.65C882.472 268.098 884.358 271.862 884.342 275.572C884.328 278.705 882.908 281.618 880.607 283.715C877.794 286.276 874.022 287.443 870.255 287.177C863.368 286.69 856.817 282.533 851.085 279.057C832.644 267.873 816.033 251.049 803.086 233.827C797.221 226.025 792.051 217.656 785.459 210.424C766.391 189.504 741.676 176.758 713.313 175.506C697.542 175.276 681.949 177.792 667.466 184.234C630.213 200.805 601.582 237.79 583.839 273.504C579.708 281.819 576.331 290.411 572.967 299.058C563.785 294.714 553.974 292.311 544.01 290.632C559.229 259.842 576.448 228.48 599.765 202.992C627.754 172.398 662.412 151.13 704.796 149.23Z"/>
	<path fill="#F06364" d="M522.792 817.743C600.21 818.336 677.653 816.928 755.068 817.735L755.184 938.061L734.25 938.043L516.605 938.078C516.592 936.976 516.539 935.898 516.439 934.799C515.407 923.475 510.105 915.57 501.566 908.39C503.754 898.295 519.557 821.238 521.537 818.022L522.792 817.743Z"/>
	<path fill="#D8DFE1" d="M516.594 518.584Q518.288 518.439 519.978 518.632C523.017 518.988 525.953 520.687 527.807 523.117Q528.51 524.046 529.053 525.077C534.191 534.751 529.486 571.798 528.811 584.054C528.346 592.515 528.181 601.096 528.484 609.567C528.749 616.957 530.187 624.161 531.356 631.443C533.691 645.982 534.968 660.736 532.656 675.383C527.589 707.485 510.335 727.794 484.88 746.227C474.342 745.306 463.264 746.178 452.749 747.028C450.369 747.22 447.456 747.293 445.831 749.212L446.249 750.4C446.606 750.711 446.89 751.137 447.321 751.332C447.903 751.596 475.239 750.085 479.506 750.204C474.743 753.593 469.61 756.48 464.593 759.474C461.631 758.451 458.314 757.853 455.257 757.11C451.766 756.261 438.136 753.733 435.295 755.444C434.792 756.688 434.686 756.62 435.197 757.841C437.338 758.836 455.144 760.973 460.252 762.252C452.646 765.446 444.527 771.719 436.06 771.858C425.915 772.024 411.975 766.86 404.603 759.919L404.427 753.643Q406.355 752.271 408.216 750.809C411.949 747.873 422.833 738.802 422.876 733.713C422.889 732.311 422.55 731.356 421.599 730.327C417.372 725.759 403.971 726.789 398.038 727.031C394.692 727.167 384.9 727.448 382.802 730.227C382.024 731.258 381.472 732.803 381.68 734.112C382.515 739.356 395.922 750.636 400.488 754.521L400.654 760.77C392.352 764.754 383.878 769.478 374.878 771.603C363.121 774.379 352.772 768.773 343.028 762.727C350.385 760.559 359.438 760.471 365.857 758.275C366.992 757.886 367.619 757.686 368.135 756.555C363.398 750.382 342.016 761.167 336.799 759.308C332.183 756.529 327.737 753.454 323.255 750.464C329.12 749.849 335.274 749.682 341.155 750.136C345.17 750.447 349.369 751.177 353.384 751.071L354.247 750.161C354.383 748.933 354.495 748.869 353.816 747.86C346.589 744.73 326.313 745.437 318.436 747.066C306.673 737.177 295.7 727.812 287.48 714.581C278.919 700.8 274.798 685.343 272.93 669.319C270.824 651.259 274.482 633.065 274.802 614.943C275.154 594.975 274.93 574.92 274.895 554.945C274.88 545.939 273.224 535.256 275.485 526.574C276.153 524.006 278.1 521.774 280.398 520.496C296.141 511.745 333.769 553.523 343.184 565.939C345.578 569.096 347.92 572.373 349.932 575.79C351.576 578.584 352.995 581.788 355.018 584.318C355.939 585.471 356.337 585.617 357.693 586.055C357.82 585.936 357.924 585.788 358.074 585.699C358.209 585.619 358.374 585.608 358.524 585.563C359.029 580.46 351.573 571.288 348.797 567.052C381.08 553.614 421.649 557.06 454.997 565.302C450.968 571.644 446.158 577.796 444.923 585.355L446.086 586.277C449.791 583.699 452.548 577.055 454.844 573.172C465.8 554.647 495.535 523.952 516.594 518.584Z"/>
	<path fill="#441E2D" d="M325.144 655.717Q328.09 655.757 331.03 655.94C348.076 657.099 365.007 662.723 376.493 675.969C383.494 684.042 385.785 691.193 385.018 701.839C381.558 707.571 377.598 710.002 371.284 711.801C370.033 712.088 368.775 712.348 367.5 712.508C355.153 714.059 342.305 710.98 332.397 703.328C321.17 694.656 313.323 680.564 311.573 666.523C311.289 664.238 310.761 660.119 312.577 658.356C315.326 655.686 321.58 655.899 325.144 655.717Z"/>
	<path fill="#AACB82" d="M361.533 669.246Q363.468 670.382 365.324 671.642C374.802 678.154 379.938 686.814 381.984 698.05C380.212 702.055 378.48 703.951 374.712 706.241C368.828 708.62 363.414 708.853 357.157 708.748C360.594 696.477 360.624 681.956 361.533 669.246Z"/>
	<path fill="#AACB82" d="M319.792 660.108C330.403 659.538 340.368 660.994 350.644 663.524C350.48 668.411 348.981 706.595 348.695 707.091L347.352 706.996Q346.366 706.654 345.397 706.268C333.107 701.34 324.22 690.597 319.085 678.623C316.997 673.752 314.071 666.845 316.137 661.642C317.444 660.448 318.092 660.461 319.792 660.108Z"/>
	<path fill="#F06364" d="M512.122 528.546C514.526 528.434 516.631 528.368 518.785 529.609C521.73 531.307 522.915 534.503 523.696 537.639C524.518 540.942 524.74 544.203 524.768 547.593C524.883 561.746 523.596 575.999 522.631 590.116C522.277 595.293 522.48 600.691 521.894 605.811C521.762 606.968 521.523 607.763 520.932 608.76C520.279 609.003 519.751 609.086 519.052 609.14C514.361 609.505 492.057 608.947 489.48 606.717C488.513 602.8 495.489 596.095 495.642 590.544C495.763 586.141 493.479 583.325 490.648 580.282C488.197 578.315 485.669 576.684 482.439 576.479C472.88 575.874 470.615 586.627 464.688 591.366C463.47 592.341 462.497 592.662 460.922 592.431C459.689 591.65 459.312 591.502 458.657 590.225C458.718 588.555 458.996 587.283 459.607 585.723C467.679 565.118 491.628 537.328 512.122 528.546Z"/>
	<path fill="#441E2D" d="M469.178 655.685C477.505 654.334 486.879 655.415 494.655 658.6C494.998 673.281 488.611 686.687 478.638 697.254C469.002 707.464 457.846 712.318 443.875 712.66C440.479 712.777 436.9 712.629 433.57 711.918C426.662 710.443 422.054 706.993 418.309 701.136C418.496 692.402 420.977 686.193 426.318 679.368C436.776 666.002 452.409 657.703 469.178 655.685Z"/>
	<path fill="#AACB82" d="M441.302 670.82C443.372 676.329 444.425 702.293 444.573 709.528C439.141 709.161 434.589 708.435 429.609 706.218C427.775 705.226 425.606 703.816 424.327 702.149C422.941 700.342 422.508 697.924 422.793 695.7C424.052 685.87 433.949 676.543 441.302 670.82Z"/>
	<path fill="#AACB82" d="M467.872 660.175C474.015 659.523 484.341 658.762 489.942 661.636C490.562 662.902 490.537 663.631 490.37 665.027C488.661 679.351 479.758 692.077 468.776 700.911C463.995 704.269 459.027 706.295 453.525 708.186C453.554 693.828 451.959 679.538 451.48 665.199C456.767 662.568 462.042 661.033 467.872 660.175Z"/>
	<path fill="#F06364" d="M285.91 525.061C297.025 525.817 311.923 541.538 319.207 549.733C324.721 555.936 344.527 581.12 343.116 588.277C342.858 589.589 342.29 589.989 341.327 590.763C336.6 590.623 332.224 581.728 325.989 580.335C321.421 579.315 317.749 581.507 314.099 583.91C311.605 586.306 309.505 588.924 309.445 592.553C309.345 598.572 314.483 603.249 318.409 607.136C306.437 609.181 293.686 610.534 281.55 611.069C281.324 599.976 279.379 533.624 281.831 528.347C282.727 526.421 284.075 525.826 285.91 525.061Z"/>
	<path fill="#FACB57" d="M96.9428 698.499L275.486 698.441C278.787 708.383 283.27 716.895 289.771 725.13C292.444 728.517 295.666 731.814 297.84 735.532C299.875 739.011 300.587 743.416 302.184 747.164C300.519 747.355 299.529 747.263 298.159 748.265L297.253 750.531C297.398 750.582 297.543 750.635 297.689 750.684C299.499 751.291 301.181 751.473 303.076 751.61C304.905 752.951 306.925 762.607 307.711 765.327C303.107 766.219 297.006 766.746 293.475 770.135L293.346 770.846C295.465 772.2 298.887 771.695 301.234 771.157C303.835 770.56 306.416 769.842 308.992 769.146C317.851 793.248 324.893 818.049 332.914 842.439L334.38 847.038C340.776 867.219 345.72 883.428 348.618 904.531C339.06 911.912 332.71 919.701 331.105 931.985C330.836 934.048 330.652 936.126 330.466 938.198C252.62 938.056 174.702 937.322 96.8632 938.074L97.0199 847.017L97.0047 842.886Q97.046 824.883 96.8269 806.882C97.6464 788.282 96.9744 769.335 96.9791 750.696L96.9371 746.554L96.9428 698.499Z"/>
	<path fill="#F06364" d="M233.963 785.549C236.961 785.364 239.46 785.706 242.17 787.091C245.639 788.863 248.066 792.088 249.08 795.822Q249.285 796.587 249.413 797.369Q249.54 798.151 249.589 798.942Q249.637 799.733 249.606 800.525Q249.574 801.316 249.463 802.101Q249.352 802.886 249.163 803.655Q248.974 804.424 248.708 805.171Q248.443 805.918 248.104 806.634Q247.764 807.35 247.355 808.028C244.628 812.482 240.786 814.199 235.941 815.41C233.302 815.63 230.46 814.825 228.161 813.561C224.681 811.648 222.295 808.33 221.247 804.529C220.184 800.676 220.625 796.678 222.65 793.217C225.281 788.72 229.139 786.835 233.963 785.549Z"/>
	<path fill="#D8DFE1" d="M526.273 293.711C533.473 293.209 541.258 294.108 548.328 295.463C586.054 302.695 618.787 331.171 639.918 362.209C683.814 426.685 675.988 499.194 651.914 569.487C641.283 600.527 627.881 630.258 620.732 662.466C616.92 679.644 618.885 699.875 617.778 717.843C616.309 741.707 612.185 765.088 607.703 788.534C600.629 782.415 593.462 778.144 584.048 776.898C571.107 775.187 560.172 779.232 549.978 787.021C551.153 765.039 553.864 743.186 554.905 721.159C555.457 709.493 556.036 697.355 554.035 685.8C553.115 680.489 551.568 675.463 548.392 671.049C551.756 650.145 559.587 630.232 568.75 611.233C577.659 592.76 587.631 574.438 593.615 554.74C600.727 531.327 602.292 507.521 597.301 483.483C596.457 479.418 595.808 474.099 593.75 470.517C593.142 469.459 593.006 469.437 591.887 469.168C589.916 471.233 591.128 475.45 591.667 477.98C596.302 499.741 597.719 518.628 593.228 540.763C585.897 576.895 560.521 611.638 549.649 647.54C543.541 667.71 541.195 688.789 537.71 709.505C535.624 721.906 533.135 734.245 530.923 746.625C527.636 765.013 524.505 783.347 520.528 801.607L497.975 905.958C492.644 903.224 487.291 900.878 481.372 899.782C467.051 897.132 454.547 899.616 442.612 907.851Q443.532 840.624 445.543 773.42C451.595 771.167 459.825 768.218 464.833 764.069C472.751 765.925 480.791 767.536 488.627 769.696C494.99 771.449 501.587 774.058 508.062 775.188C509.738 775.48 510.745 775.445 512.161 774.505L512.333 773.354C512.088 772.993 511.94 772.542 511.599 772.27C508.858 770.082 476.011 762.132 470.575 760.665C475.904 757.063 481.463 753.725 486.878 750.246C491.569 750.413 515.503 754.174 517.652 753.262C518.19 753.034 518.607 752.587 519.084 752.249C518.887 751.803 518.88 751.667 518.546 751.331C514.692 747.454 497.845 747.04 491.749 746.396C517.212 725.536 533.258 706.16 537.248 672.16Q538.238 663.564 537.998 654.914C537.568 638.147 532.59 622.106 532.455 605.373Q532.468 585.461 534.151 565.62C534.952 555.821 536.437 545.568 535.846 535.732C535.496 529.915 534.062 523.937 530.268 519.358C527.692 516.249 524.367 514.553 520.347 514.245C506.186 513.162 491.158 527.647 481.036 536.081Q477.625 533.769 474.033 531.751Q470.441 529.733 466.693 528.022Q462.945 526.311 459.067 524.919Q455.189 523.527 451.208 522.465C415.838 512.649 372.044 512.53 337.58 525.924C331.233 528.391 325.413 531.685 319.503 535.025L316.113 532.372C321.157 520.763 326.68 509.55 333.87 499.092C342.943 485.896 353.658 473.668 361.797 459.847Q372.498 442.019 381.824 423.434C394.195 398.227 404.512 372.942 423.205 351.447C449.459 321.258 485.399 296.541 526.273 293.711Z"/>
	<path fill="#D8DFE1" d="M96.3328 803.524Q95.3054 802.497 94.3337 801.417C86.1435 792.347 79.5272 780.389 73.546 769.724Q72.1572 767.241 70.8125 764.734Q69.4678 762.228 68.1677 759.697Q66.8677 757.167 65.6126 754.614Q64.3575 752.062 63.1478 749.487Q61.9382 746.912 60.7743 744.316Q59.6104 741.721 58.4926 739.105Q57.3748 736.489 56.3035 733.854Q55.2323 731.219 54.2078 728.565Q53.1834 725.911 52.2061 723.239Q51.2288 720.568 50.2989 717.879Q49.3691 715.191 48.487 712.486Q47.6049 709.782 46.7708 707.062Q45.9367 704.343 45.1509 701.609Q44.3651 698.875 43.6278 696.127Q42.8905 693.38 42.202 690.619Q41.5135 687.859 40.874 685.087Q40.2344 682.316 39.6441 679.533Q39.0537 676.75 38.5127 673.957Q37.9717 671.164 37.4803 668.363Q36.9888 665.561 36.547 662.75Q36.1052 659.94 35.7133 657.123Q35.3213 654.305 34.9793 651.481Q34.6373 648.657 34.3453 645.827Q34.0534 642.998 33.8115 640.163Q33.5697 637.329 33.3781 634.491Q33.1865 631.652 33.0452 628.811Q32.9039 625.97 32.8129 623.127Q32.722 620.284 32.6813 617.439Q32.6407 614.595 32.6504 611.75Q32.6602 608.905 32.7203 606.061Q32.7804 603.217 32.8908 600.375Q33.0012 597.532 33.162 594.692C34.2272 572.844 36.5013 550.931 41.3207 529.566Q42.0222 526.467 42.7842 523.383Q43.5463 520.298 44.3686 517.229Q45.1909 514.16 46.0732 511.108Q46.9555 508.056 47.8974 505.021Q48.8394 501.987 49.8405 498.972Q50.8417 495.956 51.9018 492.961Q52.9619 489.966 54.0804 486.992Q55.1989 484.018 56.3755 481.067Q57.5521 478.116 58.7863 475.188Q60.0205 472.26 61.3118 469.357Q62.6031 466.454 63.951 463.577Q65.2989 460.7 66.7029 457.85Q68.1069 455 69.5665 452.178Q71.0261 449.356 72.5407 446.563Q74.0553 443.77 75.6244 441.007Q77.1934 438.244 78.8162 435.513Q80.4391 432.781 82.1151 430.082Q83.7912 427.383 85.5198 424.717Q87.2484 422.051 89.0289 419.42Q90.8094 416.788 92.6411 414.192Q94.4728 411.596 96.355 409.037Q98.2372 406.477 100.169 403.955Q102.101 401.432 104.082 398.948Q106.063 396.464 108.093 394.02Q110.122 391.575 112.199 389.171Q114.276 386.766 116.399 384.403Q118.523 382.039 120.692 379.718Q122.862 377.397 125.076 375.119Q127.291 372.84 129.549 370.606Q131.808 368.371 134.11 366.181Q136.412 363.992 138.756 361.847Q141.101 359.703 143.487 357.605C161 342.382 180.165 329.503 198.244 315.011C210.157 305.462 221.373 294.596 232.1 283.737C258.533 256.979 280.224 226.625 304.615 198.134C313.701 187.52 322.718 176.761 333.119 167.383Q335.504 165.269 337.94 163.215Q340.377 161.161 342.863 159.167Q345.349 157.173 347.883 155.241Q350.418 153.309 352.999 151.44Q355.58 149.571 358.206 147.766Q360.833 145.962 363.503 144.222Q366.173 142.482 368.885 140.809Q371.597 139.135 374.349 137.529Q377.102 135.923 379.893 134.385Q382.684 132.847 385.512 131.378Q388.34 129.909 391.204 128.51Q394.067 127.111 396.964 125.784Q399.861 124.456 402.79 123.199Q405.718 121.943 408.677 120.759Q411.636 119.576 414.623 118.465Q417.61 117.354 420.623 116.318Q423.637 115.281 426.675 114.319Q429.713 113.357 432.774 112.469Q435.835 111.582 438.916 110.771Q441.998 109.959 445.099 109.223Q448.2 108.488 451.318 107.829Q454.435 107.17 457.569 106.588Q460.702 106.006 463.848 105.501Q466.995 104.996 470.153 104.569Q473.311 104.142 476.479 103.793Q479.646 103.443 482.821 103.172Q485.997 102.901 489.178 102.708Q492.359 102.515 495.543 102.4Q498.728 102.285 501.915 102.249Q505.101 102.213 508.288 102.255Q511.474 102.297 514.659 102.418Q517.843 102.538 521.024 102.737Q525.102 102.944 529.173 103.275Q533.243 103.607 537.301 104.062Q541.36 104.517 545.402 105.095Q549.445 105.674 553.468 106.375Q557.491 107.076 561.491 107.899Q565.49 108.723 569.463 109.667Q573.436 110.612 577.379 111.678Q581.321 112.743 585.229 113.928Q589.137 115.113 593.007 116.416Q596.877 117.719 600.706 119.14Q604.535 120.56 608.319 122.097Q612.102 123.633 615.837 125.284Q619.573 126.935 623.256 128.699Q626.939 130.463 630.567 132.338Q634.194 134.213 637.763 136.198Q641.332 138.182 644.839 140.275C650.702 143.699 659.436 147.647 663.988 152.714C612.387 173.722 580.142 214.03 554.491 261.965C549.755 270.815 543.966 279.979 540.164 289.247L539.848 290.038C531.678 289.763 523.637 289.511 515.506 290.621C485.346 294.736 456.734 312.495 434.779 332.993C419.585 347.18 406.593 364.637 396.681 382.888C389.759 395.635 384.013 409.101 377.707 422.162Q369.66 438.556 360.33 454.256C350.169 471.15 337.27 486.127 326.679 502.68C321.227 511.201 316.943 520.035 312.73 529.2C304.012 522.339 296.948 516.359 285.576 515.025C280.691 515.991 276.524 517.56 273.705 521.958C268.461 530.138 271.146 545.938 270.885 555.453C261.195 555.667 251.418 555.771 241.728 555.52C229.602 555.917 217.353 555.595 205.22 555.483C196.611 555.874 187.796 555.522 179.175 555.458Q152.847 555.124 126.517 555.072C126.69 580.382 129.995 600.547 148.843 619.141C150.658 620.932 155.228 624.007 155.756 626.324C155.159 633.108 156.728 636.495 160.267 642.197C149.798 642.348 68.268 641.672 65.425 642.674C64.8546 643.999 64.9828 645.158 65.0509 646.559C65.3441 657.904 65.9319 669.528 65.284 680.855C65.3059 682.46 65.0746 683.395 65.9862 684.745C76.1592 685.706 86.6884 684.619 96.9188 684.83L96.9428 698.499L96.9371 746.554L96.9791 750.696C96.9744 769.335 97.6464 788.282 96.8269 806.882C96.2546 805.979 96.3927 804.588 96.3328 803.524Z"/>
	<path fill="#FEFEFE" d="M126.558 456.156C154.69 455.332 183.075 456.033 211.228 456.053C237.402 456.072 263.797 455.363 289.946 456.294C290.189 462.165 290.914 512.247 289.889 514.739C288.666 514.748 287.464 514.745 286.249 514.913C286.024 514.944 285.8 514.987 285.576 515.025C280.691 515.991 276.524 517.56 273.705 521.958C268.461 530.138 271.146 545.938 270.885 555.453C261.195 555.667 251.418 555.771 241.728 555.52C229.602 555.917 217.353 555.595 205.22 555.483C196.611 555.874 187.796 555.522 179.175 555.458Q152.847 555.124 126.517 555.072C126.209 546.241 126.452 537.321 126.443 528.478C126.417 504.371 126.801 480.258 126.558 456.156Z"/>
	<path fill="#F06364" d="M205.22 555.483C205.986 549.727 207.769 544.579 212.457 540.808C216.358 537.669 221.332 536.578 226.243 537.314C231.077 538.04 235.441 540.466 238.288 544.488C240.647 547.822 241.579 551.496 241.728 555.52C229.602 555.917 217.353 555.595 205.22 555.483Z"/>
</svg>
