<?xml version="1.0" encoding="UTF-8" standalone="no"?>
<!-- Uploaded to: SVG Repo, www.svgrepo.com, Generator: SVG Repo Mixer Tools -->

<svg
   fill="#000000"
   height="800px"
   width="800px"
   version="1.1"
   id="Capa_1"
   viewBox="0 0 52 52"
   xml:space="preserve"
   sodipodi:docname="place.svg"
   inkscape:version="1.4 (e7c3feb1, 2024-10-09)"
   inkscape:export-filename="place.svg"
   inkscape:export-xdpi="96"
   inkscape:export-ydpi="96"
   xmlns:inkscape="http://www.inkscape.org/namespaces/inkscape"
   xmlns:sodipodi="http://sodipodi.sourceforge.net/DTD/sodipodi-0.dtd"
   xmlns="http://www.w3.org/2000/svg"
   xmlns:svg="http://www.w3.org/2000/svg"><defs
   id="defs1" /><sodipodi:namedview
   id="namedview1"
   pagecolor="#ffffff"
   bordercolor="#000000"
   borderopacity="0.25"
   inkscape:showpageshadow="2"
   inkscape:pageopacity="0.0"
   inkscape:pagecheckerboard="0"
   inkscape:deskcolor="#d1d1d1"
   inkscape:zoom="0.6071423"
   inkscape:cx="331.88266"
   inkscape:cy="459.52983"
   inkscape:window-width="1200"
   inkscape:window-height="1027"
   inkscape:window-x="0"
   inkscape:window-y="25"
   inkscape:window-maximized="0"
   inkscape:current-layer="Capa_1" />

<g
   id="g1"
   transform="translate(-1.69)">
	<path
   d="m 45.067,44 h -2.728 v -3.86 c 1.664,-2.28 2.657,-6.387 2.7,-6.567 0.019,-0.076 0.027,-0.154 0.027,-0.232 V 19.677 c 0,-2.284 -1.498,-3.818 -3.728,-3.818 -0.807,0 -1.417,0.378 -1.879,0.928 -0.015,-0.172 -0.022,-0.321 -0.022,-0.44 0,-2.513 -1.389,-4.136 -3.537,-4.136 -0.95,0 -1.676,0.265 -2.217,0.639 -0.324,-1.123 -1.277,-2.369 -3.103,-2.369 -1.002,0 -1.772,0.298 -2.347,0.676 C 28.208,7.433 28.18,3.294 28.18,3.05 28.182,2.014 26.941,0 24.664,0 22.707,0 21.614,1.837 21.277,2.922 21.251,3.009 21.235,3.098 21.232,3.189 L 20.61,23.875 c -0.29,-0.183 -0.616,-0.386 -0.977,-0.612 -0.896,-0.559 -1.845,-1.151 -2.511,-1.595 -1.522,-1.015 -2.723,-1.815 -4.555,-1.815 -3.341,0 -5.446,0.609 -6.259,1.812 -0.302,0.447 -0.577,1.194 -0.169,2.209 0.614,1.526 2.226,2.235 3.933,2.986 1.682,0.74 3.421,1.506 4.076,3.034 1.41,3.292 8.243,9.46 9.886,10.913 V 44 h -2.967 c -0.553,0 -1,0.447 -1,1 v 6 c 0,0.553 0.447,1 1,1 h 24 c 0.553,0 1,-0.447 1,-1 v -6 c 0,-0.553 -0.448,-1 -1,-1 z M 25.689,39.599 C 23.382,37.595 17.142,31.805 15.986,29.107 15.02,26.853 12.819,25.884 10.878,25.03 9.555,24.447 8.305,23.897 7.995,23.128 7.897,22.886 7.945,22.815 7.966,22.784 c 0.303,-0.448 1.872,-0.931 4.602,-0.931 1.174,0 1.946,0.48 3.445,1.479 0.68,0.453 1.647,1.058 2.56,1.627 0.981,0.613 2.094,1.308 2.36,1.519 0.295,0.235 0.698,0.284 1.043,0.125 0.343,-0.159 0.567,-0.499 0.579,-0.877 L 23.228,3.41 C 23.366,3.062 23.857,2 24.664,2 c 1.126,0 1.501,1.052 1.517,1.051 10e-4,0 10e-4,0 10e-4,-0.001 0,0.472 0.094,14.067 0.094,14.067 0.004,0.528 0.418,0.963 0.945,0.991 0.527,0.067 0.986,-0.356 1.048,-0.882 l 0.444,-3.785 c 0.185,-0.288 0.736,-0.961 1.868,-0.961 1.01,0 1.198,0.837 1.24,1.268 l 0.628,4.057 c 0.081,0.521 0.543,0.9 1.077,0.843 0.524,-0.047 0.924,-0.493 0.911,-1.021 l -0.063,-2.595 c 0.107,-0.259 0.464,-0.821 1.525,-0.821 1.271,0 1.537,1.161 1.537,2.136 0,1.211 0.58,4.338 0.646,4.69 0.092,0.489 0.545,0.845 1.025,0.815 0.497,-0.021 0.903,-0.405 0.952,-0.9 0.139,-1.393 0.755,-3.093 1.277,-3.093 1.428,0 1.728,0.989 1.728,1.818 v 13.541 c -0.171,0.674 -1.131,4.273 -2.502,5.949 -0.146,0.179 -0.226,0.402 -0.226,0.633 V 44 H 26.033 v -3.646 c 0,-0.291 -0.126,-0.566 -0.344,-0.755 z M 44.067,50 h -22 v -4 h 2.967 16.306 2.728 v 4 z"
   id="path1"
   style="fill:#46df83;fill-opacity:1" />
</g></svg>
