<?xml version="1.0" encoding="UTF-8" standalone="no"?>
<!-- Uploaded to: SVG Repo, www.svgrepo.com, Generator: SVG Repo Mixer Tools -->

<svg
   width="800px"
   height="800px"
   viewBox="0 0 24 24"
   fill="none"
   version="1.1"
   id="svg2"
   sodipodi:docname="flash.svg"
   inkscape:version="1.4 (e7c3feb1, 2024-10-09)"
   inkscape:export-filename="flash.svg"
   inkscape:export-xdpi="96"
   inkscape:export-ydpi="96"
   xmlns:inkscape="http://www.inkscape.org/namespaces/inkscape"
   xmlns:sodipodi="http://sodipodi.sourceforge.net/DTD/sodipodi-0.dtd"
   xmlns="http://www.w3.org/2000/svg"
   xmlns:svg="http://www.w3.org/2000/svg">
  <defs
     id="defs2">
    <linearGradient
       id="swatch8"
       inkscape:swatch="solid">
      <stop
         style="stop-color:#000000;stop-opacity:1;"
         offset="0"
         id="stop8" />
    </linearGradient>
  </defs>
  <sodipodi:namedview
     id="namedview2"
     pagecolor="#ffffff"
     bordercolor="#000000"
     borderopacity="0.25"
     inkscape:showpageshadow="2"
     inkscape:pageopacity="0.0"
     inkscape:pagecheckerboard="0"
     inkscape:deskcolor="#d1d1d1"
     inkscape:zoom="0.64129374"
     inkscape:cx="300.95413"
     inkscape:cy="461.56696"
     inkscape:window-width="1512"
     inkscape:window-height="839"
     inkscape:window-x="0"
     inkscape:window-y="38"
     inkscape:window-maximized="1"
     inkscape:current-layer="svg2" />
  <path
     style="fill:#ffcf69;stroke-linecap:round;stroke-linejoin:round"
     d="m 14.519531,8.25 a 0.75,0.75 0 0 0 -0.75,0.75 V 9.2050781 C 12.296575,8.4515503 10.459406,8.6401437 9.2304688,9.8691406 c -1.5237191,1.5236204 -1.5236843,4.0173064 0,5.5410154 1.5236712,1.523721 4.0153562,1.523707 5.5390622,0 0.648846,-0.648845 1.026534,-1.477451 1.123047,-2.326172 a 0.75,0.75 0 0 0 -0.660156,-0.830078 0.75,0.75 0 0 0 -0.830078,0.66211 c -0.05969,0.524879 -0.288605,1.028839 -0.69336,1.433593 -0.950493,0.950494 -2.46752,0.95048 -3.417968,0 -0.9504761,-0.950491 -0.9504413,-2.469542 0,-3.419921 0.633852,-0.633884 1.477198,-0.686198 2.279297,-0.47461 a 0.75,0.75 0 0 0 -0.304688,0.699219 0.75,0.75 0 0 0 0.888672,0.580078 l 1.519531,-0.320312 a 0.75,0.75 0 0 0 0.361328,-0.197266 0.75,0.75 0 0 0 0.01563,-0.0059 0.75,0.75 0 0 0 0.169922,-0.279297 0.75,0.75 0 0 0 0.01563,-0.08203 0.75,0.75 0 0 0 0.0332,-0.169921 V 9 a 0.75,0.75 0 0 0 -0.75,-0.75 z"
     id="path1" />
  <path
     style="fill:#ffcf69;stroke-linecap:round"
     d="M 10.367188,2.25 C 9.0324209,2.25 7.8631229,3.1831418 7.5976562,4.4863281 7.5390574,4.7740028 7.265369,5.0117188 6.9785156,5.0117187 H 6.9609375 6.9453125 C 5.5178902,5.074133 4.4562791,5.2508667 3.5644531,5.8359375 2.9973997,6.2079359 2.5089547,6.6857063 2.1289063,7.2441406 1.1977331,8.6124064 1.25,10.299081 1.25,13.363281 a 0.75,0.75 0 0 0 0.75,0.75 0.75,0.75 0 0 0 0.75,-0.75 c 0,-3.0642 0.052274,-4.4424362 0.6191406,-5.2753904 0.2684715,-0.3944857 0.6140515,-0.7333253 1.0175781,-0.9980469 0.548794,-0.3600291 1.2910824,-0.5217523 2.625,-0.5800781 l -0.033203,0.00195 c 1.0308467,0 1.8900227,-0.7455971 2.0898438,-1.7265625 C 9.1905327,4.1854025 9.7254541,3.75 10.367188,3.75 h 3.265625 c 0.641665,0 1.176595,0.4353567 1.298828,1.0351562 0.199797,0.9809224 1.058975,1.7265626 2.089843,1.7265625 l -0.0332,-0.00195 c 1.333947,0.058326 2.076063,0.2199999 2.625,0.5800781 0.403478,0.2647385 0.749065,0.603549 1.017578,0.9980469 C 21.197711,8.9208452 21.25,10.299081 21.25,13.363281 c 0,3.0643 -0.05229,4.442451 -0.619141,5.275391 -0.268519,0.394458 -0.61407,0.733255 -1.017578,0.998047 C 18.759198,20.197015 17.343756,20.25 14.222656,20.25 H 9.7773438 C 6.6563138,20.25 5.2408,20.197014 4.3867187,19.636719 3.9831622,19.371944 3.6376189,19.033118 3.3691406,18.638672 3.2090125,18.403354 3.0913045,18.143737 3,17.804687 A 0.75,0.75 0 0 0 2.0820313,17.275391 0.75,0.75 0 0 0 1.5527344,18.195312 c 0.1265554,0.469951 0.3131799,0.900628 0.5761719,1.28711 0.3800417,0.558354 0.8685234,1.038131 1.4355468,1.410156 C 4.9523719,21.803083 6.6563137,21.75 9.7773438,21.75 h 4.4453122 c 3.1211,0 4.824974,0.05308 6.212891,-0.857422 0.566892,-0.372008 1.055466,-0.851814 1.435547,-1.410156 0.931152,-1.36826 0.878906,-3.054841 0.878906,-6.119141 0,-3.0642 0.05224,-4.7508749 -0.878906,-6.1191404 C 21.491007,6.6857185 21.002469,6.207919 20.435547,5.8359375 19.543684,5.2509157 18.48214,5.074133 17.054687,5.0117187 h -0.01563 -0.01758 c -0.286931,0 -0.560537,-0.2376729 -0.61914,-0.5253906 C 16.136777,3.1831877 14.967547,2.25 13.632813,2.25 Z"
     id="path2" />
</svg>
