<?xml version="1.0" encoding="utf-8" ?>
<svg xmlns="http://www.w3.org/2000/svg" xmlns:xlink="http://www.w3.org/1999/xlink" width="300" height="300">
	<clipPath id="cl_3">
		<rect width="300" height="300" rx="5" ry="5"/>
	</clipPath>
	<g clip-path="url(#cl_3)">
		<path fill="#FD7F3F" transform="scale(0.292969 0.292969)" d="M0 0L100.077 0L108.058 0L216.615 0L224.445 0L589.998 0L597.699 0L1024 0L1024 11.9752L1024 36.2465L1024 46.6137L1024 269.17L1024 275.992L1024 321.986L1024 456.017L1024 463.785L1024 473.061L1024 479.22L1024 735.929L1024 759.191L1024 760.67L1024 923.329L1024 930.536L1024 1024L0 1024L0 951.049L0 944.612L0 922.603L0 867.507L0 852.997L0 663.492L0 655.031L0 630.743L0 102.807L0 93.9816L0 0Z"/>
		<path fill="#FDFEFD" transform="scale(0.292969 0.292969)" d="M999.455 464.131C1007.6 464.493 1015.85 464.013 1024 463.785L1024 473.061C1015.96 469.72 1007.41 467.563 999.455 464.131Z"/>
		<path fill="#002D33" transform="scale(0.292969 0.292969)" d="M724.035 355.274C724.028 356.753 723.036 357.263 722.027 358.255C720.565 359.69 709.262 370.754 708.403 371.121C708.038 371.277 707.129 371.354 706.831 371.367C702.034 371.578 687.75 367.3 683.523 365.285C696.29 360.712 710.541 356.676 724.035 355.274Z"/>
		<path fill="#0876A5" transform="scale(0.292969 0.292969)" d="M972.805 456.395C976.131 455.564 980.631 456.323 984.105 456.278Q1004.05 455.902 1024 456.017L1024 463.785C1015.85 464.013 1007.6 464.493 999.455 464.131C993.091 463.472 978.944 458.898 972.805 456.395Z"/>
		<path fill="#002D33" transform="scale(0.292969 0.292969)" d="M736.865 353.122C749.731 353.293 763.538 353.086 776.07 356.298C772.127 359.073 757.258 362.655 751.571 364.618Q736.359 369.751 721.582 376.03L714.322 374.012C722.418 367.972 729.321 359.872 736.865 353.122Z"/>
		<path fill="#FDFEFD" transform="scale(0.292969 0.292969)" d="M670.953 732.04Q693.478 731.908 715.989 732.71C718.556 733.856 741.302 752.136 744.03 755.04L687.579 754.895C682.206 747.141 675.696 740.256 670.953 732.04Z"/>
		<path fill="#00A395" transform="scale(0.292969 0.292969)" d="M625.875 659.355C646.109 677.155 667.167 693.911 688.224 710.717L706.111 724.902C709.365 727.447 713.005 729.872 715.989 732.71Q693.478 731.908 670.953 732.04C668.548 725.836 661.654 717.176 657.851 711.319C646.863 694.392 635.217 677.267 625.875 659.355Z"/>
		<path fill="#00A395" transform="scale(0.292969 0.292969)" d="M543.178 536.406C548.916 544.128 555.606 557.401 560.763 566.061Q579.358 597.832 599.266 628.798C594.619 625.304 590.471 621.036 586.245 617.049C564.336 597.226 541.985 578.078 520.545 557.716C528.339 551.195 536.332 543.896 543.178 536.406Z"/>
		<path fill="#002D33" transform="scale(0.292969 0.292969)" d="M597.486 427.535C622.568 417.367 648.876 410.463 674.055 400.446C653.595 422.265 630.518 441.754 609.521 463.068L597.734 463.202C597.259 451.358 597.522 439.392 597.486 427.535Z"/>
		<path fill="#0876A5" transform="scale(0.292969 0.292969)" d="M845.97 424.055L860.22 428.694C874.969 432.904 889.528 437.827 904.137 442.495C917.295 446.7 930.537 450.645 943.634 455.036C951.936 457.513 961.029 459.492 969.028 462.685C956.049 462.269 942.875 462.862 929.874 462.884Q887.704 463.029 845.536 462.62C846.575 449.918 845.207 436.854 845.97 424.055Z"/>
		<path fill="#002D33" transform="scale(0.292969 0.292969)" d="M860.22 428.694C874.969 432.904 889.528 437.827 904.137 442.495C917.295 446.7 930.537 450.645 943.634 455.036L860.421 454.94Q860.437 441.816 860.22 428.694Z"/>
		<path fill="#0876A5" transform="scale(0.292969 0.292969)" d="M687.579 754.895L744.03 755.04C758.969 767.635 776.102 776.829 791.501 788.761C790.217 790.273 789.754 790.741 787.764 790.904C783.036 791.289 778.276 791.171 773.541 791.463C759.677 792.321 744.875 793.562 731.004 792.255C730.953 794.632 730.917 797.004 730.771 799.377C730.666 801.077 730.706 802.582 731.767 803.958C732.519 803.983 733.286 804.035 734.04 804.018Q733.882 809.033 733.85 814.05L733.056 814.375C729.012 809.243 724.699 804.325 720.672 799.176Q703.75 777.316 687.579 754.895Z"/>
		<defs>
			<linearGradient id="gradient_0" gradientUnits="userSpaceOnUse" x1="667.53503" y1="414.69595" x2="593.39642" y2="350.38336">
				<stop offset="0" stop-color="#04274A"/>
				<stop offset="1" stop-color="#03496D"/>
			</linearGradient>
		</defs>
		<path fill="url(#gradient_0)" transform="scale(0.292969 0.292969)" d="M597.526 342.649C601.647 344.178 606.204 346.339 610.496 347.192C619.724 349.742 628.721 353.349 637.724 356.584L672.681 369.018Q687.505 373.57 702.393 377.906C697.344 381.371 692.515 386.584 687.059 389.115C682.096 391.417 676.566 392.987 671.375 394.724L640.9 404.793C634.821 406.853 601.419 419.5 597.684 419.567L597.526 342.649Z"/>
		<path fill="#FDFEFD" transform="scale(0.292969 0.292969)" d="M610.496 347.192C619.724 349.742 628.721 353.349 637.724 356.584L672.681 369.018C656.001 375.209 640.531 387.551 630.904 402.504C623.542 400.323 618.159 399.892 610.522 400.68L610.496 347.192Z"/>
		<path fill="#00A395" transform="scale(0.292969 0.292969)" d="M496.516 460.021L496.871 460.078C501.744 463.116 533.583 519.947 540.2 530.078C531.582 537.372 523.813 545.774 516.034 553.942L497.345 536.901C486.418 527.168 475.944 516.879 465.239 506.897C455.686 497.989 445.519 489.303 436.906 479.463C444.292 476.138 452.835 473.9 460.59 471.464Q478.582 465.833 496.516 460.021Z"/>
		<path fill="#002D33" transform="scale(0.292969 0.292969)" d="M788.843 359.137C793.794 356.307 800.217 354.614 805.611 352.669Q826.3 345.332 847.092 338.296Q847.183 350.03 847.125 361.765C847.112 366.139 847.385 370.75 846.834 375.085L846.365 375.554L845.995 416.454C822.411 409.222 798.738 401.858 775.306 394.146C760.291 389.205 745.285 383.413 729.995 379.416C750.004 373.685 769.181 365.906 788.843 359.137Z"/>
		<path fill="#FDFEFD" transform="scale(0.292969 0.292969)" d="M788.843 359.137C793.794 356.307 800.217 354.614 805.611 352.669Q826.3 345.332 847.092 338.296Q847.183 350.03 847.125 361.765C847.112 366.139 847.385 370.75 846.834 375.085L846.365 375.554C842.057 377.123 838.438 379.146 834.643 381.698C823.889 371.363 803.046 362.691 788.843 359.137Z"/>
		<path fill="#00A395" transform="scale(0.292969 0.292969)" d="M589.153 430.199C592.004 429.61 594.746 428.505 597.486 427.535C597.522 439.392 597.259 451.358 597.734 463.202L609.521 463.068C606.864 466.021 603.883 470.159 600.435 472.115C593.699 477.564 587.525 483.91 581.331 489.96C569.445 501.568 557.702 513.586 545.441 524.788C531.952 502.3 519.905 478.418 504.839 456.977C513.945 454.956 522.934 451.443 531.834 448.636L589.153 430.199Z"/>
		<path fill="#FDFEFD" transform="scale(0.292969 0.292969)" d="M589.153 430.199C592.004 429.61 594.746 428.505 597.486 427.535C597.522 439.392 597.259 451.358 597.734 463.202L609.521 463.068C606.864 466.021 603.883 470.159 600.435 472.115C596.734 471.777 592.999 471.838 589.285 471.821Q588.745 451.011 589.153 430.199Z"/>
		<path fill="#FDFEFD" transform="scale(0.292969 0.292969)" d="M736.865 353.122C742.725 346.343 749.499 340.118 755.911 333.859Q771.305 318.94 786.431 303.75L826.276 263.896C833.141 256.995 839.567 249.117 847.189 243.057C847.444 272.327 846.92 301.626 847.42 330.889C835.231 335.232 822.931 339.321 810.801 343.817C803.453 346.54 782.226 355.662 776.07 356.298C763.538 353.086 749.731 353.293 736.865 353.122Z"/>
		<path fill="#002D33" transform="scale(0.292969 0.292969)" d="M619.487 462.471C625.173 457.744 630.407 452.361 635.813 447.31C646.701 437.138 657.513 426.992 668.095 416.496C674.168 410.472 684.611 398.433 691.405 394.232C695.186 391.894 700.493 390.862 704.714 389.413C710.225 387.521 715.657 385.419 721.186 383.574C733.414 389.428 751.348 393.829 764.669 398.054L845.97 424.055C845.207 436.854 846.575 449.918 845.536 462.62C820.524 462.048 795.379 462.615 770.351 462.61L619.487 462.471Z"/>
		<path fill="#00A395" transform="scale(0.292969 0.292969)" d="M515.203 563.115C524.724 572.075 534.677 580.59 544.419 589.309C556.101 599.763 567.651 610.406 579.507 620.66C588.62 628.541 602.013 637.759 609.497 646.646C612.439 650.138 614.618 654.55 616.957 658.471L632.277 684.505C641.988 700.78 652.588 716.656 663.041 732.465C656.957 732.334 650.604 731.883 644.546 732.484L645.642 729.87C646.055 729.759 645.774 729.866 646.335 729.294C637.878 714.713 629.647 699.879 620.769 685.559C593.782 684.799 566.745 685.367 539.748 685.349L377.064 684.952C393.051 672.942 407.975 659.475 423.119 646.436C446.155 626.601 468.968 606.906 490.906 585.852C498.863 578.217 507.816 571.281 515.203 563.115Z"/>
		<path fill="#00A395" transform="scale(0.292969 0.292969)" d="M0 0L100.077 0C105.287 16.2521 112.902 32.248 119.756 47.8924Q131.433 74.939 144.561 101.312Q157.689 127.685 172.229 153.306C178.491 164.305 184.602 175.86 191.869 186.206C165.056 174.436 138.901 160.878 112.365 148.473Q74.4789 130.996 37.1634 112.332C24.8277 106.287 12.0037 100.621 0 93.9816L0 0Z"/>
		<path fill="#00A395" transform="scale(0.292969 0.292969)" d="M361.899 260.629C376.424 266.711 391.697 271.132 406.593 276.208L468.781 298.004L545.642 324.658C559.813 329.623 575.207 335.66 589.415 339.917Q593.495 341.21 597.526 342.649L597.684 419.567C595.43 421.256 591.933 422.09 589.242 422.885C575.319 426.46 561.608 431.483 547.923 435.906C532.255 440.97 516.301 445.615 500.892 451.409C490.053 435.343 479.383 419.268 467.929 403.626C432.848 355.719 395.287 309.806 361.899 260.629Z"/>
		<path fill="#FDFEFD" transform="scale(0.292969 0.292969)" d="M589.415 339.917Q593.495 341.21 597.526 342.649L597.684 419.567C595.43 421.256 591.933 422.09 589.242 422.885C588.96 395.306 588.463 367.482 589.415 339.917Z"/>
		<path fill="#00A395" transform="scale(0.292969 0.292969)" d="M209.724 202.377C216.516 204.806 223.157 208.027 229.874 210.705Q259.477 222.768 289.255 234.389Q309.445 242.106 329.748 249.519C335.767 251.756 344.322 253.772 349.55 257.447C352.774 259.713 378.298 297.63 382.808 303.731Q407.747 337.245 433.261 370.324C446.578 387.676 460.294 404.93 472.883 422.808C479.943 432.834 486.432 443.19 492.949 453.571C487.725 454.93 482.6 456.721 477.467 458.387C462.138 463.96 446.38 468.601 430.799 473.426C413.71 457.169 396.525 438.246 380.344 420.931Q368.384 408.352 356.733 395.485Q345.083 382.619 333.749 369.473Q322.415 356.327 311.404 342.909Q300.393 329.491 289.712 315.809Q279.031 302.127 268.686 288.189Q258.341 274.252 248.338 260.066Q238.335 245.881 228.68 231.457Q219.025 217.032 209.724 202.377Z"/>
		<path fill="#00A395" transform="scale(0.292969 0.292969)" d="M108.058 0L216.615 0C222.054 16.3931 229.458 32.273 236.217 48.1643Q247.255 74.0671 259.455 99.4432Q271.654 124.819 284.992 149.617Q298.329 174.414 312.776 198.581Q327.223 222.749 342.75 246.237C329.575 242.358 316.6 236.792 303.757 231.9C283.114 224.037 262.477 216.298 241.988 208.036L218.272 198.212C213.195 196.125 207.553 194.339 202.888 191.485C194.193 175.643 184.266 160.474 175.709 144.547Q148.372 93.8326 125.085 41.1361C119.134 27.5547 113.685 13.7197 108.058 0Z"/>
		<path fill="#002D33" transform="scale(0.292969 0.292969)" d="M1024 275.992L1024 321.986L1024 456.017Q1004.05 455.902 984.105 456.278C980.631 456.323 976.131 455.564 972.805 456.395C968.86 455.882 964.575 454.114 960.755 452.913L938.746 445.979Q912.478 437.948 886.393 429.342C877.735 426.57 868.937 424.059 860.39 420.963L845.995 416.454L846.365 375.554L846.834 375.085C847.385 370.75 847.112 366.139 847.125 361.765Q847.183 350.03 847.092 338.296C851.578 337.21 856.159 335.093 860.532 333.537C864.737 331.516 869.65 330.185 874.065 328.631C884.753 324.87 895.521 321.35 906.192 317.538L1024 275.992Z"/>
		<path fill="#0876A5" transform="scale(0.292969 0.292969)" d="M847.092 338.296C851.578 337.21 856.159 335.093 860.532 333.537C860.515 339.05 859.605 368.863 860.963 372.2C859.869 375.653 860.582 381.215 860.587 384.889C860.601 396.775 861.262 409.123 860.39 420.963L845.995 416.454L846.365 375.554L846.834 375.085C847.385 370.75 847.112 366.139 847.125 361.765Q847.183 350.03 847.092 338.296Z"/>
		<path fill="#FDFEFD" transform="scale(0.292969 0.292969)" d="M1024 275.992L1024 321.986C1001.02 323.98 978.081 332.286 962.922 350.48C958.461 355.834 955.18 361.839 952.541 368.266C925.692 357.693 895.195 357.21 868.497 368.806Q864.713 370.465 860.963 372.2C859.605 368.863 860.515 339.05 860.532 333.537C864.737 331.516 869.65 330.185 874.065 328.631C884.753 324.87 895.521 321.35 906.192 317.538L1024 275.992Z"/>
		<path fill="#FDFEFD" transform="scale(0.292969 0.292969)" d="M1024 46.6137L1024 269.17C984.501 282.395 945.311 296.699 905.962 310.38Q891.622 315.436 877.355 320.692C872.01 322.639 866.454 324.969 860.935 326.329C856.327 327.332 851.835 329.243 847.42 330.889C846.92 301.626 847.444 272.327 847.189 243.057C851.618 239.046 857.103 231.259 861.846 228.422L863.465 227.097C878.187 210.604 894.037 194.961 909.029 178.681Q948.564 135.552 986.572 91.0718C999.177 76.4397 1012.32 61.9862 1024 46.6137Z"/>
		<path fill="#034C6B" transform="scale(0.292969 0.292969)" d="M847.189 243.057C851.618 239.046 857.103 231.259 861.846 228.422C859.766 238.184 860.889 252.046 860.87 262.41Q860.738 294.37 860.935 326.329C856.327 327.332 851.835 329.243 847.42 330.889C846.92 301.626 847.444 272.327 847.189 243.057Z"/>
		<path fill="#0876A5" transform="scale(0.292969 0.292969)" d="M867.952 732.213C869.503 732.1 870.25 732.195 871.763 732.555C877.751 733.979 895.921 733.519 902.859 733.587L982.628 734.282C992.742 734.464 1003.96 733.593 1013.9 735.039L1014.05 735.318L1012 735.644C1016 736.025 1019.99 735.957 1024 735.929L1024 759.191L1024 760.67L1024 923.329C1002.55 915.009 981.963 904.055 961.95 892.776C937.628 879.069 914.154 864.621 890.763 849.396L887.825 847.432C874.624 839.73 862.107 830.444 849.571 821.712L803.363 789.323C787.7 778.121 772.07 766.544 755.938 756.033L756.03 755.265C764.151 755.562 864.454 755.724 867.369 754.591C867.325 747.792 866.195 738.745 867.952 732.213Z"/>
		<path fill="#002D33" transform="scale(0.292969 0.292969)" d="M887.825 847.432C891.799 845.136 896.276 843.671 900.439 841.735C906.498 838.916 912.451 835.783 918.426 832.782C920.764 831.608 925.346 828.066 927.848 828.227C928.726 829.186 928.807 829.175 928.882 830.458C926.656 834.382 896.913 846.831 890.763 849.396L887.825 847.432Z"/>
		<path fill="#002D33" transform="scale(0.292969 0.292969)" d="M884.03 756.948C888.117 757.018 924.576 758.318 925.247 758.72C923.355 758.706 921.367 759.376 919.626 760.09L918.838 760.422C909.499 761.992 894.019 768.572 885.092 767.517C883.299 765.332 884.02 759.762 884.03 756.948Z"/>
		<path fill="#002D33" transform="scale(0.292969 0.292969)" d="M988.756 811.593C990.096 811.352 992.103 811.148 993.362 811.751C994.99 812.532 996.311 814.327 996.839 816.015C997.527 818.213 997.736 821.265 996.437 823.282C995.825 824.233 994.887 824.551 993.858 824.855C989.439 826.164 984.484 826.576 979.933 827.389L953.262 832.361Q951.589 831.6 949.937 830.797C947.203 829.463 945.579 828.619 944.565 825.657C944.602 824.618 944.661 824.053 945.226 823.144C946.203 821.572 948.419 820.514 950.094 819.927C954.46 818.397 959.435 817.739 963.974 816.8Q976.381 814.273 988.756 811.593Z"/>
		<path fill="#002D33" transform="scale(0.292969 0.292969)" d="M974.872 770.246C984.819 769.968 994.833 771.413 1004.74 772.132C1004.97 779.502 1004.83 786.913 1004.84 794.288C981.276 793.87 957.661 794.389 934.089 794.445C922.847 794.478 911.52 794.684 900.29 794.165C915.522 789.942 933.301 783.9 948.373 778.764C957.059 775.804 965.906 772.147 974.872 770.246Z"/>
		<path fill="#002D33" transform="scale(0.292969 0.292969)" d="M867.952 732.213C869.503 732.1 870.25 732.195 871.763 732.555C877.751 733.979 895.921 733.519 902.859 733.587L982.628 734.282C992.742 734.464 1003.96 733.593 1013.9 735.039L1014.05 735.318L1012 735.644C1016 736.025 1019.99 735.957 1024 735.929L1024 759.191L1024 760.67C1017.46 760.589 1011.21 760.685 1004.73 761.775L1004.64 769.905C996.307 769.817 987.994 768.876 979.652 768.74C989.175 765.721 998.902 763.247 1008.37 760.086C1009.3 759.773 1009.64 759.861 1010.1 758.926C1006.8 758.485 987.674 764.345 983.597 765.802C978.322 767.686 972.821 769.032 967.492 770.78L924.226 784.824C914.264 787.969 903.789 792.454 893.551 794.376C886.539 795.692 877.159 795.626 870.112 794.337L870.225 773.174C878.916 770.863 932.06 760.001 935.969 757.096C933.832 756.191 911.091 756.391 906.869 756.247C894.968 755.843 878.71 752.807 867.369 754.591C867.325 747.792 866.195 738.745 867.952 732.213Z"/>
		<path fill="#FDFEFD" transform="scale(0.292969 0.292969)" d="M1012 735.644C1016 736.025 1019.99 735.957 1024 735.929L1024 759.191Q1018 759.027 1011.99 758.985L1012 735.644Z"/>
		<path fill="#00A395" transform="scale(0.292969 0.292969)" d="M224.445 0L589.998 0L589.687 210.781L589.591 291.542C589.558 305.079 590.044 318.852 589.443 332.364C583.095 330.675 576.808 327.865 570.602 325.631Q552.615 319.144 534.509 312.998L432.578 278.137C406.741 269.084 381.046 259.463 354.939 251.217C349.985 242.601 344.309 234.349 338.945 225.978C329.552 211.319 320.212 196.463 311.572 181.346C298.614 158.676 285.822 135.677 274.214 112.279Q247.234 57.0682 224.445 0Z"/>
		<path fill="#00A395" transform="scale(0.292969 0.292969)" d="M429.263 481.55C454.519 509 483.156 533.42 510.389 558.865C482.897 583.477 456.509 609.262 428.455 633.268Q406.774 651.76 384.885 670.006C378.923 674.949 371.821 679.573 366.372 684.99C369.124 685.381 371.244 685.864 373.63 687.313L318.144 730.219C311.467 734.182 305.319 739.541 298.867 743.928C282.242 755.233 265.329 766.389 248.044 776.653C244.61 778.693 239.676 780.871 236.966 783.713C227.683 788.379 218.73 793.867 209.662 798.944C204.486 801.842 198.825 804.363 193.918 807.646C186.616 810.79 179.576 814.787 172.449 818.323Q155.354 826.705 138.05 834.649Q125.255 840.55 112.198 845.848C105.006 848.714 97.602 851.268 90.5667 854.491Q78.4043 859.327 66.0456 863.636C62.9063 864.717 58.5192 865.361 55.683 866.817C51.1587 867.473 42.7278 869.313 38.5346 867.284C45.6833 861.718 62.9992 857.988 72.1465 853.879C65.3053 852.302 56.8757 852.932 49.8644 852.853C33.232 852.665 16.6303 852.868 0 852.997L0 663.492C26.6903 649.374 52.706 633.978 79.6134 620.239C157.164 578.893 238.627 545.925 321.583 517.155Q355.155 505.673 388.899 494.707C402.267 490.418 416.228 486.736 429.263 481.55Z"/>
		<path fill="#002D33" transform="scale(0.292969 0.292969)" d="M84.2336 661.559C85.6461 660.599 87.0733 659.673 88.5683 658.847C108.614 647.761 131.674 645.786 153.513 652.153C165.819 655.74 188.428 665.312 194.673 677.383C196.036 680.019 196.26 681.668 195.32 684.46C182.529 695.41 161.733 694.174 145.902 694.134C145.209 693.569 144.782 692.863 144.265 692.145C129.898 672.206 107.457 665.266 84.2336 661.559Z"/>
		<path fill="#002D33" transform="scale(0.292969 0.292969)" d="M79.6134 620.239C83.6867 632.482 88.5452 647.603 82.2994 659.993Q81.9698 660.642 81.6234 661.283C63.312 661.696 40.7575 668.329 27.7424 681.946Q26.9092 682.82 26.1066 683.723C31.0158 692.948 39.6507 699.581 48.8363 704.292C52.1573 705.996 55.7712 707.332 58.9646 709.251C62.9551 709.454 74.9157 714.866 80.3962 716.229C92.4114 719.216 106.052 719.819 118.272 717.752C122.351 717.062 126.858 715.34 130.891 715.057C133.288 713.332 135.419 711.913 138.413 711.616C140.631 710.76 142.85 709.256 144.23 707.293C146.978 703.384 146.794 698.595 145.902 694.134C161.733 694.174 182.529 695.41 195.32 684.46C201.917 686.162 211.901 684.98 218.904 684.929C226.861 684.873 286.75 684.245 289.347 685.53C290.397 685.031 291.297 685.043 292.428 685.354C292.849 685.47 293.051 685.628 293.39 685.848C293.416 685.791 293.425 685.721 293.469 685.676C293.71 685.436 293.943 685.175 294.237 685.003C294.956 684.581 359.445 684.935 366.086 685.074L366.372 684.99C369.124 685.381 371.244 685.864 373.63 687.313L318.144 730.219C311.467 734.182 305.319 739.541 298.867 743.928C282.242 755.233 265.329 766.389 248.044 776.653C244.61 778.693 239.676 780.871 236.966 783.713C227.683 788.379 218.73 793.867 209.662 798.944C204.486 801.842 198.825 804.363 193.918 807.646C186.616 810.79 179.576 814.787 172.449 818.323Q155.354 826.705 138.05 834.649Q125.255 840.55 112.198 845.848C105.006 848.714 97.602 851.268 90.5667 854.491Q78.4043 859.327 66.0456 863.636C62.9063 864.717 58.5192 865.361 55.683 866.817C51.1587 867.473 42.7278 869.313 38.5346 867.284C45.6833 861.718 62.9992 857.988 72.1465 853.879C65.3053 852.302 56.8757 852.932 49.8644 852.853C33.232 852.665 16.6303 852.868 0 852.997L0 663.492C26.6903 649.374 52.706 633.978 79.6134 620.239Z"/>
		<path fill="#00A395" transform="scale(0.292969 0.292969)" d="M58.9646 709.251C62.9551 709.454 74.9157 714.866 80.3962 716.229C92.4114 719.216 106.052 719.819 118.272 717.752C122.351 717.062 126.858 715.34 130.891 715.057C127.006 720.262 124.95 725.571 121.745 731.057C115.076 747.073 116.476 766.434 116.495 783.486C116.503 790.068 116.197 796.828 116.581 803.39C116.556 804.82 116.831 806.741 115.903 807.904C104.23 808.967 91.6672 808.058 79.906 808.041Q42.8351 807.754 5.77085 808.521C5.55131 800.132 5.90402 791.655 5.93407 783.257L6.13782 733.682C8.08895 732.621 9.97324 731.651 12.052 730.854C19.2428 727.722 26.2132 724.053 33.3284 720.747C41.8195 716.802 50.4448 713.137 58.9646 709.251Z"/>
		<path fill="#FDFEFD" transform="scale(0.292969 0.292969)" d="M58.9646 709.251C62.9551 709.454 74.9157 714.866 80.3962 716.229C92.4114 719.216 106.052 719.819 118.272 717.752C122.351 717.062 126.858 715.34 130.891 715.057C127.006 720.262 124.95 725.571 121.745 731.057C110.189 731.032 14.7247 732.126 12.052 730.854C19.2428 727.722 26.2132 724.053 33.3284 720.747C41.8195 716.802 50.4448 713.137 58.9646 709.251Z"/>
		<path fill="#00A395" transform="scale(0.292969 0.292969)" d="M195.32 684.46C201.917 686.162 211.901 684.98 218.904 684.929C226.861 684.873 286.75 684.245 289.347 685.53C290.397 685.031 291.297 685.043 292.428 685.354C292.849 685.47 293.051 685.628 293.39 685.848C293.416 685.791 293.425 685.721 293.469 685.676C293.71 685.436 293.943 685.175 294.237 685.003C294.956 684.581 359.445 684.935 366.086 685.074L366.372 684.99C369.124 685.381 371.244 685.864 373.63 687.313L318.144 730.219C311.467 734.182 305.319 739.541 298.867 743.928C282.242 755.233 265.329 766.389 248.044 776.653C244.61 778.693 239.676 780.871 236.966 783.713C227.683 788.379 218.73 793.867 209.662 798.944C204.486 801.842 198.825 804.363 193.918 807.646C186.616 810.79 179.576 814.787 172.449 818.323Q155.354 826.705 138.05 834.649Q125.255 840.55 112.198 845.848C105.006 848.714 97.602 851.268 90.5667 854.491Q78.4043 859.327 66.0456 863.636C62.9063 864.717 58.5192 865.361 55.683 866.817C51.1587 867.473 42.7278 869.313 38.5346 867.284C45.6833 861.718 62.9992 857.988 72.1465 853.879C78.4881 852.728 85.7778 848.97 91.818 846.604C110.273 839.375 128.313 831.497 146.337 823.245C156.946 818.388 167.76 813.586 178.017 808.025C170.111 807.712 122.386 809.06 119.452 807.597C119.556 785.807 117.628 750.313 125.084 730.543C128.337 723.104 131.737 716.52 138.413 711.616C140.631 710.76 142.85 709.256 144.23 707.293C146.978 703.384 146.794 698.595 145.902 694.134C161.733 694.174 182.529 695.41 195.32 684.46Z"/>
		<path fill="#FDFEFD" transform="scale(0.292969 0.292969)" d="M195.32 684.46C201.917 686.162 211.901 684.98 218.904 684.929C226.861 684.873 286.75 684.245 289.347 685.53C290.397 685.031 291.297 685.043 292.428 685.354C292.849 685.47 293.051 685.628 293.39 685.848C283.082 712.952 274.95 713.941 253.517 730.897C242.103 739.895 241.088 758.81 239.498 772.225L239.292 773.976L236.483 775.948C236.272 759.933 238.402 743.497 248.44 730.59C218.395 731.257 188.239 731.027 158.186 730.984C150.613 730.973 131.172 731.887 125.084 730.543C128.337 723.104 131.737 716.52 138.413 711.616C140.631 710.76 142.85 709.256 144.23 707.293C146.978 703.384 146.794 698.595 145.902 694.134C161.733 694.174 182.529 695.41 195.32 684.46Z"/>
		<path fill="#002D33" transform="scale(0.292969 0.292969)" d="M289.347 685.53C290.397 685.031 291.297 685.043 292.428 685.354C292.849 685.47 293.051 685.628 293.39 685.848C283.082 712.952 274.95 713.941 253.517 730.897C242.103 739.895 241.088 758.81 239.498 772.225L239.292 773.976L236.483 775.948C236.272 759.933 238.402 743.497 248.44 730.59C267.658 713.645 280.89 712.428 289.347 685.53Z"/>
		<defs>
			<linearGradient id="gradient_1" gradientUnits="userSpaceOnUse" x1="201.76961" y1="767.71826" x2="215.5269" y2="795.45068">
				<stop offset="0" stop-color="#EE6434"/>
				<stop offset="1" stop-color="#FF8D43"/>
			</linearGradient>
		</defs>
		<path fill="url(#gradient_1)" transform="scale(0.292969 0.292969)" d="M293.39 685.848C293.416 685.791 293.425 685.721 293.469 685.676C293.71 685.436 293.943 685.175 294.237 685.003C294.956 684.581 359.445 684.935 366.086 685.074L366.372 684.99C369.124 685.381 371.244 685.864 373.63 687.313L318.144 730.219C311.467 734.182 305.319 739.541 298.867 743.928C282.242 755.233 265.329 766.389 248.044 776.653C244.61 778.693 239.676 780.871 236.966 783.713C227.683 788.379 218.73 793.867 209.662 798.944C204.486 801.842 198.825 804.363 193.918 807.646C186.616 810.79 179.576 814.787 172.449 818.323Q155.354 826.705 138.05 834.649Q125.255 840.55 112.198 845.848C105.006 848.714 97.602 851.268 90.5667 854.491Q78.4043 859.327 66.0456 863.636C62.9063 864.717 58.5192 865.361 55.683 866.817C51.1587 867.473 42.7278 869.313 38.5346 867.284C45.6833 861.718 62.9992 857.988 72.1465 853.879C78.4881 852.728 85.7778 848.97 91.818 846.604C110.273 839.375 128.313 831.497 146.337 823.245C156.946 818.388 167.76 813.586 178.017 808.025C183.857 805.583 189.527 802.12 195.117 799.135C209.088 791.675 222.796 783.915 236.483 775.948L239.292 773.976L239.498 772.225C241.088 758.81 242.103 739.895 253.517 730.897C274.95 713.941 283.082 712.952 293.39 685.848Z"/>
		<path fill="#00A395" transform="scale(0.292969 0.292969)" d="M239.292 773.976L239.498 772.225C241.088 758.81 242.103 739.895 253.517 730.897C256.941 732.101 299.25 730.847 306.532 730.71C284.115 745.223 262.298 760.357 239.292 773.976Z"/>
		<path fill="#FDFEFD" transform="scale(0.292969 0.292969)" d="M293.39 685.848C293.416 685.791 293.425 685.721 293.469 685.676C293.71 685.436 293.943 685.175 294.237 685.003C294.956 684.581 359.445 684.935 366.086 685.074C360.172 691.844 315.65 725.42 306.532 730.71C299.25 730.847 256.941 732.101 253.517 730.897C274.95 713.941 283.082 712.952 293.39 685.848Z"/>
		<path fill="#FDFEFD" transform="scale(0.292969 0.292969)" d="M589.998 0L597.699 0L1024 0L1024 11.9752L1024 36.2465L1024 46.6137C1012.32 61.9862 999.177 76.4397 986.572 91.0718Q948.564 135.552 909.029 178.681C894.037 194.961 878.187 210.604 863.465 227.097C862.084 225.02 862.526 222.12 860.81 220.197C856.25 224.509 851.925 229.483 847.144 233.486C830.861 249.928 814.113 265.897 797.883 282.382L751.143 329.31C743.467 336.964 736.05 344.904 728.13 352.309C726.938 353.424 725.654 354.862 724.035 355.274C710.541 356.676 696.29 360.712 683.523 365.285C668.301 360.713 653.371 355.141 638.349 349.95C629.35 346.84 619.305 344.201 610.784 340.009C607.31 339.721 601.257 336.603 597.666 335.329C595.004 334.679 591.82 333.729 589.443 332.364C590.044 318.852 589.558 305.079 589.591 291.542L589.687 210.781L589.998 0Z"/>
		<path fill="#00A395" transform="scale(0.292969 0.292969)" d="M847.046 108.921C840.088 107.827 831.963 105.624 826.544 100.895C823.987 98.6638 821.991 95.609 821.933 92.1215C821.888 89.3683 823.121 86.9154 825.08 85.0322C830.789 79.5421 839.807 78.9615 847.27 79.0202Q846.971 93.9694 847.046 108.921Z"/>
		<path fill="#00A395" transform="scale(0.292969 0.292969)" d="M683.05 226.169C690.439 225.14 699.177 225.636 706.454 227.351C716.285 229.666 723.181 233.984 728.547 242.638C736.319 241.692 745.128 241.143 752.272 244.95C755.572 246.709 758.72 249.598 759.646 253.351C760.215 255.654 759.728 257.92 758.395 259.867C754.999 264.827 749.113 266.285 743.57 267.21C740.72 270.414 737.674 272.898 733.767 274.705C721.415 280.42 705.959 278.702 693.595 274.087L689.846 272.204C686.506 273.547 683.254 274.971 679.708 275.688C666.531 278.351 655.931 274.239 645.11 267.138C641.285 267.077 637.513 266.992 633.759 266.175C628.45 265.02 622.407 262.497 619.498 257.658Q619.203 257.165 618.959 256.646Q618.716 256.127 618.524 255.585Q618.333 255.044 618.197 254.487Q618.061 253.929 617.981 253.361Q617.9 252.793 617.877 252.219Q617.854 251.646 617.888 251.073Q617.922 250.5 618.013 249.934Q618.103 249.367 618.25 248.812C619.252 244.875 622.087 241.878 625.588 239.965C634.723 234.973 646.291 235.878 655.906 238.75C664.208 231.511 672.176 227.807 683.05 226.169Z"/>
		<path fill="#034C6B" transform="scale(0.292969 0.292969)" d="M589.998 0L597.699 0L1024 0L1024 11.9752L860.443 12.1069L860.433 44.1201C860.436 50.2067 860.116 56.5776 860.74 62.6247C861.524 78.8416 860.989 95.2862 860.92 111.525C860.706 147.523 860.069 183.687 860.936 219.672L860.81 220.197C856.25 224.509 851.925 229.483 847.144 233.486C847.845 219.085 847.183 204.378 847.151 189.951L847.046 108.921Q846.971 93.9689 847.27 79.0202C847.495 56.7219 847.149 34.4152 847.482 12.1201L689.763 12.1029C663.553 12.1079 637.281 11.6971 611.08 12.0991L610.811 244.408L610.611 308.463C610.588 318.899 610.094 329.607 610.784 340.009C607.31 339.721 601.257 336.603 597.666 335.329C595.004 334.679 591.82 333.729 589.443 332.364C590.044 318.852 589.558 305.079 589.591 291.542L589.687 210.781L589.998 0Z"/>
		<path fill="#FDFEFD" transform="scale(0.292969 0.292969)" d="M589.998 0L597.699 0L597.533 202.984C597.502 247.085 597.089 291.233 597.666 335.329C595.004 334.679 591.82 333.729 589.443 332.364C590.044 318.852 589.558 305.079 589.591 291.542L589.687 210.781L589.998 0Z"/>
		<path fill="#FDFEFD" transform="scale(0.292969 0.292969)" d="M860.443 12.1069L1024 11.9752L1024 36.2465L1024 46.6137C1012.32 61.9862 999.177 76.4397 986.572 91.0718Q948.564 135.552 909.029 178.681C894.037 194.961 878.187 210.604 863.465 227.097C862.084 225.02 862.526 222.12 860.81 220.197L860.936 219.672C860.069 183.687 860.706 147.523 860.92 111.525C860.989 95.2862 861.524 78.8416 860.74 62.6247C860.116 56.5776 860.436 50.2067 860.433 44.1201L860.443 12.1069Z"/>
		<path fill="#E75215" transform="scale(0.292969 0.292969)" d="M1024 36.2465L1024 46.6137C1012.32 61.9862 999.177 76.4397 986.572 91.0718Q948.564 135.552 909.029 178.681C894.037 194.961 878.187 210.604 863.465 227.097C862.084 225.02 862.526 222.12 860.81 220.197L860.936 219.672C866.63 214.629 871.646 208.789 876.885 203.29C889.829 189.699 902.313 175.795 914.933 161.914C951.859 121.3 989.865 79.169 1024 36.2465Z"/>
		<path fill="#00A395" transform="scale(0.292969 0.292969)" d="M860.74 62.6247C877.733 60.0547 896.128 60.6822 910.518 71.2396Q913.96 73.8035 917.034 76.7986C927.985 72.9113 947.81 74.0155 958.393 79.0854C962.571 81.0867 966.778 84.2117 968.386 88.7344C969.401 91.5922 969.307 94.6936 967.884 97.3993C964.921 103.032 956.936 106.506 951.044 108.127C947.05 109.226 942.872 109.732 938.777 110.321C932.228 117.08 924.887 119.244 915.633 119.361C907.431 119.464 898.279 117.427 892.318 111.423C891.305 110.402 890.437 109.242 889.581 108.089C879.801 110.673 871.09 111.826 860.92 111.525C860.989 95.2862 861.524 78.8416 860.74 62.6247Z"/>
		<path fill="#00A395" transform="scale(0.292969 0.292969)" d="M619.487 462.471L770.351 462.61C795.379 462.615 820.524 462.048 845.536 462.62Q887.704 463.029 929.874 462.884C942.875 462.862 956.049 462.269 969.028 462.685C975.665 462.889 993.842 468.435 999.642 471.593C1007.8 473.934 1016.06 476.219 1024 479.22L1024 735.929C1019.99 735.957 1016 736.025 1012 735.644L1014.05 735.318L1013.9 735.039C1003.96 733.593 992.742 734.464 982.628 734.282L902.859 733.587C895.921 733.519 877.751 733.979 871.763 732.555C870.25 732.195 869.503 732.1 867.952 732.213C866.195 738.745 867.325 747.792 867.369 754.591C864.454 755.724 764.151 755.562 756.03 755.265C751.96 754.556 730.574 736.555 726.279 732.502C719.296 725.203 707.189 716.924 698.906 710.43C681.083 696.456 663.728 681.934 646.144 667.667C637.062 660.298 626.824 653.501 618.619 645.172C612.117 638.572 602.362 620.44 597.034 611.756C580.76 585.232 564.522 558.788 549.011 531.807Q567.329 513.029 586.251 494.861C594.273 487.227 602.729 479.881 610.25 471.758C612.928 468.383 616.232 465.29 619.487 462.471Z"/>
		<path fill="#002D33" transform="scale(0.292969 0.292969)" d="M893.176 631.239L893.775 631.292C891.116 633.635 885.15 634.92 881.643 635.962C881.113 635.55 880.796 634.838 880.442 634.27L880.711 633.196C883.44 631.03 889.721 631.406 893.176 631.239Z"/>
		<path fill="#002D33" transform="scale(0.292969 0.292969)" d="M873.346 615.554C877.438 616.87 883.887 616.112 888.226 616.131C894.59 616.159 931.022 615.988 932.963 616.993L932.219 617.517C930.762 618.013 929.301 618.548 927.755 618.68C918.082 619.511 903.897 618.324 893.705 618.136C887.425 618.021 881.086 618.718 874.836 618.365C873.634 617.538 873.723 616.93 873.346 615.554Z"/>
		<path fill="#0876A5" transform="scale(0.292969 0.292969)" d="M917.527 721.035C915.49 721.382 913.499 721.604 911.437 721.733L913.659 721.425L913.048 721.761C923.158 722.593 933.701 721.631 943.849 721.266Q966.129 720.607 988.417 720.336C994.595 720.299 1001.94 719.552 1008 720.504C1009.11 720.677 1009.79 720.997 1010.65 721.689C1005.28 722.528 999.455 722.115 994.016 722.157L964.499 722.568C958.479 722.617 952.146 722.256 946.169 722.853C923.062 723.141 899.935 723.321 876.834 723.908C876.969 723.852 877.11 723.808 877.238 723.74C884.264 719.988 908.395 720.654 917.527 721.035Z"/>
		<path fill="#002D33" transform="scale(0.292969 0.292969)" d="M874.423 610.945C880.261 610.734 945.568 610.812 947.584 612.077L946.355 612.718C944.095 613.516 941.612 614.54 939.226 614.84C932.739 615.654 925.229 614.965 918.649 614.904Q896.522 614.498 874.391 614.541C873.9 613.258 874.222 612.269 874.423 610.945Z"/>
		<path fill="#002D33" transform="scale(0.292969 0.292969)" d="M881.121 619.707C896.081 620.151 911.062 619.704 926.018 620.224C923.615 621.281 921.113 622.123 918.645 623.019C911.173 625.571 903.146 629.034 895.29 629.872C890.663 630.365 885.699 629.992 881.04 629.937L881.121 619.707Z"/>
		<path fill="#002D33" transform="scale(0.292969 0.292969)" d="M893.383 660.395C908.758 655.085 921.934 656.337 937.903 656.423L979.355 656.688C987.505 656.74 995.804 657.104 1003.93 656.499C1004.54 657.254 1004.86 657.876 1005.21 658.785C1004.97 660.035 1004.9 659.836 1003.98 660.59C1001.01 661.288 997.846 661.008 994.814 660.934L893.383 660.395Z"/>
		<path fill="#002D33" transform="scale(0.292969 0.292969)" d="M985.584 627.184C994.086 623.815 999.188 621.843 1008.57 622.037L1008.48 636.871L1002.07 636.973Q981.017 636.575 959.962 636.804Q972.661 631.695 985.584 627.184Z"/>
		<path fill="#002D33" transform="scale(0.292969 0.292969)" d="M872.709 598.458L947.235 598.57C956.282 598.57 975.511 597.407 983.299 599.32L983.123 599.818L981.729 600.045C978.522 600.954 975.118 602.182 971.799 602.487C966.164 603.005 960.338 602.79 954.674 602.815L924.999 602.859C907.908 602.864 890.301 603.783 873.271 602.705C872.427 601.298 872.701 600.079 872.709 598.458Z"/>
		<path fill="#002D33" transform="scale(0.292969 0.292969)" d="M872.857 604.098C886.435 604.821 900.196 604.28 913.793 604.252C922.827 604.233 932.003 604.902 940.998 604.165C943.818 603.934 965.803 603.821 966.909 604.751L963.626 606.142C960.252 607.436 956.555 609.175 952.981 609.682C945.358 610.763 936.47 609.942 928.695 609.928Q911.581 609.944 894.473 609.476C887.477 609.35 880.37 609.48 873.396 608.935C872.658 607.669 872.882 605.566 872.857 604.098Z"/>
		<path fill="#002D33" transform="scale(0.292969 0.292969)" d="M903.144 664.276C913.081 663.61 923.076 664.851 933.015 665.001L984.238 665.358C993.644 665.409 1003.12 665.742 1012.51 665.52C1012.55 668.594 1013.22 672.839 1011.05 675.293C1005.93 676.042 983.797 672.568 977.722 671.694C974.322 671.204 970.501 670.236 967.082 670.439C962.34 668.912 956.082 668.963 951.056 668.504C935.762 667.107 918.027 666.715 903.144 664.276Z"/>
		<path fill="#002D33" transform="scale(0.292969 0.292969)" d="M873.95 717.092C883.082 716.275 892.337 716.211 901.499 715.882L933.73 714.433C953.099 713.618 972.451 712.05 991.834 711.576C995.113 711.496 1003.71 710.496 1006.42 712.029C1006.63 713.431 1006.18 714.118 1005.66 715.421C1006.16 716.17 1005.86 715.821 1006.76 716.557C1007.01 716.755 1007.26 716.948 1007.5 717.143L1007.52 717.974C1006.1 718.833 1004.72 718.903 1003.1 718.96C991.785 719.354 980.346 718.796 969 719.073C951.84 719.491 934.689 720.717 917.527 721.035C908.395 720.654 884.264 719.988 877.238 723.74C877.11 723.808 876.969 723.852 876.834 723.908L876.315 724.069C875.605 724.022 875.155 723.883 874.489 723.656C873.522 721.696 873.896 719.233 873.95 717.092Z"/>
		<path fill="#002D33" transform="scale(0.292969 0.292969)" d="M918.481 651.834C927.25 649.272 935.922 645.795 944.503 642.644C949.12 640.948 953.975 638.702 958.87 638.043C971.931 636.284 989.562 640.461 1002.3 637.928L1003.73 638.315C1005.38 641.593 1004.41 647.967 1004.46 651.632Q981.354 651.359 958.247 651.435C948.029 651.407 937.494 650.84 927.325 651.817L918.481 651.834Z"/>
		<path fill="#002D33" transform="scale(0.292969 0.292969)" d="M1010.58 723.48C1012.19 723.49 1013.15 723.124 1014.34 724.27C1014.59 726.656 1014.95 729.561 1013.71 731.722C1011.47 732.884 1009.04 732.971 1006.55 733.016C996.097 733.206 985.591 732.725 975.136 732.554L926.137 732.051C918.553 731.987 878.806 732.739 874.795 731.501C874.283 731.343 874.183 731.219 873.815 730.925C873.932 730.096 873.774 729.98 874.488 729.403C875.317 728.733 875.884 728.503 876.954 728.395C885.541 727.535 897.468 728.377 906.455 728.296Q947.379 727.984 988.303 728.35C992.615 728.355 1008.73 729.259 1011.3 728.043C1010.61 727.109 1010.05 726.67 1008.84 726.529C1005.58 726.151 1001.7 726.585 998.37 726.636Q987.714 726.819 977.057 726.788C953.244 726.8 929.436 726.349 905.624 726.655C897.318 726.761 881.363 727.974 874.439 726.821L874.357 726.18C875.276 725.659 875.766 725.578 876.788 725.42C890.765 725.793 905.082 725.042 919.071 724.754C935.484 724.416 951.92 724.442 968.325 723.973C973.06 724.613 978.561 724.107 983.359 724.061C992.41 723.974 1001.55 724.126 1010.58 723.48Z"/>
		<path fill="#002D33" transform="scale(0.292969 0.292969)" d="M866.781 690.427C879.305 690.275 897.469 693.298 910.686 694.526Q958.464 698.819 1006.18 703.756C1006.34 705.503 1006.69 707.202 1005.97 708.859C1004.39 710.024 1001.81 709.73 999.908 709.781C987.6 710.621 975.109 710.702 962.763 711.372C930.859 713.104 898.72 714.998 866.771 715.446C866.146 707.44 865.975 698.403 866.781 690.427Z"/>
		<path fill="#FDFEFD" transform="scale(0.292969 0.292969)" d="M726.279 732.502Q781.065 731.888 835.854 732.024C841.839 732.018 863.784 731.128 867.952 732.213C866.195 738.745 867.325 747.792 867.369 754.591C864.454 755.724 764.151 755.562 756.03 755.265C751.96 754.556 730.574 736.555 726.279 732.502Z"/>
		<path fill="#002D33" transform="scale(0.292969 0.292969)" d="M878.015 666.493C880.513 665.343 882.773 664.891 885.515 664.807C896.679 664.462 908.332 666.395 919.454 667.403C934.985 668.811 950.678 669.624 966.124 671.817Q986.143 674.332 1006.2 676.512Q1006.03 689.296 1006.02 702.082C994.839 701.639 983.48 699.997 972.33 698.869Q944.099 695.925 915.826 693.418C904.728 692.356 893.596 690.969 882.466 690.355C882.54 685.881 883.669 671.116 882.169 667.98C880.635 666.964 879.74 667.172 877.928 667.13L878.015 666.493Z"/>
		<path fill="#FDFEFD" transform="scale(0.292969 0.292969)" d="M619.487 462.471L770.351 462.61C795.379 462.615 820.524 462.048 845.536 462.62Q887.704 463.029 929.874 462.884C942.875 462.862 956.049 462.269 969.028 462.685C975.665 462.889 993.842 468.435 999.642 471.593C987.336 471.031 974.739 471.64 962.406 471.645L875.051 471.811L610.25 471.758C612.928 468.383 616.232 465.29 619.487 462.471Z"/>
		<path fill="#002D33" transform="scale(0.292969 0.292969)" d="M868.836 642.752C884.05 635.749 900.204 630.776 915.969 625.213C931.177 619.847 946.134 613.736 961.293 608.219C975.973 602.876 990.618 598.257 1005.02 592.102L1005.03 618.954C998.414 620.6 991.952 623.244 985.545 625.581C971.955 630.407 958.628 635.918 945.118 640.953C929.409 646.809 913.478 651.994 897.679 657.59C890.68 660.069 883.851 663.004 876.859 665.494C875.682 665.726 874.91 665.892 873.711 665.646C871.334 658.438 870.503 650.218 868.836 642.752Z"/>
		<path fill="#00A395" transform="scale(0.292969 0.292969)" d="M0 102.807L144.479 172.015Q160.47 179.607 176.551 187.007C182.61 189.815 192.27 193.22 197.296 197.418C199.809 199.518 226.012 241.227 230.699 248.156C238.079 259.065 245.956 269.69 253.73 280.321Q284.106 321.643 317.111 360.898Q350.116 400.152 385.609 437.172L408.109 460.75C412.901 465.764 417.645 471.058 422.862 475.629C392.995 486.16 362.782 495.598 332.84 505.878C289.626 520.714 246.352 536.645 204.05 553.895C161.168 571.382 119.996 591.995 78.4159 612.274Q53.4392 625.614 28.6562 639.311C20.4619 643.929 8.5181 652.2 0 655.031L0 630.743L0 102.807Z"/>
		<path fill="#002D33" transform="scale(0.292969 0.292969)" d="M0 630.743C8.16415 626.939 16.8568 623.911 25.2734 620.712L73.9959 602.565L78.4159 612.274Q53.4392 625.614 28.6562 639.311C20.4619 643.929 8.5181 652.2 0 655.031L0 630.743Z"/>
		<path fill="#FDFEFD" transform="scale(0.292969 0.292969)" d="M141.846 427.728C158.429 427.141 175.183 427.48 191.782 427.461C205.246 427.446 218.901 426.966 232.343 427.654C233.256 437.503 233.563 525.029 232.058 530.953C211.828 531.541 191.464 531.099 171.217 531.103C163.786 531.104 150.23 532.122 143.536 530.773C142.218 530.507 141.903 530.076 141.155 529.009C140.563 523.92 140.876 518.511 140.882 513.385L140.93 486.337L141.003 449C141.008 442.873 140.691 436.605 141.009 430.497C141.077 429.189 141.141 428.789 141.846 427.728Z"/>
		<path fill="#00A395" transform="scale(0.292969 0.292969)" d="M149.342 434.555L223.893 434.576L223.95 485.99C223.971 498.125 224.253 510.346 223.808 522.471C214.772 522.919 205.586 522.698 196.538 522.719L149.509 522.909C148.901 493.493 149.359 463.982 149.342 434.555Z"/>
		<path fill="#FDFEFD" transform="scale(0.292969 0.292969)" d="M107.625 307.5Q159.412 308.465 211.206 307.946C221.128 307.924 231.175 307.31 241.066 307.499C242.477 307.525 243.943 307.615 245.229 308.243C245.923 308.582 245.958 308.959 246.133 309.656C247.541 315.282 246.402 343.978 246.376 351.771C246.323 367.093 247.008 382.586 246.451 397.883C246.386 399.664 246.448 400.679 245.487 402.171L150.411 402.377C137.678 402.404 124.701 403.025 111.992 402.57C110.281 402.509 108.844 402.349 107.34 401.511C106.416 400.616 106.296 399.744 106.161 398.513C105.645 393.831 105.989 388.824 106.007 384.115L106.089 357.747L105.966 327.741C105.939 322.158 105.615 316.377 106.099 310.82C106.226 309.351 106.706 308.626 107.625 307.5Z"/>
		<path fill="#0876A5" transform="scale(0.292969 0.292969)" d="M115.017 315.681C155.912 316.153 196.829 315.376 237.73 315.672C238.582 324.876 237.986 334.629 237.992 343.878L237.943 394.325C197.045 393.477 155.934 394.223 115.028 394.707L115.017 315.681Z"/>
		<path fill="#0876A5" transform="scale(0.292969 0.292969)" d="M377.064 684.952L539.748 685.349C566.745 685.367 593.782 684.799 620.769 685.559C629.647 699.879 637.878 714.713 646.335 729.294C645.774 729.866 646.055 729.759 645.642 729.87L644.546 732.484C650.604 731.883 656.957 732.334 663.041 732.465C668.44 738.579 675.364 747.944 679.202 755.027C683.896 762.968 689.851 770.522 695.435 777.863L715.912 804.515C721.365 811.472 729.072 819.247 732.503 827.347C734.665 829.386 738.788 828.643 741.585 828.609C740.08 825.348 738.047 822.187 736.278 819.053C735.088 817.674 734.092 815.889 733.056 814.375L733.85 814.05Q733.882 809.033 734.04 804.018C733.286 804.035 732.519 803.983 731.767 803.958C730.706 802.582 730.666 801.077 730.771 799.377C730.917 797.004 730.953 794.632 731.004 792.255C744.875 793.562 759.677 792.321 773.541 791.463C778.276 791.171 783.036 791.289 787.764 790.904C789.754 790.741 790.217 790.273 791.501 788.761L791.843 789.036C803.836 796.43 815.29 805.076 826.792 813.224Q852.641 831.694 879.062 849.336L881.728 850.821C927.124 880.242 973.604 910.257 1024 930.536L1024 1024L0 1024L0 951.049L0 944.612L0 922.603L0 867.507L0 852.997C16.6303 852.868 33.232 852.665 49.8644 852.853C56.8757 852.932 65.3053 852.302 72.1465 853.879C62.9992 857.988 45.6833 861.718 38.5346 867.284C42.7278 869.313 51.1587 867.473 55.683 866.817C58.5192 865.361 62.9063 864.717 66.0456 863.636Q78.4043 859.327 90.5667 854.491C97.602 851.268 105.006 848.714 112.198 845.848Q125.255 840.55 138.05 834.649Q155.354 826.705 172.449 818.323C179.576 814.787 186.616 810.79 193.918 807.646C198.825 804.363 204.486 801.842 209.662 798.944C218.73 793.867 227.683 788.379 236.966 783.713C239.676 780.871 244.61 778.693 248.044 776.653C265.329 766.389 282.242 755.233 298.867 743.928C305.319 739.541 311.467 734.182 318.144 730.219L373.63 687.313L377.064 684.952Z"/>
		<path fill="#FDFEFD" transform="scale(0.292969 0.292969)" d="M870.019 896.871C872.833 895.067 876.064 895.122 879.316 895.138L880.202 895.822L880.471 897.985L879.722 898.929C879.046 899.099 870.937 897.319 870.019 896.871Z"/>
		<path fill="#002D33" transform="scale(0.292969 0.292969)" d="M59.049 868.274C60.1482 868.318 60.9833 868.261 61.9574 868.832L61.7846 922.827C60.9215 922.717 60.155 922.543 59.3146 922.328C58.3313 916.585 59.0558 909.669 59.0719 903.805L59.049 868.274Z"/>
		<path fill="#002D33" transform="scale(0.292969 0.292969)" d="M29.5499 868.933C30.6549 868.697 31.7141 868.452 32.8498 868.426C30.9029 876.686 34.203 919.512 31.7175 922.536L30.2477 922.506C30.016 922.264 29.6926 922.084 29.5526 921.78C29.1793 920.967 29.6576 874.799 29.5499 868.933Z"/>
		<path fill="#002D33" transform="scale(0.292969 0.292969)" d="M19.7267 869.884L18.2801 867.183L18.5793 866.686L22.9955 867.987C22.5105 880.629 22.8198 893.38 22.8292 906.035C22.8325 910.447 23.4297 915.517 22.9449 919.861C22.829 920.9 22.6172 921.658 21.8675 922.4L20.7592 922.554C19.3388 920.196 20.3731 877.17 19.7267 869.884Z"/>
		<path fill="#010000" transform="scale(0.292969 0.292969)" d="M480.064 925.398C479.435 926.294 478.908 926.82 477.887 927.275C473.9 929.052 439.369 927.318 434.881 925.79C434.181 925.053 433.637 924.53 433.398 923.494C432.929 921.455 434.031 918.097 435.43 916.616C436.769 915.199 438.519 915.121 440.315 915.16C442.672 915.331 445.068 915.615 447.43 915.485C448.689 916.239 449.34 916.645 450.139 917.928C449.84 917.998 449.543 918.073 449.244 918.139C445.136 919.044 439.13 917.185 435.767 920.006C435.194 921.375 435.303 921.694 435.528 923.183C437.529 925.239 448.619 924.958 451.749 925.003L452.408 925.009C460.466 925.006 470.791 926.4 478.525 924.98L480.064 925.398Z"/>
		<path fill="#002D33" transform="scale(0.292969 0.292969)" d="M24.6583 868.699C25.8637 868.8 27.2436 868.517 27.9188 869.695C28.0256 869.881 28.0127 870.114 28.0596 870.324C27.4031 875.622 27.7542 881.352 27.7537 886.704C27.7524 898.537 27.9989 910.409 27.7036 922.235C26.7126 922.64 26.6833 922.619 25.6462 922.336C24.8623 921.226 24.6483 920.318 24.5653 918.989C24.282 914.453 24.7673 909.605 24.7565 905.023L24.6583 868.699Z"/>
		<path fill="#FDFEFD" transform="scale(0.292969 0.292969)" d="M481.76 947.071C494.713 949.167 508.17 951.699 520.866 954.977C523.213 955.582 525.811 956.014 527.088 958.208C527.013 959.587 526.379 960.346 525.613 961.426C512.884 958.696 500.067 956.272 487.357 953.499C484.86 952.954 481.518 952.575 480.083 950.327C480.172 948.818 480.831 948.164 481.76 947.071Z"/>
		<path fill="#002D33" transform="scale(0.292969 0.292969)" d="M879.062 849.336L881.728 850.821C867.745 859.081 847.358 867.697 832.18 874.151C825.936 876.806 819.062 879.04 813.082 882.184C811.802 882.856 811.57 883.136 810.889 884.356C810.765 882.942 810.564 881.782 811.18 880.447C824.836 873.261 839.181 867.327 853.237 860.981C861.789 857.119 870.213 852.445 879.062 849.336Z"/>
		<path fill="#002D33" transform="scale(0.292969 0.292969)" d="M408.696 862.231C414.427 864.433 457.69 890.756 460.536 894.969C460.453 896.371 460.141 896.386 459.271 897.418C458.833 897.331 458.394 897.246 457.963 897.13C455.406 896.441 453.001 895.26 450.682 894.003C445.778 891.345 408.12 869.169 406.585 866.562C406.722 864.895 407.808 863.596 408.696 862.231Z"/>
		<path fill="#002D33" transform="scale(0.292969 0.292969)" d="M774.584 964.526C779.006 964.313 822.222 970.4 824.872 971.789C826.086 972.426 826.6 973.233 826.993 974.525C826.93 976.146 826.454 976.811 825.525 978.05C822.316 978.113 777.089 972.024 774.735 970.998C774.049 970.699 773.676 970.321 773.483 969.616C772.96 967.706 773.674 966.167 774.584 964.526Z"/>
		<path fill="#F7BC86" transform="scale(0.292969 0.292969)" d="M286.775 906.075C288.536 905.908 289.912 905.591 291.388 906.833C292.465 907.74 292.454 908.043 292.437 909.334C291.336 910.91 289.871 911.703 288.116 912.405C281.258 915.15 273.053 916.26 265.862 918.118C255.563 920.778 245.427 923.953 235.059 926.427C234.143 926.584 233.177 926.791 232.248 926.82C230.965 926.859 230.455 926.544 229.546 925.705C229.228 924.407 229.067 923.824 229.69 922.534C230.162 921.557 231.023 921.078 231.983 920.707C236.253 919.055 241.233 918.31 245.666 917.088L286.775 906.075Z"/>
		<path fill="#FDFEFD" transform="scale(0.292969 0.292969)" d="M966.828 964.594C967.324 964.529 968.26 964.33 968.787 964.416C969.878 964.595 971.009 965.485 971.466 966.501C971.961 967.603 971.745 968.022 971.325 969.037C967.494 972.602 924.713 983.473 916.322 985.732C915.575 985.803 914.798 985.779 914.046 985.798C912.763 985.083 912.238 984.724 911.456 983.416C911.473 982.672 911.349 982.296 911.813 981.653C912.884 980.172 914.759 979.286 916.414 978.62C923.214 975.881 930.918 974.35 938.012 972.451C947.635 969.875 957.166 967.042 966.828 964.594Z"/>
		<path fill="#FDFEFD" transform="scale(0.292969 0.292969)" d="M260.722 954.393C261.008 954.397 261.294 954.396 261.579 954.405C265.626 954.54 324.87 968.509 326.654 969.623C327.078 969.887 327.34 970.348 327.684 970.711C328.046 972.363 327.297 973.609 326.653 975.087C325.774 975.11 324.932 975.086 324.058 974.977C319.082 974.357 262.078 960.892 260.357 959.427C259.986 959.111 259.765 958.654 259.47 958.267C259.359 956.663 259.973 955.738 260.722 954.393Z"/>
		<path fill="#002D33" transform="scale(0.292969 0.292969)" d="M131.119 877.377C146.553 881.033 162.147 884.099 177.666 887.369C183.726 888.646 192.511 889.564 197.995 892.11C199.287 892.71 199.336 892.951 199.808 894.197C199.709 895.974 198.775 897.314 197.921 898.823C193.193 898.513 133.488 884.984 131.077 883.668C129.858 883.003 129.767 882.455 129.276 881.239C129.504 879.561 130.115 878.716 131.119 877.377Z"/>
		<path fill="#FDFEFD" transform="scale(0.292969 0.292969)" d="M644.546 732.484C650.604 731.883 656.957 732.334 663.041 732.465C668.44 738.579 675.364 747.944 679.202 755.027L644.564 754.753C644.356 747.348 644.537 739.895 644.546 732.484Z"/>
		<path fill="#00A395" transform="scale(0.292969 0.292969)" d="M854.555 918.775L854.936 918.34C854.595 914.6 855.243 910.669 855.377 906.903L854.236 906.333C853.528 905.219 853.74 905.306 853.924 904.084C857.141 900.811 859.394 896.601 862.788 893.537C864.495 894.05 864.362 895.654 865.864 896.426L867.144 895.568C868.511 895.57 868.929 896.125 870.019 896.871C870.937 897.319 879.046 899.099 879.722 898.929L880.471 897.985C883.025 899.005 887.149 902.113 888.139 904.776C888.456 905.627 888.44 906.149 888.323 907.024C887.668 907.805 887.268 908.018 886.303 908.335C885.433 911.492 886.021 915.446 886.073 918.728C882.483 918.677 859.626 918.098 858.534 919.318C858.367 919.505 858.287 919.753 858.164 919.97C857.925 919.797 857.689 919.619 857.446 919.451C856.442 918.759 855.741 918.781 854.555 918.775Z"/>
		<path fill="#010000" transform="scale(0.292969 0.292969)" d="M928.192 923.613C930.474 924.632 932.007 926.437 932.955 928.74C934.454 932.382 934.042 936.963 932.426 940.5C931.06 943.488 928.561 946.141 925.415 947.242C919.698 949.243 906.561 947.931 899.954 947.999C898.857 950.97 897.723 953.468 894.649 954.786C892.823 955.569 890.927 955.545 889.135 954.673C886.075 953.185 884.781 950.559 883.711 947.497C875.685 947.496 848.886 946.389 843.061 948.189C841.414 950.934 840.511 954.257 837.128 955.256C835.261 955.807 832.522 955.217 830.967 954.093C828.584 952.369 827.599 949.729 827.063 946.957C820.092 947.156 805.004 949.512 799.614 944.602C798.786 943.847 798.195 942.764 797.625 941.81C804.655 947.626 817.717 945.553 826.296 945.232C827.619 941.99 829.1 938.662 832.55 937.209C834.084 936.563 835.596 936.595 837.105 937.27C840.554 938.814 841.503 942.186 842.705 945.444C856.272 945.638 869.866 945.444 883.435 945.442C883.809 944.548 884.196 943.309 884.772 942.541C885.666 941.351 886.432 941.378 887.789 941.119L887.003 940.613L886.843 939.968C886.939 939.815 887.017 939.65 887.13 939.51C888.52 937.785 891.848 937.514 893.924 937.13C896.809 939.895 898.547 941.832 899.767 945.76C908.277 945.333 922.205 948.241 929.158 943.016C931.291 941.413 932.722 939.176 933.01 936.501C933.546 931.53 931.079 927.369 928.192 923.613Z"/>
		<path fill="#FDFEFD" transform="scale(0.292969 0.292969)" d="M887.003 940.613C889.214 939.556 891.786 938.398 894.276 939.267C896.119 939.909 897.301 941.121 898.006 942.914C898.936 945.279 898.794 948.124 897.632 950.383C896.797 952.006 895.47 953.259 893.689 953.759C891.967 954.242 889.706 953.563 888.298 952.54C886.625 951.324 885.697 949.104 885.516 947.096C885.364 945.411 885.604 943.841 886.854 942.593C887.467 941.981 887.489 942.058 888.271 941.719L887.789 941.119L887.003 940.613Z"/>
		<path fill="#FDFEFD" transform="scale(0.292969 0.292969)" d="M832.355 938.088C833.584 938.009 835.028 937.823 836.228 938.143C838.174 938.661 839.902 940.492 840.731 942.265C841.773 944.494 841.705 947.098 840.771 949.351C839.693 951.954 838.062 952.81 835.536 953.81C833.523 953.3 831.627 952.324 830.41 950.587C828.994 948.567 828.792 946.342 829.113 943.97C829.135 943.813 829.16 943.658 829.183 943.502L829.086 943.596C829.243 940.818 830.432 939.88 832.355 938.088Z"/>
		<path fill="#002D33" transform="scale(0.292969 0.292969)" d="M0 944.612C23.2861 942.067 46.6782 939.736 70.008 937.653C77.2756 937.004 87.445 935.302 94.3476 935.194C95.2336 935.18 95.9229 935.393 96.6736 935.865C97.7355 936.533 98.4235 937.596 98.6142 938.812C97.8561 940.247 97.0429 940.819 95.4849 941.32C88.8651 943.448 80.0108 943.317 73.0298 944.117Q47.0051 947.323 20.8722 949.479C13.977 950.052 6.91088 950.937 0 951.049L0 944.612Z"/>
		<path fill="#002D33" transform="scale(0.292969 0.292969)" d="M98.23 994.566C103.512 994.41 109.296 995.53 114.569 996.138L147.407 1000.1L249.765 1011.7C254.612 1012.25 269.854 1013.04 273.403 1014.53C274.716 1015.09 274.905 1015.59 275.401 1016.87C275.212 1018.19 275.03 1019.03 274.393 1020.22C262.661 1019.8 250.789 1017.63 239.145 1016.09C224.737 1014.18 210.29 1012.63 195.862 1010.88C164.952 1007.12 133.695 1004.93 102.905 1000.39C100.458 1000.03 98.7177 999.989 97.1593 997.894C96.9986 996.439 97.5047 995.747 98.23 994.566Z"/>
		<path fill="#002D33" transform="scale(0.292969 0.292969)" d="M0 867.507C3.14559 867.497 15.7219 866.786 17.4226 868.665C17.5943 868.855 18.1314 869.767 18.2807 870.015C18.9648 887.512 18.0164 905.052 18.6007 922.541L0 922.603L0 867.507Z"/>
		<path fill="#002D33" transform="scale(0.292969 0.292969)" d="M38.5346 867.284C42.7278 869.313 51.1587 867.473 55.683 866.817L52.7016 868.008L52.7677 868.405L57.032 868.857C57.8838 874.302 57.3138 880.451 57.2845 885.979C57.2197 898.194 56.938 910.397 56.9922 922.614L51.1568 922.59L51.1869 888.405C51.1903 882.14 51.5141 875.662 51.0579 869.418L50.3061 869.881C47.8972 874.549 50.0492 913.367 49.302 922.439L48.2067 922.7C45.899 920.068 47.9394 878.434 47.1891 871.119C47.0431 869.696 46.9608 869.641 45.9183 868.756C44.3856 872.438 45.4256 914.841 45.4305 922.811C41.6855 922.83 37.9102 922.943 34.1713 922.72C34.2118 905.517 35.1127 887.78 34.0303 870.621C34.0313 869.742 34.1059 869.217 34.4606 868.41C35.7969 867.839 37.1203 867.573 38.5346 867.284Z"/>
		<path fill="#010000" transform="scale(0.292969 0.292969)" d="M537.098 886.942C540.464 882.842 544.206 880.582 549.575 880.06C554.097 879.62 558.109 880.737 562.277 882.361C564.139 888.229 566.369 893.11 569.685 898.303C571.264 900.775 573.911 903.175 574.805 905.951C575.438 907.918 574.918 909.989 573.951 911.752C571.296 916.592 564.074 921.349 558.721 922.653C557.438 922.965 556.422 923.012 555.251 922.326C554.98 921.657 554.688 920.991 554.452 920.309L553.891 918.854C552.061 917.316 539.644 916.722 536.436 916.302C527.127 916.616 520.049 918.883 511.503 922.414C509.737 921.795 507.879 920.922 505.983 921.036C505.183 920.931 505.004 920.816 504.354 920.389L503.904 918.18C506.188 919.313 508.543 920.144 510.941 920.994C517.62 917.371 523.785 914.43 531.39 913.588C537.217 913.557 542.816 914.411 548.544 915.408C548.315 913.3 548.17 911.199 548.053 909.082C547.664 906.27 548.221 905.924 546.461 903.48C543.744 899.706 540.327 900.158 536.186 899.335C525.845 897.281 533.065 891.434 530.272 887.843C527.869 884.753 519.308 885.832 515.631 885.424C513.905 885.232 512.856 884.829 511.748 883.422C511.533 882.293 511.503 881.765 511.913 880.685C512.2 881.923 512.159 882.267 513.344 882.945C515.674 884.28 527.457 884.971 532.755 887.188C532.491 890.664 531.534 894.318 533.906 897.199C535.239 897.751 535.436 897.797 536.856 897.572L537.683 896.693C537.62 895.272 537.462 893.95 537.217 892.549C536.88 890.616 536.964 888.887 537.098 886.942Z"/>
		<path fill="#D3E7BC" transform="scale(0.292969 0.292969)" d="M565.401 900.178C568.121 900.52 570.887 902.285 572.409 904.624C572.84 905.286 572.836 905.392 573.044 906.044L572.641 906.914C571.228 907.33 570.204 907.174 568.788 906.962C568.566 905.689 567.97 904.834 567.286 903.773C566.156 902.378 565.725 901.988 565.401 900.178Z"/>
		<path fill="#E75215" transform="scale(0.292969 0.292969)" d="M554.452 920.309C555.573 918.009 559.511 917.308 561.955 916.472C564.501 915.601 566.836 914.875 569.553 914.786L569.984 915.338C566.839 917.999 561.512 922.033 557.242 921.93C555.911 921.898 555.309 921.218 554.452 920.309Z"/>
		<path fill="#F7BC86" transform="scale(0.292969 0.292969)" d="M539.445 892.679C538.874 892.084 538.31 891.569 538.094 890.739C537.773 889.511 538.161 888.202 538.875 887.191C541.415 883.588 547.105 881.807 551.248 881.194C553.324 880.886 555.288 880.821 557.053 882.105C553.649 885.298 546.559 884.525 541.527 890.313C540.863 891.15 540.253 891.974 539.445 892.679Z"/>
		<path fill="#FD7F3F" transform="scale(0.292969 0.292969)" d="M555.517 901.676C558.542 900.25 562.103 899.837 565.401 900.178C565.725 901.988 566.156 902.378 567.286 903.773C567.97 904.834 568.566 905.689 568.788 906.962C567.394 907.335 566.361 907.658 565.16 908.512C563.96 909.323 563.757 909.321 562.298 909.364L562.254 910.249C562.207 911.079 562.07 911.724 561.773 912.508L560.584 913.532L559.27 912.665C556.51 913.477 554.872 915.708 551.999 916.325C550.858 915.924 549.721 915.677 548.544 915.408C548.315 913.3 548.17 911.199 548.053 909.082C548.797 908.935 548.998 908.548 549.534 908.034L549.758 906.614C550.398 906 551.023 905.499 551.766 905.02L552.568 904.51L552.753 903.532L552.873 902.959C553.703 904.795 555.27 905.972 556.742 907.291C556.087 905.513 554.825 903.459 555.517 901.676Z"/>
		<path fill="#F7BC86" transform="scale(0.292969 0.292969)" d="M555.517 901.676C558.542 900.25 562.103 899.837 565.401 900.178C565.725 901.988 566.156 902.378 567.286 903.773C563.527 901.431 559.006 904.05 555.517 901.676Z"/>
		<path fill="#002D33" transform="scale(0.292969 0.292969)" d="M549.534 908.034C551.456 910.902 551.924 912.908 551.999 916.325C550.858 915.924 549.721 915.677 548.544 915.408C548.315 913.3 548.17 911.199 548.053 909.082C548.797 908.935 548.998 908.548 549.534 908.034Z"/>
		<path fill="#FDFEFD" transform="scale(0.292969 0.292969)" d="M541.527 890.313C542.758 891.206 544.097 892.303 545.713 892.219C547.849 892.107 556.858 889.498 558.093 888.083C558.488 887.631 558.372 887.151 558.399 886.589L557.714 885.79C556.172 885.857 554.474 886.338 553.058 885.775C555.38 884.3 558.232 883.972 560.894 883.423Q562.184 886.78 563.42 890.158C561.705 890.1 559.891 889.867 558.24 890.347L560.402 891.392L560.299 891.993C556.429 893.566 552.878 892.08 548.823 893.23L550.212 894.257C550.419 894.202 550.625 894.141 550.833 894.093C551.779 893.875 552.635 894.043 553.584 894.147C557.838 894.613 560.456 893.542 563.972 891.386C565.788 894.071 567.581 896.735 569.19 899.551C564.784 898.317 559.68 897.649 555.493 900.009C554.172 900.754 553.297 901.453 552.873 902.959L552.753 903.532C551.551 903.775 550.551 903.888 549.325 903.835C546.139 902.143 541.191 899.431 539.641 896.064L540.188 895.661C542.879 896.112 544.987 897.591 547.481 898.577C549.82 899.502 552.484 899.211 554.699 898.066C555.799 897.497 556.84 896.837 557.273 895.632C557.052 895.659 556.821 895.645 556.608 895.713C553.755 896.615 551.888 897.729 548.707 897.368C548.545 897.35 548.385 897.325 548.224 897.304C545.355 896.244 542.94 894.47 540.01 893.447L539.318 893.213L539.445 892.679C540.253 891.974 540.863 891.15 541.527 890.313Z"/>
		<path fill="#002D33" transform="scale(0.292969 0.292969)" d="M471.855 883.288C477.064 877.382 491.956 871.478 499.577 869.728C505.382 876.672 505.633 870.961 511.153 874.846C507.87 874.192 505.029 874.256 501.73 874.659C500.929 873.4 500.324 872.145 498.929 871.47C494.003 871.477 479.055 879.284 474.765 882.286L474.293 883.13C475.345 885.905 482.479 897.392 485.03 898.594C487.941 899.965 491.776 899.881 494.943 900.082C496.26 901.499 497.476 903.481 499.025 904.587C500.47 905.598 503.356 907.226 503.512 909.129C503.728 911.757 501.174 913.488 501.688 916.249C502.412 916.919 503.129 917.57 503.904 918.18L504.354 920.389C505.004 920.816 505.183 920.931 505.983 921.036C500.673 923.746 480.568 924.622 480.49 924.686C480.275 924.86 480.206 925.161 480.064 925.398L478.525 924.98C470.791 926.4 460.466 925.006 452.408 925.009L451.749 925.003C448.619 924.958 437.529 925.239 435.528 923.183C435.303 921.694 435.194 921.375 435.767 920.006C439.13 917.185 445.136 919.044 449.244 918.139C449.543 918.073 449.84 917.998 450.139 917.928C449.34 916.645 448.689 916.239 447.43 915.485C445.068 915.615 442.672 915.331 440.315 915.16C441.414 915.108 442.526 915.173 443.558 914.772L442.52 913.145C441.41 909.878 441.896 906.224 442.071 902.838C455.502 899.82 469.127 898.793 482.869 899.077C479.762 893.456 474.747 889.077 471.855 883.288Z"/>
		<path fill="#010000" transform="scale(0.292969 0.292969)" d="M494.943 900.082C496.26 901.499 497.476 903.481 499.025 904.587L498.582 904.956C497.314 904.291 495.649 904.421 494.243 904.351C493.196 904.023 492.487 903.877 491.386 903.943C488.999 904.086 488.269 903.913 486.399 902.458C488.253 902.188 492.87 902.463 494.026 901.26L494.943 900.082Z"/>
		<path fill="#FDFEFD" transform="scale(0.292969 0.292969)" d="M443.769 910.993L445.342 909.437L444.592 908.349C447.233 907.887 470.801 908.739 474.473 909.161L475.037 909.992C474.326 911.752 474.221 912.632 472.646 913.747C471.074 913.241 470.766 912.535 469.808 911.235C469.207 912.271 469.243 912.613 469.222 913.829C469.195 913.826 469.165 913.831 469.141 913.818C468.381 913.423 467.963 913.185 467.094 913.035C465.481 912.758 463.936 912.242 462.373 911.764C461.698 912.36 461.89 912.153 461.373 912.726C461.268 912.844 461.165 912.963 461.061 913.082C459.347 912.852 458.295 911.587 456.828 910.691L456.003 911.69C452.728 912.804 447.981 912.067 444.509 911.842L443.769 910.993Z"/>
		<path fill="#FDFEFD" transform="scale(0.292969 0.292969)" d="M442.128 903.852C452.541 900.417 483.584 898.375 494.026 901.26C492.87 902.463 488.253 902.188 486.399 902.458C481.988 902.504 477.466 903.461 473.019 903.681C462.785 904.188 452.371 903.988 442.128 903.852Z"/>
		<path fill="#9CF9F4" transform="scale(0.292969 0.292969)" d="M492.939 906.861C495.71 907.117 499.211 907.573 501.699 908.868C502.031 910.671 500.6 912.705 499.783 914.283C499.883 915.106 499.991 915.885 500.168 916.696C496.099 916.221 491.871 916.417 487.76 916.087L486.079 916.154C482.151 916.021 478.286 915.669 474.379 915.244C474.521 913.465 475.134 911.876 475.706 910.196C477.119 908.58 480.361 908.251 482.41 907.752C485.725 906.74 489.491 906.941 492.939 906.861Z"/>
		<path fill="#FDFEFD" transform="scale(0.292969 0.292969)" d="M486.079 916.154L485.741 913.733C486.752 912.496 487.823 912.053 489.446 911.858C491.968 911.554 494.14 912.297 496.279 913.556L496.981 914.633C496.208 915.62 495.51 915.778 494.293 915.918C492.137 916.166 489.934 915.829 487.76 916.087L486.079 916.154Z"/>
		<path fill="#0876A5" transform="scale(0.292969 0.292969)" d="M450.139 917.928C456.868 918.449 463.584 918.731 470.315 919.136C471.12 919.184 470.784 919.234 471.479 918.97C473.474 919.2 475.481 919.329 477.389 919.984C478.077 920.752 478.649 921.405 479.225 922.265C476.009 924.224 463.753 920.566 461.089 922.51C462.791 922.917 464.265 923.103 465.989 923.265C466.361 923.3 466.667 923.382 467.021 923.467C469.896 923.578 476.235 923.09 478.525 924.98C470.791 926.4 460.466 925.006 452.408 925.009L451.749 925.003C448.619 924.958 437.529 925.239 435.528 923.183C435.303 921.694 435.194 921.375 435.767 920.006C439.13 917.185 445.136 919.044 449.244 918.139C449.543 918.073 449.84 917.998 450.139 917.928Z"/>
		<path fill="#E75215" transform="scale(0.292969 0.292969)" d="M494.943 900.082C491.776 899.881 487.941 899.965 485.03 898.594C482.479 897.392 475.345 885.905 474.293 883.13L474.765 882.286C479.055 879.284 494.003 871.477 498.929 871.47C500.324 872.145 500.929 873.4 501.73 874.659C505.029 874.256 507.87 874.192 511.153 874.846C512.024 876.959 512.164 878.433 511.913 880.685C511.503 881.765 511.533 882.293 511.748 883.422C512.856 884.829 513.905 885.232 515.631 885.424C519.308 885.832 527.869 884.753 530.272 887.843C533.065 891.434 525.845 897.281 536.186 899.335C540.327 900.158 543.744 899.706 546.461 903.48C548.221 905.924 547.664 906.27 548.053 909.082C548.17 911.199 548.315 913.3 548.544 915.408C542.816 914.411 537.217 913.557 531.39 913.588C523.785 914.43 517.62 917.371 510.941 920.994C508.543 920.144 506.188 919.313 503.904 918.18C503.129 917.57 502.412 916.919 501.688 916.249C501.174 913.488 503.728 911.757 503.512 909.129C503.356 907.226 500.47 905.598 499.025 904.587C497.476 903.481 496.26 901.499 494.943 900.082Z"/>
		<path fill="#E75215" transform="scale(0.292969 0.292969)" d="M325.987 883.031C335.329 883.023 344.737 882.781 354.069 883.191Q353.807 916.493 353.976 949.795C344.737 949.361 335.27 949.651 326.023 949.806L325.987 883.031Z"/>
		<path fill="#002D33" transform="scale(0.292969 0.292969)" d="M64.282 868.566C74.5062 867.154 85.6218 868.031 95.964 867.953C102.131 872.665 105.306 881.25 106.3 888.753C107.908 900.895 105.494 913.599 98.0347 923.475C87.84 923.471 77.6617 922.887 67.4638 922.845C67.493 916.103 68.5649 872.925 66.7046 870.941C66.0955 870.291 66.3346 870.517 65.4183 870.083C66.1113 872.082 66.3326 918.542 65.7612 922.279C64.5314 922.87 64.6362 922.667 63.3995 922.347C62.53 918.748 63.1212 874.838 63.7404 868.989L64.282 868.566Z"/>
		<path fill="#010000" transform="scale(0.292969 0.292969)" d="M622.662 907.152C624.172 904.808 627.822 902.28 630.575 901.689C634.849 900.772 645.299 900.022 649.126 902.234C650.09 902.791 650.948 903.975 651.662 904.821C655.714 905.895 659.912 903.901 662.434 908.369C665.425 913.669 665.155 923.605 664.991 929.569C655.089 930.588 645.225 931.643 635.597 934.307C632.944 933.153 630.374 932.012 627.875 930.545C624.259 928.163 620.304 926.139 616.539 923.989C616.502 927.511 616.334 930.99 616.068 934.502C608.687 934.246 581.524 932.588 576.237 935.173C575.997 935.29 575.762 935.417 575.525 935.539L574.638 935.104C573.967 930.481 574.378 924.877 574.963 920.243C581.388 914.04 583.776 916.863 589.693 913.908C589.162 912.239 588.333 909.974 588.822 908.223C589.179 906.945 590.089 906.13 591.293 905.68C594.986 904.299 607.269 902.156 610.815 904.094C612.372 904.945 612.378 906.563 612.872 908.06C612.937 908.255 613.007 908.447 613.074 908.641C616.257 908.05 619.458 907.606 622.662 907.152Z"/>
		<path fill="#E75215" transform="scale(0.292969 0.292969)" d="M611.54 924.228C612.868 924.044 613.143 923.909 614.331 924.481C615.282 926.885 614.692 930.281 614.593 932.889C603.385 932.347 592.095 932.628 580.875 932.647C579.56 932.711 578.707 932.837 577.495 932.233C576.15 930.189 576.748 926.834 576.837 924.436C588.236 924.521 600.223 925.355 611.54 924.228Z"/>
		<path fill="#FDFEFD" transform="scale(0.292969 0.292969)" d="M597.154 913.447C595.379 912.151 591.103 910.336 590.236 908.501C592.798 907.014 598.434 908.247 601.49 908.498C603.989 908.703 606.489 909.391 608.418 911.116C608.575 911.257 608.723 911.407 608.875 911.552L609.538 910.647C610.823 909.9 612.064 909.769 613.505 909.494C616.329 908.969 619.864 908.571 622.663 909.395L622.796 910.124C621.943 910.897 621.109 911.649 620.19 912.343C622.018 913.557 622.257 914.592 622.744 916.658C623.116 918.237 623.722 919.139 624.708 920.39L625.07 920.858C628.236 921.129 631.126 921.379 634.28 920.817L634.446 920.537L633.772 920.509C630.493 920.347 626.986 919.666 624.648 917.136C624.012 916.448 623.697 915.771 623.409 914.88C623.627 913.315 624.184 912.027 625.563 911.088C627.777 909.58 633.858 909.76 636.471 910.357L636.42 911.317C636.373 912.28 636.418 913.191 636.515 914.151C637.231 912.918 637.492 911.793 637.789 910.423C638.843 909.684 638.936 909.861 640.234 910.039C640.446 911.223 640.315 911.547 640.063 912.693C639.505 915.216 639.487 917.466 640.963 919.693C642.848 922.538 646.932 923.161 650.051 923.643Q650.881 923.772 651.712 923.889C652.333 922.875 652.147 923.356 652.383 922.496C652.784 921.819 652.502 922.201 653.356 921.453C656.363 920.981 660.959 919.296 663.565 921.096C663.584 921.754 663.771 922.081 663.264 922.595C659.575 926.339 641.43 926.599 635.655 927.627C634.001 926.559 630.161 925.484 629.433 923.661C630.825 923.474 632.316 923.474 633.438 922.552L632.968 922.122C628.293 923.836 626.647 922.058 622.333 920.403C620.892 919.85 619.669 919.619 618.215 920.294L618.174 920.341L617.734 919.265C619.188 919.137 621.111 919.278 622.231 918.365L621.545 917.446C619.494 918.124 617.322 917.937 615.243 918.431C611.352 919.357 607.647 920.908 603.697 921.631C595.313 923.167 585.335 922.105 576.784 921.874C578.044 920.654 579.288 919.423 580.909 918.695C586.904 916.002 616.238 914.843 621.488 916.99L618.75 913.985Q614.29 913.962 609.83 914.011Q603.489 913.794 597.154 913.447Z"/>
		<path fill="#002D33" transform="scale(0.292969 0.292969)" d="M622.662 907.152C624.172 904.808 627.822 902.28 630.575 901.689C634.849 900.772 645.299 900.022 649.126 902.234C650.09 902.791 650.948 903.975 651.662 904.821C655.714 905.895 659.912 903.901 662.434 908.369C665.425 913.669 665.155 923.605 664.991 929.569C655.089 930.588 645.225 931.643 635.597 934.307C632.944 933.153 630.374 932.012 627.875 930.545C628.38 930.475 628.886 930.413 629.388 930.326C630.583 930.118 631.701 929.937 632.427 928.925C630.304 926.531 625.877 927.136 624.329 923.886C628.013 924.084 631.55 927.8 635.019 927.728C635.234 927.724 635.443 927.661 635.655 927.627C641.43 926.599 659.575 926.339 663.264 922.595C663.771 922.081 663.584 921.754 663.565 921.096C660.959 919.296 656.363 920.981 653.356 921.453C652.502 922.201 652.784 921.819 652.383 922.496C652.147 923.356 652.333 922.875 651.712 923.889Q650.881 923.772 650.051 923.643C646.932 923.161 642.848 922.538 640.963 919.693C639.487 917.466 639.505 915.216 640.063 912.693C640.315 911.547 640.446 911.223 640.234 910.039C638.936 909.861 638.843 909.684 637.789 910.423C637.492 911.793 637.231 912.918 636.515 914.151C636.418 913.191 636.373 912.28 636.42 911.317L636.471 910.357C633.858 909.76 627.777 909.58 625.563 911.088C624.184 912.027 623.627 913.315 623.409 914.88C623.697 915.771 624.012 916.448 624.648 917.136C626.986 919.666 630.493 920.347 633.772 920.509L634.446 920.537L634.28 920.817C631.126 921.379 628.236 921.129 625.07 920.858L624.708 920.39C623.722 919.139 623.116 918.237 622.744 916.658C622.257 914.592 622.018 913.557 620.19 912.343C621.109 911.649 621.943 910.897 622.796 910.124L622.663 909.395C619.864 908.571 616.329 908.969 613.505 909.494L613.074 908.641C616.257 908.05 619.458 907.606 622.662 907.152Z"/>
		<path fill="#FDFEFD" transform="scale(0.292969 0.292969)" d="M642.986 908.81L642.212 908.146C637.519 908.351 632.084 907.728 627.516 908.681C626.451 908.903 625.946 909.021 624.877 908.629C624.368 907.387 624.547 907.325 624.995 906.034C626.491 904.996 628.418 906.318 630.297 905.836L629.234 903.981C629.721 903.099 629.73 903.06 630.677 902.814C634.988 901.696 644.682 902.018 648.648 904.24L648.927 905.409C647.393 906.443 645.898 905.938 644.618 907.538L644.528 908.558L642.986 908.81Z"/>
		<path fill="#E75215" transform="scale(0.292969 0.292969)" d="M644.618 907.538C648.982 906.648 656.116 904.638 660.022 907.376C661.691 908.546 662.473 910.315 662.764 912.281C663.052 914.222 663.151 916.652 662.144 918.385C659.347 919.925 656.179 919.911 653.356 921.453C652.502 922.201 652.784 921.819 652.383 922.496C650.53 921.998 648.284 922.034 646.359 921.865C645.292 921.163 644.225 920.442 643.289 919.568C641.71 918.095 640.166 915.458 640.391 913.211C640.583 911.306 641.505 909.877 642.986 908.81L644.528 908.558L644.618 907.538Z"/>
		<path fill="#E75215" transform="scale(0.292969 0.292969)" d="M886.073 918.728C896.243 919.21 917.526 918.829 926.169 922.722L928.192 923.613C931.079 927.369 933.546 931.53 933.01 936.501C932.722 939.176 931.291 941.413 929.158 943.016C922.205 948.241 908.277 945.333 899.767 945.76C898.547 941.832 896.809 939.895 893.924 937.13C891.848 937.514 888.52 937.785 887.13 939.51C887.017 939.65 886.939 939.815 886.843 939.968L887.003 940.613L887.789 941.119C886.432 941.378 885.666 941.351 884.772 942.541C884.196 943.309 883.809 944.548 883.435 945.442C869.866 945.444 856.272 945.638 842.705 945.444C841.503 942.186 840.554 938.814 837.105 937.27C835.596 936.595 834.084 936.563 832.55 937.209C829.1 938.662 827.619 941.99 826.296 945.232C817.717 945.553 804.655 947.626 797.625 941.81C796.082 938.996 794.706 936.241 794.59 932.962C794.461 929.308 796.132 926.645 798.574 924.087C799.981 922.929 801.402 921.925 803.186 921.459C811.723 919.228 822.111 920.086 830.885 919.879C838.773 919.693 846.675 919.161 854.555 918.775C855.741 918.781 856.442 918.759 857.446 919.451C857.689 919.619 857.925 919.797 858.164 919.97C858.287 919.753 858.367 919.505 858.534 919.318C859.626 918.098 882.483 918.677 886.073 918.728Z"/>
		<path fill="#FDFEFD" transform="scale(0.292969 0.292969)" d="M886.073 918.728C896.243 919.21 917.526 918.829 926.169 922.722C915.895 924.392 904.186 923.055 893.749 922.97Q863.14 922.879 832.532 923.184C821.433 923.277 809.565 922.596 798.574 924.087C799.981 922.929 801.402 921.925 803.186 921.459C811.723 919.228 822.111 920.086 830.885 919.879C838.773 919.693 846.675 919.161 854.555 918.775C855.741 918.781 856.442 918.759 857.446 919.451C857.689 919.619 857.925 919.797 858.164 919.97C858.287 919.753 858.367 919.505 858.534 919.318C859.626 918.098 882.483 918.677 886.073 918.728Z"/>
		<path fill="#FDFEFD" transform="scale(0.292969 0.292969)" d="M675.241 941.903C683.763 942.054 692.649 943.493 701.125 944.505Q726.107 947.612 751.037 951.111C747.031 955.118 709.843 988.409 707.692 989.125C707.269 989.266 706.802 989.201 706.357 989.238C698.447 987.385 690.014 986.516 681.964 985.304C664.261 982.638 646.49 980.318 628.842 977.306Q651.428 958.801 675.241 941.903Z"/>
		<path fill="#FDFEFD" transform="scale(0.292969 0.292969)" d="M408.882 966.992C418.663 969.075 428.593 972.43 438.258 975.098C450.727 978.539 463.953 981.444 475.97 986.227C457.998 997.137 438.91 1006.48 421.295 1017.91C419.043 1017.05 416.705 1016.44 414.391 1015.77C408.387 1013.83 402.111 1012.44 396.006 1010.81C378.609 1006.15 360.676 1001.76 343.623 995.997C364.93 985.442 387.49 977.414 408.882 966.992Z"/>
		<path fill="#E75215" transform="scale(0.292969 0.292969)" d="M354.069 883.191C358.803 882.403 363.304 879.062 368.173 878.015C380.362 875.394 391.306 881.307 403.218 882.809C403.439 883.095 403.751 883.33 403.882 883.668C404.654 885.67 404.187 941.795 404.078 949.786Q389.066 949.512 374.053 949.665C368.186 949.679 362.154 949.417 356.309 949.798L353.976 949.795Q353.807 916.492 354.069 883.191Z"/>
		<path fill="#002D33" transform="scale(0.292969 0.292969)" d="M354.069 883.191C358.803 882.403 363.304 879.062 368.173 878.015C380.362 875.394 391.306 881.307 403.218 882.809C394.59 883.129 385.884 882.854 377.251 882.784Q369.925 882.982 362.597 883.01C360.519 883.213 358.435 883.462 356.351 883.583C356.304 905.635 355.939 927.752 356.309 949.798L353.976 949.795Q353.807 916.492 354.069 883.191Z"/>
		<path fill="#0876A5" transform="scale(0.292969 0.292969)" d="M362.597 883.01C368.05 878.832 376.328 878.909 382.935 879.723C384.997 879.977 388.052 880.385 389.548 881.948C387.039 883.425 380.309 882.577 377.251 882.784Q369.925 882.982 362.597 883.01Z"/>
		<path fill="#E75215" transform="scale(0.292969 0.292969)" d="M212.811 932.205C213.388 932.119 214.153 931.95 214.749 931.981C214.86 931.987 216.254 932.135 216.464 932.234C218.818 933.345 225.018 941.283 227.112 943.576C236.814 954.203 247.079 964.207 256.864 974.723C244.056 975.424 231.339 977.733 218.64 979.458C205.923 981.185 192.623 982.39 180.128 985.3L178.779 985.365C171.614 978.984 165.342 970.889 158.637 963.97C151.279 956.376 142.726 949.367 136.147 941.11C161.836 939.323 187.206 934.776 212.811 932.205Z"/>
		<path fill="#010000" transform="scale(0.292969 0.292969)" d="M736.278 819.053C737.594 819.493 738.446 819.721 739.141 821.049C741.462 823.54 742.202 825.239 742.854 828.537C748.865 828.518 775.642 827.578 779.203 829.077L779.573 829.844C779.983 832.734 780.016 835.541 780.026 838.453C783.43 838.479 787.5 837.837 790.108 840.407C790.499 841.504 790.555 842.341 790.558 843.502L800.548 843.706L800.488 864.512C796.483 864.403 792.458 864.208 788.451 864.275L788.441 873.161C796.148 873.255 803.869 873.257 811.573 873.48C811.5 875.764 811.593 878.201 811.18 880.447C810.564 881.782 810.765 882.942 810.889 884.356C811.006 885.89 811.217 887.212 810.582 888.666C805.508 889.862 787.418 888.98 781.447 888.983L746.178 888.991C738.803 888.988 731.27 889.29 723.933 888.506C723.622 884.335 723.741 880.234 723.943 876.061Q711.25 876.146 698.561 875.82C698.565 871.605 697.46 867.089 699.191 863.14C700.411 861.775 701.883 861.666 703.588 861.322C703.638 857.937 702.478 851.842 704.515 849.059L705.962 848.947C712.082 848.117 718.746 848.554 724.943 848.573C724.807 846.861 724.465 845.272 725.372 843.723C726.409 843.055 726.977 842.898 728.209 842.93Q730.856 842.994 733.504 843.008C733.545 838.162 734.26 831.936 732.503 827.347C734.665 829.386 738.788 828.643 741.585 828.609C740.08 825.348 738.047 822.187 736.278 819.053Z"/>
		<path fill="#002D33" transform="scale(0.292969 0.292969)" d="M779.573 829.844C779.983 832.734 780.016 835.541 780.026 838.453C783.43 838.479 787.5 837.837 790.108 840.407C790.499 841.504 790.555 842.341 790.558 843.502L778.147 843.088C779.449 838.537 779.558 834.54 779.573 829.844Z"/>
		<path fill="#E75215" transform="scale(0.292969 0.292969)" d="M788.721 847.609Q767.237 847.316 745.75 847.349C740.261 847.333 734.437 847.854 729.01 847.496C727.841 847.419 726.947 847.282 725.988 846.563L725.837 845.745L726.575 844.777C743.317 843.838 759.984 844.27 776.729 844.587C782.669 844.7 789.106 844.145 794.976 844.715C796.17 844.831 797.064 844.992 798.001 845.79L798.071 846.908C796.85 847.842 795.735 847.558 794.235 847.592L788.721 847.609Z"/>
		<path fill="#002D33" transform="scale(0.292969 0.292969)" d="M788.721 847.609L794.235 847.592C795.562 847.962 797.114 848.157 798.04 849.247L798.283 850.599C793.017 850.955 787.545 850.689 782.253 850.693L750.764 850.728L722.637 850.911C717.075 850.938 711.348 851.242 705.819 850.66C710.077 849.601 715.858 850.412 720.381 849.942L720.436 849.666C715.611 849.201 710.802 849.137 705.962 848.947C712.082 848.117 718.746 848.554 724.943 848.573C746.12 847.332 767.665 849.605 788.721 847.609Z"/>
		<path fill="#FD7F3F" transform="scale(0.292969 0.292969)" d="M734.979 830.162C748.895 830.54 762.86 830.445 776.782 830.566C777.423 834.689 777.52 838.815 777.658 842.978C763.481 842.062 749.162 842.44 734.96 842.505L734.979 830.162Z"/>
		<path fill="#FDFEFD" transform="scale(0.292969 0.292969)" d="M700.953 864.148C729.076 863.474 757.364 864.145 785.498 864.297L785.457 873.194L700.908 873.42C700.83 870.327 700.894 867.241 700.953 864.148Z"/>
		<path fill="#FDFEFD" transform="scale(0.292969 0.292969)" d="M725.995 876.515C753.657 876.69 781.349 876.008 809 876.423C809.016 879.588 809.146 882.755 808.544 885.877C798.622 886.307 788.594 886.066 778.659 886.093L725.995 886.229L725.995 876.515Z"/>
		<path fill="#FDFEFD" transform="scale(0.292969 0.292969)" d="M705.819 850.66C711.348 851.242 717.075 850.938 722.637 850.911L750.764 850.728L782.253 850.693C787.545 850.689 793.017 850.955 798.283 850.599C797.885 853.841 798.088 857.313 798.07 860.587C767.405 860.674 736.508 859.14 705.881 860.483L705.819 850.66Z"/>
		<path fill="#0876A5" transform="scale(0.292969 0.292969)" d="M791.501 788.761L791.843 789.036C803.836 796.43 815.29 805.076 826.792 813.224Q852.641 831.694 879.062 849.336C870.213 852.445 861.789 857.119 853.237 860.981C839.181 867.327 824.836 873.261 811.18 880.447C811.593 878.201 811.5 875.764 811.573 873.48C803.869 873.257 796.148 873.255 788.441 873.161L788.451 864.275C792.458 864.208 796.483 864.403 800.488 864.512L800.548 843.706L790.558 843.502C790.555 842.341 790.499 841.504 790.108 840.407C787.5 837.837 783.43 838.479 780.026 838.453C780.016 835.541 779.983 832.734 779.573 829.844L779.203 829.077C775.642 827.578 748.865 828.518 742.854 828.537C742.202 825.239 741.462 823.54 739.141 821.049C738.446 819.721 737.594 819.493 736.278 819.053C735.088 817.674 734.092 815.889 733.056 814.375L733.85 814.05Q733.882 809.033 734.04 804.018C733.286 804.035 732.519 803.983 731.767 803.958C730.706 802.582 730.666 801.077 730.771 799.377C730.917 797.004 730.953 794.632 731.004 792.255C744.875 793.562 759.677 792.321 773.541 791.463C778.276 791.171 783.036 791.289 787.764 790.904C789.754 790.741 790.217 790.273 791.501 788.761Z"/>
		<path fill="#002D33" transform="scale(0.292969 0.292969)" d="M752.992 813.064C764.755 812.318 776.589 813.122 788.338 812.593C788.526 815.408 788.667 818.238 788.93 821.046C781.493 820.93 743.319 818.999 739.141 821.049C738.446 819.721 737.594 819.493 736.278 819.053C735.088 817.674 734.092 815.889 733.056 814.375L733.85 814.05C733.978 814.084 734.102 814.139 734.233 814.151C737.479 814.455 750.748 814.38 752.992 813.064Z"/>
		<path fill="#010000" transform="scale(0.292969 0.292969)" d="M791.501 788.761L791.843 789.036C792.583 794.229 792.128 799.543 792.959 804.668C784.361 802.204 772.989 803.666 764.078 803.815Q749.81 804.099 735.539 804.005C736.938 806.534 736.699 810.097 736.927 812.946L752.992 813.064C750.748 814.38 737.479 814.455 734.233 814.151C734.102 814.139 733.978 814.084 733.85 814.05Q733.882 809.033 734.04 804.018C733.286 804.035 732.519 803.983 731.767 803.958C730.706 802.582 730.666 801.077 730.771 799.377C730.917 797.004 730.953 794.632 731.004 792.255C744.875 793.562 759.677 792.321 773.541 791.463C778.276 791.171 783.036 791.289 787.764 790.904C789.754 790.741 790.217 790.273 791.501 788.761Z"/>
		<path fill="#E75215" transform="scale(0.292969 0.292969)" d="M784.73 792.678C785.659 792.656 786.809 792.526 787.715 792.695C788.972 792.929 789.599 793.678 790.102 794.806C790.959 796.728 790.235 799.625 789.674 801.599L788.602 802.089L785.124 801.879C783.74 801.134 783.153 799.995 782.762 798.521C782.359 797.004 782.804 794.309 783.572 792.968L784.73 792.678Z"/>
		<path fill="#E75215" transform="scale(0.292969 0.292969)" d="M774.925 792.74L780.532 792.688L780.423 801.999C766.427 802.294 752.377 802.054 738.375 802.071L733.24 802.017L733.503 793.381C747.325 793.296 761.113 793.347 774.925 792.74Z"/>
		<path fill="#002D33" transform="scale(0.292969 0.292969)" d="M637.054 730.016C639.908 729.978 642.794 730.02 645.642 729.87L644.546 732.484C644.537 739.895 644.356 747.348 644.564 754.753L645.5 889.038C636.612 889.107 627.709 889.278 618.825 888.974C617.986 877.407 618.404 865.561 618.335 853.959L255.44 854.273L141.943 854.038L111.263 854.13C104.351 854.139 97.462 853.873 90.5667 854.491C97.602 851.268 105.006 848.714 112.198 845.848Q125.255 840.55 138.05 834.649Q155.354 826.705 172.449 818.323C179.576 814.787 186.616 810.79 193.918 807.646C203.086 809.07 218.955 808.418 228.589 808.118L637.035 807.947L637.054 730.016Z"/>
		<path fill="#00A395" transform="scale(0.292969 0.292969)" d="M377.064 684.952L539.748 685.349C566.745 685.367 593.782 684.799 620.769 685.559C629.647 699.879 637.878 714.713 646.335 729.294C645.774 729.866 646.055 729.759 645.642 729.87C642.794 730.02 639.908 729.978 637.054 730.016L637.035 807.947L228.589 808.118C218.955 808.418 203.086 809.07 193.918 807.646C198.825 804.363 204.486 801.842 209.662 798.944C218.73 793.867 227.683 788.379 236.966 783.713C239.676 780.871 244.61 778.693 248.044 776.653C265.329 766.389 282.242 755.233 298.867 743.928C305.319 739.541 311.467 734.182 318.144 730.219L373.63 687.313L377.064 684.952Z"/>
		<path fill="#002D33" transform="scale(0.292969 0.292969)" d="M492.977 729.982C503.456 723.196 518.688 715.558 530.296 711.002C535.84 715.482 546.877 727.935 552.038 730.264C561.12 738.44 572.098 744.533 582.498 750.839C585.633 752.74 589.274 753.916 592.06 756.327C592.339 757.567 592.252 757.513 591.603 758.626L590.535 758.889C578.795 755.255 555.517 738.535 545.548 729.846C539.392 730.505 532.697 730.043 526.47 730.05C517.708 730.059 508.731 730.445 499.997 729.818C497.48 730.784 495.556 730.647 492.977 729.982Z"/>
		<path fill="#FDFEFD" transform="scale(0.292969 0.292969)" d="M499.997 729.818C509.604 724.48 519.684 720.328 529.454 715.355C535.108 719.544 540.624 724.814 545.548 729.846C539.392 730.505 532.697 730.043 526.47 730.05C517.708 730.059 508.731 730.445 499.997 729.818Z"/>
		<path fill="#FDFEFD" transform="scale(0.292969 0.292969)" d="M377.064 684.952L539.748 685.349C566.745 685.367 593.782 684.799 620.769 685.559C629.647 699.879 637.878 714.713 646.335 729.294C645.774 729.866 646.055 729.759 645.642 729.87C642.794 730.02 639.908 729.978 637.054 730.016L580.97 730.015C571.512 730.017 561.431 729.302 552.038 730.264C546.877 727.935 535.84 715.482 530.296 711.002C518.688 715.558 503.456 723.196 492.977 729.982C483.937 730.587 474.577 730.152 465.502 730.148L414.353 730.12L350.692 730.137C339.867 730.163 328.959 730.649 318.144 730.219L373.63 687.313L377.064 684.952Z"/>
	</g>
</svg>
