<?xml version="1.0" encoding="UTF-8" standalone="no"?>
<!DOCTYPE svg PUBLIC "-//W3C//DTD SVG 1.1//EN" "http://www.w3.org/Graphics/SVG/1.1/DTD/svg11.dtd">
<svg width="100%" height="100%" viewBox="0 0 193 193" version="1.1" xmlns="http://www.w3.org/2000/svg" xmlns:xlink="http://www.w3.org/1999/xlink" xml:space="preserve" xmlns:serif="http://www.serif.com/" style="fill-rule:evenodd;clip-rule:evenodd;">
    <g transform="matrix(3.81684,0,0,3.81684,-0.354993,0.498892)">
        <path d="M50.003,25.152C50.003,38.754 38.977,49.78 25.376,49.78C11.774,49.78 0.748,38.754 0.748,25.152C0.748,11.55 11.774,0.524 25.376,0.524C38.977,0.524 50.003,11.55 50.003,25.152Z" style="fill:rgb(101,186,238);fill-rule:nonzero;stroke:black;stroke-width:1.05px;"/>
    </g>
    <g transform="matrix(3.81684,0,0,3.81684,-0.354993,0.498892)">
        <path d="M14.34,18.815C14.34,19.944 15.256,20.86 16.385,20.86C17.515,20.86 18.431,19.944 18.431,18.815C18.431,17.685 17.515,16.77 16.385,16.77C15.256,16.77 14.34,17.685 14.34,18.815Z" style="fill:rgb(9,12,18);fill-rule:nonzero;"/>
    </g>
    <g transform="matrix(3.81684,0,0,3.81684,-0.354993,0.498892)">
        <path d="M32.441,18.815C32.441,19.944 33.357,20.86 34.487,20.86C35.616,20.86 36.532,19.944 36.532,18.815C36.532,17.685 35.616,16.77 34.487,16.77C33.357,16.77 32.441,17.685 32.441,18.815Z" style="fill:rgb(9,12,18);fill-rule:nonzero;"/>
    </g>
    <g transform="matrix(3.81684,0,0,3.81684,-0.354993,0.498892)">
        <path d="M36.349,32.989C33.547,30.206 29.692,28.492 25.435,28.492C21.177,28.492 17.322,30.211 14.52,32.989" style="fill:none;fill-rule:nonzero;stroke:rgb(9,12,18);stroke-width:1.05px;stroke-linecap:round;stroke-miterlimit:10;"/>
    </g>
</svg>
