<?xml version="1.0" encoding="UTF-8" standalone="no"?>
<!DOCTYPE svg PUBLIC "-//W3C//DTD SVG 1.1//EN" "http://www.w3.org/Graphics/SVG/1.1/DTD/svg11.dtd">
<svg width="100%" height="100%" viewBox="0 0 193 193" version="1.1" xmlns="http://www.w3.org/2000/svg" xmlns:xlink="http://www.w3.org/1999/xlink" xml:space="preserve" xmlns:serif="http://www.serif.com/" style="fill-rule:evenodd;clip-rule:evenodd;">
    <g transform="matrix(3.81679,0,0,3.81679,0.5,0.5)">
        <circle cx="25.152" cy="25.152" r="24.628" style="fill:rgb(255,207,105);stroke:black;stroke-width:1.05px;"/>
    </g>
    <g transform="matrix(3.81679,0,0,3.81679,0.5,0.5)">
        <path d="M14.121,18.813C14.121,19.943 15.036,20.859 16.166,20.859C17.295,20.859 18.211,19.943 18.211,18.813C18.211,17.684 17.295,16.768 16.166,16.768C15.036,16.768 14.121,17.684 14.121,18.813Z" style="fill:rgb(9,12,18);fill-rule:nonzero;"/>
    </g>
    <g transform="matrix(3.81679,0,0,3.81679,0.5,0.5)">
        <path d="M32.228,18.813C32.228,19.943 33.143,20.859 34.273,20.859C35.402,20.859 36.318,19.943 36.318,18.813C36.318,17.684 35.402,16.768 34.273,16.768C33.143,16.768 32.228,17.684 32.228,18.813Z" style="fill:rgb(9,12,18);fill-rule:nonzero;"/>
    </g>
    <g transform="matrix(3.81679,0,0,3.81679,0.5,0.5)">
        <path d="M14.302,28.491C17.104,31.274 20.959,32.989 25.217,32.989C29.474,32.989 33.329,31.269 36.132,28.491" style="fill:none;fill-rule:nonzero;stroke:rgb(9,12,18);stroke-width:1.05px;stroke-linecap:round;stroke-miterlimit:10;"/>
    </g>
</svg>
