<?xml version="1.0" encoding="utf-8" ?>
<svg xmlns="http://www.w3.org/2000/svg" xmlns:xlink="http://www.w3.org/1999/xlink" width="1024" height="1024">
	<path fill="white" d="M0 0L1024 0L1024 1024L0 1024L0 0Z"/>
	<path fill="#3B2B43" d="M389.004 201.671C389.672 200.044 389.589 199.863 391.213 198.99C392.521 198.959 393.848 199.199 394.803 200.197C395.436 200.859 395.807 201.585 396.213 202.39C395.784 202.98 395.325 203.679 394.772 204.157C393.808 204.99 392.978 204.994 391.778 204.95C390.215 204.117 389.789 203.222 389.004 201.671Z"/>
	<path fill="#3B2B43" d="M633.685 161.48C633.138 160.847 632.649 160.146 632.141 159.479C631.965 158.078 631.922 157.977 632.592 156.746C635.019 155.176 637.147 155.297 639.947 155.608C639.876 157.037 640.05 157.451 638.978 158.491C637.649 159.78 635.347 160.644 633.685 161.48Z"/>
	<path fill="#3B2B43" d="M407.475 227.366C412.626 227.288 420.009 226.294 424.81 228.178L425.378 228.93C424.979 229.996 424.908 230.265 423.755 230.733C420.788 231.938 410.904 231.008 407.302 231.081C407.093 229.639 407.146 228.787 407.475 227.366Z"/>
	<path fill="#C5315F" d="M874.955 634.513C876.707 637.809 881.507 650.277 881.113 653.527C881.099 653.642 881.042 653.748 881.007 653.858C879.088 653.522 876.99 653.638 875.037 653.593Q875.097 644.053 874.955 634.513Z"/>
	<path fill="#3B2B43" d="M710.255 199.336L710.847 199.375C716.068 199.687 723.584 198.264 728.292 200.469L728.867 201.284C728.45 202.305 728.769 202.039 727.82 202.493C723.395 204.612 711.418 203.464 706.084 203.422C706.241 202.418 706.455 201.464 706.681 200.473C707.962 199.439 708.648 199.532 710.255 199.336Z"/>
	<path fill="#3B2B43" d="M647.283 199.401Q661.459 199.572 675.635 199.41C679.963 199.392 684.786 199.001 689.06 199.529C690.231 199.674 690.413 199.778 691.296 200.555C690.948 201.812 691.005 202.486 689.947 203.327C663.949 204.573 637.664 202.811 611.615 203.489C611.759 201.77 611.657 200.668 612.918 199.406C624.312 199.522 635.904 199.869 647.283 199.401Z"/>
	<path fill="#3B2B43" d="M328.648 208.855C327.821 201.853 328.229 196.072 332.12 189.931Q332.498 189.33 332.905 188.748Q333.313 188.166 333.749 187.605Q334.184 187.044 334.648 186.506Q335.111 185.967 335.601 185.453Q336.09 184.938 336.605 184.448Q337.119 183.959 337.658 183.495Q338.196 183.032 338.757 182.596Q339.318 182.16 339.899 181.753Q340.481 181.345 341.082 180.967Q341.684 180.589 342.303 180.242Q342.923 179.894 343.559 179.578Q344.195 179.262 344.846 178.977Q345.497 178.693 346.161 178.442Q346.825 178.19 347.501 177.973Q348.177 177.755 348.864 177.571Q349.55 177.387 350.244 177.237Q350.929 177.092 351.62 176.98Q352.311 176.868 353.007 176.79Q353.703 176.713 354.402 176.669Q355.101 176.626 355.801 176.617Q356.501 176.607 357.201 176.633Q357.9 176.658 358.598 176.717Q359.296 176.776 359.99 176.87Q360.684 176.963 361.372 177.091Q362.06 177.218 362.742 177.379Q363.423 177.54 364.096 177.734Q364.769 177.928 365.431 178.155Q366.094 178.382 366.744 178.641Q367.395 178.901 368.031 179.191Q368.668 179.482 369.29 179.803Q369.912 180.125 370.518 180.477Q371.123 180.828 371.711 181.209C379.16 186.103 383.021 193.01 384.768 201.592C383.989 201.576 382.595 201.783 382.005 201.252C380.587 199.976 379.76 196.613 378.968 194.827C374.922 185.702 366.91 180.618 356.984 180.421C350.141 180.285 343.624 182.707 338.78 187.601C334.627 191.798 331.71 197.825 331.725 203.801C331.731 205.957 332.229 208.104 332.677 210.203C328.595 213.587 326.874 216.563 324.889 221.421C323.79 221.062 323.542 220.75 322.752 219.947C322.529 219.266 322.379 218.686 322.472 217.961C322.959 214.174 325.717 211.033 328.648 208.855Z"/>
	<path fill="#3B2B43" d="M661.997 163.324L662.334 162.73C669.538 149.86 671.061 138.38 687.507 133.663C693.425 131.965 699.191 132.301 704.646 135.274C711.342 138.921 715.649 144.572 717.669 151.866C718.496 154.854 719.726 159.961 718.493 162.808C718.179 163.532 717.744 163.474 717.065 163.718C716.378 163.555 715.71 163.452 715.08 163.125L715.123 158.384C715.155 152.278 712.251 146.188 707.868 142C704.028 138.33 699.106 136.31 693.769 136.565C681.788 137.135 674.546 145.232 670.129 155.55C668.863 158.507 667.837 162.168 665.548 164.5C664.403 165.666 663.186 166.226 661.523 166.216C659.381 166.203 657.25 164.568 655.917 163.031C654.253 161.115 652.964 159.068 653.15 156.477C657.194 156.74 659.397 160.587 661.997 163.324Z"/>
	<path fill="#C5315F" d="M881.323 655.23L881.795 655.003C884.59 661.997 885.991 669.66 888.212 676.869C894.224 696.386 900.014 716.25 907.034 735.418L875.054 735.357L875.021 656.08C877.134 656.049 879.444 656.308 881.323 655.23Z"/>
	<path fill="#C5315F" d="M520.657 893.027C540.281 894.059 559.574 895.273 579.252 894.941C598.576 894.616 617.885 892.699 637.091 890.639C637.106 896.091 637.05 901.555 637.171 907.005L520.599 906.996C520.644 902.356 520.849 897.66 520.657 893.027Z"/>
	<path fill="#FF9C9C" d="M558.693 261.593C560.172 261.472 561.761 261.367 563.228 261.628Q563.788 261.725 564.335 261.881Q564.882 262.037 565.409 262.25Q565.936 262.463 566.438 262.73Q566.94 262.998 567.411 263.317Q567.882 263.635 568.316 264.002Q568.75 264.369 569.144 264.78Q569.537 265.191 569.884 265.641Q570.232 266.091 570.53 266.575C574.006 272.341 572.394 279.001 570.902 285.072C572.075 284.352 573.301 283.54 574.61 283.099C577.304 282.191 580.937 282.597 583.404 283.987C585.052 284.916 586.337 286.39 586.793 288.249C587.48 291.051 586.274 293.076 584.784 295.349C589.602 297.988 591.557 299.97 593.708 304.93C585.556 305.593 577.128 305.131 568.944 305.064Q550.109 304.92 531.273 304.976C521.362 305.016 511.318 305.399 501.426 304.811L501.071 304.322C501.276 303.306 501.659 302.662 502.265 301.841C506.195 296.52 510.905 295.599 517.085 294.743C516.172 291.756 515.641 288.783 516.512 285.712C517.378 282.656 519.261 280.286 522.101 278.848Q522.679 278.557 523.284 278.325Q523.888 278.094 524.513 277.925Q525.138 277.755 525.777 277.651Q526.416 277.546 527.062 277.506Q527.708 277.466 528.355 277.492Q529.002 277.518 529.643 277.609Q530.284 277.7 530.912 277.856Q531.541 278.012 532.15 278.23C537.039 280 539.362 283.587 541.543 288.002C542.622 284.182 543.66 280.315 545.112 276.616C547.856 269.627 551.724 264.676 558.693 261.593Z"/>
	<path fill="#C5315F" d="M403.018 869.232C428.963 877.649 454.157 884.873 481.21 888.871C489.756 890.135 498.291 890.956 506.896 891.681C510.901 892.019 516.2 891.826 519.989 892.845L518.675 893.282C517.262 896.79 518.192 903.274 518.298 907.047L402.951 906.934C402.9 894.374 402.681 881.789 403.018 869.232Z"/>
	<path fill="#C5315F" d="M889.826 821.987L934.734 821.818C943.826 850.272 954.75 878.281 964.539 906.516C955.575 906.453 942.532 905.422 934.004 906.708C935.479 899.42 934.206 890.728 930.013 884.511C925.717 878.14 919.71 875.28 912.43 873.752C913.66 868.06 915.04 862.209 915.278 856.371C915.638 847.558 911.711 837.292 905.587 830.887C900.998 826.088 895.559 823.593 888.927 823.472C883.092 824.309 879.917 825.263 875.695 829.525L875.075 829.625L874.814 829.164C875.046 826.809 874.972 824.377 875.013 822.009L889.826 821.987Z"/>
	<path fill="#C5315F" d="M843.434 737.944C853.212 737.899 863.018 737.685 872.793 737.859C872.645 765.071 872.989 792.31 872.613 819.515L814.194 819.469Q821.702 811.869 828.055 803.28C842.292 783.77 847.203 761.638 843.434 737.944Z"/>
	<path fill="#C5315F" d="M639.478 890.375C649.955 889.375 660.521 887.15 670.825 885.062C701.293 878.887 728.33 870.832 756.572 857.835L756.665 906.938L639.519 906.978L639.478 890.375Z"/>
	<path fill="#C5315F" d="M875.008 737.818L907.514 737.917C908.848 739.789 918.972 772.051 919.684 775.878C924.518 790.378 928.775 805.08 933.919 819.473L875.023 819.519L875.008 737.818Z"/>
	<path fill="#C5315F" d="M954.249 908.587L965.339 908.414Q967.752 916.008 970.37 923.533C973.982 933.795 977.79 942.705 972.512 953.37C969.89 958.668 965.205 962.939 959.525 964.713C951.086 967.35 935.291 966.015 926.106 966.001Q900.7 965.861 875.293 966.013C876.184 955.936 875.475 945.322 875.418 935.193C876.775 935.211 879.048 935.604 880 934.695C881.556 935.319 882.387 935.572 884.052 935.266C895.861 935.177 909.238 936.346 919.804 930.148C928.217 925.214 931.373 917.891 933.683 908.932C940.522 908.892 947.426 909.024 954.249 908.587Z"/>
	<path fill="#C5315F" d="M775.422 655.96L872.565 655.986C872.743 682.447 873.33 709.021 872.827 735.473L842.653 735.532C842.611 735.25 842.571 734.967 842.525 734.685C839.165 714.191 820.52 691.541 805.194 678.149C795.788 669.93 785.645 663.063 775.422 655.96Z"/>
	<path fill="#C5315F" d="M819.884 908.985C820.314 915.617 823.745 921.963 828.691 926.337C840.515 936.793 857.847 935.879 872.62 935.121C872.635 943.124 872.384 951.241 872.911 959.224L872.916 966.14Q815.992 965.771 759.068 966.153L759.058 909.051L797.738 909.272C804.997 909.311 812.691 909.881 819.884 908.985Z"/>
	<path fill="#C5315F" d="M68.5888 908.106C88.5162 908.556 108.763 908.927 128.681 908.329C130.084 910.536 132.657 912.091 134.803 913.539C142.062 913.951 154.166 914.942 161.058 913.462C160.473 930.993 160.916 948.661 160.917 966.207Q137.899 966.01 114.88 966.098C104.122 966.121 85.0935 967.566 75.4771 964.64C69.8948 962.941 65.0868 958.421 62.3878 953.327C56.8923 942.955 60.3324 933.59 63.676 923.296L68.5888 908.106Z"/>
	<path fill="#C5315F" d="M812.061 821.34C814.597 822.757 865.936 821.892 872.702 821.893L872.649 822.486C872.374 825.788 872.92 829.382 872.347 832.594C871.505 837.322 868.713 841.809 867.617 846.653C863.006 842.832 857.047 838.477 850.726 839.083C847.576 839.386 844.899 841.087 842.941 843.524C835.076 853.309 836.478 874.319 837.963 885.904Q838.038 886.466 838.13 887.025C831.451 889.267 825.362 892.327 822.117 898.997C820.888 901.524 820.424 904.244 819.708 906.937L818.668 907.242C811.772 906.494 804.415 906.96 797.459 906.957L759.015 906.96L758.958 856.623C762.001 855.842 765.469 853.749 768.26 852.283C783.787 844.127 799.7 833.867 812.061 821.34Z"/>
	<path fill="#C5315F" d="M163.014 913.524C184.75 913.645 206.447 913.148 228.174 913.112C236.101 913.099 253.072 914.343 260.062 912.731C262.234 912.229 263.973 909.934 266.008 908.993C266.171 908.918 266.343 908.863 266.511 908.798C271.17 909.4 276.019 909.122 280.712 909.094L280.91 966.379C261.895 965.694 242.81 965.851 223.785 965.879C203.554 965.908 183.304 965.851 163.076 966.148L163.014 913.524Z"/>
	<path fill="#C5315F" d="M402.992 909.171L518.333 909.309L518.089 966.381C503.818 965.737 489.381 966.127 475.092 966.159L403.03 966.368L402.992 909.171Z"/>
	<path fill="#C5315F" d="M520.811 909.24L637.283 909.183C637.4 915.717 638.171 963.918 636.875 966.097C617.543 965.857 598.195 966.226 578.86 966.189C559.488 966.152 540.043 965.685 520.679 966.265Q520.793 947.296 520.65 928.327C520.63 922.014 520.322 915.529 520.811 909.24Z"/>
	<path fill="#C5315F" d="M639.685 909.158L756.661 909.048Q756.912 937.672 756.775 966.296C717.896 965.167 678.751 965.956 639.851 966.093C640.065 947.124 639.654 928.131 639.685 909.158Z"/>
	<path fill="#C5315F" d="M282.961 909.095C322.209 909.663 361.53 909.232 400.787 909.241C400.895 928.284 401.187 947.405 400.795 966.442Q341.918 965.717 283.04 966.281L282.961 909.095Z"/>
	<path fill="#C5315F" d="M320.031 821.24L320.753 821.723C326.466 825.597 331.486 830.649 337.134 834.673Q343.397 839.062 349.89 843.101Q356.384 847.141 363.088 850.821Q369.793 854.5 376.688 857.807Q383.583 861.115 390.649 864.041C393.839 865.387 397.585 867.346 400.912 868.102C400.229 880.969 400.72 894.08 400.739 906.974L282.849 906.994C282.882 902.335 283.104 897.586 282.574 892.952C283.188 889.7 289.804 881.874 291.8 878.628C294.969 873.474 297.74 867.882 299.245 861.998C300.521 857.013 301.299 851.061 298.435 846.485C295.117 841.182 289.102 839.706 283.442 838.354C283.547 832.754 283.717 827.053 283.298 821.468C295.341 821.512 308.073 822.389 320.031 821.24Z"/>
	<path fill="#FF9C9C" d="M872.702 821.893L872.748 822.397C872.959 824.977 872.184 829.033 873.215 831.32C874.223 830.68 874.281 830.202 874.814 829.164L875.075 829.625L875.695 829.525C879.917 825.263 883.092 824.309 888.927 823.472C895.559 823.593 900.998 826.088 905.587 830.887C911.711 837.292 915.638 847.558 915.278 856.371C915.04 862.209 913.66 868.06 912.43 873.752C919.71 875.28 925.717 878.14 930.013 884.511C934.206 890.728 935.479 899.42 934.004 906.708L933.984 907.91C936.827 909.649 950.01 908.244 954.249 908.587C947.426 909.024 940.522 908.892 933.683 908.932C931.373 917.891 928.217 925.214 919.804 930.148C909.238 936.346 895.861 935.177 884.052 935.266C882.387 935.572 881.556 935.319 880 934.695C879.048 935.604 876.775 935.211 875.418 935.193C875.475 945.322 876.184 955.936 875.293 966.013C874.071 956.31 875.404 946.05 874.753 936.224C874.699 935.412 874.894 935.034 874.242 934.461C871.585 939.529 873.176 952.944 872.911 959.224C872.384 951.241 872.635 943.124 872.62 935.121C857.847 935.879 840.515 936.793 828.691 926.337C823.745 921.963 820.314 915.617 819.884 908.985C819.645 907.763 819.576 907.965 818.668 907.242L819.708 906.937C820.424 904.244 820.888 901.524 822.117 898.997C825.362 892.327 831.451 889.267 838.13 887.025Q838.038 886.466 837.963 885.904C836.478 874.319 835.076 853.309 842.941 843.524C844.899 841.087 847.576 839.386 850.726 839.083C857.047 838.477 863.006 842.832 867.617 846.653C868.713 841.809 871.505 837.322 872.347 832.594C872.92 829.382 872.374 825.788 872.649 822.486L872.702 821.893Z"/>
	<path fill="#3B2B43" d="M880 934.695C880.316 933.641 880.612 932.901 881.353 932.064C891.347 920.786 902.197 910.299 911.565 898.443C913.021 896.6 914.747 894.135 916.902 893.102C917.781 892.68 917.416 892.781 918.461 893.03C918.971 894.139 919.058 894.63 918.872 895.838C916.101 900.164 911.896 904.162 908.462 908.017C900.362 917.111 892.002 926.049 884.052 935.266C882.387 935.572 881.556 935.319 880 934.695Z"/>
	<path fill="#3B2B43" d="M878.482 846.563L880.528 847.003C881.333 847.949 881.478 848.377 881.44 849.635C881.315 853.747 879.551 857.663 878.824 861.684C876.938 872.117 875.847 883.091 873.166 893.324C872.793 894.748 872.296 896.562 871.067 897.495C870.503 897.924 870.518 897.718 869.725 897.537C868.668 896.129 861.918 872.79 860.764 869.311C859.981 866.101 857.179 861.628 857.743 858.446C858.716 857.584 858.791 857.58 860.091 857.451C863.406 861.36 868.46 880.57 870.427 886.743C872.744 873.357 874.573 859.594 878.482 846.563Z"/>
	<path fill="#C5315F" d="M281.97 737.615C281.75 743.171 281.896 748.819 281.508 754.354C279.682 762.049 280.903 772.226 280.971 780.195L281.132 819.027L266.468 819.06C266.799 820.068 266.975 820.609 267.642 821.458L281.045 821.432C281.046 826.989 280.753 832.78 281.191 838.311L282.413 838.255C284.107 835.834 282.814 825.097 283.298 821.468C283.717 827.053 283.547 832.754 283.442 838.354C289.102 839.706 295.117 841.182 298.435 846.485C301.299 851.061 300.521 857.013 299.245 861.998C297.74 867.882 294.969 873.474 291.8 878.628C289.804 881.874 283.188 889.7 282.574 892.952C281.885 893.289 281.509 893.24 281.266 894.034C280.045 898.018 281.443 902.85 280.693 906.955L268.06 906.939L266.511 908.798C266.343 908.863 266.171 908.918 266.008 908.993C263.973 909.934 262.234 912.229 260.062 912.731C253.072 914.343 236.101 913.099 228.174 913.112C206.447 913.148 184.75 913.645 163.014 913.524L161.058 913.462C154.166 914.942 142.062 913.951 134.803 913.539C132.657 912.091 130.084 910.536 128.681 908.329C128.544 908.143 128.42 907.947 128.272 907.77C126.653 905.834 122.185 906.238 119.781 906.082L87.5756 906.016C81.5089 906.008 75.201 905.669 69.1778 906.369L85.5024 855.627C89.0668 844.332 92.2063 832.872 96.1206 821.692C103.236 821.808 124.706 822.954 130.186 820.987L130.036 820.56C122.747 818.21 105.034 819.42 96.5421 819.44C100.916 805.8 104.931 792.03 109.451 778.44Q115.826 758.239 121.863 737.935C134.774 737.825 148.098 738.622 160.951 737.699C160.944 746.22 159.783 779.228 161.641 785.674L162.228 785.968C164.356 781.958 163.11 745.229 163.091 737.83L281.97 737.615Z"/>
	<path fill="#FF9C9C" d="M161.937 867.962C161.197 852.951 159.7 830.321 167.016 817.023C169.401 812.688 173.086 809.489 177.904 808.189C182.261 807.013 186.645 807.653 190.521 809.95C203.995 817.935 209.772 841.221 213.433 855.328C219.236 842.191 230.466 821.075 243.236 813.896C247.673 811.401 253.142 810.367 258.072 811.952C261.798 813.15 264.632 815.637 266.468 819.06C266.799 820.068 266.975 820.609 267.642 821.458L281.045 821.432C281.046 826.989 280.753 832.78 281.191 838.311L282.413 838.255C284.107 835.834 282.814 825.097 283.298 821.468C283.717 827.053 283.547 832.754 283.442 838.354C289.102 839.706 295.117 841.182 298.435 846.485C301.299 851.061 300.521 857.013 299.245 861.998C297.74 867.882 294.969 873.474 291.8 878.628C289.804 881.874 283.188 889.7 282.574 892.952C281.885 893.289 281.509 893.24 281.266 894.034C280.045 898.018 281.443 902.85 280.693 906.955L268.06 906.939L266.511 908.798C266.343 908.863 266.171 908.918 266.008 908.993C263.973 909.934 262.234 912.229 260.062 912.731C253.072 914.343 236.101 913.099 228.174 913.112C206.447 913.148 184.75 913.645 163.014 913.524L161.058 913.462C154.166 914.942 142.062 913.951 134.803 913.539C132.657 912.091 130.084 910.536 128.681 908.329C128.544 908.143 128.42 907.947 128.272 907.77C126.653 905.834 122.185 906.238 119.781 906.082C121.398 906.004 123.165 906.063 124.758 905.824C124.914 905.801 125.062 905.735 125.219 905.715C125.303 905.705 125.388 905.728 125.472 905.735C124.197 903.066 119.149 898.848 117.07 896.228C108.563 885.507 99.3723 869.184 101.253 854.946C102.024 849.112 104.597 843.568 109.416 840.014C113.653 836.889 119.007 835.805 124.171 836.62C140.318 839.168 152.91 855.74 161.937 867.962Z"/>
	<path fill="#C5315F" d="M268.06 906.939Q274.241 900.447 280.57 894.098C280.49 898.39 280.358 902.67 280.693 906.955L268.06 906.939Z"/>
	<path fill="#C5315F" d="M267.642 821.458L281.045 821.432C281.046 826.989 280.753 832.78 281.191 838.311C276.66 838.114 272.478 839.326 268.16 840.524C268.746 833.919 269.082 827.977 267.642 821.458Z"/>
	<path fill="#3B2B43" d="M233.933 853.757C235.368 854.115 235.992 854.544 236.754 855.752C236.397 858.532 206.669 903.474 203.569 906.896C202.532 908.04 202.379 907.975 200.909 908.049C200.543 907.811 200.115 907.648 199.812 907.334C198.783 906.267 188.531 873.497 186.773 868.623Q186.295 867.403 185.873 866.163C185.136 863.953 185.123 862.796 186.211 860.665L187.074 860.468C191.234 864.058 199.578 894.664 201.731 901.933C213.82 886.92 222.769 869.455 233.933 853.757Z"/>
	<path fill="#3B2B43" d="M519.514 604.331C534.056 601.802 550.898 602.382 565.644 602.549C584.25 604.161 602.819 604.814 621.394 606.974C627.45 607.678 634.091 608.074 639.957 609.759L641.986 609.955C649.098 610.603 656.279 612.4 663.275 613.845C695.111 620.423 727.478 629.99 756.103 645.7L758.514 646.717C762.493 648.931 766.76 651.911 770.926 653.68C772.423 654.441 773.911 655.23 775.422 655.96C785.645 663.063 795.788 669.93 805.194 678.149C820.52 691.541 839.165 714.191 842.525 734.685C842.571 734.967 842.611 735.25 842.653 735.532L843.434 737.944C847.203 761.638 842.292 783.77 828.055 803.28Q821.702 811.869 814.194 819.469L812.061 821.34C799.7 833.867 783.787 844.127 768.26 852.283C765.469 853.749 762.001 855.842 758.958 856.623L756.572 857.835C728.33 870.832 701.293 878.887 670.825 885.062C660.521 887.15 649.955 889.375 639.478 890.375L637.091 890.639C617.885 892.699 598.576 894.616 579.252 894.941C559.574 895.273 540.281 894.059 520.657 893.027L519.989 892.845C516.2 891.826 510.901 892.019 506.896 891.681C498.291 890.956 489.756 890.135 481.21 888.871C454.157 884.873 428.963 877.649 403.018 869.232L400.912 868.102C397.585 867.346 393.839 865.387 390.649 864.041Q383.583 861.115 376.688 857.807Q369.793 854.5 363.088 850.821Q356.384 847.141 349.89 843.101Q343.397 839.062 337.134 834.673C331.486 830.649 326.466 825.597 320.753 821.723L320.031 821.24C308.073 822.389 295.341 821.512 283.298 821.468C282.814 825.097 284.107 835.834 282.413 838.255L281.191 838.311C280.753 832.78 281.046 826.989 281.045 821.432L267.642 821.458C266.975 820.609 266.799 820.068 266.468 819.06L281.132 819.027L280.971 780.195C280.903 772.226 279.682 762.049 281.508 754.354C281.896 748.819 281.75 743.171 281.97 737.615C282.575 733.85 282.937 730.023 283.396 726.237C286.457 721.86 290.514 710.186 293.627 704.47C305.138 683.337 322.602 669.074 341.688 655.166C343.117 654.607 344.243 653.849 345.493 652.983C354.928 646.901 364.443 641.44 374.747 636.943C382.757 633.446 391.208 630.614 399.005 626.683L400.591 626.026C431.62 614.885 463.107 608.552 495.952 605.838C502.776 605.274 510.108 604.165 516.937 604.528L519.514 604.331Z"/>
	<path fill="#C5315F" d="M281.508 754.354C282.287 759.473 283.162 764.871 283.434 770.04C286.328 776.029 288.337 782.342 291.686 788.144C296.482 796.454 302.995 804.059 309.569 811.032C312.087 813.702 314.917 816.257 317.249 819.072C318.224 819.769 319.149 820.423 320.031 821.24C308.073 822.389 295.341 821.512 283.298 821.468C282.814 825.097 284.107 835.834 282.413 838.255L281.191 838.311C280.753 832.78 281.046 826.989 281.045 821.432L267.642 821.458C266.975 820.609 266.799 820.068 266.468 819.06L281.132 819.027L280.971 780.195C280.903 772.226 279.682 762.049 281.508 754.354Z"/>
	<path fill="white" d="M281.508 754.354C282.287 759.473 283.162 764.871 283.434 770.04C283.063 786.355 283.43 802.699 283.358 819.019C294.646 819.025 305.964 818.868 317.249 819.072C318.224 819.769 319.149 820.423 320.031 821.24C308.073 822.389 295.341 821.512 283.298 821.468C282.814 825.097 284.107 835.834 282.413 838.255L281.191 838.311C280.753 832.78 281.046 826.989 281.045 821.432L267.642 821.458C266.975 820.609 266.799 820.068 266.468 819.06L281.132 819.027L280.971 780.195C280.903 772.226 279.682 762.049 281.508 754.354Z"/>
	<path fill="white" d="M351.359 763.025C346.045 757.865 335.543 748.287 335.615 740.368C335.643 737.215 337.642 734.742 339.908 732.761C345.325 728.024 362.16 721.816 362.664 714.052C362.783 712.216 361.995 710.954 360.77 709.715C352.824 701.686 339.867 697.328 339.516 683.791C339.376 678.387 342.521 673.489 346.236 669.814C362.943 653.294 402.746 647.717 426.033 648.038C435.155 648.163 444.229 648.941 453.305 649.794C459.611 650.387 467.277 651.751 473.548 651.018C474.797 650.872 475.605 650.207 476.464 649.32C479.205 646.49 480.932 642.717 483.555 639.758C492.54 629.624 506.425 627.1 519.323 626.231C552.247 624.014 599.81 629.099 630.51 640.831C635.436 642.714 640.984 644.816 645.049 648.283C647.648 650.5 649.384 653.397 649.559 656.859C649.929 664.174 639.165 673.283 642.88 678.418C643.622 678.757 644.027 678.789 644.847 678.73C649.802 678.372 654.808 677.328 659.742 676.687C671.704 675.133 683.818 673.674 695.869 673.084C710.967 672.344 726.824 673.82 741.299 678.241C748.985 680.589 758.021 684.513 761.029 692.619C762.264 695.948 762.187 698.887 760.555 702.057C755.669 711.546 747.046 713.962 750.963 727.248C752.699 733.135 757.313 737.349 762.642 740.067C774.178 745.952 792.276 747.477 797.09 761.712C798.958 767.235 798.477 773.033 795.8 778.198C794.05 781.576 791.579 784.404 788.689 786.848C785.095 789.887 780.722 792.322 776.758 794.885C768.914 799.959 760.797 805.092 753.292 810.647C740.189 820.345 729.609 832.294 715.293 840.516C702.233 848.017 687.131 853.606 672.7 857.863C609.914 876.383 542.987 880.899 479.099 864.94C463.114 860.947 446.753 855.933 432.242 848.015C426.898 845.098 421.638 841.914 416.158 839.263C393.4 828.259 356.332 814.414 348.573 787.549C346.217 779.39 347.63 771.545 351.335 764.049L351.359 763.025Z"/>
	<path fill="#FFA77C" d="M553.997 639.691C565.561 638.911 578.364 640.924 588.244 647.318C592.238 649.902 595.842 653.654 596.699 658.498C597.384 662.368 596.219 666.049 593.856 669.134C586.939 678.168 573.191 680.737 562.622 681.921C550.633 682.433 537.342 680.245 527.42 673.029C523.742 670.354 520.562 666.656 519.934 662.005C519.455 658.448 520.583 655.05 522.762 652.245C529.445 643.642 543.825 640.734 553.997 639.691Z"/>
	<path fill="#FF9C9C" d="M548.22 646.055C549.823 645.95 552.014 645.689 553.504 646.459C554.692 647.073 555.32 647.712 555.696 649.029C556.064 650.319 555.793 651.623 555.235 652.802C552.917 657.697 542.095 660.449 537.295 662.218L536.782 662.345C534.884 662.822 532.621 663.338 530.692 662.679C529.251 662.188 529.209 661.828 528.667 660.533C528.817 659.082 529.177 658.054 529.931 656.793C533.778 650.352 541.42 647.92 548.22 646.055Z"/>
	<path fill="#FFA77C" d="M708.62 750.657C720.274 749.387 733.041 751.787 743.135 757.869C747.961 760.777 753.03 765.334 754.291 771.026C755.13 774.812 754.036 778.679 751.921 781.856C746.377 790.183 734.815 793.613 725.536 795.397C713.379 797.327 698.999 794.615 688.655 787.843C683.95 784.762 679.585 780.276 678.51 774.567C677.782 770.706 678.814 766.895 681.07 763.716C686.893 755.511 699.198 752.075 708.62 750.657Z"/>
	<path fill="#FF9C9C" d="M713.598 757.251C713.902 757.305 714.215 757.32 714.509 757.412C715.518 757.73 715.928 758.479 716.214 759.446C716.645 760.904 716.536 763.769 715.692 765.049C713.951 767.69 698.764 771.509 695.097 772.517C694.121 772.361 694.235 772.503 693.472 771.939C692.404 771.149 691.88 770.276 691.766 768.977C691.57 766.742 692.32 765.083 693.817 763.438C697.755 759.111 707.855 757.643 713.598 757.251Z"/>
	<path fill="#FFA77C" d="M415.746 662.192C427.14 661.162 442.1 663.451 451.886 669.673C455.865 672.203 459.354 676.024 460.308 680.765C461.093 684.668 459.907 688.48 457.602 691.651C451.064 700.648 438.935 703.803 428.579 705.434C415.043 706.316 400.372 704.955 389.126 696.594C385.344 693.783 381.98 689.97 381.44 685.116C381.042 681.539 382.213 678.071 384.452 675.288C391.195 666.904 405.544 663.194 415.746 662.192Z"/>
	<path fill="#FF9C9C" d="M415.336 667.076C416.169 667.074 416.955 667.174 417.703 667.593C418.768 668.192 419.449 669.399 419.639 670.577C419.823 671.719 419.427 672.738 418.791 673.669C415.723 678.16 400.899 684.423 395.608 685.51C395.104 685.491 394.774 685.499 394.259 685.37C392.895 685.028 391.937 684.417 391.249 683.177C390.585 681.982 390.356 680.676 390.938 679.404C393.367 674.097 409.794 668.377 415.336 667.076Z"/>
	<path fill="#FFA77C" d="M680.463 691.208C692.958 690.194 708.236 693.37 718.036 701.585C721.744 704.693 724.521 708.779 724.817 713.724C725.077 718.05 723.259 722.139 720.373 725.289C713.758 732.511 702.119 736.009 692.624 736.515C679.626 737.451 665.427 735.611 654.932 727.205C650.975 724.036 647.751 719.795 647.335 714.595C646.997 710.37 648.606 706.405 651.349 703.245C658.56 694.935 669.959 691.997 680.463 691.208Z"/>
	<path fill="#FF9C9C" d="M680.241 697.131C681.987 697.397 682.897 697.705 684.118 698.963C684.594 700.679 684.524 701.937 683.631 703.502C680.144 709.609 667.955 713.964 661.521 715.756C660.876 715.445 660.23 715.107 659.614 714.74C658.531 714.093 657.603 713.214 657.435 711.885C657.296 710.782 657.772 709.617 658.38 708.717C662.2 703.067 673.722 698.392 680.241 697.131Z"/>
	<path fill="#FFA77C" d="M614.252 790.204C626.206 789.471 641.234 792.411 650.51 800.47C654.189 803.666 656.945 808.036 657.226 812.995C657.471 817.341 655.586 821.429 652.733 824.618C645.156 833.09 632.48 836.053 621.625 836.765C609.814 837.404 596.243 834.652 586.824 827.099C582.766 823.844 579.296 819.329 578.826 813.982C578.432 809.488 580.259 805.261 583.142 801.891C590.629 793.135 603.39 790.927 614.252 790.204Z"/>
	<path fill="#FF9C9C" d="M614.205 795.683C615.395 795.853 616.011 796.08 616.745 797.093C617.675 798.377 618.456 799.968 618.03 801.598C616.612 807.028 607.714 808.23 603.668 810.84C600.755 812.719 597.391 813.897 594.138 815.052C593.669 814.98 593.328 814.957 592.879 814.737C591.468 814.044 589.97 811.527 589.793 809.959C589.637 808.573 589.929 807.56 590.763 806.461C594.639 801.359 607.863 796.475 614.205 795.683Z"/>
	<path fill="#E27479" d="M351.359 763.025C355.216 757.692 388.284 735.283 395.234 731.823C408.568 725.183 419.775 732.666 432.346 736.806C448.64 742.172 464.706 741.513 477.57 729.27C484.76 722.427 491.234 714.77 500.273 710.254C511.548 704.622 515.096 709.701 525.453 712.925C537.528 716.685 545.594 696.501 555.626 691.16C566.629 685.302 580.379 688.848 591.589 692.098C590.748 699.982 590.963 707.504 592.75 715.258L595.415 722.884C578.438 718.797 564.694 717.379 549.013 726.418C544.299 729.135 539.78 732.17 534.333 733.199C521.017 735.715 512.665 728.475 498.778 737.079C493.583 740.297 489.565 745.043 484.986 749.022C473.609 758.91 458.027 761.557 443.544 758.346C426.944 754.666 415.221 744.126 398.305 754.89C387.033 762.063 378.133 772.538 367.076 779.852C365.522 778.581 364.163 777.004 362.772 775.556C358.674 771.994 355.429 767.534 351.335 764.049L351.359 763.025Z"/>
	<path fill="#3B2B43" d="M362.772 775.556C371.179 767.697 389.861 751.341 399.721 746.786C412.689 740.796 422.937 745.018 435.438 749.504C450.221 754.81 468.033 755.515 480.592 744.627C487.951 738.247 493.942 730.694 503.54 727.591C514.532 724.039 525.189 729.804 535.834 726.487C542.445 724.427 547.773 719.672 554.009 716.769C565.818 711.271 580.524 710.883 592.75 715.258L595.415 722.884C578.438 718.797 564.694 717.379 549.013 726.418C544.299 729.135 539.78 732.17 534.333 733.199C521.017 735.715 512.665 728.475 498.778 737.079C493.583 740.297 489.565 745.043 484.986 749.022C473.609 758.91 458.027 761.557 443.544 758.346C426.944 754.666 415.221 744.126 398.305 754.89C387.033 762.063 378.133 772.538 367.076 779.852C365.522 778.581 364.163 777.004 362.772 775.556Z"/>
	<path fill="#E27479" d="M367.076 779.852C378.133 772.538 387.033 762.063 398.305 754.89C415.221 744.126 426.944 754.666 443.544 758.346C458.027 761.557 473.609 758.91 484.986 749.022C489.565 745.043 493.583 740.297 498.778 737.079C512.665 728.475 521.017 735.715 534.333 733.199C539.78 732.17 544.299 729.135 549.013 726.418C564.694 717.379 578.438 718.797 595.415 722.884L598.176 727.81C601.532 731.605 604.877 735.428 608.392 739.075C613.38 744.25 618.971 749.082 622.654 755.323Q620.146 755.443 617.644 755.642Q615.141 755.841 612.646 756.119Q610.151 756.397 607.666 756.754Q605.181 757.111 602.708 757.546Q600.236 757.981 597.778 758.494Q595.32 759.007 592.88 759.597Q590.44 760.187 588.02 760.854Q585.6 761.521 583.201 762.264Q580.803 763.007 578.43 763.826Q576.057 764.644 573.71 765.537Q571.364 766.43 569.047 767.397Q566.73 768.364 564.445 769.403Q562.16 770.442 559.908 771.553Q557.657 772.664 555.442 773.846Q553.227 775.027 551.05 776.278Q548.873 777.529 546.737 778.848C533.145 787.424 520.345 796.7 504.76 801.503C488.096 806.638 470.794 804.92 453.794 802.869C444.245 801.717 433.878 800.228 424.4 802.606C413.163 805.425 397.854 822.543 391.075 823.615C390.175 823.757 389.34 823.259 388.693 822.709C386.523 820.863 386.021 816.816 385.602 814.147C384.871 812.216 384.272 810.38 383.872 808.354C382.6 803 381.082 798.059 381.743 792.487C380.742 791.118 379.541 789.869 378.421 788.595C374.394 786.213 370.681 782.847 367.076 779.852Z"/>
	<path fill="#3B2B43" d="M475.752 756.976C481.741 753.347 486.829 747.92 493.245 745.046C508.017 738.429 521.474 749.827 533.822 745.602C538.779 743.906 542.554 739.743 546.436 736.384C552.791 730.884 560.956 726.587 569.274 725.139C576.615 723.862 591.321 723.905 597.429 728.143C598.091 729.473 599.028 730.784 598.703 732.312C598.347 732.502 598.033 732.814 597.636 732.883C594.825 733.374 590.412 732.085 587.523 731.774C581.318 731.105 574.686 731.013 568.551 732.292C551.042 735.941 548.58 747.265 537.139 751.212C514.433 759.046 508.124 736.102 481.051 762.176L479.719 762.391C477.803 761.258 476.905 758.877 475.752 756.976Z"/>
	<path fill="#3B2B43" d="M383.872 808.354C387.555 804.252 391.972 800.767 396.271 797.333C407.173 788.625 419.215 779.792 433.679 779.034C440.854 778.658 447.683 780.503 454.529 782.4C477 788.627 492.263 792.008 513.845 779.698C514.95 781.385 516.096 783.054 517.125 784.788C491.747 797.938 477.808 796.008 451.382 788.221C443.83 785.996 436.342 784.425 428.509 786.199C415.808 789.076 404.715 798.341 395.11 806.69C392.597 808.875 388.681 813.244 385.602 814.147C384.871 812.216 384.272 810.38 383.872 808.354Z"/>
	<path fill="#3B2B43" d="M481.477 762.362C494.606 753.674 505.472 754.352 520.137 757.265C525.062 758.243 530.02 759.072 535.051 758.363C540.774 757.556 545.7 753.578 550.958 751.365C567.228 744.518 582.402 743.7 599.747 744.217C600.488 746.674 601.437 748.374 602.861 750.493C586.098 749.984 570.193 750.15 554.528 757.067C547.841 760.019 541.495 764.453 534.075 765.28C522.261 766.596 510.965 759.07 498.995 761.902C485.714 765.044 476.371 776.153 461.901 777.772C445.343 779.626 429.875 766.597 413.752 770.79C404.037 773.316 396.19 780.846 388.728 787.167C386.548 789.014 384.356 791.299 381.743 792.487C380.742 791.118 379.541 789.869 378.421 788.595C383.245 782.381 390.628 776.7 397.007 772.151C419.064 756.422 429.78 767.291 452.356 770.94C463.505 772.742 472.575 768.757 481.477 762.362Z"/>
	<path fill="#FF9C9C" d="M187.898 230.307Q188.983 230.11 190.072 229.939Q191.162 229.768 192.255 229.623Q193.348 229.478 194.445 229.359Q195.541 229.241 196.64 229.148Q197.739 229.056 198.84 228.99Q199.941 228.924 201.043 228.885Q202.145 228.845 203.248 228.832Q204.351 228.819 205.453 228.833Q206.556 228.846 207.658 228.886Q208.76 228.926 209.861 228.993Q210.962 229.059 212.061 229.152Q213.16 229.245 214.256 229.364Q215.352 229.483 216.446 229.629Q217.539 229.774 218.628 229.946Q219.718 230.117 220.803 230.315Q221.887 230.513 222.967 230.737Q224.047 230.96 225.121 231.21Q226.196 231.459 227.264 231.735Q228.331 232.01 229.392 232.311Q230.453 232.612 231.507 232.938Q232.56 233.264 233.606 233.616Q234.651 233.967 235.688 234.343Q236.724 234.72 237.752 235.121Q238.779 235.522 239.796 235.948Q240.813 236.373 241.82 236.823Q242.827 237.273 243.823 237.748Q244.819 238.222 245.803 238.719Q246.787 239.217 247.759 239.738Q248.73 240.26 249.689 240.804Q250.649 241.349 251.594 241.916Q252.54 242.483 253.472 243.073Q254.404 243.663 255.321 244.275C274.863 257.586 289.66 278.039 293.994 301.47C297.598 320.955 295.176 339.489 286.728 357.352C288.253 359.93 289.681 362.779 291.43 365.198C306.117 357.79 322.136 355.339 337.987 360.603Q339.336 361.055 340.661 361.573Q341.987 362.091 343.285 362.674Q344.583 363.257 345.851 363.903Q347.119 364.549 348.353 365.257Q349.587 365.964 350.785 366.732Q351.983 367.5 353.142 368.326Q354.3 369.152 355.417 370.034Q356.533 370.917 357.605 371.853Q358.676 372.789 359.7 373.777Q360.724 374.765 361.698 375.802Q362.673 376.839 363.594 377.923Q364.516 379.007 365.383 380.136Q366.25 381.264 367.061 382.433Q367.871 383.603 368.623 384.811Q369.375 386.019 370.066 387.263Q370.757 388.507 371.386 389.783C378.188 403.623 379.993 419.109 374.855 433.82C373.925 436.483 372.713 438.975 371.435 441.484C381.229 455.011 384.902 470.267 382.28 486.751C380.929 495.247 377.997 502.099 373.547 509.413C373.872 509.416 374.197 509.441 374.522 509.422C385.745 508.755 392.687 496.844 398.864 489.09Q402.731 484.299 407.137 479.999C424.434 463.13 445.655 455.434 467.893 467.675C478.83 473.696 488.998 483.079 502.28 482.932C525.865 482.67 540.439 448.766 554.872 433.828C573.994 414.038 595.509 414.87 619.615 425.364C629.783 429.791 639.247 435.912 650.787 435.525C661.455 435.168 670.85 428.206 677.959 420.792C678.188 403.734 684.518 384.811 692.938 370.148C685.83 355.392 682.678 336.858 684.417 320.593C687.187 294.699 699.612 270.3 720.101 253.953C741.341 237.006 766.589 230.853 793.418 234.048C822.888 237.556 846.723 255.304 864.728 278.056C872.914 290.702 878.576 303.862 883.834 317.923C904.155 317.33 921.245 321.844 936.465 336.085Q937.626 337.181 938.733 338.333Q939.839 339.485 940.888 340.689Q941.937 341.894 942.926 343.148Q943.914 344.402 944.84 345.704Q945.766 347.005 946.628 348.35Q947.489 349.695 948.283 351.081Q949.078 352.466 949.803 353.889Q950.529 355.312 951.184 356.768Q951.839 358.225 952.422 359.712Q953.005 361.199 953.515 362.712Q954.024 364.226 954.459 365.763Q954.894 367.3 955.253 368.856Q955.612 370.412 955.895 371.984Q956.177 373.556 956.382 375.14Q956.588 376.724 956.715 378.316Q956.843 379.908 956.892 381.504C957.25 393.497 953.976 404.316 948.935 415.068C958.404 424.779 962.73 443.58 962.575 456.78C962.45 467.545 959.461 476.708 955.45 486.56C960.483 494.176 964.643 502.711 968.374 511.035C988.145 555.145 995.331 608.116 985.631 655.678C976.464 700.629 954.918 745.677 919.684 775.878C918.972 772.051 908.848 739.789 907.514 737.917L907.902 736.739L907.034 735.418C900.014 716.25 894.224 696.386 888.212 676.869C885.991 669.66 884.59 661.997 881.795 655.003L881.323 655.23L881.007 653.858C881.042 653.748 881.099 653.642 881.113 653.527C881.507 650.277 876.707 637.809 874.955 634.513C873.81 631.262 874.178 628.467 871.932 625.478C872.489 634.835 872.513 644.2 872.498 653.571L802.57 653.382C793.653 653.343 779.185 652.191 770.926 653.68C766.76 651.911 762.493 648.931 758.514 646.717L756.103 645.7C727.478 629.99 695.111 620.423 663.275 613.845C656.279 612.4 649.098 610.603 641.986 609.955L639.957 609.759C634.091 608.074 627.45 607.678 621.394 606.974C602.819 604.814 584.25 604.161 565.644 602.549C550.898 602.382 534.056 601.802 519.514 604.331L516.937 604.528C510.108 604.165 502.776 605.274 495.952 605.838C463.107 608.552 431.62 614.885 400.591 626.026L399.005 626.683C391.208 630.614 382.757 633.446 374.747 636.943C364.443 641.44 354.928 646.901 345.493 652.983C344.243 653.849 343.117 654.607 341.688 655.166C322.602 669.074 305.138 683.337 293.627 704.47C290.514 710.186 286.457 721.86 283.396 726.237C282.937 730.023 282.575 733.85 281.97 737.615L163.091 737.83C163.11 745.229 164.356 781.958 162.228 785.968L161.641 785.674C159.783 779.228 160.944 746.22 160.951 737.699C148.098 738.622 134.774 737.825 121.863 737.935Q115.826 758.239 109.451 778.44C107.775 777.176 105.712 776.3 103.977 775.035C98.5616 771.087 93.851 766.058 89.373 761.1C50.7497 718.34 32.096 662.311 35.06 604.895C38.1819 544.422 66.7352 477.575 112.095 436.705C110.818 433.624 109.968 430.286 109.309 427.022C105.859 409.929 107.774 390.244 115.461 374.5C118.475 368.326 122.488 362.687 126.311 356.997C123.074 350.341 120.072 343.588 118.213 336.401C112.581 314.628 116.583 291.082 128.113 271.934C141.607 249.523 163.005 236.499 187.898 230.307Z"/>
	<path fill="white" d="M398.467 626.591C398.953 617.962 398.505 609.156 398.617 600.501L399.232 600.074L400.038 600.304C401.387 603.218 400.373 617.697 400.59 622.122L400.591 626.026L399.005 626.683L398.467 626.591Z"/>
	<path fill="#C5315F" d="M160.586 615.728C160.53 626.093 160.145 636.672 160.914 647.01L160.908 652.932L148.079 653.009C149.049 648.411 151.073 643.758 152.483 639.254C154.95 631.369 156.673 623.052 160.586 615.728Z"/>
	<path fill="#C5315F" d="M519.514 604.331C519.545 603.016 519.497 601.98 520.189 600.807C525.016 599.839 539.241 601.001 545.134 601.125L605.699 600.952C615.718 600.962 630.464 601.675 640.045 600.438C639.999 603.541 639.901 606.656 639.957 609.759C634.091 608.074 627.45 607.678 621.394 606.974C602.819 604.814 584.25 604.161 565.644 602.549C550.898 602.382 534.056 601.802 519.514 604.331Z"/>
	<path fill="#C5315F" d="M400.827 600.515Q438.893 600.893 476.96 600.693C489.991 600.618 503.433 599.84 516.421 600.659C517.15 601.718 516.9 603.249 516.937 604.528C510.108 604.165 502.776 605.274 495.952 605.838C463.107 608.552 431.62 614.885 400.591 626.026L400.59 622.122C401.058 614.967 400.825 607.688 400.827 600.515Z"/>
	<path fill="#C5315F" d="M640.045 600.438C640.795 600.353 641.274 600.251 642.009 600.464C652.075 601.765 663.175 600.929 673.362 600.936L733.071 600.946C738.211 600.946 751.488 600.109 755.866 601.254L756.196 601.833C755.804 616.434 756.077 631.093 756.103 645.7C727.478 629.99 695.111 620.423 663.275 613.845C656.279 612.4 649.098 610.603 641.986 609.955L639.957 609.759C639.901 606.656 639.999 603.541 640.045 600.438Z"/>
	<path fill="white" d="M640.045 600.438C640.795 600.353 641.274 600.251 642.009 600.464C642.004 603.611 642.13 606.816 641.986 609.955L639.957 609.759C639.901 606.656 639.999 603.541 640.045 600.438Z"/>
	<path fill="#C5315F" d="M283.044 600.46C296.358 601.41 310.071 600.735 323.423 600.725L398.213 600.553C398.155 606.065 397.188 622.396 398.467 626.591L399.005 626.683C391.208 630.614 382.757 633.446 374.747 636.943C364.443 641.44 354.928 646.901 345.493 652.983C338.696 652.381 331.44 652.891 324.592 652.901L283.024 652.964L283.044 600.46Z"/>
	<path fill="#C5315F" d="M756.196 601.833C756.391 601.088 756.201 601.515 757.041 600.716L758.532 600.928L813.14 600.977C823.125 600.973 834.352 599.937 844.181 601.864C851.173 603.235 858.034 606.172 863.117 611.272C866.969 615.136 870.084 620.369 871.932 625.478C872.489 634.835 872.513 644.2 872.498 653.571L802.57 653.382C793.653 653.343 779.185 652.191 770.926 653.68C766.76 651.911 762.493 648.931 758.514 646.717L756.103 645.7C756.077 631.093 755.804 616.434 756.196 601.833Z"/>
	<path fill="white" d="M756.196 601.833C756.391 601.088 756.201 601.515 757.041 600.716L758.532 600.928C758.529 616.186 758.673 631.46 758.514 646.717L756.103 645.7C756.077 631.093 755.804 616.434 756.196 601.833Z"/>
	<path fill="white" d="M280.992 600.359C282.111 600.055 281.923 599.887 283.044 600.46L283.024 652.964L324.592 652.901C331.44 652.891 338.696 652.381 345.493 652.983C344.243 653.849 343.117 654.607 341.688 655.166C322.602 669.074 305.138 683.337 293.627 704.47C290.514 710.186 286.457 721.86 283.396 726.237C282.937 730.023 282.575 733.85 281.97 737.615L163.091 737.83C163.11 745.229 164.356 781.958 162.228 785.968L161.641 785.674C159.783 779.228 160.944 746.22 160.951 737.699C154.979 737.091 125.194 738.536 122.26 736.89L122.489 735.586C124.998 730.792 126.12 723.911 127.712 718.688C129.672 712.259 146.548 656.022 147.886 654.974L148.079 653.009L160.908 652.932L160.914 647.01C161.312 642.264 160.209 617.481 161.28 615.604C161.53 615.166 161.964 614.864 162.306 614.494C162.883 613.669 163.495 612.883 164.138 612.108Q164.934 611.152 165.804 610.261Q166.673 609.371 167.611 608.553Q168.548 607.734 169.548 606.993Q170.547 606.251 171.602 605.591Q172.657 604.931 173.761 604.357Q174.865 603.783 176.011 603.298Q177.157 602.813 178.338 602.42Q179.519 602.028 180.727 601.73C188.752 599.73 198.502 600.955 206.782 600.951L256.129 600.751C264.14 600.692 272.561 601.178 280.513 600.409L280.992 600.359Z"/>
	<path fill="#C5315F" d="M283.024 655.054L341.688 655.166C322.602 669.074 305.138 683.337 293.627 704.47C290.514 710.186 286.457 721.86 283.396 726.237C282.386 718.522 283.139 709.826 283.137 702.022L283.024 655.054Z"/>
	<path fill="#C5315F" d="M122.489 735.586C124.998 730.792 126.12 723.911 127.712 718.688C129.672 712.259 146.548 656.022 147.886 654.974Q154.404 655.07 160.922 655.054L160.964 735.488C148.176 735.465 135.261 735.085 122.489 735.586Z"/>
	<path fill="#C5315F" d="M162.306 614.494C162.883 613.669 163.495 612.883 164.138 612.108Q164.934 611.152 165.804 610.261Q166.673 609.371 167.611 608.553Q168.548 607.734 169.548 606.993Q170.547 606.251 171.602 605.591Q172.657 604.931 173.761 604.357Q174.865 603.783 176.011 603.298Q177.157 602.813 178.338 602.42Q179.519 602.028 180.727 601.73C188.752 599.73 198.502 600.955 206.782 600.951L256.129 600.751C264.14 600.692 272.561 601.178 280.513 600.409L280.992 600.359L280.98 652.93L163.029 652.866C163.055 645.962 164.23 619.309 162.306 614.494Z"/>
	<path fill="#C5315F" d="M163.044 655.004L280.943 655.035L280.949 706.89C280.934 716.309 281.248 725.859 280.73 735.254Q221.922 734.927 163.114 735.442L163.044 655.004Z"/>
	<path fill="#3B2B43" d="M205.277 344.288C205.214 337.595 203.917 286.884 205.843 283.386L206.825 282.892C207.844 283.245 208.115 283.263 208.65 284.273C209.339 285.574 209.446 287.178 209.533 288.619C210.144 298.728 209.444 309.262 209.48 319.427L209.459 404.389C212.993 400.214 228.612 380.884 232.742 379.591C233.884 380.204 233.98 380.244 234.561 381.393C231.224 388.462 215.422 403.166 209.535 411.354C209.497 441.076 210.084 470.918 209.47 500.626C214.296 499.823 219.181 499.463 224.008 498.599C239.225 495.877 252.017 489.858 264.777 481.356C268.118 476.981 273.684 473.513 277.585 469.455C291.277 455.208 296.983 438.852 301.281 420.157L301.659 416.906C301.589 397.268 299.686 383.42 291.43 365.198C306.117 357.79 322.136 355.339 337.987 360.603Q339.336 361.055 340.661 361.573Q341.987 362.091 343.285 362.674Q344.583 363.257 345.851 363.903Q347.119 364.549 348.353 365.257Q349.587 365.964 350.785 366.732Q351.983 367.5 353.142 368.326Q354.3 369.152 355.417 370.034Q356.533 370.917 357.605 371.853Q358.676 372.789 359.7 373.777Q360.724 374.765 361.698 375.802Q362.673 376.839 363.594 377.923Q364.516 379.007 365.383 380.136Q366.25 381.264 367.061 382.433Q367.871 383.603 368.623 384.811Q369.375 386.019 370.066 387.263Q370.757 388.507 371.386 389.783C378.188 403.623 379.993 419.109 374.855 433.82C373.925 436.483 372.713 438.975 371.435 441.484C381.229 455.011 384.902 470.267 382.28 486.751C380.929 495.247 377.997 502.099 373.547 509.413C370.965 512.457 368.543 515.849 365.703 518.653Q364.766 519.591 363.789 520.487Q362.812 521.384 361.797 522.236Q360.781 523.088 359.73 523.895Q358.678 524.702 357.591 525.462Q356.505 526.222 355.386 526.934Q354.268 527.645 353.119 528.307Q351.97 528.969 350.793 529.579Q349.617 530.19 348.414 530.748Q347.212 531.307 345.986 531.812Q344.76 532.317 343.513 532.768Q342.266 533.218 341.001 533.614Q339.736 534.009 338.454 534.349Q337.173 534.688 335.877 534.971Q334.582 535.254 333.276 535.48Q331.969 535.705 330.654 535.874Q329.339 536.042 328.018 536.152Q324.65 536.398 321.277 536.558C321.179 538.674 321.267 540.829 321.272 542.949L783 543.473L782.974 520.553C782.926 499.139 783.192 477.653 782.721 456.246C778.985 452.673 755.63 430.311 754.734 427.779C754.6 427.401 754.657 426.982 754.619 426.583C755.327 425.631 755.34 425.541 756.465 425.207C760.564 427.074 777.693 446.101 782.683 450.995Q782.848 406.351 782.555 361.708Q775.644 354.484 768.546 347.444C765.236 344.162 761.417 340.892 758.61 337.195C757.853 336.199 757.275 335.381 757.319 334.068C757.326 333.853 757.371 333.64 757.397 333.426L758.182 332.908C762.357 333.864 779.115 352.154 782.932 356.264C782.931 347.325 781.69 304.609 784.113 299.349L784.873 298.848C786.53 300.179 786.818 302.088 787.008 304.141C787.362 307.963 786.968 312.059 786.952 315.911L786.929 340.58C786.947 366.617 787.222 392.683 786.873 418.717C790.871 414.634 805.883 397.788 809.283 396.267L810.095 396.298C810.728 397.137 810.646 397.527 810.485 398.589C809.962 402.044 790.676 420.308 786.646 423.806L786.796 520.593L786.823 543.457L890.051 543.461L890.075 470.748C886.629 467.392 872.732 454.898 871.869 451.198L872.424 450.343L873.638 450.211C878.969 452.359 885.881 461.146 890.207 465.413C890.988 447.171 890.303 428.626 890.245 410.354C888.195 408.321 874.75 394.676 874.2 393.107C873.785 391.924 873.721 391.394 874.233 390.259L875.152 390.157C879.765 391.856 886.468 400.737 890.357 404.596C890.387 398.988 889.048 369.385 891.499 366.58C892.785 366.483 892.666 366.643 893.671 367.325C895.013 370.171 894.09 435.444 894.102 444.798C897.466 441.157 906.065 430.83 909.72 428.668C910.893 427.974 911.384 428.153 912.661 428.332L913.138 429.178C912.367 433.491 898.296 446.095 894.485 449.972L894.022 543.182L923.207 543.028C928.875 542.969 934.928 542.419 940.544 543.104C942.466 543.338 943.963 543.73 945.615 544.736L945.853 545.718C944.327 547.043 941.451 547.308 939.499 547.382C931.399 547.688 923.173 547.395 915.061 547.4L866.64 547.398L720.099 547.248L328.683 547.003L167.669 546.986Q126.017 546.816 84.3646 547.065C81.6109 547.101 77.3664 547.51 75.2884 545.478C75.2148 544.125 75.5173 544.096 76.2583 543.026C79.4034 541.926 104.498 542.678 109.884 542.675L205.132 542.637C205.354 528.592 205.021 514.531 205.19 500.48Q205.336 470.563 205.016 440.648L204.627 440.051C198.914 431.407 180.929 414.666 177.843 407.139L178.098 406.311C178.818 405.943 179.109 405.575 179.949 405.792C183.5 406.71 201.631 429.346 205.029 433.551Q205.369 391.847 205.104 350.142C200.68 345.233 184.498 328.486 184.395 323.021L185.05 322.506C190.03 324.096 201.76 339.561 205.277 344.288Z"/>
	<path fill="#C5315F" d="M301.281 420.157C304.633 424.678 312.512 433.493 316.571 437.285Q316.528 465.445 317.107 493.599C314.031 489.646 305.942 478.648 301.754 476.772L300.695 476.988C300.185 478.527 300.241 479.661 301.035 481.111C302.878 484.472 313.418 496.071 316.593 499.461L316.815 529.054C316.86 533.424 317.497 538.743 316.75 542.999C316.722 541.829 316.721 540.638 316.61 539.474C316.573 539.094 316.381 537.583 316.204 537.311C315.72 536.566 311.998 535.806 311.169 535.574C302.041 533.027 294.039 529.356 286.576 523.418C272.784 512.443 266.669 498.504 264.777 481.356C268.118 476.981 273.684 473.513 277.585 469.455C291.277 455.208 296.983 438.852 301.281 420.157Z"/>
	<path fill="#FF9C9C" d="M209.47 500.626C214.296 499.823 219.181 499.463 224.008 498.599C239.225 495.877 252.017 489.858 264.777 481.356C266.669 498.504 272.784 512.443 286.576 523.418C294.039 529.356 302.041 533.027 311.169 535.574C311.998 535.806 315.72 536.566 316.204 537.311C316.381 537.583 316.573 539.094 316.61 539.474C316.721 540.638 316.722 541.829 316.75 542.999Q263.102 542.363 209.451 542.587L209.47 500.626Z"/>
	<path fill="#C5315F" d="M291.43 365.198C306.117 357.79 322.136 355.339 337.987 360.603Q339.336 361.055 340.661 361.573Q341.987 362.091 343.285 362.674Q344.583 363.257 345.851 363.903Q347.119 364.549 348.353 365.257Q349.587 365.964 350.785 366.732Q351.983 367.5 353.142 368.326Q354.3 369.152 355.417 370.034Q356.533 370.917 357.605 371.853Q358.676 372.789 359.7 373.777Q360.724 374.765 361.698 375.802Q362.673 376.839 363.594 377.923Q364.516 379.007 365.383 380.136Q366.25 381.264 367.061 382.433Q367.871 383.603 368.623 384.811Q369.375 386.019 370.066 387.263Q370.757 388.507 371.386 389.783C378.188 403.623 379.993 419.109 374.855 433.82C373.925 436.483 372.713 438.975 371.435 441.484C381.229 455.011 384.902 470.267 382.28 486.751C380.929 495.247 377.997 502.099 373.547 509.413C370.965 512.457 368.543 515.849 365.703 518.653Q364.766 519.591 363.789 520.487Q362.812 521.384 361.797 522.236Q360.781 523.088 359.73 523.895Q358.678 524.702 357.591 525.462Q356.505 526.222 355.386 526.934Q354.268 527.645 353.119 528.307Q351.97 528.969 350.793 529.579Q349.617 530.19 348.414 530.748Q347.212 531.307 345.986 531.812Q344.76 532.317 343.513 532.768Q342.266 533.218 341.001 533.614Q339.736 534.009 338.454 534.349Q337.173 534.688 335.877 534.971Q334.582 535.254 333.276 535.48Q331.969 535.705 330.654 535.874Q329.339 536.042 328.018 536.152Q324.65 536.398 321.277 536.558C321.46 517.071 321.063 497.554 321.029 478.063C325.125 472.338 334.768 463.332 337.367 458.105C338.061 456.71 338.019 456.593 337.567 455.178C337.383 455.185 337.196 455.172 337.013 455.198C332.249 455.891 324.272 466.957 320.938 470.774C321.029 460.629 322.231 398.937 320.401 394.242C319.387 393.362 319.455 393.397 318.111 393.444C315.584 396.372 317.06 426.637 317.108 432.106C312.952 427.776 307.518 418.333 301.659 416.906C301.589 397.268 299.686 383.42 291.43 365.198Z"/>
	<path fill="#FF9C9C" d="M373.547 509.413C373.872 509.416 374.197 509.441 374.522 509.422C385.745 508.755 392.687 496.844 398.864 489.09Q402.731 484.299 407.137 479.999C424.434 463.13 445.655 455.434 467.893 467.675C478.83 473.696 488.998 483.079 502.28 482.932C525.865 482.67 540.439 448.766 554.872 433.828C573.994 414.038 595.509 414.87 619.615 425.364C629.783 429.791 639.247 435.912 650.787 435.525C661.455 435.168 670.85 428.206 677.959 420.792C677.859 446.89 685.222 470.822 703.912 489.785C726.74 512.947 751.616 519.545 782.974 520.553L783 543.473L321.272 542.949C321.267 540.829 321.179 538.674 321.277 536.558Q324.65 536.398 328.018 536.152Q329.339 536.042 330.654 535.874Q331.969 535.705 333.276 535.48Q334.582 535.254 335.877 534.971Q337.173 534.688 338.454 534.349Q339.736 534.009 341.001 533.614Q342.266 533.218 343.513 532.767Q344.76 532.317 345.986 531.812Q347.212 531.307 348.414 530.748Q349.617 530.19 350.793 529.579Q351.97 528.969 353.119 528.307Q354.268 527.645 355.386 526.934Q356.505 526.222 357.591 525.462Q358.678 524.702 359.729 523.895Q360.781 523.088 361.797 522.236Q362.812 521.384 363.789 520.487Q364.766 519.591 365.703 518.653C368.543 515.849 370.965 512.457 373.547 509.413Z"/>
	<path fill="#E27479" d="M692.938 370.148C685.83 355.392 682.678 336.858 684.417 320.593C687.187 294.699 699.612 270.3 720.101 253.953C741.341 237.006 766.589 230.853 793.418 234.048C822.888 237.556 846.723 255.304 864.728 278.056C872.914 290.702 878.576 303.862 883.834 317.923Q882.255 318.035 880.683 318.225Q879.111 318.415 877.551 318.683Q875.99 318.95 874.445 319.295Q872.9 319.639 871.374 320.06Q869.847 320.481 868.344 320.976Q866.84 321.472 865.363 322.041Q863.886 322.61 862.438 323.252Q860.991 323.894 859.578 324.607Q858.164 325.319 856.787 326.101Q855.41 326.882 854.074 327.731Q852.737 328.58 851.445 329.494Q850.152 330.408 848.906 331.385Q847.66 332.362 846.464 333.399Q845.268 334.436 844.125 335.531Q842.982 336.626 841.894 337.777Q840.806 338.927 839.777 340.13C828.249 353.399 822.143 369.624 823.394 387.247C824.171 398.188 827.596 410.033 834.96 418.443Q834.026 419.477 833.143 420.554Q832.261 421.632 831.431 422.751Q830.602 423.871 829.828 425.029Q829.054 426.187 828.337 427.382Q827.62 428.576 826.963 429.804Q826.305 431.032 825.708 432.291Q825.11 433.549 824.575 434.835Q824.039 436.121 823.567 437.432Q823.094 438.742 822.686 440.074Q822.278 441.406 821.935 442.757Q821.592 444.107 821.315 445.472Q821.038 446.837 820.827 448.214Q820.617 449.592 820.474 450.977Q820.331 452.363 820.255 453.754Q820.179 455.145 820.171 456.538Q820.163 457.931 820.223 459.323C820.961 475.635 829.294 490.125 841.28 500.874Q843.415 502.764 845.634 504.555C826.365 516.867 809.441 520.309 786.796 520.593L786.646 423.806C790.676 420.308 809.962 402.044 810.485 398.589C810.646 397.527 810.728 397.137 810.095 396.298L809.283 396.267C805.883 397.788 790.871 414.634 786.873 418.717C787.222 392.683 786.947 366.617 786.929 340.58L786.952 315.911C786.968 312.059 787.362 307.963 787.008 304.141C786.818 302.088 786.53 300.179 784.873 298.848L784.113 299.349C781.69 304.609 782.931 347.325 782.932 356.264C779.115 352.154 762.357 333.864 758.182 332.908L757.397 333.426C757.371 333.64 757.326 333.853 757.319 334.068C757.275 335.381 757.853 336.199 758.61 337.195C761.417 340.892 765.236 344.162 768.546 347.444Q775.644 354.484 782.555 361.708Q782.848 406.351 782.683 450.995C777.693 446.101 760.564 427.074 756.465 425.207C755.34 425.541 755.327 425.631 754.619 426.583C754.657 426.982 754.6 427.401 754.734 427.779C755.63 430.311 778.985 452.673 782.721 456.246C783.192 477.653 782.926 499.139 782.974 520.553C751.616 519.545 726.74 512.947 703.912 489.785C685.222 470.822 677.859 446.89 677.959 420.792C678.188 403.734 684.518 384.811 692.938 370.148Z"/>
	<path fill="#E27479" d="M187.898 230.307Q188.983 230.11 190.072 229.939Q191.162 229.768 192.255 229.623Q193.348 229.478 194.445 229.359Q195.541 229.241 196.64 229.148Q197.739 229.056 198.84 228.99Q199.941 228.924 201.043 228.885Q202.145 228.845 203.248 228.832Q204.351 228.819 205.453 228.833Q206.556 228.846 207.658 228.886Q208.76 228.926 209.861 228.993Q210.962 229.059 212.061 229.152Q213.16 229.245 214.256 229.364Q215.352 229.483 216.446 229.629Q217.539 229.774 218.628 229.946Q219.718 230.117 220.803 230.315Q221.887 230.513 222.967 230.737Q224.047 230.96 225.121 231.21Q226.196 231.459 227.264 231.735Q228.331 232.01 229.392 232.311Q230.453 232.612 231.507 232.938Q232.56 233.264 233.606 233.616Q234.651 233.967 235.688 234.343Q236.724 234.72 237.752 235.121Q238.779 235.522 239.796 235.948Q240.813 236.373 241.82 236.823Q242.827 237.273 243.823 237.748Q244.819 238.222 245.803 238.719Q246.787 239.217 247.759 239.738Q248.73 240.26 249.689 240.804Q250.649 241.349 251.594 241.916Q252.54 242.483 253.472 243.073Q254.404 243.663 255.321 244.275C274.863 257.586 289.66 278.039 293.994 301.47C297.598 320.955 295.176 339.489 286.728 357.352C288.253 359.93 289.681 362.779 291.43 365.198C299.686 383.42 301.589 397.268 301.659 416.906L301.281 420.157C296.983 438.852 291.277 455.208 277.585 469.455C273.684 473.513 268.118 476.981 264.777 481.356C252.017 489.858 239.225 495.877 224.008 498.599C219.181 499.463 214.296 499.823 209.47 500.626C210.084 470.918 209.497 441.076 209.535 411.354C215.422 403.166 231.224 388.462 234.561 381.393C233.98 380.244 233.884 380.204 232.742 379.591C228.612 380.884 212.993 400.214 209.459 404.389L209.48 319.427C209.444 309.262 210.144 298.728 209.533 288.619C209.446 287.178 209.339 285.574 208.65 284.273C208.115 283.263 207.844 283.245 206.825 282.892L205.843 283.386C203.917 286.884 205.214 337.595 205.277 344.288C201.76 339.561 190.03 324.096 185.05 322.506L184.395 323.021C184.498 328.486 200.68 345.233 205.104 350.142Q205.369 391.847 205.029 433.551C201.631 429.346 183.5 406.71 179.949 405.792C179.109 405.575 178.818 405.943 178.098 406.311L177.843 407.139C180.929 414.666 198.914 431.407 204.627 440.051L205.016 440.648Q205.336 470.563 205.19 500.48Q202.549 500.518 199.91 500.414Q197.271 500.309 194.642 500.061Q192.013 499.814 189.401 499.425Q186.788 499.035 184.201 498.505Q181.614 497.975 179.059 497.306Q176.504 496.637 173.99 495.83Q171.475 495.024 169.007 494.082Q166.54 493.141 164.127 492.067C139.022 481.159 121.972 461.848 112.095 436.705C110.818 433.624 109.968 430.286 109.309 427.022C105.859 409.929 107.774 390.244 115.461 374.5C118.475 368.326 122.488 362.687 126.311 356.997C123.074 350.341 120.072 343.588 118.213 336.401C112.581 314.628 116.583 291.082 128.113 271.934C141.607 249.523 163.005 236.499 187.898 230.307Z"/>
</svg>
